G04 DipTrace 3.0.0.1*
G04 Bottom.gbr*
%MOIN*%
G04 #@! TF.FileFunction,Copper,L2,Bot*
G04 #@! TF.Part,Single*
G04 #@! TA.AperFunction,Conductor*
%ADD13C,0.01*%
G04 #@! TA.AperFunction,CopperBalancing*
%ADD14C,0.025*%
G04 #@! TA.AperFunction,ComponentPad*
%ADD15R,0.066929X0.066929*%
%ADD16C,0.066929*%
%ADD23R,0.066535X0.066535*%
%ADD24C,0.066535*%
%ADD25C,0.187402*%
G04 #@! TA.AperFunction,ViaPad*
%ADD33C,0.04*%
%FSLAX26Y26*%
G04*
G70*
G90*
G75*
G01*
G04 Bottom*
%LPD*%
X814445Y852870D2*
D13*
Y519008D1*
X881374Y469008D2*
X795640D1*
X775640Y489009D1*
Y1246625D1*
X1712888Y1937912D2*
X1799909Y2024933D1*
X1968815D1*
X2024720Y1969028D1*
Y1902136D1*
X1289106Y1047504D2*
Y1005787D1*
X1262539Y979220D1*
Y835913D1*
X1374110Y724343D1*
X1968815Y2024933D2*
Y2230483D1*
X775640Y1246625D2*
Y1902136D1*
Y2230483D1*
X1897591Y1012815D2*
Y608465D1*
X1846972Y557846D1*
X1968815Y1246625D2*
Y1084039D1*
X1897591Y1012815D1*
X2024720Y1902136D2*
X1973819Y1851235D1*
Y1574972D1*
X1968815Y1569969D1*
Y1246625D1*
X719735Y1902136D2*
X775640D1*
X1374110Y724343D2*
X1547890Y898123D1*
Y1102500D1*
X2024720Y1574971D2*
X1973819Y1574972D1*
X1094073Y1419108D2*
X1024071Y1349105D1*
Y906925D1*
X1612888Y1937912D2*
X1394136Y2156664D1*
X1169081D1*
X1194073Y1519108D2*
X1142539Y1467573D1*
Y960142D1*
X1160756Y941925D1*
X1069081Y1956664D2*
X1194073Y1831672D1*
Y1519108D1*
X1169081Y2156664D2*
X1100615Y2225130D1*
X1025610D1*
X1005610Y2205130D1*
Y2020135D1*
X1069081Y1956664D1*
X1312888Y1937912D2*
X1312890Y1151138D1*
X1304102Y908701D2*
X1492886D1*
X1512888Y928703D1*
Y1937912D1*
X1354102Y943701D2*
X1412888Y1002487D1*
Y1937912D1*
X1536614Y679882D2*
X1602890Y746157D1*
Y893705D1*
X1582890Y1290020D2*
Y1046772D1*
X1567890Y1031772D1*
Y809413D1*
X1556941Y798465D1*
X1696354Y659343D2*
Y1290020D1*
X1169081Y1956664D2*
X1117547Y2008198D1*
Y2108198D1*
X1069081Y2156664D1*
X1238236Y614343D2*
X1242539Y618646D1*
Y1883206D1*
X1169081Y1956664D1*
X1175756Y664339D2*
Y767976D1*
X1155755Y787978D1*
X979343D1*
X959343Y807978D1*
Y1719812D1*
X831546Y1847609D1*
X1140756Y715512D2*
X959343D1*
X939343Y735512D1*
Y1630757D1*
X831546Y1738554D1*
X648394Y724917D2*
Y1612685D1*
X719735Y1684026D1*
X904343Y750508D2*
Y1556702D1*
X831546Y1629499D1*
X1354110Y538744D2*
X869445D1*
X849445Y558744D1*
Y984559D1*
X884343Y1019457D1*
Y1467647D1*
X831546Y1520444D1*
X989886Y573744D2*
X1641354D1*
X1661354Y593744D1*
Y1486999D1*
X1912909Y1738554D1*
X1140756Y483744D2*
X1771972D1*
X1791972Y503744D1*
Y1508562D1*
X1912909Y1629499D1*
D33*
X814445Y519008D3*
Y852870D3*
X1547890Y1102500D3*
X1374110Y724343D3*
X881374Y469008D3*
X1289106Y1047504D3*
X1846972Y557846D3*
X1897591Y1012815D3*
X1024071Y906925D3*
X1160756Y941925D3*
X1312890Y1151138D3*
X1304102Y908701D3*
X1354102Y943701D3*
X1602890Y893705D3*
X1536614Y679882D3*
X1556941Y798465D3*
X1582890Y1290020D3*
X1696354D3*
Y659343D3*
X1238236Y614343D3*
X1175756Y664339D3*
X1140756Y715512D3*
X648394Y724917D3*
X904343Y750508D3*
X1354110Y538744D3*
X989886Y573744D3*
X1140756Y483744D3*
X435025Y2290631D2*
D14*
X669087D1*
X882193D2*
X1862251D1*
X2075406D2*
X2312983D1*
X435025Y2265762D2*
X658247D1*
X893033D2*
X1851411D1*
X2086245D2*
X2312983D1*
X435025Y2240894D2*
X653413D1*
X897866D2*
X994331D1*
X1131899D2*
X1846577D1*
X2091079D2*
X2312983D1*
X435025Y2216025D2*
X653803D1*
X897475D2*
X973530D1*
X1180085D2*
X1846967D1*
X2090639D2*
X2312983D1*
X435025Y2191156D2*
X659566D1*
X891714D2*
X971626D1*
X1220621D2*
X1852730D1*
X2084878D2*
X2312983D1*
X435025Y2166287D2*
X671529D1*
X879751D2*
X971626D1*
X1431558D2*
X1864693D1*
X2072915D2*
X2312983D1*
X435025Y2141419D2*
X692427D1*
X858853D2*
X971626D1*
X1456411D2*
X1885591D1*
X2052017D2*
X2312983D1*
X435025Y2116550D2*
X734810D1*
X816470D2*
X971626D1*
X1216177D2*
X1387202D1*
X1481314D2*
X1928022D1*
X2009634D2*
X2312983D1*
X435025Y2091681D2*
X741646D1*
X809634D2*
X971626D1*
X1220278D2*
X1412055D1*
X1506167D2*
X1934810D1*
X2002798D2*
X2312983D1*
X435025Y2066812D2*
X741646D1*
X809634D2*
X971626D1*
X1230678D2*
X1436958D1*
X1531021D2*
X1934810D1*
X2002798D2*
X2312983D1*
X435025Y2041944D2*
X741646D1*
X809634D2*
X971626D1*
X1229702D2*
X1461811D1*
X1555923D2*
X1769869D1*
X2002798D2*
X2312983D1*
X435025Y2017075D2*
X741646D1*
X809634D2*
X971773D1*
X1216617D2*
X1486665D1*
X1580777D2*
X1745014D1*
X2023745D2*
X2312983D1*
X435025Y1992206D2*
X741646D1*
X893814D2*
X986470D1*
X1231558D2*
X1284955D1*
X1340835D2*
X1384955D1*
X1440835D2*
X1484955D1*
X1640835D2*
X1650396D1*
X1814223D2*
X1850630D1*
X2048598D2*
X2312983D1*
X435025Y1967337D2*
X741646D1*
X893814D2*
X1007563D1*
X1231558D2*
X1258150D1*
X1789370D2*
X1850630D1*
X2058706D2*
X2312983D1*
X435025Y1942469D2*
X673139D1*
X893814D2*
X1008345D1*
X1231558D2*
X1250581D1*
X1775357D2*
X1850630D1*
X2071353D2*
X2312983D1*
X435025Y1917600D2*
X659517D1*
X893814D2*
X1021089D1*
X1775357D2*
X1850630D1*
X2084975D2*
X2312983D1*
X435025Y1892731D2*
X658198D1*
X873257D2*
X1085982D1*
X1354799D2*
X1370942D1*
X1454799D2*
X1470942D1*
X1554799D2*
X1570942D1*
X1775357D2*
X1871235D1*
X2086245D2*
X2312983D1*
X435025Y1867862D2*
X668257D1*
X890298D2*
X1110835D1*
X1346890D2*
X1378902D1*
X1446890D2*
X1478902D1*
X1546890D2*
X1854194D1*
X2076186D2*
X2312983D1*
X435025Y1842993D2*
X684370D1*
X893618D2*
X1135689D1*
X1346890D2*
X1378902D1*
X1446890D2*
X1478902D1*
X1546890D2*
X1850825D1*
X2060122D2*
X2312983D1*
X435025Y1818125D2*
X662983D1*
X908071D2*
X1160054D1*
X1346890D2*
X1378902D1*
X1446890D2*
X1478902D1*
X1546890D2*
X1858442D1*
X2081509D2*
X2312983D1*
X435025Y1793256D2*
X657466D1*
X932925D2*
X1160054D1*
X1346890D2*
X1378902D1*
X1446890D2*
X1478902D1*
X1546890D2*
X1885542D1*
X2086978D2*
X2312983D1*
X435025Y1768387D2*
X662789D1*
X957827D2*
X1160054D1*
X1346890D2*
X1378902D1*
X1446890D2*
X1478902D1*
X1546890D2*
X1858638D1*
X2081655D2*
X2312983D1*
X435025Y1743518D2*
X683833D1*
X982681D2*
X1160054D1*
X1346890D2*
X1378902D1*
X1446890D2*
X1478902D1*
X1546890D2*
X1850825D1*
X2060610D2*
X2312983D1*
X435025Y1718650D2*
X668501D1*
X898501D2*
X913423D1*
X993325D2*
X1160054D1*
X1346890D2*
X1378902D1*
X1446890D2*
X1478902D1*
X1546890D2*
X1845942D1*
X2075942D2*
X2312983D1*
X435025Y1693781D2*
X658247D1*
X993325D2*
X1160054D1*
X1346890D2*
X1378902D1*
X1446890D2*
X1478902D1*
X1546890D2*
X1821089D1*
X2086197D2*
X2312983D1*
X435025Y1668912D2*
X657563D1*
X993325D2*
X1160054D1*
X1346890D2*
X1378902D1*
X1446890D2*
X1478902D1*
X1546890D2*
X1796235D1*
X2085025D2*
X2312983D1*
X435025Y1644043D2*
X632710D1*
X993325D2*
X1160054D1*
X1346890D2*
X1378902D1*
X1446890D2*
X1478902D1*
X1546890D2*
X1771333D1*
X2071646D2*
X2312983D1*
X435025Y1619175D2*
X615083D1*
X993325D2*
X1160054D1*
X1346890D2*
X1378902D1*
X1446890D2*
X1478902D1*
X1546890D2*
X1746479D1*
X1840591D2*
X1851550D1*
X2067446D2*
X2312983D1*
X435025Y1594306D2*
X614399D1*
X993325D2*
X1160054D1*
X1346890D2*
X1378902D1*
X1446890D2*
X1478902D1*
X1546890D2*
X1721626D1*
X1815689D2*
X1830659D1*
X2083755D2*
X2312983D1*
X435025Y1569437D2*
X614399D1*
X993325D2*
X1058979D1*
X1129165D2*
X1158979D1*
X1346890D2*
X1378902D1*
X1446890D2*
X1478902D1*
X1546890D2*
X1696723D1*
X1790835D2*
X1805806D1*
X2086734D2*
X2312983D1*
X435025Y1544568D2*
X614399D1*
X993325D2*
X1037299D1*
X1346890D2*
X1378902D1*
X1446890D2*
X1478902D1*
X1546890D2*
X1671870D1*
X1765982D2*
X1780953D1*
X2078677D2*
X2312983D1*
X435025Y1519699D2*
X614399D1*
X682387D2*
X694478D1*
X993325D2*
X1031635D1*
X1346890D2*
X1378902D1*
X1446890D2*
X1478902D1*
X1546890D2*
X1647017D1*
X1741079D2*
X1760005D1*
X2049966D2*
X2312983D1*
X435025Y1494831D2*
X614399D1*
X682387D2*
X741646D1*
X993325D2*
X1036762D1*
X1346890D2*
X1378902D1*
X1446890D2*
X1478902D1*
X1546890D2*
X1628365D1*
X1716226D2*
X1757954D1*
X1825991D2*
X1856391D1*
X2002798D2*
X2312983D1*
X435025Y1469962D2*
X614399D1*
X682387D2*
X741646D1*
X993325D2*
X1031587D1*
X1346890D2*
X1378902D1*
X1446890D2*
X1478902D1*
X1546890D2*
X1627339D1*
X1695375D2*
X1757954D1*
X1825991D2*
X1878413D1*
X2002798D2*
X2312983D1*
X435025Y1445093D2*
X614399D1*
X682387D2*
X741646D1*
X809634D2*
X850337D1*
X993325D2*
X1031587D1*
X1346890D2*
X1378902D1*
X1446890D2*
X1478902D1*
X1546890D2*
X1627339D1*
X1695375D2*
X1757954D1*
X1825991D2*
X1934810D1*
X2002798D2*
X2312983D1*
X435025Y1420224D2*
X614399D1*
X682387D2*
X741646D1*
X809634D2*
X850337D1*
X993325D2*
X1031587D1*
X1346890D2*
X1378902D1*
X1446890D2*
X1478902D1*
X1546890D2*
X1627339D1*
X1695375D2*
X1757954D1*
X1825991D2*
X1934810D1*
X2002798D2*
X2312983D1*
X435025Y1395356D2*
X614399D1*
X682387D2*
X741646D1*
X809634D2*
X850337D1*
X993325D2*
X1023286D1*
X1346890D2*
X1378902D1*
X1446890D2*
X1478902D1*
X1546890D2*
X1627339D1*
X1695375D2*
X1757954D1*
X1825991D2*
X1934810D1*
X2002798D2*
X2312983D1*
X435025Y1370487D2*
X614399D1*
X682387D2*
X741646D1*
X809634D2*
X850337D1*
X1346890D2*
X1378902D1*
X1446890D2*
X1478902D1*
X1546890D2*
X1627339D1*
X1695375D2*
X1757954D1*
X1825991D2*
X1934810D1*
X2002798D2*
X2312983D1*
X435025Y1345618D2*
X614399D1*
X682387D2*
X704975D1*
X1067642D2*
X1108539D1*
X1176529D2*
X1208539D1*
X1346890D2*
X1378902D1*
X1446890D2*
X1478902D1*
X1546890D2*
X1627339D1*
X1695375D2*
X1757954D1*
X1825991D2*
X1898139D1*
X2039517D2*
X2312983D1*
X435025Y1320749D2*
X614399D1*
X1058071D2*
X1108539D1*
X1176529D2*
X1208539D1*
X1346890D2*
X1378902D1*
X1446890D2*
X1478902D1*
X1733755D2*
X1757954D1*
X1825991D2*
X1871675D1*
X2065933D2*
X2312983D1*
X435025Y1295881D2*
X614399D1*
X1058071D2*
X1108539D1*
X1176529D2*
X1208539D1*
X1346890D2*
X1378902D1*
X1446890D2*
X1478902D1*
X1744986D2*
X1757954D1*
X1825991D2*
X1856685D1*
X2080971D2*
X2312983D1*
X435025Y1271012D2*
X614399D1*
X1058071D2*
X1108539D1*
X1176529D2*
X1208539D1*
X1346890D2*
X1378902D1*
X1446890D2*
X1478902D1*
X1741274D2*
X1757954D1*
X1825991D2*
X1848627D1*
X2089029D2*
X2312983D1*
X435025Y1246143D2*
X614399D1*
X1058071D2*
X1108539D1*
X1176529D2*
X1208539D1*
X1346890D2*
X1378902D1*
X1446890D2*
X1478902D1*
X1616909D2*
X1627350D1*
X1730337D2*
X1757954D1*
X1825991D2*
X1846138D1*
X2091518D2*
X2312983D1*
X435025Y1221274D2*
X614399D1*
X1058071D2*
X1108539D1*
X1176529D2*
X1208539D1*
X1346890D2*
X1378902D1*
X1446890D2*
X1478902D1*
X1616909D2*
X1627350D1*
X1730337D2*
X1757954D1*
X1825991D2*
X1848823D1*
X2088833D2*
X2312983D1*
X435025Y1196406D2*
X614399D1*
X1058071D2*
X1108539D1*
X1176529D2*
X1208539D1*
X1346890D2*
X1378902D1*
X1446890D2*
X1478902D1*
X1616909D2*
X1627350D1*
X1730337D2*
X1757954D1*
X1825991D2*
X1857123D1*
X2080533D2*
X2312983D1*
X435025Y1171537D2*
X614399D1*
X1058071D2*
X1108539D1*
X1176529D2*
X1208539D1*
X1357193D2*
X1378902D1*
X1446890D2*
X1478902D1*
X1616909D2*
X1627350D1*
X1730337D2*
X1757954D1*
X1825991D2*
X1872455D1*
X2065201D2*
X2312983D1*
X435025Y1146668D2*
X614399D1*
X682387D2*
X706391D1*
X1058071D2*
X1108539D1*
X1176529D2*
X1208539D1*
X1361685D2*
X1378861D1*
X1446890D2*
X1478902D1*
X1616909D2*
X1627350D1*
X1730337D2*
X1757954D1*
X1825991D2*
X1899555D1*
X2038051D2*
X2312983D1*
X435025Y1121799D2*
X614399D1*
X682387D2*
X741646D1*
X809634D2*
X850337D1*
X1058071D2*
X1108539D1*
X1176529D2*
X1208539D1*
X1351479D2*
X1378902D1*
X1446890D2*
X1478902D1*
X1616909D2*
X1627350D1*
X1730337D2*
X1757954D1*
X1825991D2*
X1934810D1*
X2002798D2*
X2312983D1*
X435025Y1096930D2*
X614399D1*
X682387D2*
X741646D1*
X809634D2*
X850337D1*
X1058071D2*
X1108539D1*
X1176529D2*
X1208539D1*
X1276529D2*
X1378902D1*
X1446890D2*
X1478902D1*
X1616909D2*
X1627350D1*
X1730337D2*
X1757954D1*
X1825991D2*
X1934663D1*
X2002798D2*
X2312983D1*
X435025Y1072062D2*
X614399D1*
X682387D2*
X741646D1*
X809634D2*
X850337D1*
X1058071D2*
X1108539D1*
X1176529D2*
X1208539D1*
X1331070D2*
X1378902D1*
X1446890D2*
X1478902D1*
X1616909D2*
X1627350D1*
X1730337D2*
X1757954D1*
X1825991D2*
X1909810D1*
X2000454D2*
X2312983D1*
X435025Y1047193D2*
X614399D1*
X682387D2*
X741646D1*
X809634D2*
X850337D1*
X1058071D2*
X1108539D1*
X1176529D2*
X1208539D1*
X1338101D2*
X1378902D1*
X1446890D2*
X1478902D1*
X1616909D2*
X1627350D1*
X1730337D2*
X1757954D1*
X1825991D2*
X1863765D1*
X1979018D2*
X2312983D1*
X435025Y1022324D2*
X614399D1*
X682387D2*
X741646D1*
X809634D2*
X840181D1*
X1058071D2*
X1108539D1*
X1176529D2*
X1208539D1*
X1330678D2*
X1378902D1*
X1446890D2*
X1478902D1*
X1605483D2*
X1627339D1*
X1730337D2*
X1757954D1*
X1825991D2*
X1849555D1*
X1954165D2*
X2312983D1*
X435025Y997455D2*
X614399D1*
X682387D2*
X741646D1*
X809634D2*
X818207D1*
X1058071D2*
X1108539D1*
X1176529D2*
X1208539D1*
X1321987D2*
X1360786D1*
X1446499D2*
X1478902D1*
X1601870D2*
X1627339D1*
X1730337D2*
X1757954D1*
X1825991D2*
X1851215D1*
X1943959D2*
X2312983D1*
X435025Y972587D2*
X614399D1*
X682387D2*
X741646D1*
X1058071D2*
X1108539D1*
X1198207D2*
X1208533D1*
X1302945D2*
X1315171D1*
X1430043D2*
X1478902D1*
X1601870D2*
X1627339D1*
X1730337D2*
X1757954D1*
X1825991D2*
X1863570D1*
X1931606D2*
X2312983D1*
X435025Y947718D2*
X614399D1*
X682387D2*
X741646D1*
X1058071D2*
X1111079D1*
X1405190D2*
X1478902D1*
X1601870D2*
X1627339D1*
X1730337D2*
X1757954D1*
X1825991D2*
X1863570D1*
X1931606D2*
X2312983D1*
X435025Y922849D2*
X614399D1*
X682387D2*
X741646D1*
X1070278D2*
X1115865D1*
X1730337D2*
X1757954D1*
X1825991D2*
X1863570D1*
X1931606D2*
X2312983D1*
X435025Y897980D2*
X614399D1*
X682387D2*
X741646D1*
X1072182D2*
X1143062D1*
X1178482D2*
X1208539D1*
X1730337D2*
X1757954D1*
X1825991D2*
X1863570D1*
X1931606D2*
X2312983D1*
X435025Y873112D2*
X614399D1*
X682387D2*
X741646D1*
X1058510D2*
X1208539D1*
X1336538D2*
X1475825D1*
X1730337D2*
X1757954D1*
X1825991D2*
X1863570D1*
X1931606D2*
X2312983D1*
X435025Y848243D2*
X614399D1*
X682387D2*
X741646D1*
X993325D2*
X1208539D1*
X1297281D2*
X1450971D1*
X1730337D2*
X1757954D1*
X1825991D2*
X1863570D1*
X1931606D2*
X2312983D1*
X435025Y823374D2*
X614399D1*
X682387D2*
X741646D1*
X993325D2*
X1208539D1*
X1322134D2*
X1426070D1*
X1730337D2*
X1757954D1*
X1825991D2*
X1863570D1*
X1931606D2*
X2312983D1*
X435025Y798505D2*
X614399D1*
X682387D2*
X741646D1*
X1192251D2*
X1208539D1*
X1346987D2*
X1401215D1*
X1495327D2*
X1507954D1*
X1730337D2*
X1757954D1*
X1825991D2*
X1863570D1*
X1931606D2*
X2312983D1*
X435025Y773636D2*
X614399D1*
X682387D2*
X741646D1*
X1470474D2*
X1515131D1*
X1730337D2*
X1757954D1*
X1825991D2*
X1863570D1*
X1931606D2*
X2312983D1*
X435025Y748768D2*
X606001D1*
X690835D2*
X741646D1*
X973354D2*
X1105757D1*
X1276529D2*
X1302631D1*
X1445571D2*
X1558442D1*
X1730337D2*
X1757954D1*
X1825991D2*
X1863570D1*
X1931606D2*
X2312983D1*
X435025Y723899D2*
X599409D1*
X697378D2*
X741646D1*
X1276529D2*
X1325093D1*
X1423110D2*
X1519135D1*
X1730337D2*
X1757954D1*
X1825991D2*
X1863570D1*
X1931606D2*
X2312983D1*
X435025Y699030D2*
X607270D1*
X689517D2*
X741646D1*
X883462D2*
X928755D1*
X1276529D2*
X1332613D1*
X1415639D2*
X1491743D1*
X1602798D2*
X1627339D1*
X1730337D2*
X1757954D1*
X1825991D2*
X1863570D1*
X1931606D2*
X2312983D1*
X435025Y674161D2*
X741646D1*
X883462D2*
X1116987D1*
X1276529D2*
X1487983D1*
X1585269D2*
X1627339D1*
X1742934D2*
X1757954D1*
X1825991D2*
X1863570D1*
X1931606D2*
X2312983D1*
X435025Y649293D2*
X741646D1*
X883462D2*
X1129243D1*
X1276529D2*
X1499117D1*
X1574135D2*
X1627339D1*
X1744253D2*
X1757954D1*
X1825991D2*
X1863570D1*
X1931606D2*
X2312983D1*
X435025Y624424D2*
X741646D1*
X883462D2*
X1149409D1*
X1286147D2*
X1627339D1*
X1729555D2*
X1757954D1*
X1825991D2*
X1863570D1*
X1931606D2*
X2312983D1*
X435025Y599555D2*
X741646D1*
X883462D2*
X948726D1*
X1695375D2*
X1757954D1*
X1930289D2*
X2312983D1*
X435025Y574686D2*
X741646D1*
X883462D2*
X940913D1*
X1688930D2*
X1757954D1*
X1910854D2*
X2312983D1*
X435025Y549818D2*
X741646D1*
X1664322D2*
X1757954D1*
X1895278D2*
X2312983D1*
X435025Y524949D2*
X741646D1*
X1401039D2*
X1757954D1*
X1882339D2*
X2312983D1*
X435025Y500080D2*
X741646D1*
X918471D2*
X1094722D1*
X1825747D2*
X2312983D1*
X435025Y475211D2*
X744819D1*
X929946D2*
X1092525D1*
X1810463D2*
X2312983D1*
X435025Y450343D2*
X767281D1*
X926479D2*
X1105903D1*
X1175601D2*
X2312983D1*
X1213756Y2016629D2*
X1229046D1*
Y1941287D1*
X1259339Y1910955D1*
X1255858Y1919382D1*
X1253663Y1928531D1*
X1252924Y1937912D1*
X1253663Y1947293D1*
X1255858Y1956442D1*
X1259459Y1965135D1*
X1264377Y1973159D1*
X1270487Y1980314D1*
X1277642Y1986424D1*
X1285665Y1991341D1*
X1294358Y1994942D1*
X1303508Y1997138D1*
X1312888Y1997877D1*
X1322269Y1997138D1*
X1331419Y1994942D1*
X1340112Y1991341D1*
X1348135Y1986424D1*
X1355290Y1980314D1*
X1361400Y1973159D1*
X1362862Y1970971D1*
X1367291Y1976856D1*
X1373945Y1983509D1*
X1381556Y1989041D1*
X1389941Y1993312D1*
X1398890Y1996219D1*
X1408184Y1997692D1*
X1417593D1*
X1426887Y1996219D1*
X1435836Y1993312D1*
X1444220Y1989041D1*
X1451832Y1983509D1*
X1458486Y1976856D1*
X1462862Y1970971D1*
X1467291Y1976856D1*
X1473945Y1983509D1*
X1481556Y1989041D1*
X1489941Y1993312D1*
X1498890Y1996219D1*
X1508533Y1997706D1*
X1381072Y2125181D1*
X1220064Y2125164D1*
X1214678Y2117720D1*
X1208025Y2111067D1*
X1202140Y2106690D1*
X1208025Y2102261D1*
X1214678Y2095608D1*
X1220210Y2087996D1*
X1224482Y2079612D1*
X1227388Y2070663D1*
X1228861Y2061369D1*
Y2051959D1*
X1227388Y2042665D1*
X1224482Y2033717D1*
X1220210Y2025332D1*
X1214678Y2017720D1*
X1213668Y2016626D1*
X1082882Y1898316D2*
X1073786Y1896885D1*
X1064377D1*
X1055083Y1898357D1*
X1046134Y1901264D1*
X1037749Y1905535D1*
X1030138Y1911067D1*
X1023484Y1917720D1*
X1017953Y1925332D1*
X1013681Y1933717D1*
X1010774Y1942665D1*
X1009302Y1951959D1*
Y1961369D1*
X1010734Y1970465D1*
X981657Y1999677D1*
X977543Y2005835D1*
X974980Y2012782D1*
X974110Y2020135D1*
X974207Y2207601D1*
X975652Y2214864D1*
X978752Y2221589D1*
X983336Y2227404D1*
X1005152Y2249083D1*
X1011310Y2253197D1*
X1018256Y2255760D1*
X1025610Y2256630D1*
X1103087Y2256533D1*
X1110349Y2255088D1*
X1117073Y2251988D1*
X1122890Y2247404D1*
X1155310Y2214983D1*
X1164377Y2216444D1*
X1173786D1*
X1183080Y2214971D1*
X1192029Y2212064D1*
X1200413Y2207793D1*
X1208025Y2202261D1*
X1214678Y2195608D1*
X1220097Y2188164D1*
X1396608Y2188067D1*
X1403870Y2186622D1*
X1410596Y2183522D1*
X1416411Y2178938D1*
X1599091Y1996257D1*
X1608184Y1997692D1*
X1617593D1*
X1626887Y1996219D1*
X1635836Y1993312D1*
X1644220Y1989041D1*
X1651832Y1983509D1*
X1652927Y1982499D1*
X1652924Y1997877D1*
X1728266D1*
X1779451Y2048886D1*
X1785609Y2053000D1*
X1792556Y2055563D1*
X1799909Y2056433D1*
X1937361D1*
X1937315Y2114434D1*
X1922816Y2119432D1*
X1914245Y2123383D1*
X1906010Y2127995D1*
X1898163Y2133239D1*
X1890751Y2139081D1*
X1883820Y2145488D1*
X1877413Y2152419D1*
X1871571Y2159831D1*
X1866327Y2167678D1*
X1861715Y2175913D1*
X1857764Y2184484D1*
X1854497Y2193339D1*
X1851936Y2202423D1*
X1850094Y2211680D1*
X1848984Y2221052D1*
X1848614Y2230483D1*
X1848984Y2239913D1*
X1850094Y2249286D1*
X1851936Y2258543D1*
X1854497Y2267627D1*
X1857764Y2276482D1*
X1861715Y2285052D1*
X1866327Y2293287D1*
X1871571Y2301135D1*
X1877413Y2308547D1*
X1883848Y2315503D1*
X860635Y2315478D1*
X867042Y2308547D1*
X872885Y2301135D1*
X878129Y2293287D1*
X882740Y2285052D1*
X886692Y2276482D1*
X889958Y2267627D1*
X892520Y2258543D1*
X894361Y2249286D1*
X895471Y2239913D1*
X895841Y2230483D1*
X895471Y2221052D1*
X894361Y2211680D1*
X892520Y2202423D1*
X889958Y2193339D1*
X886692Y2184484D1*
X882740Y2175913D1*
X878129Y2167678D1*
X872885Y2159831D1*
X867042Y2152419D1*
X860635Y2145488D1*
X853705Y2139081D1*
X846293Y2133239D1*
X838445Y2127995D1*
X830210Y2123383D1*
X821639Y2119432D1*
X807143Y2114573D1*
X807140Y2016470D1*
X891314Y2016432D1*
Y1896896D1*
X865386D1*
X873808Y1889871D1*
X879899Y1882740D1*
X884799Y1874743D1*
X888388Y1866079D1*
X890577Y1856958D1*
X891314Y1847609D1*
X890577Y1838260D1*
X889723Y1833962D1*
X983295Y1740269D1*
X987409Y1734113D1*
X989972Y1727165D1*
X990843Y1719812D1*
Y939490D1*
X992563Y941073D1*
X992668Y1351576D1*
X994113Y1358839D1*
X997213Y1365564D1*
X1001797Y1371379D1*
X1034080Y1403661D1*
X1034109Y1479072D1*
X1049392D1*
X1042945Y1487776D1*
X1038673Y1496160D1*
X1035766Y1505109D1*
X1034294Y1514403D1*
Y1523812D1*
X1035766Y1533106D1*
X1038673Y1542055D1*
X1042945Y1550440D1*
X1048476Y1558051D1*
X1055130Y1564705D1*
X1062741Y1570236D1*
X1071126Y1574508D1*
X1080075Y1577415D1*
X1089369Y1578887D1*
X1098778D1*
X1108072Y1577415D1*
X1117021Y1574508D1*
X1125406Y1570236D1*
X1133017Y1564705D1*
X1139671Y1558051D1*
X1144047Y1552167D1*
X1148476Y1558051D1*
X1155130Y1564705D1*
X1162573Y1570123D1*
Y1818668D1*
X1082894Y1898304D1*
X1111021Y1359143D2*
X1078697D1*
X1055546Y1336033D1*
X1055571Y941146D1*
X1061690Y934257D1*
X1065503Y928035D1*
X1068295Y921294D1*
X1069999Y914199D1*
X1070571Y906925D1*
X1069999Y899651D1*
X1068295Y892555D1*
X1065503Y885815D1*
X1061690Y879593D1*
X1056951Y874045D1*
X1051403Y869306D1*
X1045181Y865493D1*
X1038441Y862701D1*
X1031345Y860997D1*
X1024071Y860425D1*
X1016797Y860997D1*
X1009702Y862701D1*
X1002961Y865493D1*
X996739Y869306D1*
X990852Y874411D1*
X990843Y821033D1*
X1004343Y819478D1*
X1158226Y819381D1*
X1165488Y817936D1*
X1172213Y814836D1*
X1178028Y810252D1*
X1199709Y788433D1*
X1203823Y782277D1*
X1206386Y775329D1*
X1207256Y767976D1*
Y698592D1*
X1211047Y694612D1*
X1211039Y1361566D1*
X1203454Y1359882D1*
X1194073Y1359143D1*
X1184693Y1359882D1*
X1175543Y1362077D1*
X1174042Y1362631D1*
X1174039Y986470D1*
X1181866Y983357D1*
X1188088Y979545D1*
X1193636Y974806D1*
X1198375Y969257D1*
X1202188Y963035D1*
X1204980Y956294D1*
X1206684Y949199D1*
X1207256Y941925D1*
X1206684Y934651D1*
X1204980Y927555D1*
X1202188Y920815D1*
X1198375Y914593D1*
X1193636Y909045D1*
X1188088Y904306D1*
X1181866Y900493D1*
X1175125Y897701D1*
X1168030Y895997D1*
X1160756Y895425D1*
X1153482Y895997D1*
X1146387Y897701D1*
X1139646Y900493D1*
X1133424Y904306D1*
X1127875Y909045D1*
X1123136Y914593D1*
X1119324Y920815D1*
X1116531Y927555D1*
X1114828Y934651D1*
X1114256Y941925D1*
X1114438Y945899D1*
X1111909Y952789D1*
X1111039Y960142D1*
Y1359117D1*
X1879073Y1896896D2*
X1853142D1*
Y1993429D1*
X1813004Y1993433D1*
X1772845Y1953320D1*
X1772853Y1877948D1*
X1652924D1*
Y1893231D1*
X1644220Y1886783D1*
X1635836Y1882512D1*
X1626887Y1879605D1*
X1617593Y1878133D1*
X1608184D1*
X1598890Y1879605D1*
X1589941Y1882512D1*
X1581556Y1886783D1*
X1573945Y1892315D1*
X1567291Y1898969D1*
X1562915Y1904853D1*
X1558486Y1898969D1*
X1551832Y1892315D1*
X1544388Y1886896D1*
Y1316085D1*
X1550009Y1322900D1*
X1555558Y1327639D1*
X1561780Y1331451D1*
X1568521Y1334244D1*
X1575615Y1335948D1*
X1582890Y1336520D1*
X1590164Y1335948D1*
X1597260Y1334244D1*
X1604000Y1331451D1*
X1610222Y1327639D1*
X1615770Y1322900D1*
X1620509Y1317352D1*
X1624322Y1311130D1*
X1627114Y1304390D1*
X1628818Y1297294D1*
X1629390Y1290020D1*
X1628818Y1282745D1*
X1627114Y1275651D1*
X1624322Y1268909D1*
X1620509Y1262688D1*
X1615770Y1257139D1*
X1614399Y1255871D1*
X1614293Y1044301D1*
X1612848Y1037038D1*
X1609748Y1030314D1*
X1605164Y1024499D1*
X1599398Y1018732D1*
X1599390Y940122D1*
X1606538Y940062D1*
X1613745Y938920D1*
X1620685Y936665D1*
X1627186Y933353D1*
X1629854Y931570D1*
X1629951Y1489470D1*
X1631396Y1496732D1*
X1634496Y1503457D1*
X1639080Y1509272D1*
X1854699Y1724891D1*
X1853325Y1733865D1*
Y1743243D1*
X1854793Y1752507D1*
X1857692Y1761427D1*
X1861949Y1769782D1*
X1867462Y1777370D1*
X1874093Y1784001D1*
X1881681Y1789514D1*
X1888490Y1793058D1*
X1881681Y1796648D1*
X1874093Y1802161D1*
X1867462Y1808793D1*
X1861949Y1816381D1*
X1857692Y1824736D1*
X1854793Y1833656D1*
X1853325Y1842920D1*
Y1852298D1*
X1854793Y1861562D1*
X1857692Y1870482D1*
X1861949Y1878837D1*
X1867462Y1886425D1*
X1874093Y1893056D1*
X1879165Y1896888D1*
X1854732Y1615852D2*
X1853325Y1624810D1*
X1853358Y1634461D1*
X1692840Y1473937D1*
X1692854Y1336364D1*
X1700003Y1336377D1*
X1707209Y1335235D1*
X1714148Y1332980D1*
X1720650Y1329668D1*
X1726554Y1325379D1*
X1731713Y1320219D1*
X1736001Y1314316D1*
X1739315Y1307815D1*
X1741570Y1300875D1*
X1742711Y1293668D1*
Y1286371D1*
X1741570Y1279165D1*
X1739315Y1272226D1*
X1736001Y1265724D1*
X1731713Y1259820D1*
X1727862Y1255871D1*
X1727854Y693584D1*
X1733974Y686675D1*
X1737786Y680454D1*
X1740579Y673713D1*
X1742282Y666617D1*
X1742854Y659343D1*
X1742282Y652068D1*
X1740579Y644974D1*
X1737786Y638232D1*
X1733974Y632010D1*
X1729235Y626462D1*
X1723686Y621723D1*
X1717465Y617911D1*
X1710723Y615119D1*
X1703629Y613416D1*
X1696354Y612843D1*
X1692862Y612980D1*
X1692757Y591273D1*
X1691312Y584010D1*
X1688213Y577285D1*
X1683627Y571470D1*
X1661811Y549791D1*
X1655655Y545677D1*
X1648707Y543114D1*
X1641354Y542244D1*
X1400484D1*
X1400467Y535096D1*
X1399325Y527888D1*
X1397071Y520949D1*
X1394197Y515232D1*
X1758969Y515244D1*
X1760472Y528744D1*
X1760570Y1511033D1*
X1762013Y1518295D1*
X1765114Y1525020D1*
X1769698Y1530835D1*
X1854738Y1615874D1*
X1937329Y1465940D2*
X1931379Y1463601D1*
X1922259Y1461412D1*
X1912909Y1460676D1*
X1903560Y1461412D1*
X1894440Y1463601D1*
X1885776Y1467190D1*
X1877778Y1472091D1*
X1870647Y1478181D1*
X1864556Y1485312D1*
X1859656Y1493310D1*
X1856067Y1501974D1*
X1853878Y1511094D1*
X1853142Y1520444D1*
X1853358Y1525406D1*
X1823490Y1495531D1*
X1823472Y597966D1*
X1829177Y600806D1*
X1836117Y603062D1*
X1843324Y604202D1*
X1848839Y604273D1*
X1866096Y621517D1*
X1866091Y978631D1*
X1859971Y985483D1*
X1856159Y991705D1*
X1853367Y998446D1*
X1851664Y1005541D1*
X1851091Y1012815D1*
X1851664Y1020089D1*
X1853367Y1027184D1*
X1856159Y1033925D1*
X1859971Y1040147D1*
X1864710Y1045696D1*
X1870259Y1050434D1*
X1876480Y1054247D1*
X1883222Y1057039D1*
X1890316Y1058743D1*
X1897591Y1059315D1*
X1899458Y1059241D1*
X1937293Y1097064D1*
X1937315Y1130669D1*
X1922816Y1135573D1*
X1914245Y1139525D1*
X1906010Y1144136D1*
X1898163Y1149381D1*
X1890751Y1155223D1*
X1883820Y1161630D1*
X1877413Y1168560D1*
X1871571Y1175972D1*
X1866327Y1183820D1*
X1861715Y1192055D1*
X1857764Y1200626D1*
X1854497Y1209480D1*
X1851936Y1218564D1*
X1850094Y1227822D1*
X1848984Y1237194D1*
X1848614Y1246625D1*
X1848984Y1256055D1*
X1850094Y1265428D1*
X1851936Y1274685D1*
X1854497Y1283769D1*
X1857764Y1292623D1*
X1861715Y1301194D1*
X1866327Y1309429D1*
X1871571Y1317277D1*
X1877413Y1324689D1*
X1883820Y1331619D1*
X1890751Y1338026D1*
X1898163Y1343869D1*
X1906010Y1349113D1*
X1914245Y1353724D1*
X1922816Y1357676D1*
X1937312Y1362534D1*
X1937315Y1465912D1*
X2084304Y1897448D2*
X2082837Y1888184D1*
X2079938Y1879264D1*
X2075681Y1870908D1*
X2070168Y1863320D1*
X2063537Y1856689D1*
X2055949Y1851176D1*
X2049140Y1847633D1*
X2055949Y1844042D1*
X2063537Y1838529D1*
X2070168Y1831898D1*
X2075681Y1824310D1*
X2079938Y1815954D1*
X2082837Y1807034D1*
X2084304Y1797770D1*
Y1788392D1*
X2082837Y1779129D1*
X2079938Y1770209D1*
X2075681Y1761853D1*
X2070168Y1754265D1*
X2063537Y1747634D1*
X2055949Y1742121D1*
X2049140Y1738577D1*
X2055949Y1734987D1*
X2063537Y1729474D1*
X2070168Y1722843D1*
X2075681Y1715255D1*
X2079938Y1706899D1*
X2082837Y1697979D1*
X2084304Y1688715D1*
Y1679337D1*
X2082837Y1670073D1*
X2079938Y1661154D1*
X2075681Y1652798D1*
X2070168Y1645210D1*
X2063537Y1638579D1*
X2055949Y1633066D1*
X2049140Y1629522D1*
X2055949Y1625932D1*
X2063537Y1620419D1*
X2070168Y1613787D1*
X2075681Y1606199D1*
X2079938Y1597844D1*
X2082837Y1588924D1*
X2084304Y1579660D1*
Y1570282D1*
X2082837Y1561018D1*
X2079938Y1552098D1*
X2075681Y1543743D1*
X2070168Y1536155D1*
X2063537Y1529524D1*
X2055949Y1524010D1*
X2047593Y1519753D1*
X2038673Y1516854D1*
X2029409Y1515387D1*
X2020031D1*
X2010768Y1516854D1*
X2001848Y1519753D1*
X2000301Y1520467D1*
X2000315Y1362596D1*
X2014814Y1357676D1*
X2023385Y1353724D1*
X2031619Y1349113D1*
X2039467Y1343869D1*
X2046879Y1338026D1*
X2053810Y1331619D1*
X2060217Y1324689D1*
X2066059Y1317277D1*
X2071303Y1309429D1*
X2075915Y1301194D1*
X2079866Y1292623D1*
X2083133Y1283769D1*
X2085694Y1274685D1*
X2087535Y1265428D1*
X2088646Y1256055D1*
X2089016Y1246625D1*
X2088646Y1237194D1*
X2087535Y1227822D1*
X2085694Y1218564D1*
X2083133Y1209480D1*
X2079866Y1200626D1*
X2075915Y1192055D1*
X2071303Y1183820D1*
X2066059Y1175972D1*
X2060217Y1168560D1*
X2053810Y1161630D1*
X2046879Y1155223D1*
X2039467Y1149381D1*
X2031619Y1144136D1*
X2023385Y1139525D1*
X2014814Y1135573D1*
X2000318Y1130715D1*
X2000218Y1081567D1*
X1998773Y1074304D1*
X1995673Y1067580D1*
X1991089Y1061765D1*
X1944029Y1014705D1*
X1943948Y1009167D1*
X1942806Y1001959D1*
X1940551Y995020D1*
X1937239Y988518D1*
X1932950Y982615D1*
X1929100Y978667D1*
X1928993Y605993D1*
X1927550Y598731D1*
X1924449Y592007D1*
X1919865Y586192D1*
X1893451Y559778D1*
X1892899Y550572D1*
X1891196Y543476D1*
X1888404Y536735D1*
X1884592Y530514D1*
X1879853Y524966D1*
X1874304Y520227D1*
X1868083Y516415D1*
X1861341Y513622D1*
X1854247Y511919D1*
X1846972Y511346D1*
X1839698Y511919D1*
X1832602Y513622D1*
X1825861Y516415D1*
X1823459Y517760D1*
X1823375Y501273D1*
X1821930Y494010D1*
X1818831Y487285D1*
X1814245Y481470D1*
X1792429Y459791D1*
X1786273Y455677D1*
X1779325Y453114D1*
X1771972Y452244D1*
X1174950D1*
X1168088Y446125D1*
X1161866Y442312D1*
X1155125Y439520D1*
X1148030Y437816D1*
X1140756Y437244D1*
X1133482Y437816D1*
X1126387Y439520D1*
X1119646Y442312D1*
X1113424Y446125D1*
X1107875Y450864D1*
X1103136Y456412D1*
X1099324Y462634D1*
X1096531Y469375D1*
X1094828Y476470D1*
X1094256Y483744D1*
X1094828Y491018D1*
X1096531Y498113D1*
X1099324Y504854D1*
X1100669Y507256D1*
X907870Y507244D1*
X914255Y501888D1*
X918993Y496340D1*
X922806Y490118D1*
X925598Y483377D1*
X927302Y476282D1*
X927874Y469008D1*
X927302Y461734D1*
X925598Y454639D1*
X922806Y447898D1*
X918993Y441676D1*
X914255Y436127D1*
X910106Y432492D1*
X2315459Y432500D1*
X2315500Y2315459D1*
X2053810Y2315478D1*
X2060217Y2308547D1*
X2066059Y2301135D1*
X2071303Y2293287D1*
X2075915Y2285052D1*
X2079866Y2276482D1*
X2083133Y2267627D1*
X2085694Y2258543D1*
X2087535Y2249286D1*
X2088646Y2239913D1*
X2089016Y2230483D1*
X2088646Y2221052D1*
X2087535Y2211680D1*
X2085694Y2202423D1*
X2083133Y2193339D1*
X2079866Y2184484D1*
X2075915Y2175913D1*
X2071303Y2167678D1*
X2066059Y2159831D1*
X2060217Y2152419D1*
X2053810Y2145488D1*
X2046879Y2139081D1*
X2039467Y2133239D1*
X2031619Y2127995D1*
X2023385Y2123383D1*
X2014814Y2119432D1*
X2000318Y2114573D1*
X2000315Y2037954D1*
X2048673Y1989486D1*
X2052787Y1983328D1*
X2055350Y1976381D1*
X2056220Y1969028D1*
Y1952963D1*
X2063537Y1947584D1*
X2070168Y1940953D1*
X2075681Y1933365D1*
X2079938Y1925009D1*
X2082837Y1916089D1*
X2084304Y1906825D1*
Y1897448D1*
X891130Y1733865D2*
X889723Y1724907D1*
X927811Y1686837D1*
X927843Y1706757D1*
X891130Y1743243D1*
Y1733865D1*
X845193Y1462266D2*
X836235Y1460860D1*
X826857D1*
X817593Y1462327D1*
X808673Y1465226D1*
X807126Y1465940D1*
X807140Y1362635D1*
X821639Y1357676D1*
X830210Y1353724D1*
X838445Y1349113D1*
X846293Y1343869D1*
X852865Y1338688D1*
X852843Y1454564D1*
X695315Y1847633D2*
X688507Y1851176D1*
X680919Y1856689D1*
X674287Y1863320D1*
X668774Y1870908D1*
X664517Y1879264D1*
X661618Y1888184D1*
X660151Y1897448D1*
Y1906825D1*
X661618Y1916089D1*
X664517Y1925009D1*
X668774Y1933365D1*
X674287Y1940953D1*
X680919Y1947584D1*
X688507Y1953097D1*
X696862Y1957354D1*
X705782Y1960253D1*
X715046Y1961720D1*
X724424D1*
X733688Y1960253D1*
X742608Y1957354D1*
X744155Y1956640D1*
X744140Y2114491D1*
X729642Y2119432D1*
X721071Y2123383D1*
X712836Y2127995D1*
X704988Y2133239D1*
X697576Y2139081D1*
X690646Y2145488D1*
X684239Y2152419D1*
X678396Y2159831D1*
X673152Y2167678D1*
X668541Y2175913D1*
X664589Y2184484D1*
X661323Y2193339D1*
X658761Y2202423D1*
X656920Y2211680D1*
X655810Y2221052D1*
X655440Y2230483D1*
X655810Y2239913D1*
X656920Y2249286D1*
X658761Y2258543D1*
X661323Y2267627D1*
X664589Y2276482D1*
X668541Y2285052D1*
X673152Y2293287D1*
X678396Y2301135D1*
X684239Y2308547D1*
X690500Y2315500D1*
X432541D1*
X432500Y432541D1*
X852568Y432500D1*
X847226Y437500D1*
X793169Y437605D1*
X785907Y439050D1*
X779182Y442150D1*
X773367Y446734D1*
X751688Y468551D1*
X747573Y474707D1*
X745010Y481655D1*
X744140Y489009D1*
Y1130659D1*
X729642Y1135573D1*
X721071Y1139525D1*
X712836Y1144136D1*
X704988Y1149381D1*
X697576Y1155223D1*
X690646Y1161630D1*
X684239Y1168560D1*
X679879Y1174091D1*
X679894Y759121D1*
X686013Y752249D1*
X689825Y746028D1*
X692618Y739286D1*
X694322Y732192D1*
X694894Y724917D1*
X694322Y717643D1*
X692618Y710547D1*
X689825Y703807D1*
X686013Y697585D1*
X681274Y692037D1*
X675726Y687298D1*
X669504Y683486D1*
X662764Y680693D1*
X655668Y678990D1*
X648394Y678417D1*
X641119Y678990D1*
X634025Y680693D1*
X627283Y683486D1*
X621062Y687298D1*
X615513Y692037D1*
X610774Y697585D1*
X606962Y703807D1*
X604169Y710547D1*
X602466Y717643D1*
X601894Y724917D1*
X602466Y732192D1*
X604169Y739286D1*
X606962Y746028D1*
X610774Y752249D1*
X615513Y757798D1*
X616886Y759066D1*
X616991Y1615156D1*
X618436Y1622420D1*
X621535Y1629144D1*
X626119Y1634959D1*
X661579Y1670419D1*
X660151Y1679337D1*
Y1688715D1*
X661618Y1697979D1*
X664517Y1706899D1*
X668774Y1715255D1*
X674287Y1722843D1*
X680919Y1729474D1*
X688507Y1734987D1*
X695315Y1738530D1*
X688507Y1742121D1*
X680919Y1747634D1*
X674287Y1754265D1*
X668774Y1761853D1*
X664517Y1770209D1*
X661618Y1779129D1*
X660151Y1788392D1*
Y1797770D1*
X661618Y1807034D1*
X664517Y1815954D1*
X668774Y1824310D1*
X674287Y1831898D1*
X680919Y1838529D1*
X688507Y1844042D1*
X695315Y1847585D1*
X744155Y1520467D2*
X738205Y1518129D1*
X729084Y1515940D1*
X719735Y1515203D1*
X710386Y1515940D1*
X701265Y1518129D1*
X692601Y1521718D1*
X684604Y1526618D1*
X679882Y1530482D1*
X679894Y1319277D1*
X690646Y1331619D1*
X697576Y1338026D1*
X704988Y1343869D1*
X712836Y1349113D1*
X721071Y1353724D1*
X729642Y1357676D1*
X744138Y1362534D1*
X744140Y1520404D1*
X852865Y1154562D2*
X846293Y1149381D1*
X838445Y1144136D1*
X830210Y1139525D1*
X821639Y1135573D1*
X807143Y1130715D1*
X807171Y898798D1*
X814445Y899370D1*
X817937Y899232D1*
X818042Y987030D1*
X819487Y994293D1*
X822587Y1001018D1*
X827171Y1006833D1*
X852824Y1032487D1*
X852843Y1154467D1*
X1481388Y1886896D2*
X1473945Y1892315D1*
X1467291Y1898969D1*
X1462915Y1904853D1*
X1458486Y1898969D1*
X1451832Y1892315D1*
X1444388Y1886896D1*
X1444291Y1000016D1*
X1442846Y992753D1*
X1439747Y986029D1*
X1435163Y980214D1*
X1400531Y945583D1*
X1400465Y940210D1*
X1479835Y940201D1*
X1481388Y953703D1*
Y1886858D1*
X1381388Y1886896D2*
X1373945Y1892315D1*
X1367291Y1898969D1*
X1362915Y1904853D1*
X1358486Y1898969D1*
X1351832Y1892315D1*
X1344388Y1886896D1*
X1344390Y1185324D1*
X1350509Y1178470D1*
X1354322Y1172248D1*
X1357114Y1165508D1*
X1358818Y1158412D1*
X1359390Y1151138D1*
X1358818Y1143864D1*
X1357114Y1136769D1*
X1354322Y1130028D1*
X1350509Y1123806D1*
X1345770Y1118257D1*
X1340222Y1113518D1*
X1334000Y1109706D1*
X1327260Y1106913D1*
X1320164Y1105210D1*
X1312890Y1104638D1*
X1305615Y1105210D1*
X1298521Y1106913D1*
X1291780Y1109706D1*
X1285558Y1113518D1*
X1280009Y1118257D1*
X1275270Y1123806D1*
X1274042Y1125644D1*
X1274039Y1091458D1*
X1281832Y1093432D1*
X1289106Y1094004D1*
X1296381Y1093432D1*
X1303475Y1091728D1*
X1310217Y1088936D1*
X1316438Y1085123D1*
X1321987Y1080385D1*
X1326726Y1074836D1*
X1330538Y1068614D1*
X1333331Y1061873D1*
X1335034Y1054778D1*
X1335606Y1047504D1*
X1335034Y1040230D1*
X1333331Y1033135D1*
X1330538Y1026394D1*
X1326726Y1020172D1*
X1321987Y1014623D1*
X1320614Y1013356D1*
X1320218Y1000860D1*
X1318209Y993732D1*
X1314591Y987272D1*
X1311381Y983513D1*
X1294013Y966146D1*
X1296828Y954629D1*
X1304102Y955201D1*
X1308983Y954912D1*
X1311142Y961496D1*
X1314454Y967997D1*
X1318743Y973900D1*
X1323903Y979060D1*
X1329806Y983349D1*
X1336307Y986661D1*
X1343247Y988916D1*
X1350454Y990058D1*
X1355969Y990127D1*
X1381374Y1015521D1*
X1381388Y1886911D1*
X1281388Y1886896D2*
X1273945Y1892315D1*
X1272148Y1893975D1*
X1273651Y1888134D1*
X1274039Y1883206D1*
Y1176713D1*
X1280009Y1184018D1*
X1281382Y1185286D1*
X1281388Y1886929D1*
X1273942Y1885678D1*
X1274038Y1883197D1*
X1544399Y1148862D2*
X1551382D1*
X1544388Y1150412D1*
Y1148899D1*
X1551390Y1159272D1*
Y1255806D1*
X1545270Y1262688D1*
X1544391Y1264004D1*
X1544388Y1150412D1*
X1420467Y720694D2*
X1419325Y713488D1*
X1417071Y706549D1*
X1413757Y700047D1*
X1409469Y694143D1*
X1404310Y688984D1*
X1398407Y684696D1*
X1391904Y681383D1*
X1384965Y679127D1*
X1377759Y677987D1*
X1370462D1*
X1363255Y679127D1*
X1356315Y681383D1*
X1349814Y684696D1*
X1343911Y688984D1*
X1338751Y694143D1*
X1334462Y700047D1*
X1331150Y706549D1*
X1328895Y713488D1*
X1327753Y720694D1*
X1327684Y726210D1*
X1274047Y779858D1*
X1274039Y643997D1*
X1277883Y638639D1*
X1281197Y632138D1*
X1283451Y625198D1*
X1284593Y617991D1*
Y610694D1*
X1283799Y605236D1*
X1628314Y605244D1*
X1629854Y618744D1*
X1629748Y729699D1*
X1625164Y723885D1*
X1583076Y681797D1*
X1582542Y672608D1*
X1580839Y665513D1*
X1578046Y658772D1*
X1574234Y652550D1*
X1569495Y647001D1*
X1563946Y642262D1*
X1557724Y638450D1*
X1550983Y635657D1*
X1543888Y633954D1*
X1536614Y633382D1*
X1529340Y633954D1*
X1522244Y635657D1*
X1515504Y638450D1*
X1509282Y642262D1*
X1503734Y647001D1*
X1498995Y652550D1*
X1495182Y658772D1*
X1492390Y665513D1*
X1490686Y672608D1*
X1490114Y679882D1*
X1490686Y687156D1*
X1492390Y694251D1*
X1495182Y700992D1*
X1498995Y707214D1*
X1503734Y712762D1*
X1509282Y717501D1*
X1515504Y721314D1*
X1522244Y724106D1*
X1529340Y725810D1*
X1536614Y726382D1*
X1538480Y726308D1*
X1564853Y752668D1*
X1556941Y751965D1*
X1549667Y752538D1*
X1542572Y754241D1*
X1535831Y757033D1*
X1529609Y760845D1*
X1524060Y765584D1*
X1519322Y771133D1*
X1515509Y777354D1*
X1512717Y784096D1*
X1511013Y791190D1*
X1510441Y798465D1*
X1511013Y805739D1*
X1512717Y812835D1*
X1515509Y819576D1*
X1517730Y823413D1*
X1420560Y726245D1*
X1420467Y720694D1*
X1372243Y770769D2*
X1375976D1*
X1482450Y877231D1*
X1338345Y877201D1*
X1331434Y871081D1*
X1325213Y867269D1*
X1318471Y864476D1*
X1311377Y862773D1*
X1304102Y862201D1*
X1296828Y862773D1*
X1294045Y863327D1*
X1294039Y848995D1*
X1372199Y770801D1*
X1192673Y605236D2*
X1191879Y610694D1*
Y617991D1*
X1192217Y620839D1*
X1183030Y618412D1*
X1175756Y617839D1*
X1168482Y618412D1*
X1161387Y620115D1*
X1154646Y622907D1*
X1148424Y626719D1*
X1142875Y631458D1*
X1138136Y637007D1*
X1134324Y643228D1*
X1131531Y649970D1*
X1129828Y657064D1*
X1129256Y664339D1*
X1129680Y670353D1*
X1122961Y672551D1*
X1116459Y675865D1*
X1110556Y680154D1*
X1106608Y684004D1*
X956871Y684109D1*
X949609Y685554D1*
X942885Y688654D1*
X937070Y693238D1*
X922602Y707705D1*
X915198Y705293D1*
X907991Y704151D1*
X900694D1*
X893488Y705293D1*
X886549Y707547D1*
X880955Y710352D1*
X880945Y571815D1*
X894445Y570244D1*
X943517D1*
X943529Y577392D1*
X944671Y584600D1*
X946925Y591539D1*
X950239Y598041D1*
X954528Y603944D1*
X959686Y609102D1*
X965589Y613392D1*
X972092Y616705D1*
X979030Y618959D1*
X986238Y620101D1*
X993534D1*
X1000741Y618959D1*
X1007681Y616705D1*
X1014182Y613392D1*
X1020085Y609102D1*
X1024034Y605252D1*
X1192669Y605244D1*
X1106608Y747021D2*
X1110556Y750871D1*
X1116459Y755160D1*
X1118812Y756476D1*
X976871Y756575D1*
X971980Y757350D1*
X970843Y755757D1*
Y748579D1*
X974415Y756866D1*
X971990Y757348D1*
X972381Y747012D1*
X1106560D1*
D15*
X1169081Y1956664D3*
D16*
X1069081D3*
X1169081Y2056664D3*
X1069081D3*
X1169081Y2156664D3*
X1069081D3*
D15*
X1094073Y1419108D3*
D16*
Y1519108D3*
X1194073Y1419108D3*
Y1519108D3*
D23*
X1912909Y1956664D3*
D24*
Y1847609D3*
Y1738554D3*
Y1629499D3*
Y1520444D3*
X2024720Y1902136D3*
Y1793081D3*
Y1684026D3*
Y1574971D3*
D25*
X1968815Y2230483D3*
Y1246625D3*
D23*
X831546Y1956664D3*
D24*
Y1847609D3*
Y1738554D3*
Y1629499D3*
Y1520444D3*
X719735Y1902136D3*
Y1793081D3*
Y1684026D3*
Y1574971D3*
D25*
X775641Y1246625D3*
Y2230483D3*
D15*
X1712888Y1937912D3*
D16*
X1612888D3*
X1512888D3*
X1412888D3*
X1312888D3*
M02*
