M48
INCH
T01C0.0191
T02C0.0429
T03C0.0433
T04C0.1283
%
T01
X+008144Y+005190
X+008814Y+004690
X+009899Y+005737
X+011408Y+004837
X+012382Y+006143
X+011758Y+006643
X+011408Y+007155
X+010241Y+009069
X+011608Y+009419
X+013041Y+009087
X+013541Y+009437
X+012891Y+010475
X+013129Y+011511
X+015479Y+011025
X+015829Y+012900
X+016964Y+012900
X+018976Y+010128
X+016029Y+008937
X+015569Y+007985
X+015366Y+006799
X+016964Y+006593
X+018470Y+005578
X+013541Y+005387
X+013741Y+007243
X+009043Y+007505
X+008144Y+008529
X+006484Y+007249
T02
X+019129Y+019567
X+019129Y+018476
X+019129Y+017386
X+019129Y+016295
X+019129Y+015204
X+020247Y+015750
X+020247Y+016840
X+020247Y+017931
X+020247Y+019021
X+008315Y+019567
X+008315Y+018476
X+008315Y+017386
X+008315Y+016295
X+008315Y+015204
X+007197Y+015750
X+007197Y+016840
X+007197Y+017931
X+007197Y+019021
T03
X+011691Y+019567
X+010691Y+019567
X+010691Y+020567
X+011691Y+020567
X+011691Y+021567
X+010691Y+021567
X+013129Y+019379
X+014129Y+019379
X+015129Y+019379
X+016129Y+019379
X+017129Y+019379
X+011941Y+015191
X+011941Y+014191
X+010941Y+014191
X+010941Y+015191
T04
X+019688Y+022305
X+019688Y+012466
X+007756Y+012466
X+007756Y+022305
T00
M30
