M48
INCH
T01C0.0191
T02C0.0429
T03C0.0433
T04C0.126
T05C0.1283
%
T01
X+013689Y+006478
X+014459Y+007475
X+014959Y+007825
X+015507Y+007125
X+017376Y+007475
X+017508Y+008675
X+019129Y+008442
X+019688Y+009672
X+017858Y+010287
X+016455Y+009937
X+015582Y+010337
X+015082Y+010740
X+015243Y+012220
X+014743Y+012503
X+014175Y+012003
X+013014Y+012500
X+012514Y+012853
X+010714Y+012853
X+010367Y+011608
X+010717Y+011108
X+015943Y+012220
X+018940Y+006478
X+021077Y+007914
X+006015Y+007356
X+006565Y+016840
T02
X+019129Y+019567
X+019129Y+018476
X+019129Y+017386
X+019129Y+016295
X+019129Y+015204
X+020247Y+015750
X+020247Y+016840
X+020247Y+017931
X+020247Y+019021
X+008315Y+019567
X+008315Y+018476
X+008315Y+017386
X+008315Y+016295
X+008315Y+015204
X+007197Y+015750
X+007197Y+016840
X+007197Y+017931
X+007197Y+019021
T03
X+012441Y+018379
X+011441Y+018379
X+011441Y+019379
X+012441Y+019379
X+012441Y+020379
X+011441Y+020379
X+015316Y+019817
X+015316Y+018817
X+016316Y+018817
X+016316Y+019817
X+011065Y+008190
X+010065Y+008190
X+009065Y+008190
X+008065Y+008190
X+007065Y+008190
T04
X+022442Y+005065
X+005003Y+005065
X+013629Y+022442
T05
X+007756Y+012466
X+007756Y+022305
X+019688Y+022305
X+019688Y+012466
T00
M30
