G04 DipTrace 3.0.0.1*
G04 Top.gbr*
%MOIN*%
G04 #@! TF.FileFunction,Copper,L1,Top*
G04 #@! TF.Part,Single*
G04 #@! TA.AperFunction,Conductor*
%ADD13C,0.01*%
G04 #@! TA.AperFunction,CopperBalancing*
%ADD14C,0.025*%
G04 #@! TA.AperFunction,ComponentPad*
%ADD15R,0.066929X0.066929*%
%ADD16C,0.066929*%
%ADD17R,0.043307X0.03937*%
%ADD19R,0.07874X0.216535*%
%ADD21R,0.037402X0.084646*%
%ADD22R,0.127953X0.084646*%
G04 #@! TA.AperFunction,ComponentPad*
%ADD23R,0.066535X0.066535*%
%ADD24C,0.066535*%
%ADD25C,0.187402*%
%ADD26R,0.03937X0.043307*%
%ADD27R,0.070866X0.015748*%
%ADD29R,0.015748X0.05315*%
%ADD30R,0.082677X0.062992*%
%ADD31R,0.070866X0.074803*%
%ADD32R,0.074803X0.074803*%
G04 #@! TA.AperFunction,ViaPad*
%ADD33C,0.04*%
%FSLAX26Y26*%
G04*
G70*
G90*
G75*
G01*
G04 Top*
%LPD*%
X814445Y519008D2*
D13*
X762789D1*
Y469008D1*
Y434012D1*
X594021D1*
Y562768D1*
X814445Y852870D2*
X823856Y843459D1*
X1075322D1*
X594021Y936783D2*
Y1060051D1*
X762789D1*
Y1012815D1*
Y837870D1*
X782790Y817869D1*
X1075322D1*
X1690238Y562768D2*
Y604343D1*
X1761104D1*
Y557846D1*
X1303668Y741097D2*
X1233232D1*
X1213232Y761098D1*
Y1012815D1*
X1247921Y1047504D1*
X1289106D1*
X1517290Y1006564D2*
Y971878D1*
X1856654D1*
X1897591Y1012815D1*
X1761104Y557846D2*
X1792579D1*
Y612846D1*
X1846972D1*
Y639878D1*
X1862904Y655810D1*
Y733364D1*
X1897591Y1012815D2*
X1698559D1*
X1481576Y457453D2*
X1431142D1*
Y537846D1*
X1451143Y557846D1*
X1517009D1*
X1213232Y1012815D2*
X1110997D1*
X881374Y469008D2*
X829718D1*
X1289106Y1047504D2*
X1347890Y1106287D1*
Y1246626D1*
X1327890Y1266626D1*
X1030606D1*
X1010605Y1246625D1*
X775640D1*
X1846972Y612846D2*
Y557846D1*
X775640Y1246625D2*
Y1107091D1*
X829718Y1053013D1*
Y1012815D1*
X1030606Y1266626D2*
Y1455640D1*
X1094073Y1519108D1*
X2142356Y962810D2*
X2199189D1*
X2219192Y942807D1*
Y800293D1*
X1897591Y1012815D2*
X2142356D1*
Y962810D1*
X1846972Y557846D2*
Y457453D1*
X1796537D1*
X1517290Y1200335D2*
Y1133100D1*
X1547890Y1102500D1*
X1698559Y1200335D2*
Y1235020D1*
X1517290D1*
Y1200335D1*
X1698559Y1012815D2*
Y1200335D1*
X1517009Y557846D2*
Y604343D1*
X1494110D1*
X1374110Y724343D1*
X1094073Y1419108D2*
X1194073D1*
X1024071Y906925D2*
Y889050D1*
X1044071Y869050D1*
X1075322D1*
X2128640Y800293D2*
Y571946D1*
X1631630Y1200335D2*
Y1012815D1*
X1160756Y941925D2*
Y786689D1*
X1140755Y766688D1*
X1075322D1*
X1612888Y1937912D2*
X1699909Y2024933D1*
X1844640D1*
X1912909Y1956664D1*
X1631630Y1012815D2*
X1594976D1*
X1574976Y1032815D1*
Y1047500D1*
X1469113D1*
X1450361D1*
Y1006564D1*
X1194073Y1519108D2*
X1138210Y1574971D1*
X719735D1*
X1450361Y1200335D2*
X1387890D1*
X1367890Y1220335D1*
Y1345291D1*
X1194073Y1519108D1*
X2128640Y571946D2*
X2252894D1*
X2272894Y591946D1*
Y1355327D1*
X2252894Y1375327D1*
X1470362D1*
X1450361Y1355325D1*
Y1200335D1*
Y1006564D2*
X1273232D1*
X1253232Y986564D1*
Y766688D1*
X1303668D1*
X1450361Y1200335D2*
Y1087500D1*
X1469113Y1068748D1*
Y1047500D1*
X1312890Y1151138D2*
X1064068D1*
X1044068Y1131138D1*
Y1012815D1*
Y961925D1*
X1064068Y941925D1*
X1105756D1*
X1125756Y921925D1*
Y792278D1*
X1075322D1*
X1304102Y908701D2*
Y869050D1*
X1303668D1*
X1354102Y943701D2*
Y843459D1*
X1303668D1*
X2075427Y962810D2*
X2038089D1*
Y800293D1*
X1481614Y731535D2*
Y679882D1*
X1536614D1*
X2038089Y800293D2*
Y742969D1*
X1917591D1*
X1897591Y762969D1*
Y873705D1*
X1877591Y893705D1*
X1602890D1*
X1536614Y679882D2*
X1587875Y628621D1*
Y562768D1*
X1613466D2*
Y665417D1*
X1641315Y693266D1*
Y731535D1*
X1606627D1*
X1737891D2*
X1696354D1*
Y659343D1*
X1556941Y798465D2*
X1481614D1*
X1696354Y1290020D2*
X1582890D1*
X1696354Y659343D2*
X1659059D1*
X1639056Y639340D1*
Y562768D1*
X1606627Y798465D2*
Y835118D1*
X1436942D1*
X1394102Y792278D1*
X1303668D1*
Y817869D2*
X1374102D1*
X1411352Y855118D1*
X1737891D1*
Y798465D1*
X1862904Y800293D2*
X1792579D1*
X1772579Y780293D1*
Y644343D1*
X1752579Y624343D1*
X1664647D1*
Y562768D1*
X1238236Y614343D2*
Y618735D1*
X1258236Y638735D1*
X1303676D1*
X831546Y1956664D2*
X980012Y2105130D1*
X1120615D1*
X1169081Y2056664D1*
X719735Y1793081D2*
X980614D1*
X1000614Y1813081D1*
Y1988197D1*
X1069081Y2056664D1*
X1303668Y664325D2*
X1175756D1*
Y664339D1*
X1303668Y715507D2*
X1140756D1*
Y715512D1*
X648394Y724917D2*
X657804Y715507D1*
X1075322D1*
X904343Y750508D2*
X913753Y741097D1*
X1075322D1*
X1354110Y538744D2*
Y689916D1*
X1303668D1*
X1912909Y1847609D2*
X1266106D1*
X1096265Y1677768D1*
X795268D1*
X740740Y1623240D1*
X539650D1*
X519650Y1603240D1*
Y709917D1*
X539651Y689916D1*
X1075322D1*
X989886Y573744D2*
Y644323D1*
X1009888Y664325D1*
X1075322D1*
X1140756Y483744D2*
Y638735D1*
X1075322D1*
D33*
X814445Y519008D3*
Y852870D3*
X1547890Y1102500D3*
X1374110Y724343D3*
X881374Y469008D3*
X1289106Y1047504D3*
X1846972Y557846D3*
X1897591Y1012815D3*
X1024071Y906925D3*
X1160756Y941925D3*
X1312890Y1151138D3*
X1304102Y908701D3*
X1354102Y943701D3*
X1602890Y893705D3*
X1536614Y679882D3*
X1556941Y798465D3*
X1582890Y1290020D3*
X1696354D3*
Y659343D3*
X1238236Y614343D3*
X1175756Y664339D3*
X1140756Y715512D3*
X648394Y724917D3*
X904343Y750508D3*
X1354110Y538744D3*
X989886Y573744D3*
X1140756Y483744D3*
X435025Y2290631D2*
D14*
X669087D1*
X882193D2*
X1862251D1*
X2075406D2*
X2312983D1*
X435025Y2265762D2*
X658247D1*
X893033D2*
X1851411D1*
X2086245D2*
X2312983D1*
X435025Y2240894D2*
X653413D1*
X897866D2*
X1846577D1*
X2091079D2*
X2312983D1*
X435025Y2216025D2*
X653803D1*
X897475D2*
X1058101D1*
X1080081D2*
X1158101D1*
X1180081D2*
X1846967D1*
X2090639D2*
X2312983D1*
X435025Y2191156D2*
X659566D1*
X891714D2*
X1017525D1*
X1220621D2*
X1852730D1*
X2084878D2*
X2312983D1*
X435025Y2166287D2*
X671529D1*
X879751D2*
X1007417D1*
X1230777D2*
X1864693D1*
X2072915D2*
X2312983D1*
X435025Y2141419D2*
X692427D1*
X858853D2*
X1008589D1*
X1229555D2*
X1885591D1*
X2052017D2*
X2312983D1*
X435025Y2116550D2*
X734810D1*
X816470D2*
X944379D1*
X1216177D2*
X1928022D1*
X2009634D2*
X2312983D1*
X435025Y2091681D2*
X919526D1*
X1220278D2*
X2312983D1*
X435025Y2066812D2*
X894623D1*
X988735D2*
X1007466D1*
X1230678D2*
X2312983D1*
X435025Y2041944D2*
X869770D1*
X963882D2*
X1007319D1*
X1229702D2*
X1669869D1*
X1874673D2*
X2312983D1*
X435025Y2017075D2*
X844917D1*
X939029D2*
X982466D1*
X1216617D2*
X1645014D1*
X1899526D2*
X2312983D1*
X435025Y1992206D2*
X769282D1*
X914126D2*
X966890D1*
X1231558D2*
X1284955D1*
X1340835D2*
X1384955D1*
X1440835D2*
X1484955D1*
X1540835D2*
X1584955D1*
X1775357D2*
X1830318D1*
X1975161D2*
X2312983D1*
X435025Y1967337D2*
X769282D1*
X893814D2*
X966597D1*
X1231558D2*
X1258150D1*
X1775357D2*
X1850630D1*
X1975161D2*
X2312983D1*
X435025Y1942469D2*
X673139D1*
X893814D2*
X966597D1*
X1231558D2*
X1250581D1*
X1775357D2*
X1850630D1*
X2071353D2*
X2312983D1*
X435025Y1917600D2*
X659517D1*
X893814D2*
X966597D1*
X1231558D2*
X1253950D1*
X1775357D2*
X1850630D1*
X2084975D2*
X2312983D1*
X435025Y1892731D2*
X658198D1*
X781265D2*
X789867D1*
X873257D2*
X966597D1*
X1034634D2*
X1270942D1*
X1354799D2*
X1370942D1*
X1454799D2*
X1470942D1*
X1554799D2*
X1570942D1*
X1775357D2*
X1871235D1*
X1954605D2*
X1963201D1*
X2086245D2*
X2312983D1*
X435025Y1867862D2*
X668257D1*
X890298D2*
X966597D1*
X1034634D2*
X1239302D1*
X2076186D2*
X2312983D1*
X435025Y1842993D2*
X684370D1*
X755093D2*
X769478D1*
X893618D2*
X966597D1*
X1034634D2*
X1214449D1*
X1975014D2*
X1989382D1*
X2060122D2*
X2312983D1*
X435025Y1818125D2*
X662983D1*
X1034634D2*
X1189594D1*
X2081509D2*
X2312983D1*
X435025Y1793256D2*
X657466D1*
X1027602D2*
X1164693D1*
X1258803D2*
X1885542D1*
X1940249D2*
X1962446D1*
X2086978D2*
X2312983D1*
X435025Y1768387D2*
X662789D1*
X1002651D2*
X1139839D1*
X1233950D2*
X1858638D1*
X2081655D2*
X2312983D1*
X435025Y1743518D2*
X683833D1*
X755630D2*
X769478D1*
X893618D2*
X1114986D1*
X1209047D2*
X1850825D1*
X1974966D2*
X1988846D1*
X2060610D2*
X2312983D1*
X435025Y1718650D2*
X668501D1*
X890395D2*
X1090083D1*
X1184194D2*
X1854047D1*
X2075942D2*
X2312983D1*
X435025Y1693781D2*
X658247D1*
X1159341D2*
X1870795D1*
X1954995D2*
X1963226D1*
X2086197D2*
X2312983D1*
X435025Y1668912D2*
X659419D1*
X1134438D2*
X1865474D1*
X2085025D2*
X2312983D1*
X435025Y1644043D2*
X513423D1*
X892007D2*
X1852437D1*
X2071646D2*
X2312983D1*
X435025Y1619175D2*
X489986D1*
X892934D2*
X1851558D1*
X1974282D2*
X1982025D1*
X2067446D2*
X2312983D1*
X435025Y1594306D2*
X485639D1*
X1165933D2*
X1862105D1*
X2083755D2*
X2312983D1*
X435025Y1569437D2*
X485639D1*
X553627D2*
X657710D1*
X1229165D2*
X1876167D1*
X1949623D2*
X1962719D1*
X2086734D2*
X2312983D1*
X435025Y1544568D2*
X485639D1*
X553627D2*
X665766D1*
X1250845D2*
X1855707D1*
X2078677D2*
X2312983D1*
X435025Y1519699D2*
X485639D1*
X553627D2*
X694478D1*
X744986D2*
X769282D1*
X893814D2*
X1031635D1*
X1256558D2*
X1850630D1*
X1975161D2*
X1999458D1*
X2049966D2*
X2312983D1*
X435025Y1494831D2*
X485639D1*
X553627D2*
X775043D1*
X888051D2*
X1022749D1*
X1265395D2*
X1856391D1*
X1969399D2*
X2312983D1*
X435025Y1469962D2*
X485639D1*
X553627D2*
X797066D1*
X866030D2*
X1000043D1*
X1290249D2*
X1878413D1*
X1947427D2*
X2312983D1*
X435025Y1445093D2*
X485639D1*
X553627D2*
X996626D1*
X1315151D2*
X2312983D1*
X435025Y1420224D2*
X485639D1*
X553627D2*
X996626D1*
X1340005D2*
X2312983D1*
X435025Y1395356D2*
X485639D1*
X553627D2*
X996626D1*
X1251626D2*
X1270795D1*
X1364858D2*
X1443354D1*
X2279898D2*
X2312983D1*
X435025Y1370487D2*
X485639D1*
X553627D2*
X996626D1*
X1231655D2*
X1295650D1*
X1389761D2*
X1420259D1*
X2302993D2*
X2312966D1*
X435025Y1345618D2*
X485639D1*
X553627D2*
X704975D1*
X846303D2*
X996626D1*
X1064614D2*
X1320503D1*
X1401870D2*
X1416332D1*
X435025Y1320749D2*
X485639D1*
X553627D2*
X678510D1*
X872769D2*
X996626D1*
X1064614D2*
X1333882D1*
X1401870D2*
X1416332D1*
X1484341D2*
X1545503D1*
X1733755D2*
X1871675D1*
X2065933D2*
X2238911D1*
X435025Y1295881D2*
X485639D1*
X553627D2*
X663471D1*
X887807D2*
X996626D1*
X1401870D2*
X1416332D1*
X1484341D2*
X1534273D1*
X1744986D2*
X1856685D1*
X2080971D2*
X2238911D1*
X435025Y1271012D2*
X485639D1*
X553627D2*
X655463D1*
X1401870D2*
X1416332D1*
X1484341D2*
X1537934D1*
X1741274D2*
X1848627D1*
X2089029D2*
X2238911D1*
X435025Y1246143D2*
X485639D1*
X553627D2*
X652925D1*
X1749234D2*
X1846138D1*
X2091518D2*
X2238911D1*
X435025Y1221274D2*
X485639D1*
X553627D2*
X655659D1*
X1031802D2*
X1313911D1*
X1749234D2*
X1848823D1*
X2088833D2*
X2238911D1*
X435025Y1196406D2*
X485639D1*
X553627D2*
X663911D1*
X887369D2*
X1299751D1*
X1567934D2*
X1580953D1*
X1749234D2*
X1857123D1*
X2080533D2*
X2238911D1*
X435025Y1171537D2*
X485639D1*
X553627D2*
X679291D1*
X871987D2*
X1037398D1*
X1567934D2*
X1580953D1*
X1749234D2*
X1872455D1*
X2065201D2*
X2238911D1*
X435025Y1146668D2*
X485639D1*
X553627D2*
X706391D1*
X844887D2*
X1014155D1*
X1381899D2*
X1416353D1*
X1564907D2*
X1597651D1*
X1732583D2*
X1899555D1*
X2038051D2*
X2238911D1*
X435025Y1121799D2*
X485639D1*
X553627D2*
X741646D1*
X809634D2*
X1010054D1*
X1381899D2*
X1416353D1*
X1732583D2*
X2238911D1*
X435025Y1096930D2*
X485639D1*
X553627D2*
X743306D1*
X832827D2*
X1010054D1*
X1078091D2*
X1291499D1*
X1380483D2*
X1416353D1*
X1487954D2*
X1499188D1*
X1732583D2*
X2238911D1*
X435025Y1072062D2*
X485639D1*
X553627D2*
X562377D1*
X857290D2*
X1010054D1*
X1078091D2*
X1225678D1*
X1360707D2*
X1420406D1*
X1732583D2*
X2238911D1*
X435025Y1047193D2*
X485639D1*
X880386D2*
X993403D1*
X1161635D2*
X1200581D1*
X1338101D2*
X1399702D1*
X1749234D2*
X1863765D1*
X1931411D2*
X2238911D1*
X435025Y1022324D2*
X485639D1*
X662369D2*
X712154D1*
X880386D2*
X993403D1*
X2174869D2*
X2238911D1*
X435025Y997455D2*
X485639D1*
X662369D2*
X712154D1*
X880386D2*
X993403D1*
X2193033D2*
X2238911D1*
X435025Y972587D2*
X485639D1*
X662369D2*
X712154D1*
X880386D2*
X993403D1*
X1923403D2*
X2005659D1*
X435025Y947718D2*
X485639D1*
X662369D2*
X728803D1*
X796791D2*
X999262D1*
X1402945D2*
X1494575D1*
X1879361D2*
X2004097D1*
X435025Y922849D2*
X485639D1*
X662369D2*
X728803D1*
X796791D2*
X977875D1*
X1398159D2*
X1564155D1*
X1892055D2*
X2004097D1*
X435025Y897980D2*
X485639D1*
X662369D2*
X728803D1*
X828238D2*
X975923D1*
X1388101D2*
X1554097D1*
X1920375D2*
X2004097D1*
X2072085D2*
X2185201D1*
X435025Y873112D2*
X485639D1*
X662369D2*
X728803D1*
X1931606D2*
X2004097D1*
X2072085D2*
X2185201D1*
X435025Y848243D2*
X485639D1*
X662369D2*
X728803D1*
X1771890D2*
X1814205D1*
X1931606D2*
X1990375D1*
X435025Y823374D2*
X485639D1*
X662369D2*
X732319D1*
X1655289D2*
X1689205D1*
X1931606D2*
X1990375D1*
X435025Y798505D2*
X485639D1*
X553627D2*
X755122D1*
X1655289D2*
X1689205D1*
X1931606D2*
X1990375D1*
X435025Y773636D2*
X485639D1*
X553627D2*
X861518D1*
X947182D2*
X1010883D1*
X1422525D2*
X1432890D1*
X1655289D2*
X1689205D1*
X435025Y748768D2*
X485639D1*
X553627D2*
X606001D1*
X690835D2*
X855366D1*
X1416177D2*
X1432906D1*
X1530289D2*
X1557954D1*
X1806558D2*
X1814231D1*
X435025Y723899D2*
X485639D1*
X553627D2*
X599409D1*
X1423110D2*
X1432925D1*
X1806558D2*
X1814231D1*
X2065639D2*
X2094623D1*
X2162661D2*
X2238911D1*
X435025Y699030D2*
X487593D1*
X1806558D2*
X1814231D1*
X1911587D2*
X2094623D1*
X2162661D2*
X2238911D1*
X435025Y674161D2*
X508345D1*
X1806558D2*
X1828902D1*
X1896890D2*
X2094623D1*
X2162661D2*
X2238911D1*
X435025Y649293D2*
X525630D1*
X662369D2*
X956294D1*
X1388101D2*
X1402134D1*
X1806558D2*
X1814417D1*
X1896206D2*
X2094623D1*
X2162661D2*
X2238911D1*
X435025Y624424D2*
X525630D1*
X662369D2*
X955903D1*
X1388101D2*
X1426997D1*
X1880971D2*
X2035689D1*
X2221597D2*
X2238911D1*
X435025Y599555D2*
X525630D1*
X662369D2*
X948726D1*
X1031070D2*
X1106734D1*
X1174770D2*
X1191656D1*
X1284829D2*
X1320113D1*
X1388101D2*
X1446675D1*
X1880971D2*
X2035689D1*
X435025Y574686D2*
X525630D1*
X662369D2*
X940913D1*
X1038882D2*
X1106734D1*
X1174770D2*
X1211470D1*
X1265005D2*
X1320113D1*
X1388101D2*
X1420942D1*
X1892837D2*
X2035689D1*
X2301723D2*
X2312996D1*
X435025Y549818D2*
X525630D1*
X662369D2*
X753706D1*
X851773D2*
X947505D1*
X1032241D2*
X1106734D1*
X1174770D2*
X1306441D1*
X1895278D2*
X2035689D1*
X2277798D2*
X2312983D1*
X435025Y524949D2*
X525630D1*
X662369D2*
X729341D1*
X863051D2*
X1106734D1*
X1174770D2*
X1307222D1*
X1882339D2*
X2035689D1*
X2221597D2*
X2312983D1*
X435025Y500080D2*
X525630D1*
X662369D2*
X712154D1*
X918471D2*
X1094722D1*
X1186782D2*
X1325777D1*
X1382437D2*
X1397163D1*
X1880971D2*
X2312983D1*
X435025Y475211D2*
X525630D1*
X662369D2*
X712154D1*
X929946D2*
X1092525D1*
X1188979D2*
X1397163D1*
X1880971D2*
X2312983D1*
X435025Y450343D2*
X525630D1*
X926479D2*
X1105903D1*
X1175601D2*
X1397945D1*
X1880142D2*
X2312983D1*
X1213756Y2016629D2*
X1229046D1*
Y1896699D1*
X1109117D1*
Y1911983D1*
X1100413Y1905535D1*
X1092029Y1901264D1*
X1083080Y1898357D1*
X1073786Y1896885D1*
X1064377D1*
X1055083Y1898357D1*
X1046134Y1901264D1*
X1037749Y1905535D1*
X1032117Y1909507D1*
X1032017Y1810609D1*
X1030572Y1803346D1*
X1027472Y1796622D1*
X1022888Y1790807D1*
X1001072Y1769129D1*
X994915Y1765014D1*
X987969Y1762451D1*
X980614Y1761581D1*
X886764Y1761427D1*
X889663Y1752507D1*
X891130Y1743243D1*
Y1733865D1*
X889663Y1724601D1*
X886764Y1715681D1*
X883591Y1709261D1*
X1083207Y1709268D1*
X1245648Y1871562D1*
X1251806Y1875676D1*
X1258752Y1878239D1*
X1266106Y1879109D1*
X1301115D1*
X1294358Y1880882D1*
X1285665Y1884483D1*
X1277642Y1889400D1*
X1270487Y1895510D1*
X1264377Y1902665D1*
X1259459Y1910689D1*
X1255858Y1919382D1*
X1253663Y1928531D1*
X1252924Y1937912D1*
X1253663Y1947293D1*
X1255858Y1956442D1*
X1259459Y1965135D1*
X1264377Y1973159D1*
X1270487Y1980314D1*
X1277642Y1986424D1*
X1285665Y1991341D1*
X1294358Y1994942D1*
X1303508Y1997138D1*
X1312888Y1997877D1*
X1322269Y1997138D1*
X1331419Y1994942D1*
X1340112Y1991341D1*
X1348135Y1986424D1*
X1355290Y1980314D1*
X1361400Y1973159D1*
X1362862Y1970971D1*
X1367291Y1976856D1*
X1373945Y1983509D1*
X1381556Y1989041D1*
X1389941Y1993312D1*
X1398890Y1996219D1*
X1408184Y1997692D1*
X1417593D1*
X1426887Y1996219D1*
X1435836Y1993312D1*
X1444220Y1989041D1*
X1451832Y1983509D1*
X1458486Y1976856D1*
X1462862Y1970971D1*
X1467291Y1976856D1*
X1473945Y1983509D1*
X1481556Y1989041D1*
X1489941Y1993312D1*
X1498890Y1996219D1*
X1508184Y1997692D1*
X1517593D1*
X1526887Y1996219D1*
X1535836Y1993312D1*
X1544220Y1989041D1*
X1551832Y1983509D1*
X1558486Y1976856D1*
X1562862Y1970971D1*
X1567291Y1976856D1*
X1573945Y1983509D1*
X1581556Y1989041D1*
X1589941Y1993312D1*
X1598890Y1996219D1*
X1608184Y1997692D1*
X1617593D1*
X1626689Y1996260D1*
X1679451Y2048886D1*
X1685609Y2053000D1*
X1692556Y2055563D1*
X1699909Y2056433D1*
X1847112Y2056336D1*
X1854374Y2054891D1*
X1861100Y2051791D1*
X1866915Y2047207D1*
X1897677Y2016444D1*
X1972677Y2016432D1*
Y1931520D1*
X1976367Y1937268D1*
X1982458Y1944399D1*
X1989589Y1950490D1*
X1997587Y1955390D1*
X2006251Y1958979D1*
X2015371Y1961168D1*
X2024720Y1961904D1*
X2034070Y1961168D1*
X2043190Y1958979D1*
X2051854Y1955390D1*
X2059852Y1950490D1*
X2066983Y1944399D1*
X2073073Y1937268D1*
X2077974Y1929270D1*
X2081563Y1920606D1*
X2083752Y1911486D1*
X2084488Y1902136D1*
X2083752Y1892787D1*
X2081563Y1883667D1*
X2077974Y1875003D1*
X2073073Y1867005D1*
X2066983Y1859874D1*
X2059852Y1853783D1*
X2051854Y1848883D1*
X2049140Y1847633D1*
X2055949Y1844042D1*
X2063537Y1838529D1*
X2070168Y1831898D1*
X2075681Y1824310D1*
X2079938Y1815954D1*
X2082837Y1807034D1*
X2084304Y1797770D1*
Y1788392D1*
X2082837Y1779129D1*
X2079938Y1770209D1*
X2075681Y1761853D1*
X2070168Y1754265D1*
X2063537Y1747634D1*
X2055949Y1742121D1*
X2049140Y1738577D1*
X2055949Y1734987D1*
X2063537Y1729474D1*
X2070168Y1722843D1*
X2075681Y1715255D1*
X2079938Y1706899D1*
X2082837Y1697979D1*
X2084304Y1688715D1*
Y1679337D1*
X2082837Y1670073D1*
X2079938Y1661154D1*
X2075681Y1652798D1*
X2070168Y1645210D1*
X2063537Y1638579D1*
X2055949Y1633066D1*
X2049140Y1629522D1*
X2055949Y1625932D1*
X2063537Y1620419D1*
X2070168Y1613787D1*
X2075681Y1606199D1*
X2079938Y1597844D1*
X2082837Y1588924D1*
X2084304Y1579660D1*
Y1570282D1*
X2082837Y1561018D1*
X2079938Y1552098D1*
X2075681Y1543743D1*
X2070168Y1536155D1*
X2063537Y1529524D1*
X2055949Y1524010D1*
X2047593Y1519753D1*
X2038673Y1516854D1*
X2029409Y1515387D1*
X2020031D1*
X2010768Y1516854D1*
X2001848Y1519753D1*
X1993492Y1524010D1*
X1985904Y1529524D1*
X1979273Y1536155D1*
X1973760Y1543743D1*
X1969503Y1552098D1*
X1966604Y1561018D1*
X1965136Y1570282D1*
Y1579660D1*
X1966604Y1588924D1*
X1969503Y1597844D1*
X1973760Y1606199D1*
X1979273Y1613787D1*
X1985904Y1620419D1*
X1993492Y1625932D1*
X2000301Y1629475D1*
X1993492Y1633066D1*
X1985904Y1638579D1*
X1979273Y1645210D1*
X1973760Y1652798D1*
X1969503Y1661154D1*
X1966604Y1670073D1*
X1965136Y1679337D1*
Y1688715D1*
X1966604Y1697979D1*
X1969503Y1706899D1*
X1973760Y1715255D1*
X1979273Y1722843D1*
X1985904Y1729474D1*
X1993492Y1734987D1*
X2000301Y1738530D1*
X1993492Y1742121D1*
X1985904Y1747634D1*
X1979273Y1754265D1*
X1973760Y1761853D1*
X1969503Y1770209D1*
X1966604Y1779129D1*
X1965136Y1788392D1*
Y1797770D1*
X1966604Y1807034D1*
X1969503Y1815954D1*
X1973760Y1824310D1*
X1979273Y1831898D1*
X1985904Y1838529D1*
X1993492Y1844042D1*
X2000301Y1847585D1*
X1993492Y1851176D1*
X1985904Y1856689D1*
X1979273Y1863320D1*
X1973760Y1870908D1*
X1969503Y1879264D1*
X1966604Y1888184D1*
X1965203Y1896883D1*
X1946749Y1896896D1*
X1955172Y1889871D1*
X1961262Y1882740D1*
X1966163Y1874743D1*
X1969752Y1866079D1*
X1971941Y1856958D1*
X1972677Y1847609D1*
X1971941Y1838260D1*
X1969752Y1829139D1*
X1966163Y1820475D1*
X1961262Y1812478D1*
X1955172Y1805346D1*
X1948041Y1799256D1*
X1940043Y1794356D1*
X1937329Y1793105D1*
X1944138Y1789514D1*
X1951726Y1784001D1*
X1958357Y1777370D1*
X1963870Y1769782D1*
X1968127Y1761427D1*
X1971026Y1752507D1*
X1972493Y1743243D1*
Y1733865D1*
X1971026Y1724601D1*
X1968127Y1715681D1*
X1963870Y1707325D1*
X1958357Y1699738D1*
X1951726Y1693106D1*
X1944138Y1687593D1*
X1937329Y1684050D1*
X1944138Y1680459D1*
X1951726Y1674946D1*
X1958357Y1668315D1*
X1963870Y1660727D1*
X1968127Y1652371D1*
X1971026Y1643451D1*
X1972493Y1634188D1*
Y1624810D1*
X1971026Y1615546D1*
X1968127Y1606626D1*
X1963870Y1598270D1*
X1958357Y1590682D1*
X1951726Y1584051D1*
X1944138Y1578538D1*
X1937329Y1574995D1*
X1944138Y1571404D1*
X1951726Y1565891D1*
X1958357Y1559260D1*
X1963870Y1551672D1*
X1968127Y1543316D1*
X1971026Y1534396D1*
X1972493Y1525133D1*
Y1515755D1*
X1971026Y1506491D1*
X1968127Y1497571D1*
X1963870Y1489215D1*
X1958357Y1481627D1*
X1951726Y1474996D1*
X1944138Y1469483D1*
X1935782Y1465226D1*
X1926862Y1462327D1*
X1917598Y1460860D1*
X1908220D1*
X1898957Y1462327D1*
X1890037Y1465226D1*
X1881681Y1469483D1*
X1874093Y1474996D1*
X1867462Y1481627D1*
X1861949Y1489215D1*
X1857692Y1497571D1*
X1854793Y1506491D1*
X1853325Y1515755D1*
Y1525133D1*
X1854793Y1534396D1*
X1857692Y1543316D1*
X1861949Y1551672D1*
X1867462Y1559260D1*
X1874093Y1565891D1*
X1881681Y1571404D1*
X1888490Y1574948D1*
X1881681Y1578538D1*
X1874093Y1584051D1*
X1867462Y1590682D1*
X1861949Y1598270D1*
X1857692Y1606626D1*
X1854793Y1615546D1*
X1853325Y1624810D1*
Y1634188D1*
X1854793Y1643451D1*
X1857692Y1652371D1*
X1861949Y1660727D1*
X1867462Y1668315D1*
X1874093Y1674946D1*
X1881681Y1680459D1*
X1888490Y1684003D1*
X1881681Y1687593D1*
X1874093Y1693106D1*
X1867462Y1699738D1*
X1861949Y1707325D1*
X1857692Y1715681D1*
X1854793Y1724601D1*
X1853325Y1733865D1*
Y1743243D1*
X1854793Y1752507D1*
X1857692Y1761427D1*
X1861949Y1769782D1*
X1867462Y1777370D1*
X1874093Y1784001D1*
X1881681Y1789514D1*
X1888490Y1793058D1*
X1881681Y1796648D1*
X1874093Y1802161D1*
X1867462Y1808793D1*
X1862122Y1816121D1*
X1279169Y1816109D1*
X1116723Y1653815D1*
X1110566Y1649701D1*
X1103618Y1647138D1*
X1096265Y1646268D1*
X888892D1*
X890577Y1638848D1*
X891314Y1629499D1*
X890577Y1620150D1*
X888388Y1611029D1*
X886696Y1606476D1*
X1140681Y1606374D1*
X1147944Y1604929D1*
X1154669Y1601829D1*
X1160484Y1597245D1*
X1180268Y1577461D1*
X1189369Y1578887D1*
X1198778D1*
X1208072Y1577415D1*
X1217021Y1574508D1*
X1225406Y1570236D1*
X1233017Y1564705D1*
X1239671Y1558051D1*
X1245202Y1550440D1*
X1249474Y1542055D1*
X1252381Y1533106D1*
X1253853Y1523812D1*
Y1514403D1*
X1252421Y1505307D1*
X1391843Y1365749D1*
X1395957Y1359592D1*
X1398520Y1352644D1*
X1399390Y1345291D1*
Y1233427D1*
X1402207Y1241650D1*
Y1246520D1*
X1418858D1*
X1418958Y1357798D1*
X1420403Y1365060D1*
X1423503Y1371785D1*
X1428087Y1377600D1*
X1449904Y1399280D1*
X1456062Y1403394D1*
X1463008Y1405957D1*
X1470362Y1406827D1*
X2255365Y1406730D1*
X2262629Y1405285D1*
X2269353Y1402185D1*
X2275168Y1397601D1*
X2296846Y1375785D1*
X2300961Y1369627D1*
X2303524Y1362681D1*
X2304394Y1355327D1*
X2304297Y589475D1*
X2302853Y582211D1*
X2299752Y575487D1*
X2295168Y569672D1*
X2273352Y547993D1*
X2267196Y543879D1*
X2260248Y541316D1*
X2252894Y540446D1*
X2219154D1*
X2219117Y503123D1*
X2038164D1*
Y640769D1*
X2097100D1*
X2097140Y731467D1*
X2083440Y731470D1*
Y869115D1*
X2173841D1*
Y731470D1*
X2160121D1*
X2160140Y640772D1*
X2219117Y640769D1*
Y603416D1*
X2239822Y603446D1*
X2241394Y616946D1*
Y731448D1*
X2173991Y731470D1*
Y869115D1*
X2187711D1*
X2187692Y916650D1*
X2069625Y916625D1*
X2069589Y869109D1*
X2083290Y869115D1*
Y731470D1*
X2067421D1*
X2064948Y726510D1*
X2060364Y720696D1*
X2054549Y716110D1*
X2047823Y713010D1*
X2040560Y711566D1*
X1917591Y711469D1*
X1910228Y712343D1*
X1909089Y706517D1*
Y685210D1*
X1894392D1*
X1894307Y653339D1*
X1892862Y646076D1*
X1889762Y639352D1*
X1885178Y633537D1*
X1878445Y626803D1*
X1878472Y592094D1*
X1884592Y585178D1*
X1888404Y578957D1*
X1891196Y572215D1*
X1892899Y565121D1*
X1893472Y557846D1*
X1892899Y550572D1*
X1891196Y543476D1*
X1888404Y536735D1*
X1884592Y530514D1*
X1879853Y524966D1*
X1878480Y523697D1*
X1878375Y454982D1*
X1876930Y447719D1*
X1873831Y440993D1*
X1869245Y435178D1*
X1867423Y433493D1*
X1870000Y432500D1*
X2315459D1*
X2315500Y2315459D1*
X2053810Y2315478D1*
X2060217Y2308547D1*
X2066059Y2301135D1*
X2071303Y2293287D1*
X2075915Y2285052D1*
X2079866Y2276482D1*
X2083133Y2267627D1*
X2085694Y2258543D1*
X2087535Y2249286D1*
X2088646Y2239913D1*
X2089016Y2230483D1*
X2088646Y2221052D1*
X2087535Y2211680D1*
X2085694Y2202423D1*
X2083133Y2193339D1*
X2079866Y2184484D1*
X2075915Y2175913D1*
X2071303Y2167678D1*
X2066059Y2159831D1*
X2060217Y2152419D1*
X2053810Y2145488D1*
X2046879Y2139081D1*
X2039467Y2133239D1*
X2031619Y2127995D1*
X2023385Y2123383D1*
X2014814Y2119432D1*
X2005959Y2116165D1*
X1996875Y2113604D1*
X1987618Y2111762D1*
X1978245Y2110652D1*
X1968815Y2110282D1*
X1959385Y2110652D1*
X1950012Y2111762D1*
X1940755Y2113604D1*
X1931671Y2116165D1*
X1922816Y2119432D1*
X1914245Y2123383D1*
X1906010Y2127995D1*
X1898163Y2133239D1*
X1890751Y2139081D1*
X1883820Y2145488D1*
X1877413Y2152419D1*
X1871571Y2159831D1*
X1866327Y2167678D1*
X1861715Y2175913D1*
X1857764Y2184484D1*
X1854497Y2193339D1*
X1851936Y2202423D1*
X1850094Y2211680D1*
X1848984Y2221052D1*
X1848614Y2230483D1*
X1848984Y2239913D1*
X1850094Y2249286D1*
X1851936Y2258543D1*
X1854497Y2267627D1*
X1857764Y2276482D1*
X1861715Y2285052D1*
X1866327Y2293287D1*
X1871571Y2301135D1*
X1877413Y2308547D1*
X1883848Y2315503D1*
X860635Y2315478D1*
X867042Y2308547D1*
X872885Y2301135D1*
X878129Y2293287D1*
X882740Y2285052D1*
X886692Y2276482D1*
X889958Y2267627D1*
X892520Y2258543D1*
X894361Y2249286D1*
X895471Y2239913D1*
X895841Y2230483D1*
X895471Y2221052D1*
X894361Y2211680D1*
X892520Y2202423D1*
X889958Y2193339D1*
X886692Y2184484D1*
X882740Y2175913D1*
X878129Y2167678D1*
X872885Y2159831D1*
X867042Y2152419D1*
X860635Y2145488D1*
X853705Y2139081D1*
X846293Y2133239D1*
X838445Y2127995D1*
X830210Y2123383D1*
X821639Y2119432D1*
X812785Y2116165D1*
X803701Y2113604D1*
X794444Y2111762D1*
X785071Y2110652D1*
X775640Y2110282D1*
X766210Y2110652D1*
X756837Y2111762D1*
X747580Y2113604D1*
X738496Y2116165D1*
X729642Y2119432D1*
X721071Y2123383D1*
X712836Y2127995D1*
X704988Y2133239D1*
X697576Y2139081D1*
X690646Y2145488D1*
X684239Y2152419D1*
X678396Y2159831D1*
X673152Y2167678D1*
X668541Y2175913D1*
X664589Y2184484D1*
X661323Y2193339D1*
X658761Y2202423D1*
X656920Y2211680D1*
X655810Y2221052D1*
X655440Y2230483D1*
X655810Y2239913D1*
X656920Y2249286D1*
X658761Y2258543D1*
X661323Y2267627D1*
X664589Y2276482D1*
X668541Y2285052D1*
X673152Y2293287D1*
X678396Y2301135D1*
X684239Y2308547D1*
X690500Y2315500D1*
X432541D1*
X432500Y432541D1*
X528155Y432500D1*
X528151Y660568D1*
X523192Y663058D1*
X517377Y667642D1*
X495697Y689459D1*
X491583Y695617D1*
X489020Y702563D1*
X488150Y709917D1*
X488247Y1605711D1*
X489692Y1612974D1*
X492791Y1619698D1*
X497377Y1625514D1*
X519193Y1647193D1*
X525349Y1651307D1*
X532297Y1653870D1*
X539650Y1654740D1*
X667629D1*
X664517Y1661154D1*
X661618Y1670073D1*
X660151Y1679337D1*
Y1688715D1*
X661618Y1697979D1*
X664517Y1706899D1*
X668774Y1715255D1*
X674287Y1722843D1*
X680919Y1729474D1*
X688507Y1734987D1*
X695315Y1738530D1*
X688507Y1742121D1*
X680919Y1747634D1*
X674287Y1754265D1*
X668774Y1761853D1*
X664517Y1770209D1*
X661618Y1779129D1*
X660151Y1788392D1*
Y1797770D1*
X661618Y1807034D1*
X664517Y1815954D1*
X668774Y1824310D1*
X674287Y1831898D1*
X680919Y1838529D1*
X688507Y1844042D1*
X695315Y1847585D1*
X688507Y1851176D1*
X680919Y1856689D1*
X674287Y1863320D1*
X668774Y1870908D1*
X664517Y1879264D1*
X661618Y1888184D1*
X660151Y1897448D1*
Y1906825D1*
X661618Y1916089D1*
X664517Y1925009D1*
X668774Y1933365D1*
X674287Y1940953D1*
X680919Y1947584D1*
X688507Y1953097D1*
X696862Y1957354D1*
X705782Y1960253D1*
X715046Y1961720D1*
X724424D1*
X733688Y1960253D1*
X742608Y1957354D1*
X750963Y1953097D1*
X758551Y1947584D1*
X765182Y1940953D1*
X770696Y1933365D1*
X771780Y1931429D1*
X771778Y2016432D1*
X846730D1*
X959554Y2129083D1*
X965711Y2133197D1*
X972659Y2135760D1*
X980012Y2136630D1*
X1012580D1*
X1010774Y2142665D1*
X1009302Y2151959D1*
Y2161369D1*
X1010774Y2170663D1*
X1013681Y2179612D1*
X1017953Y2187996D1*
X1023484Y2195608D1*
X1030138Y2202261D1*
X1037749Y2207793D1*
X1046134Y2212064D1*
X1055083Y2214971D1*
X1064377Y2216444D1*
X1073786D1*
X1083080Y2214971D1*
X1092029Y2212064D1*
X1100413Y2207793D1*
X1108025Y2202261D1*
X1114678Y2195608D1*
X1119055Y2189723D1*
X1123484Y2195608D1*
X1130138Y2202261D1*
X1137749Y2207793D1*
X1146134Y2212064D1*
X1155083Y2214971D1*
X1164377Y2216444D1*
X1173786D1*
X1183080Y2214971D1*
X1192029Y2212064D1*
X1200413Y2207793D1*
X1208025Y2202261D1*
X1214678Y2195608D1*
X1220210Y2187996D1*
X1224482Y2179612D1*
X1227388Y2170663D1*
X1228861Y2161369D1*
Y2151959D1*
X1227388Y2142665D1*
X1224482Y2133717D1*
X1220210Y2125332D1*
X1214678Y2117720D1*
X1208025Y2111067D1*
X1202140Y2106690D1*
X1208025Y2102261D1*
X1214678Y2095608D1*
X1220210Y2087996D1*
X1224482Y2079612D1*
X1227388Y2070663D1*
X1228861Y2061369D1*
Y2051959D1*
X1227388Y2042665D1*
X1224482Y2033717D1*
X1220210Y2025332D1*
X1214678Y2017720D1*
X1213668Y2016626D1*
X1010734Y2042864D2*
X1009302Y2051959D1*
Y2061369D1*
X1010774Y2070663D1*
X1011608Y2073618D1*
X993028Y2073630D1*
X891282Y1971853D1*
X891314Y1896896D1*
X865386D1*
X873808Y1889871D1*
X879899Y1882740D1*
X884799Y1874743D1*
X888388Y1866079D1*
X890577Y1856958D1*
X891314Y1847609D1*
X890577Y1838260D1*
X888388Y1829139D1*
X886696Y1824587D1*
X967538Y1824581D1*
X969114Y1838081D1*
X969211Y1990668D1*
X970656Y1997930D1*
X973756Y2004655D1*
X978340Y2010471D1*
X1010761Y2042891D1*
X1154038Y1374433D2*
Y1359143D1*
X1062094D1*
X1062106Y1298169D1*
X1330361Y1298029D1*
X1335253Y1297253D1*
X1336390Y1307835D1*
Y1332201D1*
X1253879Y1414755D1*
X1252381Y1405109D1*
X1249474Y1396160D1*
X1245202Y1387776D1*
X1239671Y1380164D1*
X1233017Y1373510D1*
X1225406Y1367979D1*
X1217021Y1363707D1*
X1208072Y1360801D1*
X1198778Y1359328D1*
X1189369D1*
X1180075Y1360801D1*
X1171126Y1363707D1*
X1162741Y1367979D1*
X1155130Y1373510D1*
X1154035Y1374521D1*
X1035726Y1505307D2*
X1034294Y1514403D1*
Y1523812D1*
X1035766Y1533106D1*
X1038673Y1542055D1*
X1039328Y1543475D1*
X886764Y1543316D1*
X889663Y1534396D1*
X891130Y1525133D1*
Y1515755D1*
X889663Y1506491D1*
X886764Y1497571D1*
X882507Y1489215D1*
X876993Y1481627D1*
X870362Y1474996D1*
X862774Y1469483D1*
X854419Y1465226D1*
X845499Y1462327D1*
X836235Y1460860D1*
X826857D1*
X817593Y1462327D1*
X808673Y1465226D1*
X800318Y1469483D1*
X792730Y1474996D1*
X786098Y1481627D1*
X780585Y1489215D1*
X776328Y1497571D1*
X773429Y1506491D1*
X771962Y1515755D1*
Y1525133D1*
X773429Y1534396D1*
X776396Y1543466D1*
X770486Y1543471D1*
X765182Y1536155D1*
X758551Y1529524D1*
X750963Y1524010D1*
X742608Y1519753D1*
X733688Y1516854D1*
X724424Y1515387D1*
X715046D1*
X705782Y1516854D1*
X696862Y1519753D1*
X688507Y1524010D1*
X680919Y1529524D1*
X674287Y1536155D1*
X668774Y1543743D1*
X664517Y1552098D1*
X661618Y1561018D1*
X660151Y1570282D1*
Y1579660D1*
X661618Y1588924D1*
X662409Y1591728D1*
X552703Y1591740D1*
X551150Y1578240D1*
Y1071551D1*
X564723D1*
X567163Y1076509D1*
X571747Y1082325D1*
X577562Y1086909D1*
X584287Y1090009D1*
X591550Y1091454D1*
X748269Y1091551D1*
X745682Y1097357D1*
X744238Y1104619D1*
X744140Y1130577D1*
X729642Y1135573D1*
X721071Y1139525D1*
X712836Y1144136D1*
X704988Y1149381D1*
X697576Y1155223D1*
X690646Y1161630D1*
X684239Y1168560D1*
X678396Y1175972D1*
X673152Y1183820D1*
X668541Y1192055D1*
X664589Y1200626D1*
X661323Y1209480D1*
X658761Y1218564D1*
X656920Y1227822D1*
X655810Y1237194D1*
X655440Y1246625D1*
X655810Y1256055D1*
X656920Y1265428D1*
X658761Y1274685D1*
X661323Y1283769D1*
X664589Y1292623D1*
X668541Y1301194D1*
X673152Y1309429D1*
X678396Y1317277D1*
X684239Y1324689D1*
X690646Y1331619D1*
X697576Y1338026D1*
X704988Y1343869D1*
X712836Y1349113D1*
X721071Y1353724D1*
X729642Y1357676D1*
X738496Y1360942D1*
X747580Y1363504D1*
X756837Y1365345D1*
X766210Y1366455D1*
X775640Y1366825D1*
X785071Y1366455D1*
X794444Y1365345D1*
X803701Y1363504D1*
X812785Y1360942D1*
X821639Y1357676D1*
X830210Y1353724D1*
X838445Y1349113D1*
X846293Y1343869D1*
X853705Y1338026D1*
X860635Y1331619D1*
X867042Y1324689D1*
X872885Y1317277D1*
X878129Y1309429D1*
X882740Y1301194D1*
X886692Y1292623D1*
X891550Y1278127D1*
X997564Y1278125D1*
X999106Y1291626D1*
X999203Y1458112D1*
X1000647Y1465374D1*
X1003748Y1472098D1*
X1008332Y1477915D1*
X1035711Y1505294D1*
X731303Y966630D2*
X714635D1*
Y1028593D1*
X659908Y1028551D1*
X659891Y802016D1*
X551151D1*
X551150Y722917D1*
X564651Y721416D1*
X602004D1*
X602037Y728566D1*
X603178Y735772D1*
X605433Y742711D1*
X608747Y749213D1*
X613035Y755117D1*
X618194Y760276D1*
X624098Y764564D1*
X630600Y767878D1*
X637539Y770133D1*
X644745Y771274D1*
X652042D1*
X659249Y770133D1*
X666189Y767878D1*
X672690Y764564D1*
X678593Y760276D1*
X683753Y755117D1*
X688042Y749213D1*
X689276Y747010D1*
X857951Y747007D1*
X857987Y754156D1*
X859127Y761364D1*
X861383Y768303D1*
X864696Y774804D1*
X868984Y780707D1*
X874782Y786370D1*
X780319Y786466D1*
X773056Y787911D1*
X766332Y791010D1*
X760516Y795594D1*
X738836Y817412D1*
X734722Y823570D1*
X732159Y830517D1*
X731289Y837870D1*
Y966630D1*
X860617Y1059000D2*
X877871D1*
Y966630D1*
X794327D1*
X794289Y894798D1*
X800076Y897094D1*
X807171Y898798D1*
X814445Y899370D1*
X821719Y898798D1*
X828814Y897094D1*
X835555Y894302D1*
X841777Y890490D1*
X847325Y885751D1*
X852064Y880202D1*
X855327Y874963D1*
X990311Y874959D1*
X986451Y879593D1*
X982639Y885815D1*
X979846Y892555D1*
X978143Y899651D1*
X977571Y906925D1*
X978143Y914199D1*
X979846Y921294D1*
X982639Y928035D1*
X986451Y934257D1*
X991190Y939806D1*
X996739Y944545D1*
X1002961Y948357D1*
X1009702Y951150D1*
X1014070Y952310D1*
X1012665Y959453D1*
X1012568Y961934D1*
X1004722Y966630D1*
X995915D1*
Y1059000D1*
X1012566D1*
X1012665Y1133610D1*
X1014110Y1140873D1*
X1017210Y1147597D1*
X1021794Y1153412D1*
X1043610Y1175091D1*
X1049768Y1179205D1*
X1056714Y1181768D1*
X1064068Y1182638D1*
X1278668D1*
X1285558Y1188757D1*
X1291780Y1192570D1*
X1298521Y1195362D1*
X1305615Y1197066D1*
X1312890Y1197638D1*
X1316382Y1197501D1*
X1316390Y1233583D1*
X1302890Y1235126D1*
X1043661D1*
X1031062Y1222672D1*
X1024906Y1218558D1*
X1017958Y1215995D1*
X1010605Y1215125D1*
X891610D1*
X886692Y1200626D1*
X882740Y1192055D1*
X878129Y1183820D1*
X872885Y1175972D1*
X867042Y1168560D1*
X860635Y1161630D1*
X853705Y1155223D1*
X846293Y1149381D1*
X838445Y1144136D1*
X830210Y1139525D1*
X821639Y1135573D1*
X807143Y1130715D1*
X807140Y1120112D1*
X853671Y1073471D1*
X857785Y1067314D1*
X860349Y1060357D1*
X727135Y515193D2*
X731286D1*
X731676Y523936D1*
X733686Y531063D1*
X737304Y537524D1*
X742331Y542961D1*
X748488Y547075D1*
X755436Y549638D1*
X762789Y550508D1*
X780220D1*
X787113Y556627D1*
X793335Y560440D1*
X800076Y563232D1*
X807171Y564936D1*
X814445Y565508D1*
X821719Y564936D1*
X828814Y563232D1*
X835555Y560440D1*
X841777Y556627D1*
X847325Y551888D1*
X852064Y546340D1*
X855877Y540118D1*
X858669Y533377D1*
X860373Y526282D1*
X860945Y519008D1*
X860783Y515203D1*
X881374Y515508D1*
X888648Y514936D1*
X895743Y513232D1*
X902484Y510440D1*
X908706Y506627D1*
X914255Y501888D1*
X918993Y496340D1*
X922806Y490118D1*
X925598Y483377D1*
X927302Y476282D1*
X927874Y469008D1*
X927302Y461734D1*
X925598Y454639D1*
X922806Y447898D1*
X918993Y441676D1*
X914255Y436127D1*
X910106Y432492D1*
X1411944Y432500D1*
X1407189Y436995D1*
X1403075Y443152D1*
X1400512Y450100D1*
X1399642Y457462D1*
Y529280D1*
X1397071Y520949D1*
X1393757Y514448D1*
X1389469Y508545D1*
X1384310Y503385D1*
X1378407Y499096D1*
X1371904Y495783D1*
X1364965Y493529D1*
X1357759Y492387D1*
X1350462D1*
X1343255Y493529D1*
X1336315Y495783D1*
X1329814Y499096D1*
X1323911Y503385D1*
X1318751Y508545D1*
X1314462Y514448D1*
X1311150Y520949D1*
X1308895Y527888D1*
X1307753Y535096D1*
Y542392D1*
X1308895Y549600D1*
X1311150Y556539D1*
X1314462Y563041D1*
X1318751Y568944D1*
X1322601Y572892D1*
X1322610Y604320D1*
X1283626Y604361D1*
X1281197Y596549D1*
X1277883Y590047D1*
X1273594Y584143D1*
X1268436Y578984D1*
X1262533Y574696D1*
X1256030Y571383D1*
X1249092Y569127D1*
X1241885Y567987D1*
X1234588D1*
X1227381Y569127D1*
X1220441Y571383D1*
X1213940Y574696D1*
X1208037Y578984D1*
X1202877Y584143D1*
X1198588Y590047D1*
X1195276Y596549D1*
X1193021Y603488D1*
X1191879Y610694D1*
Y617991D1*
X1192217Y620839D1*
X1183030Y618412D1*
X1175756Y617839D1*
X1172264Y617976D1*
X1172256Y517983D1*
X1178375Y511076D1*
X1182188Y504854D1*
X1184980Y498113D1*
X1186684Y491018D1*
X1187256Y483744D1*
X1186684Y476470D1*
X1184980Y469375D1*
X1182188Y462634D1*
X1178375Y456412D1*
X1173636Y450864D1*
X1168088Y446125D1*
X1161866Y442312D1*
X1155125Y439520D1*
X1148030Y437816D1*
X1140756Y437244D1*
X1133482Y437816D1*
X1126387Y439520D1*
X1119646Y442312D1*
X1113424Y446125D1*
X1107875Y450864D1*
X1103136Y456412D1*
X1099324Y462634D1*
X1096531Y469375D1*
X1094828Y476470D1*
X1094256Y483744D1*
X1094828Y491018D1*
X1096531Y498113D1*
X1099324Y504854D1*
X1103136Y511076D1*
X1107875Y516625D1*
X1109248Y517892D1*
X1109256Y604399D1*
X1024902Y604361D1*
X1029534Y598041D1*
X1032846Y591539D1*
X1035101Y584600D1*
X1036243Y577392D1*
Y570096D1*
X1035101Y562888D1*
X1032846Y555949D1*
X1029534Y549448D1*
X1025245Y543545D1*
X1020085Y538385D1*
X1014182Y534096D1*
X1007681Y530783D1*
X1000741Y528529D1*
X993534Y527387D1*
X986238D1*
X979030Y528529D1*
X972092Y530783D1*
X965589Y534096D1*
X959686Y538385D1*
X954528Y543545D1*
X950239Y549448D1*
X946925Y555949D1*
X944671Y562888D1*
X943529Y570096D1*
Y577392D1*
X944671Y584600D1*
X946925Y591539D1*
X950239Y598041D1*
X954528Y603944D1*
X958378Y607892D1*
X958483Y646794D1*
X959928Y654056D1*
X960787Y656386D1*
X950322Y658416D1*
X659843D1*
X659891Y465552D1*
X714676Y465512D1*
X714635Y515193D1*
X727135D1*
X1075554Y1059000D2*
X1159151D1*
Y1044303D1*
X1200206Y1044315D1*
X1227463Y1071457D1*
X1233621Y1075571D1*
X1240567Y1078134D1*
X1247921Y1079004D1*
X1254903D1*
X1261774Y1085123D1*
X1267996Y1088936D1*
X1274736Y1091728D1*
X1281832Y1093432D1*
X1289106Y1094004D1*
X1290972Y1093930D1*
X1302774Y1105720D1*
X1295096Y1108177D1*
X1288593Y1111491D1*
X1282690Y1115780D1*
X1278741Y1119630D1*
X1077098Y1119638D1*
X1075568Y1106138D1*
Y1059020D1*
X1600144Y1154150D2*
X1583476D1*
Y1203514D1*
X1565404Y1203520D1*
X1565444Y1154150D1*
X1548794D1*
X1548790Y1149016D1*
X1555164Y1148428D1*
X1562260Y1146724D1*
X1569000Y1143932D1*
X1575222Y1140119D1*
X1580770Y1135381D1*
X1585509Y1129832D1*
X1589322Y1123610D1*
X1592114Y1116869D1*
X1593818Y1109774D1*
X1594390Y1102500D1*
X1593818Y1095226D1*
X1592114Y1088131D1*
X1589322Y1081390D1*
X1586594Y1076793D1*
X1591434Y1074358D1*
X1597249Y1069774D1*
X1598934Y1067950D1*
X1600130Y1075315D1*
Y1154172D1*
X1727896Y1246520D2*
X1746713D1*
Y1154150D1*
X1730063D1*
X1730059Y1058978D1*
X1746713Y1059000D1*
Y1044303D1*
X1863354Y1044315D1*
X1870259Y1050434D1*
X1876480Y1054247D1*
X1883222Y1057039D1*
X1890316Y1058743D1*
X1897591Y1059315D1*
X1904865Y1058743D1*
X1911961Y1057039D1*
X1918702Y1054247D1*
X1924923Y1050434D1*
X1930471Y1045696D1*
X1931740Y1044323D1*
X2144827Y1044218D1*
X2152089Y1042773D1*
X2158815Y1039673D1*
X2164630Y1035089D1*
X2169214Y1029274D1*
X2172314Y1022549D1*
X2173759Y1015286D1*
X2173856Y1012806D1*
X2181702Y1008995D1*
X2190509D1*
Y994297D1*
X2204117Y993923D1*
X2211244Y991912D1*
X2217705Y988294D1*
X2221463Y985084D1*
X2241402Y965144D1*
X2241394Y1342287D1*
X2227894Y1343827D1*
X2039564D1*
X2046879Y1338026D1*
X2053810Y1331619D1*
X2060217Y1324689D1*
X2066059Y1317277D1*
X2071303Y1309429D1*
X2075915Y1301194D1*
X2079866Y1292623D1*
X2083133Y1283769D1*
X2085694Y1274685D1*
X2087535Y1265428D1*
X2088646Y1256055D1*
X2089016Y1246625D1*
X2088646Y1237194D1*
X2087535Y1227822D1*
X2085694Y1218564D1*
X2083133Y1209480D1*
X2079866Y1200626D1*
X2075915Y1192055D1*
X2071303Y1183820D1*
X2066059Y1175972D1*
X2060217Y1168560D1*
X2053810Y1161630D1*
X2046879Y1155223D1*
X2039467Y1149381D1*
X2031619Y1144136D1*
X2023385Y1139525D1*
X2014814Y1135573D1*
X2005959Y1132307D1*
X1996875Y1129745D1*
X1987618Y1127904D1*
X1978245Y1126794D1*
X1968815Y1126424D1*
X1959385Y1126794D1*
X1950012Y1127904D1*
X1940755Y1129745D1*
X1931671Y1132307D1*
X1922816Y1135573D1*
X1914245Y1139525D1*
X1906010Y1144136D1*
X1898163Y1149381D1*
X1890751Y1155223D1*
X1883820Y1161630D1*
X1877413Y1168560D1*
X1871571Y1175972D1*
X1866327Y1183820D1*
X1861715Y1192055D1*
X1857764Y1200626D1*
X1854497Y1209480D1*
X1851936Y1218564D1*
X1850094Y1227822D1*
X1848984Y1237194D1*
X1848614Y1246625D1*
X1848984Y1256055D1*
X1850094Y1265428D1*
X1851936Y1274685D1*
X1854497Y1283769D1*
X1857764Y1292623D1*
X1861715Y1301194D1*
X1866327Y1309429D1*
X1871571Y1317277D1*
X1877413Y1324689D1*
X1883820Y1331619D1*
X1890751Y1338026D1*
X1898134Y1343846D1*
X1483412Y1343827D1*
X1481861Y1330325D1*
Y1246488D1*
X1488188Y1247075D1*
X1491806Y1253535D1*
X1496832Y1258972D1*
X1502990Y1263087D1*
X1509937Y1265650D1*
X1517290Y1266520D1*
X1542730D1*
X1539929Y1272226D1*
X1537675Y1279165D1*
X1536533Y1286371D1*
Y1293668D1*
X1537675Y1300875D1*
X1539929Y1307815D1*
X1543243Y1314316D1*
X1547531Y1320219D1*
X1552690Y1325379D1*
X1558593Y1329668D1*
X1565096Y1332980D1*
X1572035Y1335235D1*
X1579241Y1336377D1*
X1586538D1*
X1593745Y1335235D1*
X1600685Y1332980D1*
X1607186Y1329668D1*
X1613089Y1325379D1*
X1617039Y1321529D1*
X1662138Y1321520D1*
X1669022Y1327639D1*
X1675244Y1331451D1*
X1681984Y1334244D1*
X1689080Y1335948D1*
X1696354Y1336520D1*
X1703629Y1335948D1*
X1710723Y1334244D1*
X1717465Y1331451D1*
X1723686Y1327639D1*
X1729235Y1322900D1*
X1733974Y1317352D1*
X1737786Y1311130D1*
X1740579Y1304390D1*
X1742282Y1297294D1*
X1742854Y1290020D1*
X1742282Y1282745D1*
X1740579Y1275651D1*
X1737786Y1268909D1*
X1733974Y1262688D1*
X1729235Y1257139D1*
X1724437Y1252992D1*
X1727664Y1247066D1*
X1418875Y1154150D2*
X1402207D1*
Y1168846D1*
X1385419Y1168932D1*
X1380528Y1169707D1*
X1379390Y1159126D1*
X1379293Y1103816D1*
X1377848Y1096554D1*
X1374748Y1089829D1*
X1370164Y1084014D1*
X1335534Y1049383D1*
X1335463Y1043856D1*
X1334602Y1038062D1*
X1402188Y1038064D1*
X1402207Y1052749D1*
X1419346D1*
X1421259Y1059555D1*
X1424883Y1066022D1*
X1424877Y1068984D1*
X1421259Y1075446D1*
X1419248Y1082572D1*
X1418861Y1087500D1*
Y1154151D1*
X1469169Y960379D2*
X1402207D1*
Y975076D1*
X1388398Y975064D1*
X1393749Y967997D1*
X1397063Y961496D1*
X1399318Y954556D1*
X1400458Y947349D1*
Y940052D1*
X1399318Y932845D1*
X1397063Y925907D1*
X1393749Y919404D1*
X1389461Y913501D1*
X1385610Y909552D1*
X1385602Y873925D1*
X1392837Y880602D1*
X1399298Y884220D1*
X1406424Y886230D1*
X1411352Y886618D1*
X1556908D1*
X1556390Y893705D1*
X1556962Y900979D1*
X1558665Y908075D1*
X1561458Y914815D1*
X1565270Y921037D1*
X1570009Y926585D1*
X1575558Y931324D1*
X1581780Y935136D1*
X1588521Y937929D1*
X1595615Y939633D1*
X1602890Y940205D1*
X1610164Y939633D1*
X1617260Y937929D1*
X1624000Y935136D1*
X1630222Y931324D1*
X1635770Y926585D1*
X1637039Y925214D1*
X1880063Y925108D1*
X1887325Y923663D1*
X1894050Y920563D1*
X1899865Y915979D1*
X1921543Y894163D1*
X1925657Y888005D1*
X1928220Y881059D1*
X1929091Y873705D1*
Y776000D1*
X1942591Y774469D1*
X1992933D1*
X1992888Y869115D1*
X2006609D1*
X2006686Y965281D1*
X2008131Y972543D1*
X2011236Y979277D1*
X2004856Y981315D1*
X1931760D1*
X1927790Y977457D1*
X1921887Y973167D1*
X1915386Y969854D1*
X1908446Y967600D1*
X1901239Y966458D1*
X1895724Y966388D1*
X1877112Y947925D1*
X1870955Y943811D1*
X1864008Y941248D1*
X1856654Y940378D1*
X1514819Y940475D1*
X1507556Y941920D1*
X1500831Y945020D1*
X1495016Y949604D1*
X1490432Y955419D1*
X1488185Y959832D1*
X1469136Y960428D1*
X1879073Y1896896D2*
X1853142D1*
Y1971848D1*
X1831560Y1993466D1*
X1772815Y1993433D1*
X1772853Y1879136D1*
X1862151Y1879109D1*
X1867462Y1886425D1*
X1874093Y1893056D1*
X1879165Y1896888D1*
X1560442Y719857D2*
Y752083D1*
X1553293Y752109D1*
X1546085Y753249D1*
X1539146Y755505D1*
X1532644Y758818D1*
X1527806Y762268D1*
X1527799Y725538D1*
X1536614Y726382D1*
X1543888Y725810D1*
X1550983Y724106D1*
X1557724Y721314D1*
X1560450Y719787D1*
X1652812Y823619D2*
Y760827D1*
X1657774Y758394D1*
X1663589Y753810D1*
X1668178Y747986D1*
X1669496Y747995D1*
X1674080Y753810D1*
X1679895Y758394D1*
X1686619Y761493D1*
X1691436Y762648D1*
X1691755Y779689D1*
X1691706Y823602D1*
X1652783Y823618D1*
X1769391Y846618D2*
X1784076D1*
Y830651D1*
X1790108Y831696D1*
X1816748Y831793D1*
X1816719Y848446D1*
X1866084D1*
X1866091Y860675D1*
X1852591Y862205D1*
X1768558D1*
X1769391Y855118D1*
Y846573D1*
X1831404Y685210D2*
X1816719D1*
Y768789D1*
X1805629Y768793D1*
X1804079Y755293D1*
Y644386D1*
X1815773Y644346D1*
X1817013Y649612D1*
X1820114Y656337D1*
X1824698Y662152D1*
X1831430Y668885D1*
X1824705Y662159D1*
X1831404Y668848D1*
Y685253D1*
X1435429Y707551D2*
X1435478Y779689D1*
X1432699Y786328D1*
X1414560Y768325D1*
X1408403Y764211D1*
X1403827Y762318D1*
X1404310Y759702D1*
X1409469Y754542D1*
X1413757Y748639D1*
X1417071Y742138D1*
X1419325Y735198D1*
X1420467Y727991D1*
X1420537Y722476D1*
X1435433Y707567D1*
X797710Y1896896D2*
X779253D1*
X777852Y1888184D1*
X774953Y1879264D1*
X770696Y1870908D1*
X765182Y1863320D1*
X758551Y1856689D1*
X750963Y1851176D1*
X744155Y1847633D1*
X750963Y1844042D1*
X758551Y1838529D1*
X765182Y1831898D1*
X770522Y1824570D1*
X776328Y1824736D1*
X773429Y1833656D1*
X771962Y1842920D1*
Y1852298D1*
X773429Y1861562D1*
X776328Y1870482D1*
X780585Y1878837D1*
X786098Y1886425D1*
X792730Y1893056D1*
X797802Y1896888D1*
X781430Y1706060D2*
X778293Y1711420D1*
X774703Y1720084D1*
X772514Y1729205D1*
X771778Y1738554D1*
X772514Y1747903D1*
X774703Y1757024D1*
X776396Y1761576D1*
X768088Y1757950D1*
X761997Y1750819D1*
X754866Y1744728D1*
X746869Y1739828D1*
X744155Y1738577D1*
X750963Y1734987D1*
X758551Y1729474D1*
X765182Y1722843D1*
X770696Y1715255D1*
X774953Y1706899D1*
X776394Y1702995D1*
X780976Y1705839D1*
X1601398Y1879105D2*
X1594358Y1880882D1*
X1585665Y1884483D1*
X1577642Y1889400D1*
X1570487Y1895510D1*
X1564377Y1902665D1*
X1562915Y1904853D1*
X1558486Y1898969D1*
X1551832Y1892315D1*
X1544220Y1886783D1*
X1535836Y1882512D1*
X1526887Y1879605D1*
X1524379Y1879105D1*
X1601115Y1879109D1*
X1501398Y1879105D2*
X1494358Y1880882D1*
X1485665Y1884483D1*
X1477642Y1889400D1*
X1470487Y1895510D1*
X1464377Y1902665D1*
X1462915Y1904853D1*
X1458486Y1898969D1*
X1451832Y1892315D1*
X1444220Y1886783D1*
X1435836Y1882512D1*
X1426887Y1879605D1*
X1424379Y1879105D1*
X1501115Y1879109D1*
X1401398Y1879105D2*
X1394358Y1880882D1*
X1385665Y1884483D1*
X1377642Y1889400D1*
X1370487Y1895510D1*
X1364377Y1902665D1*
X1362915Y1904853D1*
X1358486Y1898969D1*
X1351832Y1892315D1*
X1344220Y1886783D1*
X1335836Y1882512D1*
X1326887Y1879605D1*
X1324379Y1879105D1*
X1401115Y1879109D1*
X1013433Y783495D2*
X1013388Y786375D1*
X933965Y786369D1*
X939702Y780707D1*
X943991Y774804D1*
X945224Y772601D1*
X1013412Y772597D1*
X1013388Y783538D1*
X1449171Y589255D2*
Y604782D1*
X1385623Y668282D1*
X1385610Y572972D1*
X1391730Y566076D1*
X1395542Y559854D1*
X1398335Y553113D1*
X1400038Y546018D1*
X1400268Y544077D1*
X1402039Y549900D1*
X1405657Y556361D1*
X1408869Y560119D1*
X1430685Y581799D1*
X1436841Y585913D1*
X1443789Y588476D1*
X1448681Y589249D1*
X1507803Y1078988D2*
X1504929Y1084705D1*
X1502675Y1091644D1*
X1501533Y1098852D1*
X1501463Y1104367D1*
X1491806Y1114585D1*
X1488188Y1121046D1*
X1486177Y1128172D1*
X1485790Y1133100D1*
Y1154144D1*
X1481861Y1150335D1*
Y1100579D1*
X1493066Y1089206D1*
X1497180Y1083049D1*
X1498218Y1080794D1*
X1507736Y1079000D1*
X1497180Y1083049D1*
X1498215Y1080803D1*
D15*
X1169081Y1956664D3*
D16*
X1069081D3*
X1169081Y2056664D3*
X1069081D3*
X1169081Y2156664D3*
X1069081D3*
D15*
X1094073Y1419108D3*
D16*
Y1519108D3*
X1194073Y1419108D3*
Y1519108D3*
D17*
X762789Y1012815D3*
X829718D3*
X762789Y469008D3*
X829718D3*
X1044068Y1012815D3*
X1110997D3*
X1631630Y1200335D3*
X1698559D3*
X1450361D3*
X1517290D3*
X1631630Y1012815D3*
X1698559D3*
X1450361Y1006564D3*
X1517290D3*
X2075427Y962810D3*
X2142356D3*
D19*
X594021Y562768D3*
Y936783D3*
D21*
X2219192Y800293D3*
X2128640D3*
X2038089D3*
D22*
X2128640Y571946D3*
D23*
X1912909Y1956664D3*
D24*
Y1847609D3*
Y1738554D3*
Y1629499D3*
Y1520444D3*
X2024720Y1902136D3*
Y1793081D3*
Y1684026D3*
Y1574971D3*
D25*
X1968815Y2230483D3*
Y1246625D3*
D26*
X1606627Y731535D3*
Y798465D3*
X1737891Y731535D3*
Y798465D3*
X1862904Y800293D3*
Y733364D3*
X1481614Y731535D3*
Y798465D3*
D23*
X831546Y1956664D3*
D24*
Y1847609D3*
Y1738554D3*
Y1629499D3*
Y1520444D3*
X719735Y1902136D3*
Y1793081D3*
Y1684026D3*
Y1574971D3*
D25*
X775641Y1246625D3*
Y2230483D3*
D15*
X1712888Y1937912D3*
D16*
X1612888D3*
X1512888D3*
X1412888D3*
X1312888D3*
D27*
X1075322Y869050D3*
Y843459D3*
Y817869D3*
Y792278D3*
Y766688D3*
Y741097D3*
Y715507D3*
Y689916D3*
Y664325D3*
Y638735D3*
X1303676D3*
X1303668Y664325D3*
Y689916D3*
Y715507D3*
Y741097D3*
Y766688D3*
Y792278D3*
Y817869D3*
Y843459D3*
Y869050D3*
D29*
X1587875Y562768D3*
X1613466D3*
X1639056D3*
X1664647D3*
X1690238D3*
D30*
X1517009Y557846D3*
X1761104D3*
D31*
X1481576Y457453D3*
X1796537D3*
D32*
X1591812D3*
X1686301D3*
M02*
