G04 DipTrace 3.0.0.1*
G04 TopMask.gbr*
%MOIN*%
G04 #@! TF.FileFunction,Soldermask,Top*
G04 #@! TF.Part,Single*
%ADD41R,0.082803X0.082803*%
%ADD43R,0.078866X0.082803*%
%ADD45R,0.090677X0.070992*%
%ADD47R,0.023748X0.06115*%
%ADD49R,0.078866X0.023748*%
%ADD51R,0.04737X0.051307*%
%ADD53C,0.195402*%
%ADD55C,0.074535*%
%ADD57R,0.074535X0.074535*%
%ADD59R,0.135953X0.092646*%
%ADD61R,0.045402X0.092646*%
%ADD63R,0.08674X0.224535*%
%ADD65R,0.051307X0.04737*%
%ADD67C,0.074929*%
%ADD69R,0.074929X0.074929*%
%FSLAX26Y26*%
G04*
G70*
G90*
G75*
G01*
G04 TopMask*
%LPD*%
D69*
X1169081Y1956664D3*
D67*
X1069081D3*
X1169081Y2056664D3*
X1069081D3*
X1169081Y2156664D3*
X1069081D3*
D69*
X1094073Y1419108D3*
D67*
Y1519108D3*
X1194073Y1419108D3*
Y1519108D3*
D65*
X762789Y1012815D3*
X829718D3*
X762789Y469008D3*
X829718D3*
X1044068Y1012815D3*
X1110997D3*
X1631630Y1200335D3*
X1698559D3*
X1450361D3*
X1517290D3*
X1631630Y1012815D3*
X1698559D3*
X1450361Y1006564D3*
X1517290D3*
X2075427Y962810D3*
X2142356D3*
D63*
X594021Y562768D3*
Y936783D3*
D61*
X2219192Y800293D3*
X2128640D3*
X2038089D3*
D59*
X2128640Y571946D3*
D57*
X1912909Y1956664D3*
D55*
Y1847609D3*
Y1738554D3*
Y1629499D3*
Y1520444D3*
X2024720Y1902136D3*
Y1793081D3*
Y1684026D3*
Y1574971D3*
D53*
X1968815Y2230483D3*
Y1246625D3*
D51*
X1606627Y731535D3*
Y798465D3*
X1737891Y731535D3*
Y798465D3*
X1862904Y800293D3*
Y733364D3*
X1481614Y731535D3*
Y798465D3*
D57*
X831546Y1956664D3*
D55*
Y1847609D3*
Y1738554D3*
Y1629499D3*
Y1520444D3*
X719735Y1902136D3*
Y1793081D3*
Y1684026D3*
Y1574971D3*
D53*
X775641Y1246625D3*
Y2230483D3*
D69*
X1712888Y1937912D3*
D67*
X1612888D3*
X1512888D3*
X1412888D3*
X1312888D3*
D49*
X1075322Y869050D3*
Y843459D3*
Y817869D3*
Y792278D3*
Y766688D3*
Y741097D3*
Y715507D3*
Y689916D3*
Y664325D3*
Y638735D3*
X1303676D3*
X1303668Y664325D3*
Y689916D3*
Y715507D3*
Y741097D3*
Y766688D3*
Y792278D3*
Y817869D3*
Y843459D3*
Y869050D3*
D47*
X1587875Y562768D3*
X1613466D3*
X1639056D3*
X1664647D3*
X1690238D3*
D45*
X1517009Y557846D3*
X1761104D3*
D43*
X1481576Y457453D3*
X1796537D3*
D41*
X1591812D3*
X1686301D3*
M02*
