G04 DipTrace 3.0.0.1*
G04 TopPaste.gbr*
%MOIN*%
G04 #@! TF.FileFunction,Paste,Top*
G04 #@! TF.Part,Single*
%ADD42R,0.066803X0.066803*%
%ADD44R,0.062866X0.066803*%
%ADD46R,0.074677X0.054992*%
%ADD48R,0.007748X0.04515*%
%ADD50R,0.062866X0.007748*%
%ADD52R,0.03137X0.035307*%
%ADD60R,0.119953X0.076646*%
%ADD62R,0.029402X0.076646*%
%ADD64R,0.07074X0.208535*%
%ADD66R,0.035307X0.03137*%
%FSLAX26Y26*%
G04*
G70*
G90*
G75*
G01*
G04 TopPaste*
%LPD*%
D66*
X762789Y1012815D3*
X829718D3*
X762789Y469008D3*
X829718D3*
X1044068Y1012815D3*
X1110997D3*
X1631630Y1200335D3*
X1698559D3*
X1450361D3*
X1517290D3*
X1631630Y1012815D3*
X1698559D3*
X1450361Y1006564D3*
X1517290D3*
X2075427Y962810D3*
X2142356D3*
D64*
X594021Y562768D3*
Y936783D3*
D62*
X2219192Y800293D3*
X2128640D3*
X2038089D3*
D60*
X2128640Y571946D3*
D52*
X1606627Y731535D3*
Y798465D3*
X1737891Y731535D3*
Y798465D3*
X1862904Y800293D3*
Y733364D3*
X1481614Y731535D3*
Y798465D3*
D50*
X1075322Y869050D3*
Y843459D3*
Y817869D3*
Y792278D3*
Y766688D3*
Y741097D3*
Y715507D3*
Y689916D3*
Y664325D3*
Y638735D3*
X1303676D3*
X1303668Y664325D3*
Y689916D3*
Y715507D3*
Y741097D3*
Y766688D3*
Y792278D3*
Y817869D3*
Y843459D3*
Y869050D3*
D48*
X1587875Y562768D3*
X1613466D3*
X1639056D3*
X1664647D3*
X1690238D3*
D46*
X1517009Y557846D3*
X1761104D3*
D44*
X1481576Y457453D3*
X1796537D3*
D42*
X1591812D3*
X1686301D3*
M02*
