G04 DipTrace 3.0.0.2*
G04 TopPaste.gbr*
%MOIN*%
G04 #@! TF.FileFunction,Paste,Top*
G04 #@! TF.Part,Single*
%ADD43R,0.066803X0.066803*%
%ADD45R,0.062866X0.066803*%
%ADD47R,0.074677X0.054992*%
%ADD53R,0.007748X0.062866*%
%ADD57R,0.007748X0.04515*%
%ADD59R,0.076646X0.119953*%
%ADD61R,0.076646X0.029402*%
%ADD63R,0.208535X0.07074*%
%ADD65R,0.035307X0.03137*%
%ADD67R,0.03137X0.035307*%
%FSLAX26Y26*%
G04*
G70*
G90*
G75*
G01*
G04 TopPaste*
%LPD*%
D67*
X1262841Y1406606D3*
Y1339677D3*
X1800398Y1406606D3*
Y1339677D3*
D65*
X1250340Y806543D3*
X1317269D3*
X1281593Y1200335D3*
X1348522D3*
X1112825D3*
X1179755D3*
X1281593Y1056570D3*
X1348522D3*
X1112825D3*
X1179755D3*
D67*
X1912909Y900303D3*
Y967232D3*
D63*
X1719139Y1531619D3*
X1345123D3*
D61*
X2050424Y1025316D3*
Y934765D3*
Y844214D3*
D59*
X2278770Y934765D3*
D57*
X1587875Y562768D3*
D65*
X1964743Y512762D3*
X2031672D3*
D67*
X1600377Y687781D3*
Y754710D3*
X1687886Y687781D3*
Y754710D3*
D65*
X1775395Y662778D3*
X1842324D3*
X1512867D3*
X1445938D3*
X2219192Y669029D3*
X2286121D3*
D53*
X1712888Y1156580D3*
X1687298D3*
X1661707D3*
X1636117D3*
X1610526D3*
X1584936D3*
X1559345D3*
X1533755D3*
X1508164D3*
X1482573D3*
Y928226D3*
X1508164Y928234D3*
X1533755D3*
X1559345D3*
X1584936D3*
X1610526D3*
X1636117D3*
X1661707D3*
X1687298D3*
X1712888D3*
D57*
X1613466Y562768D3*
X1639056D3*
X1664647D3*
X1690238D3*
D47*
X1517009Y557846D3*
X1761104D3*
D45*
X1481576Y457453D3*
X1796537D3*
D43*
X1591812D3*
X1686301D3*
M02*
