G04 DipTrace 3.0.0.1*
G04 TopSilk.gbr*
%MOIN*%
G04 #@! TF.FileFunction,Legend,Top*
G04 #@! TF.Part,Single*
%ADD10C,0.009843*%
%ADD12C,0.001*%
%ADD15C,0.015748*%
%ADD19C,0.015491*%
%ADD21C,0.015403*%
%ADD71C,0.00772*%
%ADD72C,0.009264*%
%FSLAX26Y26*%
G04*
G70*
G90*
G75*
G01*
G04 TopSilk*
%LPD*%
X1019081Y1906664D2*
D10*
X1219081D1*
Y2206664D1*
X1019081D1*
Y1906664D1*
X1044073Y1569108D2*
X1244073D1*
Y1369108D1*
X1044073D1*
Y1569108D1*
D19*
X532511Y476262D3*
X527080Y525366D2*
D10*
X497564D1*
X690478Y974185D2*
X660962D1*
X690478Y525366D2*
Y974185D1*
Y525366D2*
X660962D1*
X527080Y974185D2*
X497564D1*
Y525366D2*
Y974185D1*
D21*
X2257521Y830487D3*
X2258560Y741237D2*
D10*
X1998730D1*
X2258560Y631002D2*
X1998730D1*
Y741237D2*
Y631002D1*
X2258560Y741237D2*
Y631002D1*
X1126513Y883822D2*
Y623963D1*
X1252485Y883822D2*
Y623963D1*
X1126513D2*
X1252485D1*
X1126513Y883822D2*
X1169810D1*
X1209187D2*
X1252485D1*
X1169810D2*
G03X1209187Y883822I19689J-9D01*
G01*
X1262892Y2037910D2*
X1762849D1*
Y1837912D1*
X1262892D1*
Y2037910D1*
X519640Y2344853D2*
Y1132255D1*
X401556Y2344853D2*
X889829D1*
X1854626Y2013814D2*
X2224815D1*
X2342899Y2344853D2*
Y1132255D1*
X1854626Y1463294D2*
X2224815D1*
X1854626Y2344853D2*
Y1132255D1*
X401556D2*
X889829D1*
X1854626Y2344853D2*
X2342899D1*
X1854626Y1132255D2*
X2342899D1*
X2224815Y2344853D2*
Y1132255D1*
X889829Y2344853D2*
Y1132255D1*
X519640Y2013814D2*
X889829D1*
X401556Y2344853D2*
Y1132255D1*
X519640Y1463294D2*
X889829D1*
D15*
X1587875Y608856D3*
X1204828Y1360353D2*
D12*
X1208828D1*
X1413828D2*
X1418828D1*
X1662828D2*
X1667828D1*
X1204828Y1359353D2*
X1208828D1*
X1413828D2*
X1418828D1*
X1479828D2*
X1489828D1*
X1662828D2*
X1667828D1*
X1204828Y1358353D2*
X1208828D1*
X1413828D2*
X1418828D1*
X1477063D2*
X1492747D1*
X1647828D2*
X1652828D1*
X1662828D2*
X1667828D1*
X1204828Y1357353D2*
X1208828D1*
X1413828D2*
X1418828D1*
X1474610D2*
X1495283D1*
X1647828D2*
X1652828D1*
X1662828D2*
X1667828D1*
X1204828Y1356353D2*
X1208828D1*
X1276828D2*
X1281828D1*
X1413828D2*
X1418828D1*
X1472554D2*
X1497407D1*
X1647828D2*
X1652828D1*
X1662828D2*
X1667828D1*
X1204828Y1355353D2*
X1208828D1*
X1276828D2*
X1281828D1*
X1413828D2*
X1418828D1*
X1470814D2*
X1480259D1*
X1489431D2*
X1499130D1*
X1647828D2*
X1652828D1*
X1662828D2*
X1667828D1*
X1204828Y1354353D2*
X1208828D1*
X1276828D2*
X1281828D1*
X1413828D2*
X1418828D1*
X1469328D2*
X1477222D1*
X1492562D2*
X1500516D1*
X1647828D2*
X1652828D1*
X1662828D2*
X1667828D1*
X1204828Y1353353D2*
X1208828D1*
X1276828D2*
X1281828D1*
X1413828D2*
X1418828D1*
X1468091D2*
X1474831D1*
X1495065D2*
X1501664D1*
X1647828D2*
X1652828D1*
X1662828D2*
X1667828D1*
X1204828Y1352353D2*
X1208828D1*
X1276828D2*
X1281828D1*
X1413828D2*
X1418828D1*
X1467087D2*
X1472929D1*
X1496984D2*
X1502610D1*
X1662828D2*
X1667828D1*
X1204828Y1351353D2*
X1208828D1*
X1276828D2*
X1281828D1*
X1413828D2*
X1418828D1*
X1466274D2*
X1471369D1*
X1498458D2*
X1503366D1*
X1662828D2*
X1667828D1*
X1204828Y1350353D2*
X1208828D1*
X1276828D2*
X1281828D1*
X1413828D2*
X1418828D1*
X1465543D2*
X1470072D1*
X1499642D2*
X1503989D1*
X1662828D2*
X1667828D1*
X1204828Y1349353D2*
X1208828D1*
X1276828D2*
X1281828D1*
X1413828D2*
X1418828D1*
X1464840D2*
X1468965D1*
X1500602D2*
X1504544D1*
X1662828D2*
X1667828D1*
X1176828Y1348353D2*
X1184828D1*
X1204828D2*
X1208832D1*
X1216828D2*
X1223828D1*
X1249828D2*
X1257828D1*
X1276828D2*
X1281828D1*
X1306828D2*
X1315828D1*
X1413828D2*
X1418828D1*
X1464204D2*
X1468036D1*
X1480828D2*
X1486828D1*
X1501363D2*
X1505065D1*
X1527828D2*
X1534828D1*
X1568828D2*
X1574828D1*
X1588828D2*
X1595828D1*
X1618828D2*
X1628828D1*
X1662828D2*
X1667828D1*
X1708828D2*
X1716828D1*
X1738828D2*
X1746828D1*
X1778828D2*
X1784828D1*
X1798828D2*
X1805828D1*
X1142828Y1347353D2*
X1147828D1*
X1155828D2*
X1162828D1*
X1174754D2*
X1186632D1*
X1204828D2*
X1208870D1*
X1214667D2*
X1225290D1*
X1247754D2*
X1259632D1*
X1273828D2*
X1292828D1*
X1304754D2*
X1318358D1*
X1351828D2*
X1356828D1*
X1364828D2*
X1371828D1*
X1376828D2*
X1381828D1*
X1398828D2*
X1402828D1*
X1413828D2*
X1418828D1*
X1426828D2*
X1450828D1*
X1463633D2*
X1467287D1*
X1478905D2*
X1494828D1*
X1501988D2*
X1505570D1*
X1526025D2*
X1538766D1*
X1540828D2*
X1544828D1*
X1556828D2*
X1560828D1*
X1566667D2*
X1576294D1*
X1586979D2*
X1597286D1*
X1613828D2*
X1631089D1*
X1647828D2*
X1652828D1*
X1662828D2*
X1667828D1*
X1706563D2*
X1719051D1*
X1736754D2*
X1748632D1*
X1766828D2*
X1770828D1*
X1776667D2*
X1786294D1*
X1796979D2*
X1807286D1*
X1142828Y1346353D2*
X1147910D1*
X1153942D2*
X1162828D1*
X1172967D2*
X1188216D1*
X1204828D2*
X1209025D1*
X1212524D2*
X1226573D1*
X1245967D2*
X1261216D1*
X1273828D2*
X1292828D1*
X1302967D2*
X1320394D1*
X1351828D2*
X1356910D1*
X1362942D2*
X1371828D1*
X1376828D2*
X1381828D1*
X1398828D2*
X1402828D1*
X1413828D2*
X1418828D1*
X1426828D2*
X1450824D1*
X1463100D2*
X1466666D1*
X1477334D2*
X1494828D1*
X1502540D2*
X1506041D1*
X1524440D2*
X1544828D1*
X1556828D2*
X1561012D1*
X1564524D2*
X1577619D1*
X1585189D2*
X1598538D1*
X1613828D2*
X1632926D1*
X1647828D2*
X1652828D1*
X1662828D2*
X1667828D1*
X1704691D2*
X1720756D1*
X1734967D2*
X1750216D1*
X1766828D2*
X1771012D1*
X1774524D2*
X1787619D1*
X1795189D2*
X1808538D1*
X1142828Y1345353D2*
X1148094D1*
X1152043D2*
X1162828D1*
X1171545D2*
X1189547D1*
X1204828D2*
X1209366D1*
X1210234D2*
X1227683D1*
X1244545D2*
X1262547D1*
X1273828D2*
X1292828D1*
X1301549D2*
X1321263D1*
X1351828D2*
X1357094D1*
X1361043D2*
X1371828D1*
X1376828D2*
X1381828D1*
X1398828D2*
X1402828D1*
X1413828D2*
X1418828D1*
X1426828D2*
X1450785D1*
X1462587D2*
X1466115D1*
X1476079D2*
X1494828D1*
X1503030D2*
X1506447D1*
X1523109D2*
X1544828D1*
X1556828D2*
X1561363D1*
X1562234D2*
X1578919D1*
X1583296D2*
X1599552D1*
X1613828D2*
X1634275D1*
X1647828D2*
X1652828D1*
X1662828D2*
X1667828D1*
X1703215D2*
X1722024D1*
X1733545D2*
X1751547D1*
X1766828D2*
X1771363D1*
X1772234D2*
X1788919D1*
X1793296D2*
X1809552D1*
X1142828Y1344353D2*
X1148873D1*
X1150002D2*
X1162828D1*
X1170484D2*
X1190675D1*
X1204828D2*
X1228616D1*
X1243484D2*
X1263675D1*
X1273828D2*
X1292828D1*
X1300523D2*
X1321567D1*
X1351828D2*
X1357873D1*
X1359002D2*
X1371828D1*
X1376828D2*
X1381828D1*
X1398828D2*
X1402828D1*
X1413828D2*
X1418828D1*
X1426828D2*
X1450623D1*
X1462085D2*
X1465626D1*
X1475081D2*
X1481063D1*
X1487238D2*
X1494828D1*
X1503443D2*
X1506799D1*
X1521982D2*
X1544828D1*
X1556828D2*
X1580328D1*
X1581144D2*
X1600338D1*
X1613828D2*
X1635223D1*
X1647828D2*
X1652828D1*
X1662828D2*
X1667828D1*
X1702023D2*
X1722443D1*
X1732484D2*
X1752675D1*
X1766828D2*
X1790328D1*
X1791144D2*
X1810338D1*
X1142828Y1343353D2*
X1162828D1*
X1169635D2*
X1177029D1*
X1184628D2*
X1191614D1*
X1204828D2*
X1214836D1*
X1221628D2*
X1229364D1*
X1242635D2*
X1250029D1*
X1257628D2*
X1264614D1*
X1273828D2*
X1292828D1*
X1299801D2*
X1307029D1*
X1315644D2*
X1321722D1*
X1351828D2*
X1371828D1*
X1376828D2*
X1381828D1*
X1398828D2*
X1402828D1*
X1413828D2*
X1418828D1*
X1426828D2*
X1450252D1*
X1461619D2*
X1465213D1*
X1474308D2*
X1479610D1*
X1489267D2*
X1494828D1*
X1503798D2*
X1507152D1*
X1521043D2*
X1528029D1*
X1536238D2*
X1544828D1*
X1556828D2*
X1566870D1*
X1573473D2*
X1588187D1*
X1594786D2*
X1600941D1*
X1613828D2*
X1618828D1*
X1628593D2*
X1635897D1*
X1647828D2*
X1652828D1*
X1662828D2*
X1667828D1*
X1701058D2*
X1708874D1*
X1716828D2*
X1722667D1*
X1731635D2*
X1739029D1*
X1746628D2*
X1753614D1*
X1766828D2*
X1776870D1*
X1783473D2*
X1798187D1*
X1804786D2*
X1810941D1*
X1142828Y1342353D2*
X1153870D1*
X1161828D2*
X1162828D1*
X1168909D2*
X1175479D1*
X1186177D2*
X1192363D1*
X1204828D2*
X1212914D1*
X1223177D2*
X1229955D1*
X1241909D2*
X1248479D1*
X1259177D2*
X1265363D1*
X1276828D2*
X1281828D1*
X1299319D2*
X1305483D1*
X1318293D2*
X1321790D1*
X1351828D2*
X1362870D1*
X1370828D2*
X1371828D1*
X1376828D2*
X1381828D1*
X1398828D2*
X1402828D1*
X1413828D2*
X1418828D1*
X1444983D2*
X1449717D1*
X1461248D2*
X1464859D1*
X1473707D2*
X1478550D1*
X1490200D2*
X1494828D1*
X1504151D2*
X1507458D1*
X1520289D2*
X1526479D1*
X1538267D2*
X1544828D1*
X1556828D2*
X1565041D1*
X1574771D2*
X1585928D1*
X1595623D2*
X1601370D1*
X1613828D2*
X1614828D1*
X1630046D2*
X1636354D1*
X1647828D2*
X1652828D1*
X1662828D2*
X1667828D1*
X1700295D2*
X1707076D1*
X1718828D2*
X1722769D1*
X1730909D2*
X1737479D1*
X1748177D2*
X1754363D1*
X1766828D2*
X1775041D1*
X1784771D2*
X1795928D1*
X1805623D2*
X1811370D1*
X1142828Y1341353D2*
X1152041D1*
X1168348D2*
X1174275D1*
X1187381D2*
X1192954D1*
X1204828D2*
X1211247D1*
X1224381D2*
X1230413D1*
X1241348D2*
X1247275D1*
X1260381D2*
X1265954D1*
X1276828D2*
X1281828D1*
X1299050D2*
X1304318D1*
X1320828D2*
X1321828D1*
X1351828D2*
X1361041D1*
X1376828D2*
X1381828D1*
X1398828D2*
X1402828D1*
X1413828D2*
X1418828D1*
X1444231D2*
X1449119D1*
X1461020D2*
X1464505D1*
X1473245D2*
X1477775D1*
X1490536D2*
X1494828D1*
X1504458D2*
X1507653D1*
X1519667D2*
X1525275D1*
X1539200D2*
X1544828D1*
X1556828D2*
X1563486D1*
X1575680D2*
X1584185D1*
X1596252D2*
X1601619D1*
X1631102D2*
X1636613D1*
X1647828D2*
X1652828D1*
X1662828D2*
X1667828D1*
X1699668D2*
X1705614D1*
X1720828D2*
X1722828D1*
X1730348D2*
X1736275D1*
X1749381D2*
X1754954D1*
X1766828D2*
X1773486D1*
X1785680D2*
X1794185D1*
X1806252D2*
X1811619D1*
X1142828Y1340353D2*
X1150486D1*
X1167916D2*
X1173391D1*
X1188265D2*
X1193413D1*
X1204828D2*
X1209871D1*
X1225265D2*
X1230787D1*
X1240916D2*
X1246391D1*
X1261265D2*
X1266413D1*
X1276828D2*
X1281828D1*
X1298920D2*
X1303442D1*
X1351828D2*
X1359486D1*
X1376828D2*
X1381828D1*
X1398828D2*
X1402828D1*
X1413828D2*
X1418828D1*
X1443489D2*
X1448446D1*
X1460871D2*
X1464198D1*
X1472870D2*
X1477158D1*
X1490708D2*
X1494828D1*
X1504653D2*
X1507753D1*
X1519116D2*
X1524391D1*
X1539536D2*
X1544828D1*
X1556828D2*
X1562315D1*
X1576362D2*
X1582816D1*
X1596717D2*
X1601741D1*
X1631842D2*
X1636739D1*
X1647828D2*
X1652828D1*
X1662828D2*
X1667828D1*
X1699116D2*
X1704555D1*
X1729916D2*
X1735391D1*
X1750265D2*
X1755413D1*
X1766828D2*
X1772315D1*
X1786362D2*
X1792816D1*
X1806717D2*
X1811741D1*
X1142828Y1339353D2*
X1149315D1*
X1167528D2*
X1172740D1*
X1188912D2*
X1193787D1*
X1204828D2*
X1209337D1*
X1225912D2*
X1231147D1*
X1240528D2*
X1245740D1*
X1261912D2*
X1266787D1*
X1276828D2*
X1281828D1*
X1298863D2*
X1303201D1*
X1351828D2*
X1358315D1*
X1376828D2*
X1381828D1*
X1398828D2*
X1402828D1*
X1413828D2*
X1418828D1*
X1442669D2*
X1447653D1*
X1460694D2*
X1464003D1*
X1472509D2*
X1476646D1*
X1490783D2*
X1494828D1*
X1504753D2*
X1507799D1*
X1518630D2*
X1523740D1*
X1539708D2*
X1544828D1*
X1556828D2*
X1561427D1*
X1576602D2*
X1582309D1*
X1597119D2*
X1601794D1*
X1632335D2*
X1636794D1*
X1647828D2*
X1652828D1*
X1662828D2*
X1667828D1*
X1698630D2*
X1703811D1*
X1729528D2*
X1734740D1*
X1750912D2*
X1755787D1*
X1766828D2*
X1771427D1*
X1786602D2*
X1792309D1*
X1807119D2*
X1811794D1*
X1142828Y1338353D2*
X1148427D1*
X1167203D2*
X1172257D1*
X1189360D2*
X1194147D1*
X1204828D2*
X1209046D1*
X1226360D2*
X1231457D1*
X1240203D2*
X1245257D1*
X1262360D2*
X1267147D1*
X1276828D2*
X1281828D1*
X1298845D2*
X1303451D1*
X1351828D2*
X1357427D1*
X1376828D2*
X1381828D1*
X1398828D2*
X1402828D1*
X1413828D2*
X1418828D1*
X1441797D2*
X1446791D1*
X1460434D2*
X1463903D1*
X1472200D2*
X1476258D1*
X1490812D2*
X1494828D1*
X1504799D2*
X1507817D1*
X1518249D2*
X1523257D1*
X1539783D2*
X1544828D1*
X1556828D2*
X1561117D1*
X1576732D2*
X1582033D1*
X1597446D2*
X1601816D1*
X1632626D2*
X1636815D1*
X1647828D2*
X1652828D1*
X1662828D2*
X1667828D1*
X1698249D2*
X1703286D1*
X1729203D2*
X1734257D1*
X1751360D2*
X1756147D1*
X1766828D2*
X1771117D1*
X1786732D2*
X1792033D1*
X1807446D2*
X1811816D1*
X1142828Y1337353D2*
X1148117D1*
X1166967D2*
X1171875D1*
X1189619D2*
X1194457D1*
X1204828D2*
X1208914D1*
X1226615D2*
X1231652D1*
X1239967D2*
X1244875D1*
X1262619D2*
X1267457D1*
X1276828D2*
X1281828D1*
X1298876D2*
X1304251D1*
X1351828D2*
X1357117D1*
X1376828D2*
X1381828D1*
X1398828D2*
X1402828D1*
X1413828D2*
X1418828D1*
X1440967D2*
X1445965D1*
X1460170D2*
X1463858D1*
X1472004D2*
X1476027D1*
X1490823D2*
X1494828D1*
X1504817D2*
X1507824D1*
X1517986D2*
X1522875D1*
X1539812D2*
X1544828D1*
X1556828D2*
X1560951D1*
X1576790D2*
X1581909D1*
X1597649D2*
X1601824D1*
X1632828D2*
X1636824D1*
X1647828D2*
X1652828D1*
X1662828D2*
X1667828D1*
X1697986D2*
X1702885D1*
X1728967D2*
X1733875D1*
X1751619D2*
X1756457D1*
X1766828D2*
X1770951D1*
X1786790D2*
X1791909D1*
X1807649D2*
X1811824D1*
X1142828Y1336353D2*
X1147951D1*
X1166737D2*
X1171511D1*
X1189779D2*
X1194652D1*
X1204828D2*
X1208860D1*
X1226743D2*
X1231753D1*
X1239737D2*
X1244511D1*
X1262779D2*
X1267652D1*
X1276828D2*
X1281828D1*
X1299039D2*
X1306098D1*
X1351828D2*
X1356951D1*
X1376828D2*
X1381828D1*
X1398828D2*
X1402828D1*
X1413828D2*
X1418828D1*
X1440224D2*
X1445223D1*
X1459993D2*
X1463839D1*
X1471903D2*
X1475912D1*
X1490826D2*
X1494828D1*
X1504824D2*
X1507827D1*
X1517744D2*
X1522511D1*
X1539823D2*
X1544828D1*
X1556828D2*
X1560876D1*
X1576814D2*
X1581858D1*
X1597752D2*
X1601827D1*
X1627002D2*
X1636827D1*
X1647828D2*
X1652828D1*
X1662828D2*
X1667828D1*
X1697744D2*
X1702514D1*
X1728737D2*
X1733511D1*
X1751779D2*
X1756652D1*
X1766828D2*
X1770876D1*
X1786814D2*
X1791858D1*
X1807752D2*
X1811827D1*
X1142828Y1335353D2*
X1147876D1*
X1166452D2*
X1171200D1*
X1189960D2*
X1194753D1*
X1204828D2*
X1208839D1*
X1226833D2*
X1231799D1*
X1239452D2*
X1244200D1*
X1262960D2*
X1267753D1*
X1276828D2*
X1281828D1*
X1299444D2*
X1308728D1*
X1351828D2*
X1356876D1*
X1376828D2*
X1381828D1*
X1398828D2*
X1402828D1*
X1413828D2*
X1418828D1*
X1439487D2*
X1444487D1*
X1459903D2*
X1463832D1*
X1471858D2*
X1475861D1*
X1490827D2*
X1494828D1*
X1504827D2*
X1507828D1*
X1517455D2*
X1522200D1*
X1539826D2*
X1544828D1*
X1556828D2*
X1560846D1*
X1576823D2*
X1581839D1*
X1597798D2*
X1601828D1*
X1622167D2*
X1636828D1*
X1647828D2*
X1652828D1*
X1662828D2*
X1667828D1*
X1697455D2*
X1702201D1*
X1728452D2*
X1733200D1*
X1751960D2*
X1756753D1*
X1766828D2*
X1770846D1*
X1786823D2*
X1791839D1*
X1807798D2*
X1811828D1*
X1142828Y1334353D2*
X1147846D1*
X1166177D2*
X1171004D1*
X1190221D2*
X1194799D1*
X1204828D2*
X1208832D1*
X1226978D2*
X1231817D1*
X1239177D2*
X1244004D1*
X1263221D2*
X1267799D1*
X1276828D2*
X1281828D1*
X1300114D2*
X1311880D1*
X1351828D2*
X1356846D1*
X1376828D2*
X1381828D1*
X1398828D2*
X1402828D1*
X1413828D2*
X1418828D1*
X1438664D2*
X1443664D1*
X1459895D2*
X1463829D1*
X1471839D2*
X1475840D1*
X1490828D2*
X1494828D1*
X1504828D2*
X1507828D1*
X1517178D2*
X1522004D1*
X1539827D2*
X1544828D1*
X1556828D2*
X1560834D1*
X1576826D2*
X1581832D1*
X1597817D2*
X1601828D1*
X1618589D2*
X1636828D1*
X1647828D2*
X1652828D1*
X1662828D2*
X1667828D1*
X1697178D2*
X1702004D1*
X1728177D2*
X1733004D1*
X1752221D2*
X1756799D1*
X1766828D2*
X1770834D1*
X1786826D2*
X1791832D1*
X1807817D2*
X1811828D1*
X1142828Y1333353D2*
X1147834D1*
X1165995D2*
X1170903D1*
X1190482D2*
X1194817D1*
X1204828D2*
X1208829D1*
X1227191D2*
X1231824D1*
X1238995D2*
X1243903D1*
X1263482D2*
X1267817D1*
X1276828D2*
X1281828D1*
X1301037D2*
X1314910D1*
X1351828D2*
X1356834D1*
X1376828D2*
X1381828D1*
X1398828D2*
X1402828D1*
X1413828D2*
X1418828D1*
X1437761D2*
X1442761D1*
X1460005D2*
X1463829D1*
X1471836D2*
X1475836D1*
X1490828D2*
X1494828D1*
X1504828D2*
X1507828D1*
X1516996D2*
X1521903D1*
X1539828D2*
X1544828D1*
X1556828D2*
X1560830D1*
X1576828D2*
X1581829D1*
X1597824D2*
X1601828D1*
X1616110D2*
X1636828D1*
X1647828D2*
X1652828D1*
X1662828D2*
X1667828D1*
X1696996D2*
X1701903D1*
X1727995D2*
X1732903D1*
X1752482D2*
X1756817D1*
X1766828D2*
X1770830D1*
X1786828D2*
X1791829D1*
X1807824D2*
X1811828D1*
X1142828Y1332353D2*
X1147830D1*
X1165904D2*
X1170858D1*
X1190624D2*
X1194824D1*
X1204828D2*
X1208828D1*
X1227322D2*
X1231827D1*
X1238904D2*
X1243858D1*
X1263624D2*
X1267824D1*
X1276828D2*
X1281828D1*
X1302373D2*
X1317351D1*
X1351828D2*
X1356830D1*
X1376828D2*
X1381828D1*
X1398828D2*
X1402828D1*
X1413828D2*
X1418828D1*
X1436839D2*
X1441839D1*
X1460238D2*
X1463828D1*
X1471868D2*
X1475869D1*
X1490828D2*
X1494828D1*
X1504824D2*
X1507824D1*
X1516904D2*
X1521858D1*
X1539828D2*
X1544828D1*
X1556828D2*
X1560829D1*
X1576828D2*
X1581828D1*
X1597827D2*
X1601828D1*
X1614411D2*
X1636828D1*
X1647828D2*
X1652828D1*
X1662828D2*
X1667828D1*
X1696904D2*
X1701858D1*
X1727904D2*
X1732858D1*
X1752624D2*
X1756824D1*
X1766828D2*
X1770829D1*
X1786828D2*
X1791828D1*
X1807827D2*
X1811828D1*
X1142828Y1331353D2*
X1147829D1*
X1165896D2*
X1170843D1*
X1190591D2*
X1194827D1*
X1204828D2*
X1208828D1*
X1227258D2*
X1231828D1*
X1238896D2*
X1243843D1*
X1263591D2*
X1267827D1*
X1276828D2*
X1281828D1*
X1304443D2*
X1319129D1*
X1351828D2*
X1356829D1*
X1376828D2*
X1381828D1*
X1398828D2*
X1402828D1*
X1413828D2*
X1418828D1*
X1435984D2*
X1440984D1*
X1460492D2*
X1463832D1*
X1471995D2*
X1475999D1*
X1490824D2*
X1494828D1*
X1504789D2*
X1507789D1*
X1516896D2*
X1521843D1*
X1539828D2*
X1544828D1*
X1556828D2*
X1560828D1*
X1576828D2*
X1581828D1*
X1597828D2*
X1601828D1*
X1613246D2*
X1625460D1*
X1632828D2*
X1636828D1*
X1647828D2*
X1652828D1*
X1662828D2*
X1667828D1*
X1696896D2*
X1701843D1*
X1727896D2*
X1732843D1*
X1752591D2*
X1756827D1*
X1766828D2*
X1770828D1*
X1786828D2*
X1791828D1*
X1807828D2*
X1811828D1*
X1142828Y1330353D2*
X1147828D1*
X1166005D2*
X1170871D1*
X1190394D2*
X1194828D1*
X1204828D2*
X1208828D1*
X1227095D2*
X1231828D1*
X1239005D2*
X1243871D1*
X1263394D2*
X1267828D1*
X1276828D2*
X1281828D1*
X1307321D2*
X1320387D1*
X1351828D2*
X1356828D1*
X1376828D2*
X1381828D1*
X1398828D2*
X1402828D1*
X1413828D2*
X1418828D1*
X1435230D2*
X1440230D1*
X1460669D2*
X1463867D1*
X1472238D2*
X1476277D1*
X1490785D2*
X1494828D1*
X1504662D2*
X1507662D1*
X1517005D2*
X1521871D1*
X1539828D2*
X1544828D1*
X1556828D2*
X1560828D1*
X1576828D2*
X1581828D1*
X1597828D2*
X1601828D1*
X1612484D2*
X1621876D1*
X1632828D2*
X1636828D1*
X1647828D2*
X1652828D1*
X1662828D2*
X1667828D1*
X1697005D2*
X1701871D1*
X1728005D2*
X1732871D1*
X1752394D2*
X1756828D1*
X1766828D2*
X1770828D1*
X1786828D2*
X1791828D1*
X1807828D2*
X1811828D1*
X1142828Y1329353D2*
X1147828D1*
X1166238D2*
X1170996D1*
X1190155D2*
X1194824D1*
X1204828D2*
X1208828D1*
X1226959D2*
X1231824D1*
X1239238D2*
X1243996D1*
X1263155D2*
X1267824D1*
X1276828D2*
X1281828D1*
X1310534D2*
X1321275D1*
X1351828D2*
X1356828D1*
X1376828D2*
X1381828D1*
X1398828D2*
X1402828D1*
X1413828D2*
X1418828D1*
X1434489D2*
X1439489D1*
X1460797D2*
X1463995D1*
X1472530D2*
X1476700D1*
X1490615D2*
X1494828D1*
X1504422D2*
X1507418D1*
X1517238D2*
X1521996D1*
X1539828D2*
X1544828D1*
X1556828D2*
X1560828D1*
X1576828D2*
X1581828D1*
X1597828D2*
X1601828D1*
X1611968D2*
X1619317D1*
X1632828D2*
X1636828D1*
X1647828D2*
X1652828D1*
X1662828D2*
X1667828D1*
X1697238D2*
X1701996D1*
X1728238D2*
X1732996D1*
X1752155D2*
X1756824D1*
X1766828D2*
X1770828D1*
X1786828D2*
X1791828D1*
X1807828D2*
X1811828D1*
X1142828Y1328353D2*
X1147828D1*
X1166496D2*
X1171238D1*
X1189984D2*
X1194789D1*
X1204828D2*
X1208828D1*
X1226849D2*
X1231789D1*
X1239496D2*
X1244238D1*
X1262984D2*
X1267789D1*
X1276832D2*
X1281828D1*
X1313385D2*
X1321918D1*
X1351828D2*
X1356828D1*
X1376828D2*
X1381828D1*
X1398828D2*
X1402828D1*
X1413828D2*
X1418828D1*
X1433668D2*
X1438668D1*
X1460967D2*
X1464238D1*
X1472835D2*
X1477304D1*
X1490291D2*
X1494828D1*
X1504162D2*
X1507127D1*
X1517492D2*
X1522238D1*
X1539828D2*
X1544828D1*
X1556828D2*
X1560828D1*
X1576828D2*
X1581828D1*
X1597828D2*
X1601828D1*
X1611546D2*
X1617405D1*
X1632828D2*
X1636828D1*
X1647828D2*
X1652828D1*
X1662828D2*
X1667828D1*
X1697496D2*
X1702238D1*
X1728496D2*
X1733238D1*
X1751984D2*
X1756789D1*
X1766828D2*
X1770828D1*
X1786828D2*
X1791828D1*
X1807828D2*
X1811828D1*
X1142828Y1327353D2*
X1147828D1*
X1166704D2*
X1171530D1*
X1189854D2*
X1194662D1*
X1204828D2*
X1208828D1*
X1226682D2*
X1231662D1*
X1239704D2*
X1244530D1*
X1262854D2*
X1267662D1*
X1276867D2*
X1281828D1*
X1315454D2*
X1322363D1*
X1351828D2*
X1356828D1*
X1376832D2*
X1381832D1*
X1398824D2*
X1402828D1*
X1413828D2*
X1418828D1*
X1432797D2*
X1437797D1*
X1461228D2*
X1464533D1*
X1473207D2*
X1478081D1*
X1489388D2*
X1494828D1*
X1503921D2*
X1506821D1*
X1517669D2*
X1522530D1*
X1539824D2*
X1544828D1*
X1556828D2*
X1560828D1*
X1576828D2*
X1581828D1*
X1597828D2*
X1601828D1*
X1611213D2*
X1616507D1*
X1632828D2*
X1636828D1*
X1647828D2*
X1652828D1*
X1662828D2*
X1667828D1*
X1697704D2*
X1702530D1*
X1728704D2*
X1733530D1*
X1751854D2*
X1756662D1*
X1766828D2*
X1770828D1*
X1786828D2*
X1791828D1*
X1807828D2*
X1811828D1*
X1142828Y1326353D2*
X1147828D1*
X1166924D2*
X1171835D1*
X1189650D2*
X1194418D1*
X1204828D2*
X1208828D1*
X1226392D2*
X1231418D1*
X1239924D2*
X1244835D1*
X1262650D2*
X1267418D1*
X1276995D2*
X1281832D1*
X1316940D2*
X1322616D1*
X1351828D2*
X1356828D1*
X1376867D2*
X1381867D1*
X1398785D2*
X1402828D1*
X1413828D2*
X1418828D1*
X1431966D2*
X1436966D1*
X1461526D2*
X1464870D1*
X1473672D2*
X1480042D1*
X1486998D2*
X1494828D1*
X1503632D2*
X1506453D1*
X1517797D2*
X1522835D1*
X1539781D2*
X1544828D1*
X1556828D2*
X1560828D1*
X1576828D2*
X1581828D1*
X1597828D2*
X1601828D1*
X1611012D2*
X1616157D1*
X1632820D2*
X1636828D1*
X1647828D2*
X1652828D1*
X1662828D2*
X1667828D1*
X1697924D2*
X1702835D1*
X1728924D2*
X1733835D1*
X1751650D2*
X1756418D1*
X1766828D2*
X1770828D1*
X1786828D2*
X1791828D1*
X1807828D2*
X1811828D1*
X1142828Y1325353D2*
X1147828D1*
X1167210D2*
X1172207D1*
X1189258D2*
X1194127D1*
X1204828D2*
X1208832D1*
X1225995D2*
X1231127D1*
X1240210D2*
X1245207D1*
X1262258D2*
X1267127D1*
X1277234D2*
X1281867D1*
X1317401D2*
X1322736D1*
X1351828D2*
X1356828D1*
X1376995D2*
X1381998D1*
X1398615D2*
X1402828D1*
X1413828D2*
X1418828D1*
X1431224D2*
X1436224D1*
X1461834D2*
X1465334D1*
X1474274D2*
X1483077D1*
X1483324D2*
X1494828D1*
X1502396D2*
X1506023D1*
X1517970D2*
X1523211D1*
X1539676D2*
X1544828D1*
X1556828D2*
X1560828D1*
X1576828D2*
X1581828D1*
X1597828D2*
X1601828D1*
X1610944D2*
X1616004D1*
X1632742D2*
X1636828D1*
X1647828D2*
X1652828D1*
X1662828D2*
X1667828D1*
X1698210D2*
X1703211D1*
X1729210D2*
X1734207D1*
X1751258D2*
X1756127D1*
X1766828D2*
X1770828D1*
X1786828D2*
X1791828D1*
X1807828D2*
X1811828D1*
X1142828Y1324353D2*
X1147828D1*
X1167523D2*
X1172676D1*
X1188681D2*
X1193821D1*
X1204828D2*
X1208879D1*
X1225500D2*
X1230821D1*
X1240523D2*
X1245676D1*
X1261681D2*
X1266821D1*
X1277490D2*
X1282002D1*
X1317690D2*
X1322755D1*
X1351828D2*
X1356828D1*
X1377238D2*
X1382277D1*
X1398291D2*
X1402828D1*
X1413828D2*
X1418828D1*
X1430487D2*
X1435487D1*
X1462202D2*
X1465911D1*
X1475074D2*
X1494828D1*
X1498950D2*
X1505554D1*
X1518267D2*
X1523742D1*
X1539170D2*
X1544828D1*
X1556828D2*
X1560828D1*
X1576828D2*
X1581828D1*
X1597828D2*
X1601828D1*
X1611025D2*
X1616055D1*
X1632555D2*
X1636828D1*
X1647828D2*
X1652828D1*
X1662828D2*
X1667828D1*
X1698523D2*
X1703715D1*
X1729523D2*
X1734676D1*
X1750681D2*
X1755821D1*
X1766828D2*
X1770828D1*
X1786828D2*
X1791828D1*
X1807828D2*
X1811828D1*
X1142828Y1323353D2*
X1147828D1*
X1167867D2*
X1173340D1*
X1187927D2*
X1193450D1*
X1204828D2*
X1208996D1*
X1224790D2*
X1230450D1*
X1240867D2*
X1246340D1*
X1260927D2*
X1266450D1*
X1277669D2*
X1282244D1*
X1297828D2*
X1298828D1*
X1317634D2*
X1322645D1*
X1332828D2*
X1338828D1*
X1351828D2*
X1356828D1*
X1377530D2*
X1382723D1*
X1397306D2*
X1402828D1*
X1413828D2*
X1418828D1*
X1429668D2*
X1434664D1*
X1462633D2*
X1466526D1*
X1476110D2*
X1488828D1*
X1490644D2*
X1505040D1*
X1518692D2*
X1524457D1*
X1537689D2*
X1544828D1*
X1556828D2*
X1560828D1*
X1576828D2*
X1581828D1*
X1597828D2*
X1601828D1*
X1611249D2*
X1616255D1*
X1631785D2*
X1636828D1*
X1647828D2*
X1652828D1*
X1662828D2*
X1667828D1*
X1679828D2*
X1685828D1*
X1698867D2*
X1704348D1*
X1729867D2*
X1735340D1*
X1749927D2*
X1755450D1*
X1766828D2*
X1770828D1*
X1786828D2*
X1791828D1*
X1807828D2*
X1811828D1*
X1142828Y1322353D2*
X1147828D1*
X1168333D2*
X1174231D1*
X1186995D2*
X1192984D1*
X1204828D2*
X1209732D1*
X1223826D2*
X1229984D1*
X1241333D2*
X1247231D1*
X1259995D2*
X1265984D1*
X1277797D2*
X1282883D1*
X1297828D2*
X1301233D1*
X1317031D2*
X1322375D1*
X1332828D2*
X1338828D1*
X1351828D2*
X1356828D1*
X1377835D2*
X1383311D1*
X1395645D2*
X1402828D1*
X1413828D2*
X1418828D1*
X1428800D2*
X1433757D1*
X1463103D2*
X1467206D1*
X1477398D2*
X1486828D1*
X1491293D2*
X1504462D1*
X1519240D2*
X1526939D1*
X1535073D2*
X1544828D1*
X1556828D2*
X1560828D1*
X1576828D2*
X1581828D1*
X1597828D2*
X1601828D1*
X1611537D2*
X1616902D1*
X1630032D2*
X1636828D1*
X1647828D2*
X1652828D1*
X1662828D2*
X1667828D1*
X1679828D2*
X1685828D1*
X1699337D2*
X1705901D1*
X1720828D2*
X1722828D1*
X1730333D2*
X1736231D1*
X1748995D2*
X1754984D1*
X1766828D2*
X1770828D1*
X1786828D2*
X1791828D1*
X1807828D2*
X1811828D1*
X1142828Y1321353D2*
X1147828D1*
X1168915D2*
X1176825D1*
X1184671D2*
X1192386D1*
X1204828D2*
X1212598D1*
X1221062D2*
X1229386D1*
X1241915D2*
X1249825D1*
X1257671D2*
X1265386D1*
X1277970D2*
X1284999D1*
X1297832D2*
X1304899D1*
X1314456D2*
X1321955D1*
X1332828D2*
X1338828D1*
X1351828D2*
X1356828D1*
X1378207D2*
X1385159D1*
X1392718D2*
X1402828D1*
X1413828D2*
X1418828D1*
X1428009D2*
X1432802D1*
X1463626D2*
X1468006D1*
X1478828D2*
X1484828D1*
X1491828D2*
X1503828D1*
X1519872D2*
X1530907D1*
X1530915D2*
X1544828D1*
X1556828D2*
X1560828D1*
X1576828D2*
X1581828D1*
X1597828D2*
X1601828D1*
X1611876D2*
X1619190D1*
X1627237D2*
X1636828D1*
X1647828D2*
X1652828D1*
X1662828D2*
X1667828D1*
X1679828D2*
X1685828D1*
X1699950D2*
X1708556D1*
X1717541D2*
X1722824D1*
X1730915D2*
X1738825D1*
X1746671D2*
X1754386D1*
X1766828D2*
X1770828D1*
X1786828D2*
X1791828D1*
X1807828D2*
X1811828D1*
X1142828Y1320353D2*
X1147828D1*
X1169565D2*
X1180860D1*
X1181150D2*
X1191621D1*
X1204828D2*
X1217179D1*
X1216898D2*
X1228621D1*
X1242565D2*
X1253860D1*
X1254150D2*
X1264621D1*
X1278267D2*
X1288479D1*
X1291828D2*
X1292828D1*
X1297875D2*
X1310329D1*
X1310185D2*
X1321371D1*
X1332828D2*
X1338828D1*
X1351828D2*
X1356828D1*
X1378672D2*
X1388124D1*
X1388226D2*
X1402828D1*
X1413828D2*
X1418828D1*
X1427433D2*
X1451828D1*
X1464251D2*
X1468908D1*
X1520552D2*
X1544828D1*
X1556828D2*
X1560828D1*
X1576828D2*
X1581828D1*
X1597828D2*
X1601828D1*
X1612374D2*
X1623016D1*
X1622980D2*
X1636828D1*
X1647828D2*
X1652828D1*
X1662828D2*
X1667828D1*
X1679828D2*
X1685828D1*
X1700697D2*
X1712731D1*
X1713085D2*
X1722781D1*
X1731565D2*
X1742860D1*
X1743150D2*
X1753621D1*
X1766828D2*
X1770828D1*
X1786828D2*
X1791828D1*
X1807828D2*
X1811828D1*
X1142828Y1319353D2*
X1147828D1*
X1170380D2*
X1190700D1*
X1204828D2*
X1227700D1*
X1243380D2*
X1263700D1*
X1278704D2*
X1292820D1*
X1297980D2*
X1320574D1*
X1332828D2*
X1338828D1*
X1351828D2*
X1356828D1*
X1379274D2*
X1402828D1*
X1413828D2*
X1418828D1*
X1427102D2*
X1451828D1*
X1465025D2*
X1469901D1*
X1521409D2*
X1544828D1*
X1556828D2*
X1560828D1*
X1576828D2*
X1581828D1*
X1597828D2*
X1601828D1*
X1613082D2*
X1636828D1*
X1647828D2*
X1652828D1*
X1662828D2*
X1667828D1*
X1679828D2*
X1685828D1*
X1701659D2*
X1722676D1*
X1732380D2*
X1752700D1*
X1766828D2*
X1770828D1*
X1786828D2*
X1791828D1*
X1807828D2*
X1811828D1*
X1142828Y1318353D2*
X1147828D1*
X1171496D2*
X1189586D1*
X1204828D2*
X1226586D1*
X1244496D2*
X1262586D1*
X1279363D2*
X1292744D1*
X1298518D2*
X1319490D1*
X1332828D2*
X1338828D1*
X1351828D2*
X1356828D1*
X1380074D2*
X1396828D1*
X1398828D2*
X1402828D1*
X1413828D2*
X1418828D1*
X1426941D2*
X1451828D1*
X1465911D2*
X1471053D1*
X1522615D2*
X1537644D1*
X1539828D2*
X1544828D1*
X1556828D2*
X1560828D1*
X1576828D2*
X1581828D1*
X1597828D2*
X1601828D1*
X1613974D2*
X1630942D1*
X1632828D2*
X1636828D1*
X1647828D2*
X1652828D1*
X1662828D2*
X1667828D1*
X1679828D2*
X1685828D1*
X1702920D2*
X1722154D1*
X1733496D2*
X1751586D1*
X1766828D2*
X1770828D1*
X1786828D2*
X1791828D1*
X1807828D2*
X1811828D1*
X1142828Y1317353D2*
X1147828D1*
X1172962D2*
X1188204D1*
X1204828D2*
X1225204D1*
X1245962D2*
X1261204D1*
X1280427D2*
X1292562D1*
X1300055D2*
X1317986D1*
X1332828D2*
X1338828D1*
X1351828D2*
X1356828D1*
X1381110D2*
X1394828D1*
X1398828D2*
X1402828D1*
X1413828D2*
X1418828D1*
X1426869D2*
X1451828D1*
X1466864D2*
X1472490D1*
X1524148D2*
X1535293D1*
X1539828D2*
X1544824D1*
X1556828D2*
X1560828D1*
X1576828D2*
X1581828D1*
X1597828D2*
X1601828D1*
X1615065D2*
X1629043D1*
X1632828D2*
X1636828D1*
X1647828D2*
X1652828D1*
X1662828D2*
X1667828D1*
X1679828D2*
X1685828D1*
X1704549D2*
X1720791D1*
X1734962D2*
X1750204D1*
X1766828D2*
X1770828D1*
X1786828D2*
X1791828D1*
X1807828D2*
X1811828D1*
X1142828Y1316353D2*
X1147828D1*
X1174787D2*
X1186573D1*
X1204828D2*
X1208828D1*
X1211828D2*
X1223573D1*
X1247787D2*
X1259573D1*
X1281984D2*
X1291783D1*
X1302248D2*
X1316027D1*
X1332828D2*
X1338828D1*
X1351828D2*
X1356828D1*
X1382398D2*
X1392828D1*
X1398828D2*
X1402828D1*
X1413828D2*
X1418828D1*
X1426828D2*
X1451828D1*
X1467883D2*
X1474317D1*
X1525828D2*
X1532828D1*
X1539824D2*
X1544789D1*
X1556828D2*
X1560828D1*
X1576828D2*
X1581828D1*
X1597828D2*
X1601828D1*
X1616381D2*
X1627002D1*
X1632828D2*
X1636828D1*
X1647828D2*
X1652828D1*
X1662828D2*
X1667828D1*
X1679828D2*
X1685828D1*
X1706581D2*
X1718945D1*
X1736787D2*
X1748573D1*
X1766828D2*
X1770828D1*
X1786828D2*
X1791828D1*
X1807828D2*
X1811828D1*
X1176828Y1315353D2*
X1184828D1*
X1214828D2*
X1221828D1*
X1249828D2*
X1257828D1*
X1283828D2*
X1290828D1*
X1304828D2*
X1313828D1*
X1383828D2*
X1390828D1*
X1469042D2*
X1476555D1*
X1539789D2*
X1544662D1*
X1617828D2*
X1624828D1*
X1708828D2*
X1716828D1*
X1738828D2*
X1746828D1*
X1470453Y1314353D2*
X1479121D1*
X1492828D2*
X1494828D1*
X1539658D2*
X1544418D1*
X1472190Y1313353D2*
X1494705D1*
X1539371D2*
X1544127D1*
X1474336Y1312353D2*
X1494430D1*
X1538972D2*
X1543821D1*
X1476946Y1311353D2*
X1493261D1*
X1538025D2*
X1543450D1*
X1479828Y1310353D2*
X1491828D1*
X1520828D2*
X1521828D1*
X1534741D2*
X1542984D1*
X1520828Y1309353D2*
X1529047D1*
X1529428D2*
X1542382D1*
X1520844Y1308353D2*
X1541578D1*
X1520891Y1307353D2*
X1540492D1*
X1521359Y1306353D2*
X1538987D1*
X1522918Y1305353D2*
X1537027D1*
X1524828Y1304353D2*
X1534828D1*
X1513115Y1755643D2*
X1724115D1*
X1511192Y1754643D2*
X1726265D1*
X1509452Y1753643D2*
X1728178D1*
X1507970Y1752643D2*
X1729799D1*
X1506650Y1751643D2*
X1731203D1*
X1505405Y1750643D2*
X1732430D1*
X1504252Y1749643D2*
X1733538D1*
X1503174Y1748643D2*
X1734583D1*
X1502143Y1747643D2*
X1735569D1*
X1501163Y1746643D2*
X1521940D1*
X1716137D2*
X1736477D1*
X1500285Y1745643D2*
X1517732D1*
X1720096D2*
X1737300D1*
X1499526Y1744643D2*
X1514672D1*
X1722898D2*
X1738058D1*
X1498821Y1743643D2*
X1512445D1*
X1724950D2*
X1738720D1*
X1498158Y1742643D2*
X1510748D1*
X1726557D2*
X1739303D1*
X1497621Y1741643D2*
X1509427D1*
X1727868D2*
X1739837D1*
X1497195Y1740643D2*
X1508391D1*
X1728978D2*
X1740321D1*
X1496775Y1739643D2*
X1507567D1*
X1729911D2*
X1740731D1*
X1496327Y1738643D2*
X1506836D1*
X1730692D2*
X1741085D1*
X1495888Y1737643D2*
X1506163D1*
X1731405D2*
X1741439D1*
X1495529Y1736643D2*
X1505623D1*
X1732068D2*
X1741745D1*
X1495309Y1735643D2*
X1505195D1*
X1732574D2*
X1741940D1*
X1495197Y1734643D2*
X1504775D1*
X1732905D2*
X1742041D1*
X1495147Y1733643D2*
X1504327D1*
X1733178D2*
X1742086D1*
X1495127Y1732643D2*
X1503888D1*
X1733481D2*
X1742105D1*
X1495120Y1731643D2*
X1503529D1*
X1733767D2*
X1742112D1*
X1495117Y1730643D2*
X1503309D1*
X1733986D2*
X1742114D1*
X1495116Y1729643D2*
X1503197D1*
X1734210D2*
X1742115D1*
X1495116Y1728643D2*
X1503147D1*
X1734493D2*
X1742115D1*
X1495116Y1727643D2*
X1503127D1*
X1734767D2*
X1742115D1*
X1495116Y1726643D2*
X1503120D1*
X1734948D2*
X1742115D1*
X1495115Y1725643D2*
X1503117D1*
X1735044D2*
X1742115D1*
X1495115Y1724643D2*
X1503116D1*
X1735087D2*
X1742115D1*
X1495115Y1723643D2*
X1503116D1*
X1735105D2*
X1742115D1*
X1495115Y1722643D2*
X1503116D1*
X1580115D2*
X1585115D1*
X1735112D2*
X1742115D1*
X1495115Y1721643D2*
X1503116D1*
X1577936D2*
X1587419D1*
X1735114D2*
X1742115D1*
X1495115Y1720643D2*
X1503115D1*
X1575960D2*
X1589415D1*
X1735115D2*
X1742115D1*
X1495115Y1719643D2*
X1503115D1*
X1574324D2*
X1591100D1*
X1735115D2*
X1742115D1*
X1495115Y1718643D2*
X1503115D1*
X1573050D2*
X1592452D1*
X1735115D2*
X1742115D1*
X1495115Y1717643D2*
X1503115D1*
X1572053D2*
X1593448D1*
X1735115D2*
X1742115D1*
X1495115Y1716643D2*
X1503115D1*
X1571220D2*
X1594191D1*
X1735115D2*
X1742115D1*
X1495115Y1715643D2*
X1503115D1*
X1570528D2*
X1579316D1*
X1585915D2*
X1594794D1*
X1735115D2*
X1742115D1*
X1495115Y1714643D2*
X1503115D1*
X1569934D2*
X1577766D1*
X1587465D2*
X1595305D1*
X1735115D2*
X1742115D1*
X1495115Y1713643D2*
X1503115D1*
X1569396D2*
X1576563D1*
X1588668D2*
X1595726D1*
X1602115D2*
X1607115D1*
X1611115D2*
X1617115D1*
X1634115D2*
X1640115D1*
X1652115D2*
X1657115D1*
X1662115D2*
X1668115D1*
X1735115D2*
X1742115D1*
X1495115Y1712643D2*
X1503115D1*
X1568915D2*
X1575679D1*
X1589552D2*
X1596084D1*
X1602115D2*
X1607115D1*
X1610115D2*
X1618303D1*
X1632467D2*
X1641764D1*
X1652115D2*
X1657115D1*
X1660584D2*
X1669077D1*
X1735115D2*
X1742115D1*
X1495115Y1711643D2*
X1503115D1*
X1568539D2*
X1575031D1*
X1590203D2*
X1596438D1*
X1602115D2*
X1619349D1*
X1631134D2*
X1643097D1*
X1652115D2*
X1657115D1*
X1659115D2*
X1669945D1*
X1735115D2*
X1742115D1*
X1495115Y1710643D2*
X1503115D1*
X1568312D2*
X1574584D1*
X1590686D2*
X1596749D1*
X1602115D2*
X1620240D1*
X1630093D2*
X1644138D1*
X1652115D2*
X1670667D1*
X1735115D2*
X1742115D1*
X1495115Y1709643D2*
X1503115D1*
X1568198D2*
X1574329D1*
X1591069D2*
X1596979D1*
X1602115D2*
X1621000D1*
X1629237D2*
X1644994D1*
X1652115D2*
X1671244D1*
X1735115D2*
X1742115D1*
X1495115Y1708643D2*
X1503115D1*
X1568148D2*
X1574204D1*
X1591433D2*
X1597207D1*
X1602115D2*
X1621581D1*
X1628538D2*
X1636316D1*
X1637915D2*
X1645693D1*
X1652115D2*
X1671663D1*
X1735115D2*
X1742115D1*
X1495115Y1707643D2*
X1503115D1*
X1568127D2*
X1574150D1*
X1591744D2*
X1597488D1*
X1602115D2*
X1610154D1*
X1616274D2*
X1622021D1*
X1627975D2*
X1634770D1*
X1639461D2*
X1646256D1*
X1652115D2*
X1659308D1*
X1666115D2*
X1671908D1*
X1735115D2*
X1742115D1*
X1495115Y1706643D2*
X1503115D1*
X1568120D2*
X1574128D1*
X1591940D2*
X1597728D1*
X1602115D2*
X1609286D1*
X1616557D2*
X1622413D1*
X1627559D2*
X1633601D1*
X1640629D2*
X1646672D1*
X1652115D2*
X1658688D1*
X1666115D2*
X1672029D1*
X1735115D2*
X1742115D1*
X1495115Y1705643D2*
X1503115D1*
X1568117D2*
X1574120D1*
X1592037D2*
X1597782D1*
X1602115D2*
X1608564D1*
X1616943D2*
X1622736D1*
X1627282D2*
X1632713D1*
X1641518D2*
X1646949D1*
X1652115D2*
X1658226D1*
X1666115D2*
X1672082D1*
X1735115D2*
X1742115D1*
X1495115Y1704643D2*
X1503115D1*
X1568116D2*
X1574117D1*
X1592047D2*
X1597638D1*
X1602115D2*
X1607987D1*
X1617358D2*
X1622937D1*
X1627035D2*
X1632376D1*
X1641855D2*
X1647196D1*
X1652115D2*
X1657824D1*
X1666115D2*
X1672103D1*
X1735115D2*
X1742115D1*
X1495115Y1703643D2*
X1503115D1*
X1568116D2*
X1574116D1*
X1591934D2*
X1597425D1*
X1602115D2*
X1607568D1*
X1617707D2*
X1623040D1*
X1626743D2*
X1632115D1*
X1642115D2*
X1647488D1*
X1652115D2*
X1657497D1*
X1666115D2*
X1672111D1*
X1735115D2*
X1742115D1*
X1495115Y1702643D2*
X1503115D1*
X1568119D2*
X1574120D1*
X1591667D2*
X1597264D1*
X1602115D2*
X1607323D1*
X1617924D2*
X1623086D1*
X1626465D2*
X1647766D1*
X1652115D2*
X1657295D1*
X1666115D2*
X1672114D1*
X1735115D2*
X1742115D1*
X1495115Y1701643D2*
X1503115D1*
X1568155D2*
X1574159D1*
X1591285D2*
X1597143D1*
X1602115D2*
X1607206D1*
X1618035D2*
X1623104D1*
X1626287D2*
X1647949D1*
X1652115D2*
X1657192D1*
X1666115D2*
X1672115D1*
X1735115D2*
X1742115D1*
X1495115Y1700643D2*
X1503115D1*
X1568286D2*
X1574321D1*
X1590868D2*
X1596976D1*
X1602115D2*
X1607188D1*
X1618080D2*
X1623112D1*
X1626226D2*
X1648050D1*
X1652115D2*
X1657145D1*
X1666115D2*
X1672115D1*
X1735115D2*
X1742115D1*
X1495115Y1699643D2*
X1503115D1*
X1568561D2*
X1574692D1*
X1590480D2*
X1596716D1*
X1602115D2*
X1607294D1*
X1618065D2*
X1623110D1*
X1626311D2*
X1648115D1*
X1652115D2*
X1657127D1*
X1666115D2*
X1672115D1*
X1735115D2*
X1742115D1*
X1495115Y1698643D2*
X1503115D1*
X1568944D2*
X1575231D1*
X1590093D2*
X1596418D1*
X1602115D2*
X1607530D1*
X1617941D2*
X1623076D1*
X1626532D2*
X1632119D1*
X1652115D2*
X1657119D1*
X1666115D2*
X1672115D1*
X1735115D2*
X1742115D1*
X1495115Y1697643D2*
X1503115D1*
X1569362D2*
X1575866D1*
X1589539D2*
X1596110D1*
X1602115D2*
X1607822D1*
X1617661D2*
X1622949D1*
X1626786D2*
X1632158D1*
X1652115D2*
X1657117D1*
X1666115D2*
X1672115D1*
X1735115D2*
X1742115D1*
X1495115Y1696643D2*
X1503115D1*
X1569750D2*
X1576691D1*
X1588674D2*
X1595737D1*
X1602115D2*
X1608162D1*
X1617201D2*
X1622709D1*
X1626993D2*
X1632325D1*
X1652115D2*
X1657116D1*
X1666115D2*
X1672115D1*
X1735115D2*
X1742115D1*
X1495115Y1695643D2*
X1503115D1*
X1570134D2*
X1577815D1*
X1587482D2*
X1595272D1*
X1602115D2*
X1608657D1*
X1616470D2*
X1622445D1*
X1627216D2*
X1632727D1*
X1642115D2*
X1647115D1*
X1652115D2*
X1657116D1*
X1666115D2*
X1672115D1*
X1735115D2*
X1742115D1*
X1495115Y1694643D2*
X1503115D1*
X1570650D2*
X1579115D1*
X1586115D2*
X1594674D1*
X1602115D2*
X1609341D1*
X1615390D2*
X1622201D1*
X1627537D2*
X1633367D1*
X1641115D2*
X1646732D1*
X1652115D2*
X1657116D1*
X1666115D2*
X1672115D1*
X1735115D2*
X1742115D1*
X1495115Y1693643D2*
X1503115D1*
X1571365D2*
X1593908D1*
X1602115D2*
X1610115D1*
X1614115D2*
X1621845D1*
X1627981D2*
X1634115D1*
X1640115D2*
X1646263D1*
X1652115D2*
X1657116D1*
X1666115D2*
X1672115D1*
X1735115D2*
X1742115D1*
X1495115Y1692643D2*
X1503115D1*
X1572261D2*
X1592991D1*
X1602115D2*
X1621249D1*
X1628603D2*
X1645632D1*
X1652115D2*
X1657115D1*
X1666115D2*
X1672115D1*
X1735115D2*
X1742115D1*
X1495115Y1691643D2*
X1503115D1*
X1573369D2*
X1591904D1*
X1602115D2*
X1620421D1*
X1629492D2*
X1644736D1*
X1652115D2*
X1657115D1*
X1666115D2*
X1672115D1*
X1735115D2*
X1742115D1*
X1495115Y1690643D2*
X1503115D1*
X1574788D2*
X1590571D1*
X1602115D2*
X1619382D1*
X1630650D2*
X1643539D1*
X1652115D2*
X1657115D1*
X1666115D2*
X1672115D1*
X1735115D2*
X1742115D1*
X1495115Y1689643D2*
X1503115D1*
X1576594D2*
X1588856D1*
X1602115D2*
X1607115D1*
X1610373D2*
X1618119D1*
X1632011D2*
X1642024D1*
X1652115D2*
X1657115D1*
X1666115D2*
X1672115D1*
X1735115D2*
X1742115D1*
X1495115Y1688643D2*
X1503115D1*
X1578761D2*
X1586644D1*
X1602115D2*
X1607115D1*
X1611157D2*
X1616669D1*
X1633520D2*
X1640172D1*
X1735115D2*
X1742115D1*
X1495115Y1687643D2*
X1503115D1*
X1581115D2*
X1584115D1*
X1602115D2*
X1607115D1*
X1612115D2*
X1615115D1*
X1635115D2*
X1638115D1*
X1735115D2*
X1742115D1*
X1495115Y1686643D2*
X1503115D1*
X1602115D2*
X1607115D1*
X1735115D2*
X1742115D1*
X1495115Y1685643D2*
X1503115D1*
X1602115D2*
X1607115D1*
X1735115D2*
X1742115D1*
X1495115Y1684643D2*
X1503115D1*
X1602115D2*
X1607115D1*
X1735115D2*
X1742115D1*
X1495115Y1683643D2*
X1503115D1*
X1602115D2*
X1607115D1*
X1735115D2*
X1742115D1*
X1495115Y1682643D2*
X1503115D1*
X1602115D2*
X1607115D1*
X1735115D2*
X1742115D1*
X1495115Y1681643D2*
X1503115D1*
X1602115D2*
X1607115D1*
X1735115D2*
X1742115D1*
X1495115Y1680643D2*
X1503115D1*
X1602115D2*
X1607115D1*
X1735115D2*
X1742115D1*
X1495115Y1679643D2*
X1503115D1*
X1602115D2*
X1607115D1*
X1735115D2*
X1742115D1*
X1495115Y1678643D2*
X1503115D1*
X1735115D2*
X1742115D1*
X1495115Y1677643D2*
X1503115D1*
X1735115D2*
X1742115D1*
X1495115Y1676643D2*
X1503115D1*
X1735115D2*
X1742115D1*
X1495115Y1675643D2*
X1503115D1*
X1735115D2*
X1742115D1*
X1495115Y1674643D2*
X1503115D1*
X1735115D2*
X1742115D1*
X1495115Y1673643D2*
X1503115D1*
X1735115D2*
X1742115D1*
X1495115Y1672643D2*
X1503115D1*
X1735115D2*
X1742115D1*
X1495115Y1671643D2*
X1503115D1*
X1735115D2*
X1742115D1*
X1495115Y1670643D2*
X1503115D1*
X1735115D2*
X1742115D1*
X1495115Y1669643D2*
X1503115D1*
X1735115D2*
X1742115D1*
X1495115Y1668643D2*
X1503115D1*
X1735115D2*
X1742115D1*
X1495115Y1667643D2*
X1503115D1*
X1735115D2*
X1742115D1*
X1495115Y1666643D2*
X1503115D1*
X1735115D2*
X1742115D1*
X1495115Y1665643D2*
X1503115D1*
X1597115D2*
X1598115D1*
X1641115D2*
X1643115D1*
X1735115D2*
X1742115D1*
X1495115Y1664643D2*
X1503115D1*
X1593614D2*
X1599352D1*
X1640115D2*
X1646193D1*
X1735115D2*
X1742115D1*
X1495115Y1663643D2*
X1503115D1*
X1590629D2*
X1600461D1*
X1639115D2*
X1649016D1*
X1735115D2*
X1742115D1*
X1495115Y1662643D2*
X1503115D1*
X1588142D2*
X1601432D1*
X1638119D2*
X1651565D1*
X1735115D2*
X1742115D1*
X1495115Y1661643D2*
X1503115D1*
X1585934D2*
X1602286D1*
X1637155D2*
X1653869D1*
X1735115D2*
X1742115D1*
X1495115Y1660643D2*
X1503115D1*
X1583794D2*
X1603090D1*
X1636282D2*
X1656014D1*
X1735115D2*
X1742115D1*
X1495115Y1659643D2*
X1503115D1*
X1581705D2*
X1603889D1*
X1635521D2*
X1658073D1*
X1735115D2*
X1742115D1*
X1495115Y1658643D2*
X1503115D1*
X1579697D2*
X1604747D1*
X1634778D2*
X1660054D1*
X1735115D2*
X1742115D1*
X1495115Y1657643D2*
X1503115D1*
X1577847D2*
X1605670D1*
X1633952D2*
X1661858D1*
X1735115D2*
X1742115D1*
X1495115Y1656643D2*
X1503115D1*
X1576316D2*
X1606603D1*
X1633045D2*
X1663289D1*
X1735115D2*
X1742115D1*
X1495115Y1655643D2*
X1503115D1*
X1575064D2*
X1607494D1*
X1632091D2*
X1664384D1*
X1735115D2*
X1742115D1*
X1495115Y1654643D2*
X1503115D1*
X1574579D2*
X1594115D1*
X1596312D2*
X1608343D1*
X1631144D2*
X1644115D1*
X1645999D2*
X1664763D1*
X1735115D2*
X1742115D1*
X1495115Y1653643D2*
X1503115D1*
X1574314D2*
X1592115D1*
X1596727D2*
X1609230D1*
X1630278D2*
X1643115D1*
X1647879D2*
X1664967D1*
X1735115D2*
X1742115D1*
X1495115Y1652643D2*
X1503115D1*
X1574194D2*
X1590123D1*
X1597392D2*
X1610166D1*
X1629520D2*
X1642115D1*
X1649852D2*
X1665058D1*
X1735115D2*
X1742115D1*
X1495115Y1651643D2*
X1503115D1*
X1574144D2*
X1588201D1*
X1598230D2*
X1611136D1*
X1628780D2*
X1641115D1*
X1651855D2*
X1665094D1*
X1735115D2*
X1742115D1*
X1495115Y1650643D2*
X1503115D1*
X1574126D2*
X1586534D1*
X1599156D2*
X1612123D1*
X1627970D2*
X1640119D1*
X1653604D2*
X1665108D1*
X1735115D2*
X1742115D1*
X1495115Y1649643D2*
X1503115D1*
X1574119D2*
X1585158D1*
X1600093D2*
X1639155D1*
X1655040D2*
X1665113D1*
X1735115D2*
X1742115D1*
X1495115Y1648643D2*
X1503115D1*
X1574121D2*
X1584624D1*
X1600955D2*
X1638282D1*
X1655592D2*
X1665115D1*
X1735115D2*
X1742115D1*
X1495115Y1647643D2*
X1503115D1*
X1574155D2*
X1584333D1*
X1601711D2*
X1637521D1*
X1655892D2*
X1665115D1*
X1735115D2*
X1742115D1*
X1495115Y1646643D2*
X1503115D1*
X1574282D2*
X1584201D1*
X1602454D2*
X1636778D1*
X1656028D2*
X1665111D1*
X1735115D2*
X1742115D1*
X1495115Y1645643D2*
X1503115D1*
X1574522D2*
X1584147D1*
X1603279D2*
X1635952D1*
X1656083D2*
X1665076D1*
X1735115D2*
X1742115D1*
X1495115Y1644643D2*
X1503115D1*
X1574778D2*
X1584127D1*
X1604186D2*
X1635045D1*
X1656104D2*
X1664949D1*
X1735115D2*
X1742115D1*
X1495115Y1643643D2*
X1503115D1*
X1574952D2*
X1584119D1*
X1605144D2*
X1634087D1*
X1656112D2*
X1664709D1*
X1735115D2*
X1742115D1*
X1495115Y1642643D2*
X1503115D1*
X1575045D2*
X1584117D1*
X1606126D2*
X1633105D1*
X1656114D2*
X1664453D1*
X1735115D2*
X1742115D1*
X1495115Y1641643D2*
X1503115D1*
X1575087D2*
X1584116D1*
X1607119D2*
X1632112D1*
X1656115D2*
X1664279D1*
X1735115D2*
X1742115D1*
X1495115Y1640643D2*
X1503115D1*
X1575105D2*
X1584116D1*
X1608117D2*
X1631114D1*
X1656115D2*
X1664186D1*
X1735115D2*
X1742115D1*
X1495115Y1639643D2*
X1503115D1*
X1575112D2*
X1584116D1*
X1609116D2*
X1614115D1*
X1625115D2*
X1630115D1*
X1656115D2*
X1664144D1*
X1735115D2*
X1742115D1*
X1495115Y1638643D2*
X1503115D1*
X1575114D2*
X1584115D1*
X1610115D2*
D3*
X1656115D2*
X1664126D1*
X1735115D2*
X1742115D1*
X1495115Y1637643D2*
X1503115D1*
X1575115D2*
X1584115D1*
X1656115D2*
X1664119D1*
X1735115D2*
X1742115D1*
X1495115Y1636643D2*
X1503115D1*
X1575115D2*
X1584115D1*
X1656115D2*
X1664121D1*
X1735115D2*
X1742115D1*
X1495115Y1635643D2*
X1503115D1*
X1575112D2*
X1584115D1*
X1656112D2*
X1664159D1*
X1735115D2*
X1742115D1*
X1495115Y1634643D2*
X1503115D1*
X1575073D2*
X1584115D1*
X1656076D2*
X1664325D1*
X1735115D2*
X1742115D1*
X1495115Y1633643D2*
X1503115D1*
X1574902D2*
X1584115D1*
X1655949D2*
X1664731D1*
X1735115D2*
X1742115D1*
X1495115Y1632643D2*
X1503115D1*
X1574578D2*
X1584115D1*
X1655709D2*
X1665393D1*
X1735115D2*
X1742115D1*
X1495115Y1631643D2*
X1503115D1*
X1573700D2*
X1584115D1*
X1655457D2*
X1666230D1*
X1735115D2*
X1742115D1*
X1495115Y1630643D2*
X1503115D1*
X1572602D2*
X1584108D1*
X1655326D2*
X1667160D1*
X1735115D2*
X1742115D1*
X1495115Y1629643D2*
X1503115D1*
X1571415D2*
X1584033D1*
X1655318D2*
X1668132D1*
X1735115D2*
X1742115D1*
X1495115Y1628643D2*
X1503115D1*
X1570302D2*
X1583858D1*
X1655858D2*
X1669121D1*
X1735115D2*
X1742115D1*
X1495115Y1627643D2*
X1503115D1*
X1569347D2*
X1583124D1*
X1656640D2*
X1670117D1*
X1735115D2*
X1742115D1*
X1495115Y1626643D2*
X1503115D1*
X1568548D2*
X1582183D1*
X1657528D2*
X1671116D1*
X1735115D2*
X1742115D1*
X1495115Y1625643D2*
X1503115D1*
X1567788D2*
X1581166D1*
X1658501D2*
X1672116D1*
X1735115D2*
X1742115D1*
X1495115Y1624643D2*
X1503115D1*
X1566957D2*
X1580142D1*
X1659631D2*
X1673116D1*
X1735115D2*
X1742115D1*
X1495115Y1623643D2*
X1503115D1*
X1544115D2*
D3*
X1566052D2*
X1579127D1*
X1660826D2*
X1674116D1*
X1687115D2*
X1696115D1*
X1735115D2*
X1742115D1*
X1495115Y1622643D2*
X1503115D1*
X1543461D2*
X1578120D1*
X1661972D2*
X1696736D1*
X1735115D2*
X1742115D1*
X1495115Y1621643D2*
X1503115D1*
X1542798D2*
X1577121D1*
X1663049D2*
X1697306D1*
X1735115D2*
X1742115D1*
X1495115Y1620643D2*
X1503115D1*
X1542150D2*
X1576151D1*
X1664051D2*
X1697838D1*
X1735115D2*
X1742115D1*
X1495115Y1619643D2*
X1503115D1*
X1541615D2*
X1575247D1*
X1664939D2*
X1698321D1*
X1735115D2*
X1742115D1*
X1495115Y1618643D2*
X1503115D1*
X1541159D2*
X1574394D1*
X1665706D2*
X1698735D1*
X1735115D2*
X1742115D1*
X1495115Y1617643D2*
X1503115D1*
X1540647D2*
X1573538D1*
X1611115D2*
X1629115D1*
X1666452D2*
X1699124D1*
X1735115D2*
X1742115D1*
X1495115Y1616643D2*
X1503115D1*
X1540087D2*
X1572696D1*
X1608091D2*
X1631915D1*
X1667278D2*
X1699605D1*
X1735115D2*
X1742115D1*
X1495115Y1615643D2*
X1503115D1*
X1539627D2*
X1571871D1*
X1605367D2*
X1634465D1*
X1668186D2*
X1700155D1*
X1735115D2*
X1742115D1*
X1495115Y1614643D2*
X1503115D1*
X1539311D2*
X1570995D1*
X1603024D2*
X1636672D1*
X1669142D2*
X1700642D1*
X1735115D2*
X1742115D1*
X1495115Y1613643D2*
X1503115D1*
X1539010D2*
X1570067D1*
X1601057D2*
X1638587D1*
X1670115D2*
X1701048D1*
X1735115D2*
X1742115D1*
X1495115Y1612643D2*
X1503115D1*
X1538582D2*
X1547961D1*
X1566115D2*
D3*
X1569115D2*
D3*
X1599428D2*
X1640331D1*
X1690957D2*
X1701461D1*
X1735115D2*
X1742115D1*
X1495115Y1611643D2*
X1503115D1*
X1538062D2*
X1547709D1*
X1598021D2*
X1641926D1*
X1691670D2*
X1701905D1*
X1735115D2*
X1742115D1*
X1495115Y1610643D2*
X1503115D1*
X1537617D2*
X1547415D1*
X1596764D2*
X1643325D1*
X1692249D2*
X1702348D1*
X1735115D2*
X1742115D1*
X1495115Y1609643D2*
X1503115D1*
X1537312D2*
X1547109D1*
X1595561D2*
X1644607D1*
X1692706D2*
X1702741D1*
X1735115D2*
X1742115D1*
X1495115Y1608643D2*
X1503115D1*
X1537044D2*
X1546741D1*
X1594370D2*
X1645836D1*
X1693114D2*
X1703089D1*
X1735115D2*
X1742115D1*
X1495115Y1607643D2*
X1503115D1*
X1536709D2*
X1546315D1*
X1593239D2*
X1611848D1*
X1628232D2*
X1646982D1*
X1693601D2*
X1703444D1*
X1735115D2*
X1742115D1*
X1495115Y1606643D2*
X1503115D1*
X1536301D2*
X1545883D1*
X1592169D2*
X1609516D1*
X1630352D2*
X1648054D1*
X1694150D2*
X1703785D1*
X1735115D2*
X1742115D1*
X1495115Y1605643D2*
X1503115D1*
X1535878D2*
X1545523D1*
X1591141D2*
X1607369D1*
X1632367D2*
X1649054D1*
X1694602D2*
X1704107D1*
X1735115D2*
X1742115D1*
X1495115Y1604643D2*
X1503115D1*
X1535525D2*
X1545266D1*
X1590163D2*
X1605550D1*
X1634247D2*
X1649940D1*
X1694877D2*
X1704447D1*
X1735115D2*
X1742115D1*
X1495115Y1603643D2*
X1503115D1*
X1535303D2*
X1545000D1*
X1589285D2*
X1603926D1*
X1635999D2*
X1650706D1*
X1695008D2*
X1704752D1*
X1735115D2*
X1742115D1*
X1495115Y1602643D2*
X1503115D1*
X1535158D2*
X1544607D1*
X1588526D2*
X1602387D1*
X1637542D2*
X1651448D1*
X1694998D2*
X1704980D1*
X1735115D2*
X1742115D1*
X1495115Y1601643D2*
X1503115D1*
X1534981D2*
X1544115D1*
X1587817D2*
X1600910D1*
X1638855D2*
X1652235D1*
X1694865D2*
X1705204D1*
X1735115D2*
X1742115D1*
X1495115Y1600643D2*
X1503115D1*
X1534725D2*
X1545081D1*
X1587119D2*
X1599541D1*
X1640008D2*
X1652980D1*
X1694281D2*
X1705453D1*
X1735115D2*
X1742115D1*
X1495115Y1599643D2*
X1503115D1*
X1534500D2*
X1545984D1*
X1586455D2*
X1598350D1*
X1641074D2*
X1653571D1*
X1693586D2*
X1705676D1*
X1735115D2*
X1742115D1*
X1495115Y1598643D2*
X1503115D1*
X1534385D2*
X1546841D1*
X1585793D2*
X1597364D1*
X1642100D2*
X1654054D1*
X1692823D2*
X1705485D1*
X1735115D2*
X1742115D1*
X1495115Y1597643D2*
X1503115D1*
X1534776D2*
X1547732D1*
X1585147D2*
X1596558D1*
X1643106D2*
X1654577D1*
X1691940D2*
X1705046D1*
X1735115D2*
X1742115D1*
X1495115Y1596643D2*
X1503115D1*
X1535415D2*
X1548702D1*
X1584614D2*
X1595829D1*
X1644075D2*
X1655145D1*
X1690890D2*
X1704357D1*
X1735115D2*
X1742115D1*
X1495115Y1595643D2*
X1503115D1*
X1536243D2*
X1549766D1*
X1584158D2*
X1595123D1*
X1644948D2*
X1655642D1*
X1689686D2*
X1703475D1*
X1735115D2*
X1742115D1*
X1495115Y1594643D2*
X1503115D1*
X1537198D2*
X1550899D1*
X1583647D2*
X1594456D1*
X1645705D2*
X1656082D1*
X1688448D2*
X1702445D1*
X1735115D2*
X1742115D1*
X1495115Y1593643D2*
X1503115D1*
X1538260D2*
X1552005D1*
X1583087D2*
X1593793D1*
X1646410D2*
X1656588D1*
X1687311D2*
X1701325D1*
X1735115D2*
X1742115D1*
X1495115Y1592643D2*
X1503115D1*
X1539361D2*
X1553066D1*
X1582631D2*
X1593148D1*
X1647073D2*
X1657145D1*
X1686316D2*
X1700223D1*
X1735115D2*
X1742115D1*
X1495115Y1591643D2*
X1503115D1*
X1540374D2*
X1554099D1*
X1582350D2*
X1592614D1*
X1647610D2*
X1657604D1*
X1685418D2*
X1699164D1*
X1735115D2*
X1742115D1*
X1495115Y1590643D2*
X1503115D1*
X1541291D2*
X1555143D1*
X1582177D2*
X1592158D1*
X1648036D2*
X1657916D1*
X1684510D2*
X1698135D1*
X1735115D2*
X1742115D1*
X1495115Y1589643D2*
X1503115D1*
X1542208D2*
X1556236D1*
X1581984D2*
X1591647D1*
X1648456D2*
X1658182D1*
X1683537D2*
X1697123D1*
X1735115D2*
X1742115D1*
X1495115Y1588643D2*
X1503115D1*
X1543162D2*
X1557311D1*
X1581685D2*
X1591087D1*
X1648904D2*
X1658486D1*
X1682513D2*
X1696114D1*
X1735115D2*
X1742115D1*
X1495115Y1587643D2*
X1503115D1*
X1544172D2*
X1558162D1*
X1581292D2*
X1590631D1*
X1649343D2*
X1658803D1*
X1681581D2*
X1695081D1*
X1735115D2*
X1742115D1*
X1495115Y1586643D2*
X1503115D1*
X1545285D2*
X1558774D1*
X1580874D2*
X1590350D1*
X1649702D2*
X1659114D1*
X1680852D2*
X1693988D1*
X1735115D2*
X1742115D1*
X1495115Y1585643D2*
X1503115D1*
X1546481D2*
X1558955D1*
X1580524D2*
X1590177D1*
X1649926D2*
X1659449D1*
X1680810D2*
X1692877D1*
X1735115D2*
X1742115D1*
X1495115Y1584643D2*
X1503115D1*
X1547569D2*
X1559049D1*
X1580307D2*
X1589988D1*
X1650073D2*
X1659749D1*
X1680903D2*
X1691866D1*
X1735115D2*
X1742115D1*
X1495115Y1583643D2*
X1503115D1*
X1548462D2*
X1559086D1*
X1580197D2*
X1589720D1*
X1650250D2*
X1659942D1*
X1681002D2*
X1690974D1*
X1735115D2*
X1742115D1*
X1495115Y1582643D2*
X1503115D1*
X1548798D2*
X1559067D1*
X1580147D2*
X1589419D1*
X1650510D2*
X1660041D1*
X1681063D2*
X1690115D1*
X1735115D2*
X1742115D1*
X1495115Y1581643D2*
X1503115D1*
X1548981D2*
X1558946D1*
X1580127D2*
X1589114D1*
X1650778D2*
X1660086D1*
X1681098D2*
X1690577D1*
X1735115D2*
X1742115D1*
X1495115Y1580643D2*
X1503115D1*
X1549063D2*
X1558708D1*
X1580120D2*
X1588781D1*
X1650990D2*
X1660105D1*
X1681146D2*
X1690864D1*
X1735115D2*
X1742115D1*
X1495115Y1579643D2*
X1503115D1*
X1549096D2*
X1558453D1*
X1580117D2*
X1588481D1*
X1651211D2*
X1660112D1*
X1681279D2*
X1691010D1*
X1735115D2*
X1742115D1*
X1495115Y1578643D2*
X1503115D1*
X1549109D2*
X1558279D1*
X1580116D2*
X1588289D1*
X1651493D2*
X1660114D1*
X1681520D2*
X1691074D1*
X1735115D2*
X1742115D1*
X1495115Y1577643D2*
X1503115D1*
X1549113D2*
X1558186D1*
X1580116D2*
X1588190D1*
X1651763D2*
X1660115D1*
X1681774D2*
X1691100D1*
X1735115D2*
X1742115D1*
X1495115Y1576643D2*
X1503115D1*
X1549115D2*
X1558144D1*
X1580116D2*
X1588145D1*
X1651909D2*
X1660115D1*
X1681910D2*
X1691110D1*
X1735115D2*
X1742115D1*
X1495115Y1575643D2*
X1503115D1*
X1549115D2*
X1558126D1*
X1580116D2*
X1588130D1*
X1651877D2*
X1660115D1*
X1681932D2*
X1691114D1*
X1735115D2*
X1742115D1*
X1495115Y1574643D2*
X1503115D1*
X1549115D2*
X1558119D1*
X1580115D2*
X1588158D1*
X1651681D2*
X1660115D1*
X1681572D2*
X1691115D1*
X1735115D2*
X1742115D1*
X1495115Y1573643D2*
X1503115D1*
X1549115D2*
X1558121D1*
X1580115D2*
X1588283D1*
X1651442D2*
X1660115D1*
X1681115D2*
X1691115D1*
X1735115D2*
X1742115D1*
X1495115Y1572643D2*
X1503115D1*
X1549115D2*
X1558155D1*
X1580115D2*
X1588522D1*
X1651271D2*
X1660115D1*
X1682115D2*
X1691115D1*
X1735115D2*
X1742115D1*
X1495115Y1571643D2*
X1503115D1*
X1549115D2*
X1558282D1*
X1580115D2*
X1588782D1*
X1651146D2*
X1660115D1*
X1681654D2*
X1691115D1*
X1735115D2*
X1742115D1*
X1495115Y1570643D2*
X1503115D1*
X1549108D2*
X1558522D1*
X1580115D2*
X1588991D1*
X1650977D2*
X1660115D1*
X1681367D2*
X1691123D1*
X1735115D2*
X1742115D1*
X1495115Y1569643D2*
X1503115D1*
X1549037D2*
X1558778D1*
X1580115D2*
X1589212D1*
X1650720D2*
X1660112D1*
X1681217D2*
X1691194D1*
X1735115D2*
X1742115D1*
X1495115Y1568643D2*
X1503115D1*
X1548873D2*
X1558952D1*
X1580119D2*
X1589493D1*
X1650457D2*
X1660076D1*
X1681118D2*
X1691358D1*
X1735115D2*
X1742115D1*
X1495115Y1567643D2*
X1503115D1*
X1548250D2*
X1559041D1*
X1580155D2*
X1589767D1*
X1650276D2*
X1659945D1*
X1680972D2*
X1691985D1*
X1735115D2*
X1742115D1*
X1495115Y1566643D2*
X1503115D1*
X1547460D2*
X1559048D1*
X1580286D2*
X1589952D1*
X1650147D2*
X1659670D1*
X1680797D2*
X1692810D1*
X1735115D2*
X1742115D1*
X1495115Y1565643D2*
X1503115D1*
X1546588D2*
X1558935D1*
X1580561D2*
X1590087D1*
X1649973D2*
X1659287D1*
X1680686D2*
X1693809D1*
X1735115D2*
X1742115D1*
X1495115Y1564643D2*
X1503115D1*
X1545719D2*
X1558659D1*
X1580944D2*
X1590293D1*
X1649681D2*
X1658873D1*
X1681230D2*
X1694914D1*
X1735115D2*
X1742115D1*
X1495115Y1563643D2*
X1503115D1*
X1544844D2*
X1558207D1*
X1581358D2*
X1590677D1*
X1649286D2*
X1658524D1*
X1681990D2*
X1696011D1*
X1735115D2*
X1742115D1*
X1495115Y1562643D2*
X1503115D1*
X1543833D2*
X1557531D1*
X1581711D2*
X1591184D1*
X1648835D2*
X1658303D1*
X1682853D2*
X1697068D1*
X1735115D2*
X1742115D1*
X1495115Y1561643D2*
X1503115D1*
X1542658D2*
X1556629D1*
X1581963D2*
X1591656D1*
X1648354D2*
X1658153D1*
X1683843D2*
X1698100D1*
X1735115D2*
X1742115D1*
X1495115Y1560643D2*
X1503115D1*
X1541432D2*
X1555606D1*
X1582205D2*
X1592087D1*
X1647862D2*
X1657942D1*
X1684933D2*
X1699143D1*
X1735115D2*
X1742115D1*
X1495115Y1559643D2*
X1503115D1*
X1540275D2*
X1554501D1*
X1582529D2*
X1592593D1*
X1647364D2*
X1657555D1*
X1686019D2*
X1700240D1*
X1735115D2*
X1742115D1*
X1495115Y1558643D2*
X1503115D1*
X1539218D2*
X1553348D1*
X1582933D2*
X1593188D1*
X1646862D2*
X1657047D1*
X1687072D2*
X1701354D1*
X1735115D2*
X1742115D1*
X1495115Y1557643D2*
X1503115D1*
X1538274D2*
X1552232D1*
X1583358D2*
X1593806D1*
X1646326D2*
X1656575D1*
X1688101D2*
X1702372D1*
X1735115D2*
X1742115D1*
X1495115Y1556643D2*
X1503115D1*
X1537404D2*
X1551167D1*
X1583749D2*
X1594457D1*
X1645695D2*
X1656144D1*
X1689144D2*
X1703286D1*
X1735115D2*
X1742115D1*
X1495115Y1555643D2*
X1503115D1*
X1536546D2*
X1550136D1*
X1584129D2*
X1595162D1*
X1644920D2*
X1655638D1*
X1690244D2*
X1704161D1*
X1735115D2*
X1742115D1*
X1495115Y1554643D2*
X1503115D1*
X1535744D2*
X1549123D1*
X1584611D2*
X1595916D1*
X1644033D2*
X1655047D1*
X1691389D2*
X1704909D1*
X1735115D2*
X1742115D1*
X1495115Y1553643D2*
X1503115D1*
X1535120D2*
X1548118D1*
X1585195D2*
X1596761D1*
X1643083D2*
X1654460D1*
X1692495D2*
X1705485D1*
X1735115D2*
X1742115D1*
X1495115Y1552643D2*
X1503115D1*
X1534658D2*
X1547116D1*
X1585808D2*
X1597713D1*
X1642104D2*
X1653905D1*
X1693486D2*
X1705472D1*
X1735115D2*
X1742115D1*
X1495115Y1551643D2*
X1503115D1*
X1534717D2*
X1546116D1*
X1586454D2*
X1598774D1*
X1641107D2*
X1653344D1*
X1694255D2*
X1705349D1*
X1735115D2*
X1742115D1*
X1495115Y1550643D2*
X1503115D1*
X1534864D2*
X1545116D1*
X1587127D2*
X1599939D1*
X1640071D2*
X1652706D1*
X1694717D2*
X1705233D1*
X1735115D2*
X1742115D1*
X1495115Y1549643D2*
X1503115D1*
X1534991D2*
X1544115D1*
X1587785D2*
X1601180D1*
X1638906D2*
X1651962D1*
X1694944D2*
X1705132D1*
X1735115D2*
X1742115D1*
X1495115Y1548643D2*
X1503115D1*
X1535097D2*
X1544581D1*
X1588483D2*
X1602555D1*
X1637500D2*
X1651200D1*
X1695011D2*
X1704968D1*
X1735115D2*
X1742115D1*
X1495115Y1547643D2*
X1503115D1*
X1535262D2*
X1544907D1*
X1589290D2*
X1604134D1*
X1635838D2*
X1650490D1*
X1694921D2*
X1704679D1*
X1735115D2*
X1742115D1*
X1495115Y1546643D2*
X1503115D1*
X1535552D2*
X1545215D1*
X1590190D2*
X1605958D1*
X1634009D2*
X1649762D1*
X1694662D2*
X1704290D1*
X1735115D2*
X1742115D1*
X1495115Y1545643D2*
X1503115D1*
X1535941D2*
X1545647D1*
X1591149D2*
X1607897D1*
X1632157D2*
X1648909D1*
X1694284D2*
X1703874D1*
X1735115D2*
X1742115D1*
X1495115Y1544643D2*
X1503115D1*
X1536357D2*
X1546169D1*
X1592162D2*
X1609619D1*
X1630518D2*
X1647881D1*
X1693868D2*
X1703520D1*
X1735115D2*
X1742115D1*
X1495115Y1543643D2*
X1503115D1*
X1536711D2*
X1546613D1*
X1593251D2*
X1611043D1*
X1629156D2*
X1646716D1*
X1693484D2*
X1703268D1*
X1735115D2*
X1742115D1*
X1495115Y1542643D2*
X1503115D1*
X1536967D2*
X1546923D1*
X1594399D2*
X1611670D1*
X1628549D2*
X1645566D1*
X1693136D2*
X1703026D1*
X1735115D2*
X1742115D1*
X1495115Y1541643D2*
X1503115D1*
X1537240D2*
X1547226D1*
X1595578D2*
X1611836D1*
X1628390D2*
X1644475D1*
X1692748D2*
X1702702D1*
X1735115D2*
X1742115D1*
X1495115Y1540643D2*
X1503115D1*
X1537656D2*
X1547689D1*
X1596863D2*
X1611611D1*
X1628618D2*
X1643274D1*
X1692286D2*
X1702298D1*
X1735115D2*
X1742115D1*
X1495115Y1539643D2*
X1503115D1*
X1538176D2*
X1548353D1*
X1598288D2*
X1611261D1*
X1628969D2*
X1641900D1*
X1691734D2*
X1701873D1*
X1735115D2*
X1742115D1*
X1495115Y1538643D2*
X1503115D1*
X1538650D2*
X1549115D1*
X1560115D2*
X1570115D1*
X1599721D2*
X1610859D1*
X1629372D2*
X1640493D1*
X1670115D2*
X1687115D1*
X1689115D2*
D3*
X1691115D2*
X1701482D1*
X1735115D2*
X1742115D1*
X1495115Y1537643D2*
X1503115D1*
X1539051D2*
X1570807D1*
X1601115D2*
X1610481D1*
X1629750D2*
X1639115D1*
X1669390D2*
X1701102D1*
X1735115D2*
X1742115D1*
X1495115Y1536643D2*
X1503115D1*
X1539462D2*
X1571473D1*
X1600616D2*
X1610135D1*
X1630096D2*
X1639615D1*
X1668631D2*
X1700624D1*
X1735115D2*
X1742115D1*
X1495115Y1535643D2*
X1503115D1*
X1539906D2*
X1572114D1*
X1600197D2*
X1609751D1*
X1630480D2*
X1640034D1*
X1667877D2*
X1700075D1*
X1735115D2*
X1742115D1*
X1495115Y1534643D2*
X1503115D1*
X1540348D2*
X1572860D1*
X1599776D2*
X1609318D1*
X1630913D2*
X1640455D1*
X1667115D2*
X1699585D1*
X1735115D2*
X1742115D1*
X1495115Y1533643D2*
X1503115D1*
X1540745D2*
X1573723D1*
X1599328D2*
X1608884D1*
X1631347D2*
X1640903D1*
X1666333D2*
X1699148D1*
X1735115D2*
X1742115D1*
X1495115Y1532643D2*
X1503115D1*
X1541128D2*
X1574658D1*
X1598884D2*
X1608524D1*
X1631707D2*
X1641347D1*
X1665480D2*
X1698643D1*
X1735115D2*
X1742115D1*
X1495115Y1531643D2*
X1503115D1*
X1541610D2*
X1575629D1*
X1598490D2*
X1608265D1*
X1631966D2*
X1641741D1*
X1664560D2*
X1698086D1*
X1735115D2*
X1742115D1*
X1495115Y1530643D2*
X1503115D1*
X1542194D2*
X1576585D1*
X1598138D2*
X1607991D1*
X1632240D2*
X1642093D1*
X1663624D2*
X1697627D1*
X1735115D2*
X1742115D1*
X1495115Y1529643D2*
X1503115D1*
X1542803D2*
X1577487D1*
X1597752D2*
X1607575D1*
X1632656D2*
X1642479D1*
X1662698D2*
X1697330D1*
X1735115D2*
X1742115D1*
X1495115Y1528643D2*
X1503115D1*
X1543440D2*
X1578345D1*
X1597319D2*
X1607059D1*
X1633172D2*
X1642912D1*
X1661721D2*
X1673919D1*
X1679115D2*
D3*
X1681115D2*
X1697115D1*
X1735115D2*
X1742115D1*
X1495115Y1527643D2*
X1503115D1*
X1544115D2*
X1552115D1*
X1566081D2*
X1579268D1*
X1596881D2*
X1606617D1*
X1633614D2*
X1643350D1*
X1660595D2*
X1673504D1*
X1735115D2*
X1742115D1*
X1495115Y1526643D2*
X1503115D1*
X1566984D2*
X1580328D1*
X1596489D2*
X1606312D1*
X1633919D2*
X1643742D1*
X1659406D2*
X1672839D1*
X1735115D2*
X1742115D1*
X1495115Y1525643D2*
X1503115D1*
X1567841D2*
X1581499D1*
X1596138D2*
X1606044D1*
X1634187D2*
X1644093D1*
X1658301D2*
X1672001D1*
X1735115D2*
X1742115D1*
X1495115Y1524643D2*
X1503115D1*
X1568728D2*
X1582576D1*
X1595752D2*
X1605709D1*
X1634522D2*
X1644479D1*
X1657388D2*
X1671071D1*
X1735115D2*
X1742115D1*
X1495115Y1523643D2*
X1503115D1*
X1569666D2*
X1583463D1*
X1595319D2*
X1605301D1*
X1634930D2*
X1644912D1*
X1656653D2*
X1670099D1*
X1735115D2*
X1742115D1*
X1495115Y1522643D2*
X1503115D1*
X1570639D2*
X1583799D1*
X1594885D2*
X1604874D1*
X1635357D2*
X1645346D1*
X1656377D2*
X1669110D1*
X1735115D2*
X1742115D1*
X1495115Y1521643D2*
X1503115D1*
X1571659D2*
X1583981D1*
X1594524D2*
X1604486D1*
X1635745D2*
X1645707D1*
X1656227D2*
X1668117D1*
X1735115D2*
X1742115D1*
X1495115Y1520643D2*
X1503115D1*
X1572745D2*
X1584063D1*
X1594269D2*
X1604137D1*
X1636094D2*
X1645966D1*
X1656159D2*
X1667158D1*
X1735115D2*
X1742115D1*
X1495115Y1519643D2*
X1503115D1*
X1573849D2*
X1584096D1*
X1594027D2*
X1603752D1*
X1636479D2*
X1646240D1*
X1656132D2*
X1666325D1*
X1735115D2*
X1742115D1*
X1495115Y1518643D2*
X1503115D1*
X1574793D2*
X1584109D1*
X1593702D2*
X1603318D1*
X1636913D2*
X1646656D1*
X1656121D2*
X1665731D1*
X1735115D2*
X1742115D1*
X1495115Y1517643D2*
X1503115D1*
X1575557D2*
X1584113D1*
X1593298D2*
X1602881D1*
X1637350D2*
X1647172D1*
X1656117D2*
X1665393D1*
X1735115D2*
X1742115D1*
X1495115Y1516643D2*
X1503115D1*
X1575806D2*
X1584115D1*
X1592873D2*
X1602489D1*
X1637742D2*
X1647614D1*
X1656116D2*
X1665230D1*
X1735115D2*
X1742115D1*
X1495115Y1515643D2*
X1503115D1*
X1575834D2*
X1584115D1*
X1592486D2*
X1602138D1*
X1638093D2*
X1647919D1*
X1656116D2*
X1665160D1*
X1735115D2*
X1742115D1*
X1495115Y1514643D2*
X1503115D1*
X1575664D2*
X1584115D1*
X1592137D2*
X1601752D1*
X1638479D2*
X1648187D1*
X1656116D2*
X1665132D1*
X1735115D2*
X1742115D1*
X1495115Y1513643D2*
X1503115D1*
X1575436D2*
X1584115D1*
X1591752D2*
X1601319D1*
X1638912D2*
X1648522D1*
X1656116D2*
X1665121D1*
X1735115D2*
X1742115D1*
X1495115Y1512643D2*
X1503115D1*
X1575273D2*
X1584115D1*
X1591318D2*
X1600885D1*
X1639346D2*
X1648930D1*
X1656115D2*
X1665117D1*
X1735115D2*
X1742115D1*
X1495115Y1511643D2*
X1503115D1*
X1575184D2*
X1584115D1*
X1590881D2*
X1600524D1*
X1639707D2*
X1649357D1*
X1656115D2*
X1665116D1*
X1735115D2*
X1742115D1*
X1495115Y1510643D2*
X1503115D1*
X1575143D2*
X1584115D1*
X1590489D2*
X1600265D1*
X1639966D2*
X1649745D1*
X1656115D2*
X1665116D1*
X1735115D2*
X1742115D1*
X1495115Y1509643D2*
X1503115D1*
X1575126D2*
X1584115D1*
X1590138D2*
X1599991D1*
X1640240D2*
X1650094D1*
X1656115D2*
X1665116D1*
X1735115D2*
X1742115D1*
X1495115Y1508643D2*
X1503115D1*
X1575119D2*
X1584115D1*
X1589752D2*
X1599575D1*
X1640656D2*
X1650479D1*
X1656115D2*
X1665116D1*
X1735115D2*
X1742115D1*
X1495115Y1507643D2*
X1503115D1*
X1575117D2*
X1584115D1*
X1589319D2*
X1599059D1*
X1641172D2*
X1650913D1*
X1656115D2*
X1665115D1*
X1735115D2*
X1742115D1*
X1495115Y1506643D2*
X1503115D1*
X1575116D2*
X1584115D1*
X1588885D2*
X1598617D1*
X1641614D2*
X1651350D1*
X1656115D2*
X1665115D1*
X1735115D2*
X1742115D1*
X1495115Y1505643D2*
X1503115D1*
X1575116D2*
X1584119D1*
X1588524D2*
X1598312D1*
X1641919D2*
X1651742D1*
X1656112D2*
X1665119D1*
X1735115D2*
X1742115D1*
X1495115Y1504643D2*
X1503115D1*
X1575116D2*
X1584157D1*
X1588266D2*
X1598044D1*
X1642187D2*
X1652090D1*
X1656073D2*
X1665155D1*
X1735115D2*
X1742115D1*
X1495115Y1503643D2*
X1503115D1*
X1575115D2*
X1584312D1*
X1588000D2*
X1597709D1*
X1642522D2*
X1652449D1*
X1655919D2*
X1665282D1*
X1735115D2*
X1742115D1*
X1495115Y1502643D2*
X1503115D1*
X1575115D2*
X1584654D1*
X1587607D2*
X1597301D1*
X1642930D2*
X1652798D1*
X1655577D2*
X1665521D1*
X1735115D2*
X1742115D1*
X1495115Y1501643D2*
X1503115D1*
X1575115D2*
X1585115D1*
X1587115D2*
X1596874D1*
X1643357D2*
X1653115D1*
X1655115D2*
X1665778D1*
X1735115D2*
X1742115D1*
X1495115Y1500643D2*
X1503115D1*
X1575115D2*
X1596486D1*
X1643745D2*
X1665952D1*
X1735115D2*
X1742115D1*
X1495115Y1499643D2*
X1503115D1*
X1575115D2*
X1596137D1*
X1644094D2*
X1666041D1*
X1735115D2*
X1742115D1*
X1495115Y1498643D2*
X1503115D1*
X1575119D2*
X1595752D1*
X1644479D2*
X1666044D1*
X1735115D2*
X1742115D1*
X1495115Y1497643D2*
X1503115D1*
X1575162D2*
X1595318D1*
X1644913D2*
X1665973D1*
X1735115D2*
X1742115D1*
X1495115Y1496643D2*
X1503115D1*
X1575268D2*
X1594881D1*
X1645350D2*
X1665561D1*
X1735115D2*
X1742115D1*
X1495115Y1495643D2*
X1503115D1*
X1575774D2*
X1594489D1*
X1645742D2*
X1664535D1*
X1735115D2*
X1742115D1*
X1495115Y1494643D2*
X1503115D1*
X1576933D2*
X1594138D1*
X1646093D2*
X1663154D1*
X1735115D2*
X1742115D1*
X1495115Y1493643D2*
X1503115D1*
X1578370D2*
X1593752D1*
X1646479D2*
X1661539D1*
X1735115D2*
X1742115D1*
X1495115Y1492643D2*
X1503115D1*
X1580036D2*
X1593319D1*
X1646912D2*
X1659807D1*
X1735115D2*
X1742115D1*
X1495115Y1491643D2*
X1503115D1*
X1581954D2*
X1592885D1*
X1647346D2*
X1657934D1*
X1735115D2*
X1742115D1*
X1495115Y1490643D2*
X1503115D1*
X1584088D2*
X1592528D1*
X1647703D2*
X1655888D1*
X1735115D2*
X1742115D1*
X1495115Y1489643D2*
X1503115D1*
X1586249D2*
X1592307D1*
X1647924D2*
X1653677D1*
X1735115D2*
X1742115D1*
X1495115Y1488643D2*
X1503115D1*
X1588254D2*
X1592190D1*
X1648041D2*
X1651394D1*
X1735115D2*
X1742115D1*
X1495115Y1487643D2*
X1503115D1*
X1590115D2*
X1592115D1*
X1648115D2*
X1649115D1*
X1735115D2*
X1742115D1*
X1495115Y1486643D2*
X1503115D1*
X1735115D2*
X1742115D1*
X1495115Y1485643D2*
X1503115D1*
X1735115D2*
X1742115D1*
X1495115Y1484643D2*
X1503115D1*
X1735115D2*
X1742115D1*
X1495115Y1483643D2*
X1503115D1*
X1735115D2*
X1742115D1*
X1495115Y1482643D2*
X1503115D1*
X1735115D2*
X1742115D1*
X1495115Y1481643D2*
X1503115D1*
X1735115D2*
X1742115D1*
X1495115Y1480643D2*
X1503115D1*
X1735115D2*
X1742115D1*
X1495115Y1479643D2*
X1503115D1*
X1735115D2*
X1742115D1*
X1495115Y1478643D2*
X1503115D1*
X1735115D2*
X1742115D1*
X1495115Y1477643D2*
X1503115D1*
X1735115D2*
X1742115D1*
X1495115Y1476643D2*
X1503115D1*
X1735115D2*
X1742115D1*
X1495115Y1475643D2*
X1503115D1*
X1735115D2*
X1742115D1*
X1495115Y1474643D2*
X1503115D1*
X1735115D2*
X1742115D1*
X1495115Y1473643D2*
X1503115D1*
X1525115D2*
X1531115D1*
X1544115D2*
X1550115D1*
X1611115D2*
X1616115D1*
X1735115D2*
X1742115D1*
X1495115Y1472643D2*
X1503115D1*
X1525115D2*
X1531115D1*
X1544115D2*
X1550115D1*
X1611115D2*
X1616115D1*
X1735115D2*
X1742115D1*
X1495115Y1471643D2*
X1503115D1*
X1525115D2*
X1531115D1*
X1544115D2*
X1550115D1*
X1611115D2*
X1616115D1*
X1735115D2*
X1742115D1*
X1495115Y1470643D2*
X1503115D1*
X1525115D2*
X1531115D1*
X1544115D2*
X1550115D1*
X1611115D2*
X1616115D1*
X1735115D2*
X1742115D1*
X1495115Y1469643D2*
X1503115D1*
X1525115D2*
X1531115D1*
X1544115D2*
X1550115D1*
X1611115D2*
X1616115D1*
X1735115D2*
X1742115D1*
X1495115Y1468643D2*
X1503115D1*
X1525115D2*
X1531115D1*
X1544115D2*
X1550115D1*
X1611115D2*
X1616115D1*
X1735115D2*
X1742115D1*
X1495115Y1467643D2*
X1503115D1*
X1525115D2*
X1531115D1*
X1544115D2*
X1550115D1*
X1611115D2*
X1616115D1*
X1735115D2*
X1742115D1*
X1495115Y1466643D2*
X1503115D1*
X1525115D2*
X1531115D1*
X1544115D2*
X1550115D1*
X1611115D2*
X1616115D1*
X1735115D2*
X1742115D1*
X1495115Y1465643D2*
X1503115D1*
X1525115D2*
X1531115D1*
X1544115D2*
X1550115D1*
X1611115D2*
X1616115D1*
X1735115D2*
X1742115D1*
X1495115Y1464643D2*
X1503115D1*
X1525115D2*
X1531115D1*
X1544115D2*
X1550115D1*
X1562115D2*
X1569115D1*
X1580115D2*
X1586115D1*
X1590115D2*
X1593115D1*
X1602115D2*
X1606115D1*
X1611115D2*
X1616115D1*
X1620115D2*
X1626115D1*
X1634115D2*
X1639115D1*
X1647115D2*
X1650115D1*
X1652115D2*
D3*
X1660115D2*
X1668115D1*
X1679115D2*
X1685115D1*
X1689115D2*
X1692115D1*
X1701115D2*
X1707115D1*
X1735115D2*
X1742115D1*
X1495115Y1463643D2*
X1503115D1*
X1525115D2*
X1531115D1*
X1544115D2*
X1550115D1*
X1560196D2*
X1570997D1*
X1580115D2*
X1586115D1*
X1589053D2*
X1593115D1*
X1600347D2*
X1609115D1*
X1611115D2*
X1616115D1*
X1620274D2*
X1626119D1*
X1633650D2*
X1639457D1*
X1646654D2*
X1652115D1*
X1658470D2*
X1669880D1*
X1679115D2*
X1685115D1*
X1688053D2*
X1692115D1*
X1699196D2*
X1708881D1*
X1735115D2*
X1742115D1*
X1495115Y1462643D2*
X1503115D1*
X1525115D2*
X1531115D1*
X1544115D2*
X1550115D1*
X1558657D2*
X1572404D1*
X1580115D2*
X1586115D1*
X1588115D2*
X1593115D1*
X1599024D2*
X1616115D1*
X1620557D2*
X1626155D1*
X1633328D2*
X1639755D1*
X1646367D2*
X1651957D1*
X1657169D2*
X1671168D1*
X1679115D2*
X1685115D1*
X1687115D2*
X1692115D1*
X1697661D2*
X1710334D1*
X1735115D2*
X1742115D1*
X1495115Y1461643D2*
X1503115D1*
X1525115D2*
X1531115D1*
X1544115D2*
X1550115D1*
X1557498D2*
X1573447D1*
X1580115D2*
X1593115D1*
X1598032D2*
X1616115D1*
X1620943D2*
X1626282D1*
X1633055D2*
X1639945D1*
X1646217D2*
X1651674D1*
X1656224D2*
X1672033D1*
X1679115D2*
X1692115D1*
X1696533D2*
X1711390D1*
X1735115D2*
X1742115D1*
X1495115Y1460643D2*
X1503115D1*
X1525115D2*
X1550115D1*
X1556647D2*
X1573795D1*
X1580115D2*
X1593115D1*
X1597240D2*
X1616115D1*
X1621358D2*
X1626525D1*
X1632751D2*
X1640046D1*
X1646118D2*
X1651288D1*
X1655515D2*
X1672581D1*
X1679115D2*
X1692115D1*
X1695775D2*
X1712133D1*
X1735115D2*
X1742115D1*
X1495115Y1459643D2*
X1503115D1*
X1525115D2*
X1550115D1*
X1556018D2*
X1563508D1*
X1567915D2*
X1573980D1*
X1580115D2*
X1593115D1*
X1596652D2*
X1604467D1*
X1605680D2*
X1616115D1*
X1621707D2*
X1626817D1*
X1632468D2*
X1640126D1*
X1645964D2*
X1650873D1*
X1654961D2*
X1662508D1*
X1665719D2*
X1672878D1*
X1679115D2*
X1692115D1*
X1695257D2*
X1701157D1*
X1705761D2*
X1712658D1*
X1735115D2*
X1742115D1*
X1495115Y1458643D2*
X1503115D1*
X1525115D2*
X1550115D1*
X1555576D2*
X1562155D1*
X1568498D2*
X1574063D1*
X1580115D2*
X1590311D1*
X1596210D2*
X1603134D1*
X1607683D2*
X1616115D1*
X1621928D2*
X1627119D1*
X1632284D2*
X1640271D1*
X1645711D2*
X1650524D1*
X1654553D2*
X1661155D1*
X1667059D2*
X1673018D1*
X1679115D2*
X1689311D1*
X1694831D2*
X1700324D1*
X1707059D2*
X1713058D1*
X1735115D2*
X1742115D1*
X1495115Y1457643D2*
X1503115D1*
X1525115D2*
X1550115D1*
X1555306D2*
X1561572D1*
X1568916D2*
X1574096D1*
X1580115D2*
X1588038D1*
X1595817D2*
X1602097D1*
X1609176D2*
X1616115D1*
X1622074D2*
X1627451D1*
X1632184D2*
X1640518D1*
X1645416D2*
X1650303D1*
X1654298D2*
X1660572D1*
X1667530D2*
X1673078D1*
X1679115D2*
X1687038D1*
X1694462D2*
X1699727D1*
X1707979D2*
X1713433D1*
X1735115D2*
X1742115D1*
X1495115Y1456643D2*
X1503115D1*
X1525115D2*
X1550115D1*
X1555115D2*
X1561115D1*
X1567952D2*
X1574109D1*
X1580115D2*
X1586930D1*
X1595495D2*
X1601276D1*
X1609704D2*
X1616115D1*
X1622250D2*
X1627750D1*
X1632105D2*
X1640780D1*
X1645113D2*
X1650157D1*
X1654115D2*
X1660115D1*
X1667834D2*
X1673102D1*
X1679115D2*
X1685930D1*
X1694130D2*
X1699367D1*
X1708617D2*
X1713781D1*
X1735115D2*
X1742115D1*
X1495115Y1455643D2*
X1503115D1*
X1525115D2*
X1550115D1*
X1565638D2*
X1574113D1*
X1580115D2*
X1586503D1*
X1595294D2*
X1600705D1*
X1610093D2*
X1616115D1*
X1622514D2*
X1627942D1*
X1631960D2*
X1640991D1*
X1644780D2*
X1649977D1*
X1664720D2*
X1673111D1*
X1679115D2*
X1685503D1*
X1693786D2*
X1699115D1*
X1709115D2*
X1714106D1*
X1735115D2*
X1742115D1*
X1495115Y1454643D2*
X1503115D1*
X1525115D2*
X1531115D1*
X1544115D2*
X1550115D1*
X1562969D2*
X1574115D1*
X1580115D2*
X1586277D1*
X1595191D2*
X1600381D1*
X1610448D2*
X1616115D1*
X1622813D2*
X1628045D1*
X1631713D2*
X1635077D1*
X1636919D2*
X1641211D1*
X1644481D2*
X1649682D1*
X1661643D2*
X1673114D1*
X1679115D2*
X1685277D1*
X1693483D2*
X1714443D1*
X1735115D2*
X1742115D1*
X1495115Y1453643D2*
X1503115D1*
X1525115D2*
X1531115D1*
X1544115D2*
X1550115D1*
X1560455D2*
X1574115D1*
X1580115D2*
X1586178D1*
X1595145D2*
X1600225D1*
X1610747D2*
X1616115D1*
X1623117D2*
X1628128D1*
X1631454D2*
X1634949D1*
X1637504D2*
X1641493D1*
X1644289D2*
X1649291D1*
X1659083D2*
X1673115D1*
X1679115D2*
X1685178D1*
X1693290D2*
X1714706D1*
X1735115D2*
X1742115D1*
X1495115Y1452643D2*
X1503115D1*
X1525115D2*
X1531115D1*
X1544115D2*
X1550115D1*
X1558461D2*
X1574115D1*
X1580115D2*
X1586138D1*
X1595127D2*
X1600158D1*
X1610904D2*
X1616115D1*
X1623451D2*
X1628301D1*
X1631278D2*
X1634710D1*
X1637839D2*
X1641767D1*
X1644190D2*
X1648874D1*
X1657213D2*
X1673115D1*
X1679115D2*
X1685138D1*
X1693190D2*
X1714844D1*
X1735115D2*
X1742115D1*
X1495115Y1451643D2*
X1503115D1*
X1525115D2*
X1531115D1*
X1544115D2*
X1550115D1*
X1557096D2*
X1568551D1*
X1570312D2*
X1574115D1*
X1580115D2*
X1586123D1*
X1595119D2*
X1600135D1*
X1610875D2*
X1616115D1*
X1623750D2*
X1628650D1*
X1631180D2*
X1634453D1*
X1638001D2*
X1641949D1*
X1644145D2*
X1648524D1*
X1655967D2*
X1666589D1*
X1668115D2*
X1673115D1*
X1679115D2*
X1685123D1*
X1693149D2*
X1714534D1*
X1735115D2*
X1742115D1*
X1495115Y1450643D2*
X1503115D1*
X1525115D2*
X1531115D1*
X1544115D2*
X1550115D1*
X1556207D2*
X1565548D1*
X1569723D2*
X1574115D1*
X1580115D2*
X1586118D1*
X1595121D2*
X1600164D1*
X1610680D2*
X1616115D1*
X1623946D2*
X1629115D1*
X1631115D2*
X1634279D1*
X1638075D2*
X1642044D1*
X1644126D2*
X1648303D1*
X1655149D2*
X1663718D1*
X1668112D2*
X1673115D1*
X1679115D2*
X1685118D1*
X1693166D2*
X1714115D1*
X1735115D2*
X1742115D1*
X1495115Y1449643D2*
X1503115D1*
X1525115D2*
X1531115D1*
X1544115D2*
X1550115D1*
X1555556D2*
X1563279D1*
X1569349D2*
X1574115D1*
X1580115D2*
X1586116D1*
X1595155D2*
X1600327D1*
X1610434D2*
X1616115D1*
X1624080D2*
X1634182D1*
X1638138D2*
X1642089D1*
X1644119D2*
X1648157D1*
X1654629D2*
X1661737D1*
X1668073D2*
X1673115D1*
X1679115D2*
X1685116D1*
X1693290D2*
X1699123D1*
X1735115D2*
X1742115D1*
X1495115Y1448643D2*
X1503115D1*
X1525115D2*
X1531115D1*
X1544115D2*
X1550115D1*
X1555330D2*
X1561578D1*
X1569021D2*
X1574115D1*
X1580115D2*
X1586116D1*
X1595282D2*
X1600732D1*
X1610191D2*
X1616115D1*
X1624257D2*
X1634104D1*
X1638276D2*
X1642115D1*
X1644115D2*
X1647981D1*
X1654345D2*
X1660319D1*
X1667906D2*
X1673115D1*
X1679115D2*
X1685116D1*
X1693562D2*
X1699194D1*
X1735115D2*
X1742115D1*
X1495115Y1447643D2*
X1503115D1*
X1525115D2*
X1531115D1*
X1544115D2*
X1550115D1*
X1555207D2*
X1560115D1*
X1568548D2*
X1574115D1*
X1580115D2*
X1586116D1*
X1595525D2*
X1601392D1*
X1609900D2*
X1616115D1*
X1624550D2*
X1633959D1*
X1638523D2*
X1647717D1*
X1654210D2*
X1659767D1*
X1667504D2*
X1673115D1*
X1679115D2*
X1685116D1*
X1693945D2*
X1699358D1*
X1709115D2*
X1714115D1*
X1735115D2*
X1742115D1*
X1495115Y1446643D2*
X1503115D1*
X1525115D2*
X1531115D1*
X1544115D2*
X1550115D1*
X1555151D2*
X1561115D1*
X1567880D2*
X1574119D1*
X1580115D2*
X1586116D1*
X1595821D2*
X1602221D1*
X1609091D2*
X1616115D1*
X1624940D2*
X1633713D1*
X1638816D2*
X1647418D1*
X1654152D2*
X1659863D1*
X1666864D2*
X1673119D1*
X1679115D2*
X1685116D1*
X1694362D2*
X1699923D1*
X1708230D2*
X1713957D1*
X1735115D2*
X1742115D1*
X1495115Y1445643D2*
X1503115D1*
X1525115D2*
X1531115D1*
X1544115D2*
X1550115D1*
X1555137D2*
X1562115D1*
X1567115D2*
X1574158D1*
X1580115D2*
X1586115D1*
X1596158D2*
X1603115D1*
X1608115D2*
X1616115D1*
X1625357D2*
X1633450D1*
X1639119D2*
X1647114D1*
X1654137D2*
X1660115D1*
X1666115D2*
X1673155D1*
X1679115D2*
X1685115D1*
X1694750D2*
X1700535D1*
X1707199D2*
X1713670D1*
X1735115D2*
X1742115D1*
X1495115Y1444643D2*
X1503115D1*
X1525115D2*
X1531115D1*
X1544115D2*
X1550115D1*
X1555202D2*
X1574321D1*
X1580115D2*
X1586115D1*
X1596625D2*
X1616115D1*
X1625707D2*
X1633240D1*
X1639451D2*
X1646780D1*
X1654198D2*
X1673282D1*
X1679115D2*
X1685115D1*
X1695134D2*
X1701115D1*
X1706115D2*
X1713241D1*
X1735115D2*
X1742115D1*
X1495115Y1443643D2*
X1503115D1*
X1525115D2*
X1531115D1*
X1544115D2*
X1550115D1*
X1555374D2*
X1574689D1*
X1580115D2*
X1586115D1*
X1597242D2*
X1616115D1*
X1625924D2*
X1633019D1*
X1639750D2*
X1646481D1*
X1654358D2*
X1673522D1*
X1679115D2*
X1685115D1*
X1695658D2*
X1712617D1*
X1735115D2*
X1742115D1*
X1495115Y1442643D2*
X1503115D1*
X1525115D2*
X1531115D1*
X1544115D2*
X1550115D1*
X1556149D2*
X1575196D1*
X1580115D2*
X1586115D1*
X1598023D2*
X1616115D1*
X1626035D2*
X1632728D1*
X1639943D2*
X1646288D1*
X1654987D2*
X1673781D1*
X1679115D2*
X1685115D1*
X1696446D2*
X1711657D1*
X1735115D2*
X1742115D1*
X1495115Y1441643D2*
X1503115D1*
X1525115D2*
X1531115D1*
X1544115D2*
X1550115D1*
X1557246D2*
X1568115D1*
X1570115D2*
X1575683D1*
X1580115D2*
X1586115D1*
X1599102D2*
X1616115D1*
X1626086D2*
X1632413D1*
X1640047D2*
X1646184D1*
X1655833D2*
X1665748D1*
X1668115D2*
X1673970D1*
X1679115D2*
X1685115D1*
X1697611D2*
X1710221D1*
X1735115D2*
X1742115D1*
X1495115Y1440643D2*
X1503115D1*
X1525115D2*
X1531115D1*
X1544115D2*
X1550115D1*
X1558613D2*
X1566115D1*
X1570115D2*
X1576115D1*
X1580115D2*
X1586115D1*
X1600526D2*
X1609115D1*
X1611115D2*
X1616115D1*
X1626115D2*
X1632115D1*
X1640115D2*
X1646115D1*
X1656900D2*
X1664046D1*
X1668115D2*
X1674115D1*
X1679115D2*
X1685115D1*
X1699230D2*
X1708294D1*
X1735115D2*
X1742115D1*
X1495115Y1439643D2*
X1503115D1*
X1560115D2*
X1564115D1*
X1602115D2*
X1606115D1*
X1658115D2*
X1662115D1*
X1701115D2*
X1706115D1*
X1735112D2*
X1742115D1*
X1495115Y1438643D2*
X1503115D1*
X1735076D2*
X1742115D1*
X1495115Y1437643D2*
X1503115D1*
X1734949D2*
X1742115D1*
X1495115Y1436643D2*
X1503115D1*
X1734709D2*
X1742115D1*
X1495115Y1435643D2*
X1503119D1*
X1734449D2*
X1742115D1*
X1495115Y1434643D2*
X1503155D1*
X1734240D2*
X1742115D1*
X1495115Y1433643D2*
X1503282D1*
X1734019D2*
X1742115D1*
X1495115Y1432643D2*
X1503525D1*
X1733738D2*
X1742115D1*
X1495115Y1431643D2*
X1503817D1*
X1733460D2*
X1742115D1*
X1495119Y1430643D2*
X1504123D1*
X1733239D2*
X1742112D1*
X1495155Y1429643D2*
X1504494D1*
X1732982D2*
X1742076D1*
X1495286Y1428643D2*
X1504955D1*
X1732568D2*
X1741949D1*
X1495561Y1427643D2*
X1505518D1*
X1732015D2*
X1741706D1*
X1495944Y1426643D2*
X1506153D1*
X1731415D2*
X1741414D1*
X1496362Y1425643D2*
X1506795D1*
X1730770D2*
X1741108D1*
X1496750Y1424643D2*
X1507486D1*
X1730064D2*
X1740741D1*
X1497130Y1423643D2*
X1508295D1*
X1729275D2*
X1740311D1*
X1497611Y1422643D2*
X1509233D1*
X1728303D2*
X1739840D1*
X1498195Y1421643D2*
X1510370D1*
X1727093D2*
X1739322D1*
X1498812Y1420643D2*
X1511914D1*
X1725583D2*
X1738728D1*
X1499493Y1419643D2*
X1514234D1*
X1723448D2*
X1738050D1*
X1500290Y1418643D2*
X1517678D1*
X1720236D2*
X1737311D1*
X1501156Y1417643D2*
X1522162D1*
X1715930D2*
X1736506D1*
X1502014Y1416643D2*
X1735684D1*
X1502852Y1415643D2*
X1734862D1*
X1503739Y1414643D2*
X1733954D1*
X1504746Y1413643D2*
X1732888D1*
X1505976Y1412643D2*
X1731606D1*
X1507514Y1411643D2*
X1730068D1*
X1509283Y1410643D2*
X1728248D1*
X1511177Y1409643D2*
X1726215D1*
X1513115Y1408643D2*
X1724115D1*
X1204828Y1360353D2*
Y1359353D1*
Y1358353D1*
Y1357353D1*
Y1356353D1*
Y1355353D1*
Y1354353D1*
Y1353353D1*
Y1352353D1*
Y1351353D1*
Y1350353D1*
Y1349353D1*
Y1348353D1*
Y1347353D1*
Y1346353D1*
Y1345353D1*
Y1344353D1*
Y1343353D1*
Y1342353D1*
Y1341353D1*
Y1340353D1*
Y1339353D1*
Y1338353D1*
Y1337353D1*
Y1336353D1*
Y1335353D1*
Y1334353D1*
Y1333353D1*
Y1332353D1*
Y1331353D1*
Y1330353D1*
Y1329353D1*
Y1328353D1*
Y1327353D1*
Y1326353D1*
Y1325353D1*
Y1324353D1*
Y1323353D1*
Y1322353D1*
Y1321353D1*
Y1320353D1*
Y1319353D1*
Y1318353D1*
Y1317353D1*
Y1316353D1*
X1208828Y1360353D2*
Y1359353D1*
Y1358353D1*
Y1357353D1*
Y1356353D1*
Y1355353D1*
Y1354353D1*
Y1353353D1*
Y1352353D1*
Y1351353D1*
Y1350353D1*
Y1349353D1*
X1208832Y1348353D1*
X1208870Y1347353D1*
X1209025Y1346353D1*
X1209366Y1345353D1*
X1209828Y1344353D1*
X1413828Y1360353D2*
Y1359353D1*
Y1358353D1*
Y1357353D1*
Y1356353D1*
Y1355353D1*
Y1354353D1*
Y1353353D1*
Y1352353D1*
Y1351353D1*
Y1350353D1*
Y1349353D1*
Y1348353D1*
Y1347353D1*
Y1346353D1*
Y1345353D1*
Y1344353D1*
Y1343353D1*
Y1342353D1*
Y1341353D1*
Y1340353D1*
Y1339353D1*
Y1338353D1*
Y1337353D1*
Y1336353D1*
Y1335353D1*
Y1334353D1*
Y1333353D1*
Y1332353D1*
Y1331353D1*
Y1330353D1*
Y1329353D1*
Y1328353D1*
Y1327353D1*
Y1326353D1*
Y1325353D1*
Y1324353D1*
Y1323353D1*
Y1322353D1*
Y1321353D1*
Y1320353D1*
Y1319353D1*
Y1318353D1*
Y1317353D1*
Y1316353D1*
X1418828Y1360353D2*
Y1359353D1*
Y1358353D1*
Y1357353D1*
Y1356353D1*
Y1355353D1*
Y1354353D1*
Y1353353D1*
Y1352353D1*
Y1351353D1*
Y1350353D1*
Y1349353D1*
Y1348353D1*
Y1347353D1*
Y1346353D1*
Y1345353D1*
Y1344353D1*
Y1343353D1*
Y1342353D1*
Y1341353D1*
Y1340353D1*
Y1339353D1*
Y1338353D1*
Y1337353D1*
Y1336353D1*
Y1335353D1*
Y1334353D1*
Y1333353D1*
Y1332353D1*
Y1331353D1*
Y1330353D1*
Y1329353D1*
Y1328353D1*
Y1327353D1*
Y1326353D1*
Y1325353D1*
Y1324353D1*
Y1323353D1*
Y1322353D1*
Y1321353D1*
Y1320353D1*
Y1319353D1*
Y1318353D1*
Y1317353D1*
Y1316353D1*
X1662828Y1360353D2*
Y1359353D1*
Y1358353D1*
Y1357353D1*
Y1356353D1*
Y1355353D1*
Y1354353D1*
Y1353353D1*
Y1352353D1*
Y1351353D1*
Y1350353D1*
Y1349353D1*
Y1348353D1*
Y1347353D1*
Y1346353D1*
Y1345353D1*
Y1344353D1*
Y1343353D1*
Y1342353D1*
Y1341353D1*
Y1340353D1*
Y1339353D1*
Y1338353D1*
Y1337353D1*
Y1336353D1*
Y1335353D1*
Y1334353D1*
Y1333353D1*
Y1332353D1*
Y1331353D1*
Y1330353D1*
Y1329353D1*
Y1328353D1*
Y1327353D1*
Y1326353D1*
Y1325353D1*
Y1324353D1*
Y1323353D1*
Y1322353D1*
Y1321353D1*
Y1320353D1*
Y1319353D1*
Y1318353D1*
Y1317353D1*
Y1316353D1*
X1667828Y1360353D2*
Y1359353D1*
Y1358353D1*
Y1357353D1*
Y1356353D1*
Y1355353D1*
Y1354353D1*
Y1353353D1*
Y1352353D1*
Y1351353D1*
Y1350353D1*
Y1349353D1*
Y1348353D1*
Y1347353D1*
Y1346353D1*
Y1345353D1*
Y1344353D1*
Y1343353D1*
Y1342353D1*
Y1341353D1*
Y1340353D1*
Y1339353D1*
Y1338353D1*
Y1337353D1*
Y1336353D1*
Y1335353D1*
Y1334353D1*
Y1333353D1*
Y1332353D1*
Y1331353D1*
Y1330353D1*
Y1329353D1*
Y1328353D1*
Y1327353D1*
Y1326353D1*
Y1325353D1*
Y1324353D1*
Y1323353D1*
Y1322353D1*
Y1321353D1*
Y1320353D1*
Y1319353D1*
Y1318353D1*
Y1317353D1*
Y1316353D1*
X1479828Y1359353D2*
X1477063Y1358353D1*
X1474610Y1357353D1*
X1472554Y1356353D1*
X1470814Y1355353D1*
X1469328Y1354353D1*
X1468091Y1353353D1*
X1467087Y1352353D1*
X1466274Y1351353D1*
X1465543Y1350353D1*
X1464840Y1349353D1*
X1464204Y1348353D1*
X1463633Y1347353D1*
X1463100Y1346353D1*
X1462587Y1345353D1*
X1462085Y1344353D1*
X1461619Y1343353D1*
X1461248Y1342353D1*
X1461020Y1341353D1*
X1460871Y1340353D1*
X1460694Y1339353D1*
X1460434Y1338353D1*
X1460170Y1337353D1*
X1459993Y1336353D1*
X1459903Y1335353D1*
X1459895Y1334353D1*
X1460005Y1333353D1*
X1460238Y1332353D1*
X1460492Y1331353D1*
X1460669Y1330353D1*
X1460797Y1329353D1*
X1460967Y1328353D1*
X1461228Y1327353D1*
X1461526Y1326353D1*
X1461834Y1325353D1*
X1462202Y1324353D1*
X1462633Y1323353D1*
X1463103Y1322353D1*
X1463626Y1321353D1*
X1464251Y1320353D1*
X1465025Y1319353D1*
X1465911Y1318353D1*
X1466864Y1317353D1*
X1467883Y1316353D1*
X1469042Y1315353D1*
X1470453Y1314353D1*
X1472190Y1313353D1*
X1474336Y1312353D1*
X1476946Y1311353D1*
X1479828Y1310353D1*
X1489828Y1359353D2*
X1492747Y1358353D1*
X1495283Y1357353D1*
X1497407Y1356353D1*
X1499130Y1355353D1*
X1500516Y1354353D1*
X1501664Y1353353D1*
X1502610Y1352353D1*
X1503366Y1351353D1*
X1503989Y1350353D1*
X1504544Y1349353D1*
X1505065Y1348353D1*
X1505570Y1347353D1*
X1506041Y1346353D1*
X1506447Y1345353D1*
X1506799Y1344353D1*
X1507152Y1343353D1*
X1507458Y1342353D1*
X1507653Y1341353D1*
X1507753Y1340353D1*
X1507799Y1339353D1*
X1507817Y1338353D1*
X1507824Y1337353D1*
X1507827Y1336353D1*
X1507828Y1335353D1*
Y1334353D1*
Y1333353D1*
X1507824Y1332353D1*
X1507789Y1331353D1*
X1507662Y1330353D1*
X1507418Y1329353D1*
X1507127Y1328353D1*
X1506821Y1327353D1*
X1506453Y1326353D1*
X1506023Y1325353D1*
X1505554Y1324353D1*
X1505040Y1323353D1*
X1504462Y1322353D1*
X1503828Y1321353D1*
X1647828Y1358353D2*
Y1357353D1*
Y1356353D1*
Y1355353D1*
Y1354353D1*
Y1353353D1*
X1652828Y1358353D2*
Y1357353D1*
Y1356353D1*
Y1355353D1*
Y1354353D1*
Y1353353D1*
X1276828Y1356353D2*
Y1355353D1*
Y1354353D1*
Y1353353D1*
Y1352353D1*
Y1351353D1*
Y1350353D1*
Y1349353D1*
Y1348353D1*
Y1347353D1*
X1273828D1*
Y1346353D1*
Y1345353D1*
Y1344353D1*
Y1343353D1*
Y1342353D1*
X1276828D1*
Y1341353D1*
Y1340353D1*
Y1339353D1*
Y1338353D1*
Y1337353D1*
Y1336353D1*
Y1335353D1*
Y1334353D1*
Y1333353D1*
Y1332353D1*
Y1331353D1*
Y1330353D1*
Y1329353D1*
X1276832Y1328353D1*
X1276867Y1327353D1*
X1276995Y1326353D1*
X1277234Y1325353D1*
X1277490Y1324353D1*
X1277669Y1323353D1*
X1277797Y1322353D1*
X1277970Y1321353D1*
X1278267Y1320353D1*
X1278704Y1319353D1*
X1279363Y1318353D1*
X1280427Y1317353D1*
X1281984Y1316353D1*
X1283828Y1315353D1*
X1281828Y1356353D2*
Y1355353D1*
Y1354353D1*
Y1353353D1*
Y1352353D1*
Y1351353D1*
Y1350353D1*
Y1349353D1*
Y1348353D1*
Y1347353D1*
X1292828D1*
Y1346353D1*
Y1345353D1*
Y1344353D1*
Y1343353D1*
Y1342353D1*
X1281828D1*
Y1341353D1*
Y1340353D1*
Y1339353D1*
Y1338353D1*
Y1337353D1*
Y1336353D1*
Y1335353D1*
Y1334353D1*
Y1333353D1*
Y1332353D1*
Y1331353D1*
Y1330353D1*
Y1329353D1*
Y1328353D1*
Y1327353D1*
X1281832Y1326353D1*
X1281867Y1325353D1*
X1282002Y1324353D1*
X1282244Y1323353D1*
X1282883Y1322353D1*
X1284999Y1321353D1*
X1288479Y1320353D1*
X1292828Y1319353D1*
X1483828Y1356353D2*
X1480259Y1355353D1*
X1477222Y1354353D1*
X1474831Y1353353D1*
X1472929Y1352353D1*
X1471369Y1351353D1*
X1470072Y1350353D1*
X1468965Y1349353D1*
X1468036Y1348353D1*
X1467287Y1347353D1*
X1466666Y1346353D1*
X1466115Y1345353D1*
X1465626Y1344353D1*
X1465213Y1343353D1*
X1464859Y1342353D1*
X1464505Y1341353D1*
X1464198Y1340353D1*
X1464003Y1339353D1*
X1463903Y1338353D1*
X1463858Y1337353D1*
X1463839Y1336353D1*
X1463832Y1335353D1*
X1463829Y1334353D1*
Y1333353D1*
X1463828Y1332353D1*
X1463832Y1331353D1*
X1463867Y1330353D1*
X1463995Y1329353D1*
X1464238Y1328353D1*
X1464533Y1327353D1*
X1464870Y1326353D1*
X1465334Y1325353D1*
X1465911Y1324353D1*
X1466526Y1323353D1*
X1467206Y1322353D1*
X1468006Y1321353D1*
X1468908Y1320353D1*
X1469901Y1319353D1*
X1471053Y1318353D1*
X1472490Y1317353D1*
X1474317Y1316353D1*
X1476555Y1315353D1*
X1479121Y1314353D1*
X1481828Y1313353D1*
X1485828Y1356353D2*
X1489431Y1355353D1*
X1492562Y1354353D1*
X1495065Y1353353D1*
X1496984Y1352353D1*
X1498458Y1351353D1*
X1499642Y1350353D1*
X1500602Y1349353D1*
X1501363Y1348353D1*
X1501988Y1347353D1*
X1502540Y1346353D1*
X1503030Y1345353D1*
X1503443Y1344353D1*
X1503798Y1343353D1*
X1504151Y1342353D1*
X1504458Y1341353D1*
X1504653Y1340353D1*
X1504753Y1339353D1*
X1504799Y1338353D1*
X1504817Y1337353D1*
X1504824Y1336353D1*
X1504827Y1335353D1*
X1504828Y1334353D1*
Y1333353D1*
X1504824Y1332353D1*
X1504789Y1331353D1*
X1504662Y1330353D1*
X1504422Y1329353D1*
X1504162Y1328353D1*
X1503921Y1327353D1*
X1503632Y1326353D1*
X1502396Y1325353D1*
X1498950Y1324353D1*
X1494828Y1323353D1*
X1176828Y1348353D2*
X1174754Y1347353D1*
X1172967Y1346353D1*
X1171545Y1345353D1*
X1170484Y1344353D1*
X1169635Y1343353D1*
X1168909Y1342353D1*
X1168348Y1341353D1*
X1167916Y1340353D1*
X1167528Y1339353D1*
X1167203Y1338353D1*
X1166967Y1337353D1*
X1166737Y1336353D1*
X1166452Y1335353D1*
X1166177Y1334353D1*
X1165995Y1333353D1*
X1165904Y1332353D1*
X1165896Y1331353D1*
X1166005Y1330353D1*
X1166238Y1329353D1*
X1166496Y1328353D1*
X1166704Y1327353D1*
X1166924Y1326353D1*
X1167210Y1325353D1*
X1167523Y1324353D1*
X1167867Y1323353D1*
X1168333Y1322353D1*
X1168915Y1321353D1*
X1169565Y1320353D1*
X1170380Y1319353D1*
X1171496Y1318353D1*
X1172962Y1317353D1*
X1174787Y1316353D1*
X1176828Y1315353D1*
X1184828Y1348353D2*
X1186632Y1347353D1*
X1188216Y1346353D1*
X1189547Y1345353D1*
X1190675Y1344353D1*
X1191614Y1343353D1*
X1192363Y1342353D1*
X1192954Y1341353D1*
X1193413Y1340353D1*
X1193787Y1339353D1*
X1194147Y1338353D1*
X1194457Y1337353D1*
X1194652Y1336353D1*
X1194753Y1335353D1*
X1194799Y1334353D1*
X1194817Y1333353D1*
X1194824Y1332353D1*
X1194827Y1331353D1*
X1194828Y1330353D1*
X1194824Y1329353D1*
X1194789Y1328353D1*
X1194662Y1327353D1*
X1194418Y1326353D1*
X1194127Y1325353D1*
X1193821Y1324353D1*
X1193450Y1323353D1*
X1192984Y1322353D1*
X1192386Y1321353D1*
X1191621Y1320353D1*
X1190700Y1319353D1*
X1189586Y1318353D1*
X1188204Y1317353D1*
X1186573Y1316353D1*
X1184828Y1315353D1*
X1216828Y1348353D2*
X1214667Y1347353D1*
X1212524Y1346353D1*
X1210234Y1345353D1*
X1207828Y1344353D1*
X1223828Y1348353D2*
X1225290Y1347353D1*
X1226573Y1346353D1*
X1227683Y1345353D1*
X1228616Y1344353D1*
X1229364Y1343353D1*
X1229955Y1342353D1*
X1230413Y1341353D1*
X1230787Y1340353D1*
X1231147Y1339353D1*
X1231457Y1338353D1*
X1231652Y1337353D1*
X1231753Y1336353D1*
X1231799Y1335353D1*
X1231817Y1334353D1*
X1231824Y1333353D1*
X1231827Y1332353D1*
X1231828Y1331353D1*
Y1330353D1*
X1231824Y1329353D1*
X1231789Y1328353D1*
X1231662Y1327353D1*
X1231418Y1326353D1*
X1231127Y1325353D1*
X1230821Y1324353D1*
X1230450Y1323353D1*
X1229984Y1322353D1*
X1229386Y1321353D1*
X1228621Y1320353D1*
X1227700Y1319353D1*
X1226586Y1318353D1*
X1225204Y1317353D1*
X1223573Y1316353D1*
X1221828Y1315353D1*
X1249828Y1348353D2*
X1247754Y1347353D1*
X1245967Y1346353D1*
X1244545Y1345353D1*
X1243484Y1344353D1*
X1242635Y1343353D1*
X1241909Y1342353D1*
X1241348Y1341353D1*
X1240916Y1340353D1*
X1240528Y1339353D1*
X1240203Y1338353D1*
X1239967Y1337353D1*
X1239737Y1336353D1*
X1239452Y1335353D1*
X1239177Y1334353D1*
X1238995Y1333353D1*
X1238904Y1332353D1*
X1238896Y1331353D1*
X1239005Y1330353D1*
X1239238Y1329353D1*
X1239496Y1328353D1*
X1239704Y1327353D1*
X1239924Y1326353D1*
X1240210Y1325353D1*
X1240523Y1324353D1*
X1240867Y1323353D1*
X1241333Y1322353D1*
X1241915Y1321353D1*
X1242565Y1320353D1*
X1243380Y1319353D1*
X1244496Y1318353D1*
X1245962Y1317353D1*
X1247787Y1316353D1*
X1249828Y1315353D1*
X1257828Y1348353D2*
X1259632Y1347353D1*
X1261216Y1346353D1*
X1262547Y1345353D1*
X1263675Y1344353D1*
X1264614Y1343353D1*
X1265363Y1342353D1*
X1265954Y1341353D1*
X1266413Y1340353D1*
X1266787Y1339353D1*
X1267147Y1338353D1*
X1267457Y1337353D1*
X1267652Y1336353D1*
X1267753Y1335353D1*
X1267799Y1334353D1*
X1267817Y1333353D1*
X1267824Y1332353D1*
X1267827Y1331353D1*
X1267828Y1330353D1*
X1267824Y1329353D1*
X1267789Y1328353D1*
X1267662Y1327353D1*
X1267418Y1326353D1*
X1267127Y1325353D1*
X1266821Y1324353D1*
X1266450Y1323353D1*
X1265984Y1322353D1*
X1265386Y1321353D1*
X1264621Y1320353D1*
X1263700Y1319353D1*
X1262586Y1318353D1*
X1261204Y1317353D1*
X1259573Y1316353D1*
X1257828Y1315353D1*
X1306828Y1348353D2*
X1304754Y1347353D1*
X1302967Y1346353D1*
X1301549Y1345353D1*
X1300523Y1344353D1*
X1299801Y1343353D1*
X1299319Y1342353D1*
X1299050Y1341353D1*
X1298920Y1340353D1*
X1298863Y1339353D1*
X1298845Y1338353D1*
X1298876Y1337353D1*
X1299039Y1336353D1*
X1299444Y1335353D1*
X1300114Y1334353D1*
X1301037Y1333353D1*
X1302373Y1332353D1*
X1304443Y1331353D1*
X1307321Y1330353D1*
X1310534Y1329353D1*
X1313385Y1328353D1*
X1315454Y1327353D1*
X1316940Y1326353D1*
X1317401Y1325353D1*
X1317690Y1324353D1*
X1317634Y1323353D1*
X1317031Y1322353D1*
X1314456Y1321353D1*
X1310185Y1320353D1*
X1304828Y1319353D1*
X1315828Y1348353D2*
X1318358Y1347353D1*
X1320394Y1346353D1*
X1321263Y1345353D1*
X1321567Y1344353D1*
X1321722Y1343353D1*
X1321790Y1342353D1*
X1321828Y1341353D1*
X1480828Y1348353D2*
X1478905Y1347353D1*
X1477334Y1346353D1*
X1476079Y1345353D1*
X1475081Y1344353D1*
X1474308Y1343353D1*
X1473707Y1342353D1*
X1473245Y1341353D1*
X1472870Y1340353D1*
X1472509Y1339353D1*
X1472200Y1338353D1*
X1472004Y1337353D1*
X1471903Y1336353D1*
X1471858Y1335353D1*
X1471839Y1334353D1*
X1471836Y1333353D1*
X1471868Y1332353D1*
X1471995Y1331353D1*
X1472238Y1330353D1*
X1472530Y1329353D1*
X1472835Y1328353D1*
X1473207Y1327353D1*
X1473672Y1326353D1*
X1474274Y1325353D1*
X1475074Y1324353D1*
X1476110Y1323353D1*
X1477398Y1322353D1*
X1478828Y1321353D1*
X1486828Y1348353D2*
X1494828Y1347353D1*
Y1346353D1*
Y1345353D1*
Y1344353D1*
Y1343353D1*
Y1342353D1*
Y1341353D1*
Y1340353D1*
Y1339353D1*
Y1338353D1*
Y1337353D1*
Y1336353D1*
Y1335353D1*
Y1334353D1*
Y1333353D1*
Y1332353D1*
Y1331353D1*
Y1330353D1*
Y1329353D1*
Y1328353D1*
Y1327353D1*
Y1326353D1*
Y1325353D1*
Y1324353D1*
X1501828Y1323353D1*
X1527828Y1348353D2*
X1526025Y1347353D1*
X1524440Y1346353D1*
X1523109Y1345353D1*
X1521982Y1344353D1*
X1521043Y1343353D1*
X1520289Y1342353D1*
X1519667Y1341353D1*
X1519116Y1340353D1*
X1518630Y1339353D1*
X1518249Y1338353D1*
X1517986Y1337353D1*
X1517744Y1336353D1*
X1517455Y1335353D1*
X1517178Y1334353D1*
X1516996Y1333353D1*
X1516904Y1332353D1*
X1516896Y1331353D1*
X1517005Y1330353D1*
X1517238Y1329353D1*
X1517492Y1328353D1*
X1517669Y1327353D1*
X1517797Y1326353D1*
X1517970Y1325353D1*
X1518267Y1324353D1*
X1518692Y1323353D1*
X1519240Y1322353D1*
X1519872Y1321353D1*
X1520552Y1320353D1*
X1521409Y1319353D1*
X1522615Y1318353D1*
X1524148Y1317353D1*
X1525828Y1316353D1*
X1534828Y1348353D2*
X1538766Y1347353D1*
X1542828Y1346353D1*
X1568828Y1348353D2*
X1566667Y1347353D1*
X1564524Y1346353D1*
X1562234Y1345353D1*
X1559828Y1344353D1*
X1574828Y1348353D2*
X1576294Y1347353D1*
X1577619Y1346353D1*
X1578919Y1345353D1*
X1580328Y1344353D1*
X1581828Y1343353D1*
X1588828Y1348353D2*
X1586979Y1347353D1*
X1585189Y1346353D1*
X1583296Y1345353D1*
X1581144Y1344353D1*
X1578828Y1343353D1*
X1595828Y1348353D2*
X1597286Y1347353D1*
X1598538Y1346353D1*
X1599552Y1345353D1*
X1600338Y1344353D1*
X1600941Y1343353D1*
X1601370Y1342353D1*
X1601619Y1341353D1*
X1601741Y1340353D1*
X1601794Y1339353D1*
X1601816Y1338353D1*
X1601824Y1337353D1*
X1601827Y1336353D1*
X1601828Y1335353D1*
Y1334353D1*
Y1333353D1*
Y1332353D1*
Y1331353D1*
Y1330353D1*
Y1329353D1*
Y1328353D1*
Y1327353D1*
Y1326353D1*
Y1325353D1*
Y1324353D1*
Y1323353D1*
Y1322353D1*
Y1321353D1*
Y1320353D1*
Y1319353D1*
Y1318353D1*
Y1317353D1*
Y1316353D1*
X1618828Y1348353D2*
X1613828Y1347353D1*
Y1346353D1*
Y1345353D1*
Y1344353D1*
Y1343353D1*
Y1342353D1*
X1628828Y1348353D2*
X1631089Y1347353D1*
X1632926Y1346353D1*
X1634275Y1345353D1*
X1635223Y1344353D1*
X1635897Y1343353D1*
X1636354Y1342353D1*
X1636613Y1341353D1*
X1636739Y1340353D1*
X1636794Y1339353D1*
X1636815Y1338353D1*
X1636824Y1337353D1*
X1636827Y1336353D1*
X1636828Y1335353D1*
Y1334353D1*
Y1333353D1*
Y1332353D1*
Y1331353D1*
Y1330353D1*
Y1329353D1*
Y1328353D1*
Y1327353D1*
Y1326353D1*
Y1325353D1*
Y1324353D1*
Y1323353D1*
Y1322353D1*
Y1321353D1*
Y1320353D1*
Y1319353D1*
Y1318353D1*
Y1317353D1*
Y1316353D1*
X1708828Y1348353D2*
X1706563Y1347353D1*
X1704691Y1346353D1*
X1703215Y1345353D1*
X1702023Y1344353D1*
X1701058Y1343353D1*
X1700295Y1342353D1*
X1699668Y1341353D1*
X1699116Y1340353D1*
X1698630Y1339353D1*
X1698249Y1338353D1*
X1697986Y1337353D1*
X1697744Y1336353D1*
X1697455Y1335353D1*
X1697178Y1334353D1*
X1696996Y1333353D1*
X1696904Y1332353D1*
X1696896Y1331353D1*
X1697005Y1330353D1*
X1697238Y1329353D1*
X1697496Y1328353D1*
X1697704Y1327353D1*
X1697924Y1326353D1*
X1698210Y1325353D1*
X1698523Y1324353D1*
X1698867Y1323353D1*
X1699337Y1322353D1*
X1699950Y1321353D1*
X1700697Y1320353D1*
X1701659Y1319353D1*
X1702920Y1318353D1*
X1704549Y1317353D1*
X1706581Y1316353D1*
X1708828Y1315353D1*
X1716828Y1348353D2*
X1719051Y1347353D1*
X1720756Y1346353D1*
X1722024Y1345353D1*
X1722443Y1344353D1*
X1722667Y1343353D1*
X1722769Y1342353D1*
X1722828Y1341353D1*
X1738828Y1348353D2*
X1736754Y1347353D1*
X1734967Y1346353D1*
X1733545Y1345353D1*
X1732484Y1344353D1*
X1731635Y1343353D1*
X1730909Y1342353D1*
X1730348Y1341353D1*
X1729916Y1340353D1*
X1729528Y1339353D1*
X1729203Y1338353D1*
X1728967Y1337353D1*
X1728737Y1336353D1*
X1728452Y1335353D1*
X1728177Y1334353D1*
X1727995Y1333353D1*
X1727904Y1332353D1*
X1727896Y1331353D1*
X1728005Y1330353D1*
X1728238Y1329353D1*
X1728496Y1328353D1*
X1728704Y1327353D1*
X1728924Y1326353D1*
X1729210Y1325353D1*
X1729523Y1324353D1*
X1729867Y1323353D1*
X1730333Y1322353D1*
X1730915Y1321353D1*
X1731565Y1320353D1*
X1732380Y1319353D1*
X1733496Y1318353D1*
X1734962Y1317353D1*
X1736787Y1316353D1*
X1738828Y1315353D1*
X1746828Y1348353D2*
X1748632Y1347353D1*
X1750216Y1346353D1*
X1751547Y1345353D1*
X1752675Y1344353D1*
X1753614Y1343353D1*
X1754363Y1342353D1*
X1754954Y1341353D1*
X1755413Y1340353D1*
X1755787Y1339353D1*
X1756147Y1338353D1*
X1756457Y1337353D1*
X1756652Y1336353D1*
X1756753Y1335353D1*
X1756799Y1334353D1*
X1756817Y1333353D1*
X1756824Y1332353D1*
X1756827Y1331353D1*
X1756828Y1330353D1*
X1756824Y1329353D1*
X1756789Y1328353D1*
X1756662Y1327353D1*
X1756418Y1326353D1*
X1756127Y1325353D1*
X1755821Y1324353D1*
X1755450Y1323353D1*
X1754984Y1322353D1*
X1754386Y1321353D1*
X1753621Y1320353D1*
X1752700Y1319353D1*
X1751586Y1318353D1*
X1750204Y1317353D1*
X1748573Y1316353D1*
X1746828Y1315353D1*
X1778828Y1348353D2*
X1776667Y1347353D1*
X1774524Y1346353D1*
X1772234Y1345353D1*
X1769828Y1344353D1*
X1784828Y1348353D2*
X1786294Y1347353D1*
X1787619Y1346353D1*
X1788919Y1345353D1*
X1790328Y1344353D1*
X1791828Y1343353D1*
X1798828Y1348353D2*
X1796979Y1347353D1*
X1795189Y1346353D1*
X1793296Y1345353D1*
X1791144Y1344353D1*
X1788828Y1343353D1*
X1805828Y1348353D2*
X1807286Y1347353D1*
X1808538Y1346353D1*
X1809552Y1345353D1*
X1810338Y1344353D1*
X1810941Y1343353D1*
X1811370Y1342353D1*
X1811619Y1341353D1*
X1811741Y1340353D1*
X1811794Y1339353D1*
X1811816Y1338353D1*
X1811824Y1337353D1*
X1811827Y1336353D1*
X1811828Y1335353D1*
Y1334353D1*
Y1333353D1*
Y1332353D1*
Y1331353D1*
Y1330353D1*
Y1329353D1*
Y1328353D1*
Y1327353D1*
Y1326353D1*
Y1325353D1*
Y1324353D1*
Y1323353D1*
Y1322353D1*
Y1321353D1*
Y1320353D1*
Y1319353D1*
Y1318353D1*
Y1317353D1*
Y1316353D1*
X1142828Y1347353D2*
Y1346353D1*
Y1345353D1*
Y1344353D1*
Y1343353D1*
Y1342353D1*
Y1341353D1*
Y1340353D1*
Y1339353D1*
Y1338353D1*
Y1337353D1*
Y1336353D1*
Y1335353D1*
Y1334353D1*
Y1333353D1*
Y1332353D1*
Y1331353D1*
Y1330353D1*
Y1329353D1*
Y1328353D1*
Y1327353D1*
Y1326353D1*
Y1325353D1*
Y1324353D1*
Y1323353D1*
Y1322353D1*
Y1321353D1*
Y1320353D1*
Y1319353D1*
Y1318353D1*
Y1317353D1*
Y1316353D1*
X1147828Y1347353D2*
X1147910Y1346353D1*
X1148094Y1345353D1*
X1148873Y1344353D1*
X1149828Y1343353D1*
X1155828Y1347353D2*
X1153942Y1346353D1*
X1152043Y1345353D1*
X1150002Y1344353D1*
X1147828Y1343353D1*
X1162828Y1347353D2*
Y1346353D1*
Y1345353D1*
Y1344353D1*
Y1343353D1*
Y1342353D1*
X1351828Y1347353D2*
Y1346353D1*
Y1345353D1*
Y1344353D1*
Y1343353D1*
Y1342353D1*
Y1341353D1*
Y1340353D1*
Y1339353D1*
Y1338353D1*
Y1337353D1*
Y1336353D1*
Y1335353D1*
Y1334353D1*
Y1333353D1*
Y1332353D1*
Y1331353D1*
Y1330353D1*
Y1329353D1*
Y1328353D1*
Y1327353D1*
Y1326353D1*
Y1325353D1*
Y1324353D1*
Y1323353D1*
Y1322353D1*
Y1321353D1*
Y1320353D1*
Y1319353D1*
Y1318353D1*
Y1317353D1*
Y1316353D1*
X1356828Y1347353D2*
X1356910Y1346353D1*
X1357094Y1345353D1*
X1357873Y1344353D1*
X1358828Y1343353D1*
X1364828Y1347353D2*
X1362942Y1346353D1*
X1361043Y1345353D1*
X1359002Y1344353D1*
X1356828Y1343353D1*
X1371828Y1347353D2*
Y1346353D1*
Y1345353D1*
Y1344353D1*
Y1343353D1*
Y1342353D1*
X1376828Y1347353D2*
Y1346353D1*
Y1345353D1*
Y1344353D1*
Y1343353D1*
Y1342353D1*
Y1341353D1*
Y1340353D1*
Y1339353D1*
Y1338353D1*
Y1337353D1*
Y1336353D1*
Y1335353D1*
Y1334353D1*
Y1333353D1*
Y1332353D1*
Y1331353D1*
Y1330353D1*
Y1329353D1*
Y1328353D1*
X1376832Y1327353D1*
X1376867Y1326353D1*
X1376995Y1325353D1*
X1377238Y1324353D1*
X1377530Y1323353D1*
X1377835Y1322353D1*
X1378207Y1321353D1*
X1378672Y1320353D1*
X1379274Y1319353D1*
X1380074Y1318353D1*
X1381110Y1317353D1*
X1382398Y1316353D1*
X1383828Y1315353D1*
X1381828Y1347353D2*
Y1346353D1*
Y1345353D1*
Y1344353D1*
Y1343353D1*
Y1342353D1*
Y1341353D1*
Y1340353D1*
Y1339353D1*
Y1338353D1*
Y1337353D1*
Y1336353D1*
Y1335353D1*
Y1334353D1*
Y1333353D1*
Y1332353D1*
Y1331353D1*
Y1330353D1*
Y1329353D1*
Y1328353D1*
X1381832Y1327353D1*
X1381867Y1326353D1*
X1381998Y1325353D1*
X1382277Y1324353D1*
X1382723Y1323353D1*
X1383311Y1322353D1*
X1385159Y1321353D1*
X1388124Y1320353D1*
X1391828Y1319353D1*
X1398828Y1347353D2*
Y1346353D1*
Y1345353D1*
Y1344353D1*
Y1343353D1*
Y1342353D1*
Y1341353D1*
Y1340353D1*
Y1339353D1*
Y1338353D1*
Y1337353D1*
Y1336353D1*
Y1335353D1*
Y1334353D1*
Y1333353D1*
Y1332353D1*
Y1331353D1*
Y1330353D1*
Y1329353D1*
Y1328353D1*
X1398824Y1327353D1*
X1398785Y1326353D1*
X1398615Y1325353D1*
X1398291Y1324353D1*
X1397306Y1323353D1*
X1395645Y1322353D1*
X1392718Y1321353D1*
X1388226Y1320353D1*
X1382828Y1319353D1*
X1402828Y1347353D2*
Y1346353D1*
Y1345353D1*
Y1344353D1*
Y1343353D1*
Y1342353D1*
Y1341353D1*
Y1340353D1*
Y1339353D1*
Y1338353D1*
Y1337353D1*
Y1336353D1*
Y1335353D1*
Y1334353D1*
Y1333353D1*
Y1332353D1*
Y1331353D1*
Y1330353D1*
Y1329353D1*
Y1328353D1*
Y1327353D1*
Y1326353D1*
Y1325353D1*
Y1324353D1*
Y1323353D1*
Y1322353D1*
Y1321353D1*
Y1320353D1*
Y1319353D1*
Y1318353D1*
Y1317353D1*
Y1316353D1*
X1426828Y1347353D2*
Y1346353D1*
Y1345353D1*
Y1344353D1*
Y1343353D1*
X1450828Y1347353D2*
X1450824Y1346353D1*
X1450785Y1345353D1*
X1450623Y1344353D1*
X1450252Y1343353D1*
X1449717Y1342353D1*
X1449119Y1341353D1*
X1448446Y1340353D1*
X1447653Y1339353D1*
X1446791Y1338353D1*
X1445965Y1337353D1*
X1445223Y1336353D1*
X1444487Y1335353D1*
X1443664Y1334353D1*
X1442761Y1333353D1*
X1441839Y1332353D1*
X1440984Y1331353D1*
X1440230Y1330353D1*
X1439489Y1329353D1*
X1438668Y1328353D1*
X1437797Y1327353D1*
X1436966Y1326353D1*
X1436224Y1325353D1*
X1435487Y1324353D1*
X1434664Y1323353D1*
X1433757Y1322353D1*
X1432802Y1321353D1*
X1431828Y1320353D1*
X1540828Y1347353D2*
X1539828Y1346353D1*
X1544828Y1347353D2*
Y1346353D1*
Y1345353D1*
Y1344353D1*
Y1343353D1*
Y1342353D1*
Y1341353D1*
Y1340353D1*
Y1339353D1*
Y1338353D1*
Y1337353D1*
Y1336353D1*
Y1335353D1*
Y1334353D1*
Y1333353D1*
Y1332353D1*
Y1331353D1*
Y1330353D1*
Y1329353D1*
Y1328353D1*
Y1327353D1*
Y1326353D1*
Y1325353D1*
Y1324353D1*
Y1323353D1*
Y1322353D1*
Y1321353D1*
Y1320353D1*
Y1319353D1*
Y1318353D1*
X1544824Y1317353D1*
X1544789Y1316353D1*
X1544662Y1315353D1*
X1544418Y1314353D1*
X1544127Y1313353D1*
X1543821Y1312353D1*
X1543450Y1311353D1*
X1542984Y1310353D1*
X1542382Y1309353D1*
X1541578Y1308353D1*
X1540492Y1307353D1*
X1538987Y1306353D1*
X1537027Y1305353D1*
X1534828Y1304353D1*
X1556828Y1347353D2*
Y1346353D1*
Y1345353D1*
Y1344353D1*
Y1343353D1*
Y1342353D1*
Y1341353D1*
Y1340353D1*
Y1339353D1*
Y1338353D1*
Y1337353D1*
Y1336353D1*
Y1335353D1*
Y1334353D1*
Y1333353D1*
Y1332353D1*
Y1331353D1*
Y1330353D1*
Y1329353D1*
Y1328353D1*
Y1327353D1*
Y1326353D1*
Y1325353D1*
Y1324353D1*
Y1323353D1*
Y1322353D1*
Y1321353D1*
Y1320353D1*
Y1319353D1*
Y1318353D1*
Y1317353D1*
Y1316353D1*
X1560828Y1347353D2*
X1561012Y1346353D1*
X1561363Y1345353D1*
X1561828Y1344353D1*
X1647828Y1347353D2*
Y1346353D1*
Y1345353D1*
Y1344353D1*
Y1343353D1*
Y1342353D1*
Y1341353D1*
Y1340353D1*
Y1339353D1*
Y1338353D1*
Y1337353D1*
Y1336353D1*
Y1335353D1*
Y1334353D1*
Y1333353D1*
Y1332353D1*
Y1331353D1*
Y1330353D1*
Y1329353D1*
Y1328353D1*
Y1327353D1*
Y1326353D1*
Y1325353D1*
Y1324353D1*
Y1323353D1*
Y1322353D1*
Y1321353D1*
Y1320353D1*
Y1319353D1*
Y1318353D1*
Y1317353D1*
Y1316353D1*
X1652828Y1347353D2*
Y1346353D1*
Y1345353D1*
Y1344353D1*
Y1343353D1*
Y1342353D1*
Y1341353D1*
Y1340353D1*
Y1339353D1*
Y1338353D1*
Y1337353D1*
Y1336353D1*
Y1335353D1*
Y1334353D1*
Y1333353D1*
Y1332353D1*
Y1331353D1*
Y1330353D1*
Y1329353D1*
Y1328353D1*
Y1327353D1*
Y1326353D1*
Y1325353D1*
Y1324353D1*
Y1323353D1*
Y1322353D1*
Y1321353D1*
Y1320353D1*
Y1319353D1*
Y1318353D1*
Y1317353D1*
Y1316353D1*
X1766828Y1347353D2*
Y1346353D1*
Y1345353D1*
Y1344353D1*
Y1343353D1*
Y1342353D1*
Y1341353D1*
Y1340353D1*
Y1339353D1*
Y1338353D1*
Y1337353D1*
Y1336353D1*
Y1335353D1*
Y1334353D1*
Y1333353D1*
Y1332353D1*
Y1331353D1*
Y1330353D1*
Y1329353D1*
Y1328353D1*
Y1327353D1*
Y1326353D1*
Y1325353D1*
Y1324353D1*
Y1323353D1*
Y1322353D1*
Y1321353D1*
Y1320353D1*
Y1319353D1*
Y1318353D1*
Y1317353D1*
Y1316353D1*
X1770828Y1347353D2*
X1771012Y1346353D1*
X1771363Y1345353D1*
X1771828Y1344353D1*
X1482828Y1345353D2*
X1481063Y1344353D1*
X1479610Y1343353D1*
X1478550Y1342353D1*
X1477775Y1341353D1*
X1477158Y1340353D1*
X1476646Y1339353D1*
X1476258Y1338353D1*
X1476027Y1337353D1*
X1475912Y1336353D1*
X1475861Y1335353D1*
X1475840Y1334353D1*
X1475836Y1333353D1*
X1475869Y1332353D1*
X1475999Y1331353D1*
X1476277Y1330353D1*
X1476700Y1329353D1*
X1477304Y1328353D1*
X1478081Y1327353D1*
X1480042Y1326353D1*
X1483077Y1325353D1*
X1486828Y1324353D1*
X1484828Y1345353D2*
X1487238Y1344353D1*
X1489267Y1343353D1*
X1490200Y1342353D1*
X1490536Y1341353D1*
X1490708Y1340353D1*
X1490783Y1339353D1*
X1490812Y1338353D1*
X1490823Y1337353D1*
X1490826Y1336353D1*
X1490827Y1335353D1*
X1490828Y1334353D1*
Y1333353D1*
Y1332353D1*
X1490824Y1331353D1*
X1490785Y1330353D1*
X1490615Y1329353D1*
X1490291Y1328353D1*
X1489388Y1327353D1*
X1486998Y1326353D1*
X1483324Y1325353D1*
X1478828Y1324353D1*
X1178828Y1344353D2*
X1177029Y1343353D1*
X1175479Y1342353D1*
X1174275Y1341353D1*
X1173391Y1340353D1*
X1172740Y1339353D1*
X1172257Y1338353D1*
X1171875Y1337353D1*
X1171511Y1336353D1*
X1171200Y1335353D1*
X1171004Y1334353D1*
X1170903Y1333353D1*
X1170858Y1332353D1*
X1170843Y1331353D1*
X1170871Y1330353D1*
X1170996Y1329353D1*
X1171238Y1328353D1*
X1171530Y1327353D1*
X1171835Y1326353D1*
X1172207Y1325353D1*
X1172676Y1324353D1*
X1173340Y1323353D1*
X1174231Y1322353D1*
X1176825Y1321353D1*
X1180860Y1320353D1*
X1185828Y1319353D1*
X1182828Y1344353D2*
X1184628Y1343353D1*
X1186177Y1342353D1*
X1187381Y1341353D1*
X1188265Y1340353D1*
X1188912Y1339353D1*
X1189360Y1338353D1*
X1189619Y1337353D1*
X1189779Y1336353D1*
X1189960Y1335353D1*
X1190221Y1334353D1*
X1190482Y1333353D1*
X1190624Y1332353D1*
X1190591Y1331353D1*
X1190394Y1330353D1*
X1190155Y1329353D1*
X1189984Y1328353D1*
X1189854Y1327353D1*
X1189650Y1326353D1*
X1189258Y1325353D1*
X1188681Y1324353D1*
X1187927Y1323353D1*
X1186995Y1322353D1*
X1184671Y1321353D1*
X1181150Y1320353D1*
X1176828Y1319353D1*
X1216828Y1344353D2*
X1214836Y1343353D1*
X1212914Y1342353D1*
X1211247Y1341353D1*
X1209871Y1340353D1*
X1209337Y1339353D1*
X1209046Y1338353D1*
X1208914Y1337353D1*
X1208860Y1336353D1*
X1208839Y1335353D1*
X1208832Y1334353D1*
X1208829Y1333353D1*
X1208828Y1332353D1*
Y1331353D1*
Y1330353D1*
Y1329353D1*
Y1328353D1*
Y1327353D1*
Y1326353D1*
X1208832Y1325353D1*
X1208879Y1324353D1*
X1208996Y1323353D1*
X1209732Y1322353D1*
X1212598Y1321353D1*
X1217179Y1320353D1*
X1222828Y1319353D1*
X1219828Y1344353D2*
X1221628Y1343353D1*
X1223177Y1342353D1*
X1224381Y1341353D1*
X1225265Y1340353D1*
X1225912Y1339353D1*
X1226360Y1338353D1*
X1226615Y1337353D1*
X1226743Y1336353D1*
X1226833Y1335353D1*
X1226978Y1334353D1*
X1227191Y1333353D1*
X1227322Y1332353D1*
X1227258Y1331353D1*
X1227095Y1330353D1*
X1226959Y1329353D1*
X1226849Y1328353D1*
X1226682Y1327353D1*
X1226392Y1326353D1*
X1225995Y1325353D1*
X1225500Y1324353D1*
X1224790Y1323353D1*
X1223826Y1322353D1*
X1221062Y1321353D1*
X1216898Y1320353D1*
X1211828Y1319353D1*
X1251828Y1344353D2*
X1250029Y1343353D1*
X1248479Y1342353D1*
X1247275Y1341353D1*
X1246391Y1340353D1*
X1245740Y1339353D1*
X1245257Y1338353D1*
X1244875Y1337353D1*
X1244511Y1336353D1*
X1244200Y1335353D1*
X1244004Y1334353D1*
X1243903Y1333353D1*
X1243858Y1332353D1*
X1243843Y1331353D1*
X1243871Y1330353D1*
X1243996Y1329353D1*
X1244238Y1328353D1*
X1244530Y1327353D1*
X1244835Y1326353D1*
X1245207Y1325353D1*
X1245676Y1324353D1*
X1246340Y1323353D1*
X1247231Y1322353D1*
X1249825Y1321353D1*
X1253860Y1320353D1*
X1258828Y1319353D1*
X1255828Y1344353D2*
X1257628Y1343353D1*
X1259177Y1342353D1*
X1260381Y1341353D1*
X1261265Y1340353D1*
X1261912Y1339353D1*
X1262360Y1338353D1*
X1262619Y1337353D1*
X1262779Y1336353D1*
X1262960Y1335353D1*
X1263221Y1334353D1*
X1263482Y1333353D1*
X1263624Y1332353D1*
X1263591Y1331353D1*
X1263394Y1330353D1*
X1263155Y1329353D1*
X1262984Y1328353D1*
X1262854Y1327353D1*
X1262650Y1326353D1*
X1262258Y1325353D1*
X1261681Y1324353D1*
X1260927Y1323353D1*
X1259995Y1322353D1*
X1257671Y1321353D1*
X1254150Y1320353D1*
X1249828Y1319353D1*
X1308828Y1344353D2*
X1307029Y1343353D1*
X1305483Y1342353D1*
X1304318Y1341353D1*
X1303442Y1340353D1*
X1303201Y1339353D1*
X1303451Y1338353D1*
X1304251Y1337353D1*
X1306098Y1336353D1*
X1308728Y1335353D1*
X1311880Y1334353D1*
X1314910Y1333353D1*
X1317351Y1332353D1*
X1319129Y1331353D1*
X1320387Y1330353D1*
X1321275Y1329353D1*
X1321918Y1328353D1*
X1322363Y1327353D1*
X1322616Y1326353D1*
X1322736Y1325353D1*
X1322755Y1324353D1*
X1322645Y1323353D1*
X1322375Y1322353D1*
X1321955Y1321353D1*
X1321371Y1320353D1*
X1320574Y1319353D1*
X1319490Y1318353D1*
X1317986Y1317353D1*
X1316027Y1316353D1*
X1313828Y1315353D1*
X1312828Y1344353D2*
X1315644Y1343353D1*
X1318293Y1342353D1*
X1320828Y1341353D1*
X1529828Y1344353D2*
X1528029Y1343353D1*
X1526479Y1342353D1*
X1525275Y1341353D1*
X1524391Y1340353D1*
X1523740Y1339353D1*
X1523257Y1338353D1*
X1522875Y1337353D1*
X1522511Y1336353D1*
X1522200Y1335353D1*
X1522004Y1334353D1*
X1521903Y1333353D1*
X1521858Y1332353D1*
X1521843Y1331353D1*
X1521871Y1330353D1*
X1521996Y1329353D1*
X1522238Y1328353D1*
X1522530Y1327353D1*
X1522835Y1326353D1*
X1523211Y1325353D1*
X1523742Y1324353D1*
X1524457Y1323353D1*
X1526939Y1322353D1*
X1530907Y1321353D1*
X1535828Y1320353D1*
X1533828Y1344353D2*
X1536238Y1343353D1*
X1538267Y1342353D1*
X1539200Y1341353D1*
X1539536Y1340353D1*
X1539708Y1339353D1*
X1539783Y1338353D1*
X1539812Y1337353D1*
X1539823Y1336353D1*
X1539826Y1335353D1*
X1539827Y1334353D1*
X1539828Y1333353D1*
Y1332353D1*
Y1331353D1*
Y1330353D1*
Y1329353D1*
Y1328353D1*
X1539824Y1327353D1*
X1539781Y1326353D1*
X1539676Y1325353D1*
X1539170Y1324353D1*
X1537689Y1323353D1*
X1535073Y1322353D1*
X1530915Y1321353D1*
X1525828Y1320353D1*
X1568828Y1344353D2*
X1566870Y1343353D1*
X1565041Y1342353D1*
X1563486Y1341353D1*
X1562315Y1340353D1*
X1561427Y1339353D1*
X1561117Y1338353D1*
X1560951Y1337353D1*
X1560876Y1336353D1*
X1560846Y1335353D1*
X1560834Y1334353D1*
X1560830Y1333353D1*
X1560829Y1332353D1*
X1560828Y1331353D1*
Y1330353D1*
Y1329353D1*
Y1328353D1*
Y1327353D1*
Y1326353D1*
Y1325353D1*
Y1324353D1*
Y1323353D1*
Y1322353D1*
Y1321353D1*
Y1320353D1*
Y1319353D1*
Y1318353D1*
Y1317353D1*
Y1316353D1*
X1571828Y1344353D2*
X1573473Y1343353D1*
X1574771Y1342353D1*
X1575680Y1341353D1*
X1576362Y1340353D1*
X1576602Y1339353D1*
X1576732Y1338353D1*
X1576790Y1337353D1*
X1576814Y1336353D1*
X1576823Y1335353D1*
X1576826Y1334353D1*
X1576828Y1333353D1*
Y1332353D1*
Y1331353D1*
Y1330353D1*
Y1329353D1*
Y1328353D1*
Y1327353D1*
Y1326353D1*
Y1325353D1*
Y1324353D1*
Y1323353D1*
Y1322353D1*
Y1321353D1*
Y1320353D1*
Y1319353D1*
Y1318353D1*
Y1317353D1*
Y1316353D1*
X1590828Y1344353D2*
X1588187Y1343353D1*
X1585928Y1342353D1*
X1584185Y1341353D1*
X1582816Y1340353D1*
X1582309Y1339353D1*
X1582033Y1338353D1*
X1581909Y1337353D1*
X1581858Y1336353D1*
X1581839Y1335353D1*
X1581832Y1334353D1*
X1581829Y1333353D1*
X1581828Y1332353D1*
Y1331353D1*
Y1330353D1*
Y1329353D1*
Y1328353D1*
Y1327353D1*
Y1326353D1*
Y1325353D1*
Y1324353D1*
Y1323353D1*
Y1322353D1*
Y1321353D1*
Y1320353D1*
Y1319353D1*
Y1318353D1*
Y1317353D1*
Y1316353D1*
X1593828Y1344353D2*
X1594786Y1343353D1*
X1595623Y1342353D1*
X1596252Y1341353D1*
X1596717Y1340353D1*
X1597119Y1339353D1*
X1597446Y1338353D1*
X1597649Y1337353D1*
X1597752Y1336353D1*
X1597798Y1335353D1*
X1597817Y1334353D1*
X1597824Y1333353D1*
X1597827Y1332353D1*
X1597828Y1331353D1*
Y1330353D1*
Y1329353D1*
Y1328353D1*
Y1327353D1*
Y1326353D1*
Y1325353D1*
Y1324353D1*
Y1323353D1*
Y1322353D1*
Y1321353D1*
Y1320353D1*
Y1319353D1*
Y1318353D1*
Y1317353D1*
Y1316353D1*
X1622828Y1344353D2*
X1618828Y1343353D1*
X1614828Y1342353D1*
X1626828Y1344353D2*
X1628593Y1343353D1*
X1630046Y1342353D1*
X1631102Y1341353D1*
X1631842Y1340353D1*
X1632335Y1339353D1*
X1632626Y1338353D1*
X1632828Y1337353D1*
X1627002Y1336353D1*
X1622167Y1335353D1*
X1618589Y1334353D1*
X1616110Y1333353D1*
X1614411Y1332353D1*
X1613246Y1331353D1*
X1612484Y1330353D1*
X1611968Y1329353D1*
X1611546Y1328353D1*
X1611213Y1327353D1*
X1611012Y1326353D1*
X1610944Y1325353D1*
X1611025Y1324353D1*
X1611249Y1323353D1*
X1611537Y1322353D1*
X1611876Y1321353D1*
X1612374Y1320353D1*
X1613082Y1319353D1*
X1613974Y1318353D1*
X1615065Y1317353D1*
X1616381Y1316353D1*
X1617828Y1315353D1*
X1710828Y1344353D2*
X1708874Y1343353D1*
X1707076Y1342353D1*
X1705614Y1341353D1*
X1704555Y1340353D1*
X1703811Y1339353D1*
X1703286Y1338353D1*
X1702885Y1337353D1*
X1702514Y1336353D1*
X1702201Y1335353D1*
X1702004Y1334353D1*
X1701903Y1333353D1*
X1701858Y1332353D1*
X1701843Y1331353D1*
X1701871Y1330353D1*
X1701996Y1329353D1*
X1702238Y1328353D1*
X1702530Y1327353D1*
X1702835Y1326353D1*
X1703211Y1325353D1*
X1703715Y1324353D1*
X1704348Y1323353D1*
X1705901Y1322353D1*
X1708556Y1321353D1*
X1712731Y1320353D1*
X1717828Y1319353D1*
X1714828Y1344353D2*
X1716828Y1343353D1*
X1718828Y1342353D1*
X1720828Y1341353D1*
X1740828Y1344353D2*
X1739029Y1343353D1*
X1737479Y1342353D1*
X1736275Y1341353D1*
X1735391Y1340353D1*
X1734740Y1339353D1*
X1734257Y1338353D1*
X1733875Y1337353D1*
X1733511Y1336353D1*
X1733200Y1335353D1*
X1733004Y1334353D1*
X1732903Y1333353D1*
X1732858Y1332353D1*
X1732843Y1331353D1*
X1732871Y1330353D1*
X1732996Y1329353D1*
X1733238Y1328353D1*
X1733530Y1327353D1*
X1733835Y1326353D1*
X1734207Y1325353D1*
X1734676Y1324353D1*
X1735340Y1323353D1*
X1736231Y1322353D1*
X1738825Y1321353D1*
X1742860Y1320353D1*
X1747828Y1319353D1*
X1744828Y1344353D2*
X1746628Y1343353D1*
X1748177Y1342353D1*
X1749381Y1341353D1*
X1750265Y1340353D1*
X1750912Y1339353D1*
X1751360Y1338353D1*
X1751619Y1337353D1*
X1751779Y1336353D1*
X1751960Y1335353D1*
X1752221Y1334353D1*
X1752482Y1333353D1*
X1752624Y1332353D1*
X1752591Y1331353D1*
X1752394Y1330353D1*
X1752155Y1329353D1*
X1751984Y1328353D1*
X1751854Y1327353D1*
X1751650Y1326353D1*
X1751258Y1325353D1*
X1750681Y1324353D1*
X1749927Y1323353D1*
X1748995Y1322353D1*
X1746671Y1321353D1*
X1743150Y1320353D1*
X1738828Y1319353D1*
X1778828Y1344353D2*
X1776870Y1343353D1*
X1775041Y1342353D1*
X1773486Y1341353D1*
X1772315Y1340353D1*
X1771427Y1339353D1*
X1771117Y1338353D1*
X1770951Y1337353D1*
X1770876Y1336353D1*
X1770846Y1335353D1*
X1770834Y1334353D1*
X1770830Y1333353D1*
X1770829Y1332353D1*
X1770828Y1331353D1*
Y1330353D1*
Y1329353D1*
Y1328353D1*
Y1327353D1*
Y1326353D1*
Y1325353D1*
Y1324353D1*
Y1323353D1*
Y1322353D1*
Y1321353D1*
Y1320353D1*
Y1319353D1*
Y1318353D1*
Y1317353D1*
Y1316353D1*
X1781828Y1344353D2*
X1783473Y1343353D1*
X1784771Y1342353D1*
X1785680Y1341353D1*
X1786362Y1340353D1*
X1786602Y1339353D1*
X1786732Y1338353D1*
X1786790Y1337353D1*
X1786814Y1336353D1*
X1786823Y1335353D1*
X1786826Y1334353D1*
X1786828Y1333353D1*
Y1332353D1*
Y1331353D1*
Y1330353D1*
Y1329353D1*
Y1328353D1*
Y1327353D1*
Y1326353D1*
Y1325353D1*
Y1324353D1*
Y1323353D1*
Y1322353D1*
Y1321353D1*
Y1320353D1*
Y1319353D1*
Y1318353D1*
Y1317353D1*
Y1316353D1*
X1800828Y1344353D2*
X1798187Y1343353D1*
X1795928Y1342353D1*
X1794185Y1341353D1*
X1792816Y1340353D1*
X1792309Y1339353D1*
X1792033Y1338353D1*
X1791909Y1337353D1*
X1791858Y1336353D1*
X1791839Y1335353D1*
X1791832Y1334353D1*
X1791829Y1333353D1*
X1791828Y1332353D1*
Y1331353D1*
Y1330353D1*
Y1329353D1*
Y1328353D1*
Y1327353D1*
Y1326353D1*
Y1325353D1*
Y1324353D1*
Y1323353D1*
Y1322353D1*
Y1321353D1*
Y1320353D1*
Y1319353D1*
Y1318353D1*
Y1317353D1*
Y1316353D1*
X1803828Y1344353D2*
X1804786Y1343353D1*
X1805623Y1342353D1*
X1806252Y1341353D1*
X1806717Y1340353D1*
X1807119Y1339353D1*
X1807446Y1338353D1*
X1807649Y1337353D1*
X1807752Y1336353D1*
X1807798Y1335353D1*
X1807817Y1334353D1*
X1807824Y1333353D1*
X1807827Y1332353D1*
X1807828Y1331353D1*
Y1330353D1*
Y1329353D1*
Y1328353D1*
Y1327353D1*
Y1326353D1*
Y1325353D1*
Y1324353D1*
Y1323353D1*
Y1322353D1*
Y1321353D1*
Y1320353D1*
Y1319353D1*
Y1318353D1*
Y1317353D1*
Y1316353D1*
X1155828Y1343353D2*
X1153870Y1342353D1*
X1152041Y1341353D1*
X1150486Y1340353D1*
X1149315Y1339353D1*
X1148427Y1338353D1*
X1148117Y1337353D1*
X1147951Y1336353D1*
X1147876Y1335353D1*
X1147846Y1334353D1*
X1147834Y1333353D1*
X1147830Y1332353D1*
X1147829Y1331353D1*
X1147828Y1330353D1*
Y1329353D1*
Y1328353D1*
Y1327353D1*
Y1326353D1*
Y1325353D1*
Y1324353D1*
Y1323353D1*
Y1322353D1*
Y1321353D1*
Y1320353D1*
Y1319353D1*
Y1318353D1*
Y1317353D1*
Y1316353D1*
X1160828Y1343353D2*
X1161828Y1342353D1*
X1364828Y1343353D2*
X1362870Y1342353D1*
X1361041Y1341353D1*
X1359486Y1340353D1*
X1358315Y1339353D1*
X1357427Y1338353D1*
X1357117Y1337353D1*
X1356951Y1336353D1*
X1356876Y1335353D1*
X1356846Y1334353D1*
X1356834Y1333353D1*
X1356830Y1332353D1*
X1356829Y1331353D1*
X1356828Y1330353D1*
Y1329353D1*
Y1328353D1*
Y1327353D1*
Y1326353D1*
Y1325353D1*
Y1324353D1*
Y1323353D1*
Y1322353D1*
Y1321353D1*
Y1320353D1*
Y1319353D1*
Y1318353D1*
Y1317353D1*
Y1316353D1*
X1369828Y1343353D2*
X1370828Y1342353D1*
X1445828Y1343353D2*
X1444983Y1342353D1*
X1444231Y1341353D1*
X1443489Y1340353D1*
X1442669Y1339353D1*
X1441797Y1338353D1*
X1440967Y1337353D1*
X1440224Y1336353D1*
X1439487Y1335353D1*
X1438664Y1334353D1*
X1437761Y1333353D1*
X1436839Y1332353D1*
X1435984Y1331353D1*
X1435230Y1330353D1*
X1434489Y1329353D1*
X1433668Y1328353D1*
X1432797Y1327353D1*
X1431966Y1326353D1*
X1431224Y1325353D1*
X1430487Y1324353D1*
X1429668Y1323353D1*
X1428800Y1322353D1*
X1428009Y1321353D1*
X1427433Y1320353D1*
X1427102Y1319353D1*
X1426941Y1318353D1*
X1426869Y1317353D1*
X1426828Y1316353D1*
X1629828Y1332353D2*
X1625460Y1331353D1*
X1621876Y1330353D1*
X1619317Y1329353D1*
X1617405Y1328353D1*
X1616507Y1327353D1*
X1616157Y1326353D1*
X1616004Y1325353D1*
X1616055Y1324353D1*
X1616255Y1323353D1*
X1616902Y1322353D1*
X1619190Y1321353D1*
X1623016Y1320353D1*
X1627828Y1319353D1*
X1632828Y1332353D2*
Y1331353D1*
Y1330353D1*
Y1329353D1*
Y1328353D1*
Y1327353D1*
X1632820Y1326353D1*
X1632742Y1325353D1*
X1632555Y1324353D1*
X1631785Y1323353D1*
X1630032Y1322353D1*
X1627237Y1321353D1*
X1622980Y1320353D1*
X1617828Y1319353D1*
X1297828Y1323353D2*
Y1322353D1*
X1297832Y1321353D1*
X1297875Y1320353D1*
X1297980Y1319353D1*
X1298518Y1318353D1*
X1300055Y1317353D1*
X1302248Y1316353D1*
X1304828Y1315353D1*
X1298828Y1323353D2*
X1301233Y1322353D1*
X1304899Y1321353D1*
X1310329Y1320353D1*
X1316828Y1319353D1*
X1332828Y1323353D2*
Y1322353D1*
Y1321353D1*
Y1320353D1*
Y1319353D1*
Y1318353D1*
Y1317353D1*
Y1316353D1*
X1338828Y1323353D2*
Y1322353D1*
Y1321353D1*
Y1320353D1*
Y1319353D1*
Y1318353D1*
Y1317353D1*
Y1316353D1*
X1490828Y1324353D2*
X1488828Y1323353D1*
X1486828Y1322353D1*
X1484828Y1321353D1*
X1489828Y1324353D2*
X1490644Y1323353D1*
X1491293Y1322353D1*
X1491828Y1321353D1*
X1679828Y1323353D2*
Y1322353D1*
Y1321353D1*
Y1320353D1*
Y1319353D1*
Y1318353D1*
Y1317353D1*
Y1316353D1*
X1685828Y1323353D2*
Y1322353D1*
Y1321353D1*
Y1320353D1*
Y1319353D1*
Y1318353D1*
Y1317353D1*
Y1316353D1*
X1720828Y1322353D2*
X1717541Y1321353D1*
X1713085Y1320353D1*
X1707828Y1319353D1*
X1722828Y1322353D2*
X1722824Y1321353D1*
X1722781Y1320353D1*
X1722676Y1319353D1*
X1722154Y1318353D1*
X1720791Y1317353D1*
X1718945Y1316353D1*
X1716828Y1315353D1*
X1291828Y1320353D2*
X1290828Y1319353D1*
X1292828Y1320353D2*
X1292820Y1319353D1*
X1292744Y1318353D1*
X1292562Y1317353D1*
X1291783Y1316353D1*
X1290828Y1315353D1*
X1451828Y1320353D2*
Y1319353D1*
Y1318353D1*
Y1317353D1*
Y1316353D1*
X1398828Y1319353D2*
X1396828Y1318353D1*
X1394828Y1317353D1*
X1392828Y1316353D1*
X1390828Y1315353D1*
X1398828Y1319353D2*
Y1318353D1*
Y1317353D1*
Y1316353D1*
X1539828Y1319353D2*
X1537644Y1318353D1*
X1535293Y1317353D1*
X1532828Y1316353D1*
X1539828Y1319353D2*
Y1318353D1*
Y1317353D1*
X1539824Y1316353D1*
X1539789Y1315353D1*
X1539658Y1314353D1*
X1539371Y1313353D1*
X1538972Y1312353D1*
X1538025Y1311353D1*
X1534741Y1310353D1*
X1529428Y1309353D1*
X1522828Y1308353D1*
X1632828Y1319353D2*
X1630942Y1318353D1*
X1629043Y1317353D1*
X1627002Y1316353D1*
X1624828Y1315353D1*
X1632828Y1319353D2*
Y1318353D1*
Y1317353D1*
Y1316353D1*
X1209828Y1317353D2*
X1208828Y1316353D1*
Y1317353D2*
X1211828Y1316353D1*
X1214828Y1315353D1*
X1492828Y1314353D2*
Y1313353D1*
X1494828Y1314353D2*
X1494705Y1313353D1*
X1494430Y1312353D1*
X1493261Y1311353D1*
X1491828Y1310353D1*
X1520828D2*
Y1309353D1*
X1520844Y1308353D1*
X1520891Y1307353D1*
X1521359Y1306353D1*
X1522918Y1305353D1*
X1524828Y1304353D1*
X1521828Y1310353D2*
X1529047Y1309353D1*
X1536828Y1308353D1*
X1513115Y1755643D2*
X1511192Y1754643D1*
X1509452Y1753643D1*
X1507970Y1752643D1*
X1506650Y1751643D1*
X1505405Y1750643D1*
X1504252Y1749643D1*
X1503174Y1748643D1*
X1502143Y1747643D1*
X1501163Y1746643D1*
X1500285Y1745643D1*
X1499526Y1744643D1*
X1498821Y1743643D1*
X1498158Y1742643D1*
X1497621Y1741643D1*
X1497195Y1740643D1*
X1496775Y1739643D1*
X1496327Y1738643D1*
X1495888Y1737643D1*
X1495529Y1736643D1*
X1495309Y1735643D1*
X1495197Y1734643D1*
X1495147Y1733643D1*
X1495127Y1732643D1*
X1495120Y1731643D1*
X1495117Y1730643D1*
X1495116Y1729643D1*
Y1728643D1*
Y1727643D1*
Y1726643D1*
X1495115Y1725643D1*
Y1724643D1*
Y1723643D1*
Y1722643D1*
Y1721643D1*
Y1720643D1*
Y1719643D1*
Y1718643D1*
Y1717643D1*
Y1716643D1*
Y1715643D1*
Y1714643D1*
Y1713643D1*
Y1712643D1*
Y1711643D1*
Y1710643D1*
Y1709643D1*
Y1708643D1*
Y1707643D1*
Y1706643D1*
Y1705643D1*
Y1704643D1*
Y1703643D1*
Y1702643D1*
Y1701643D1*
Y1700643D1*
Y1699643D1*
Y1698643D1*
Y1697643D1*
Y1696643D1*
Y1695643D1*
Y1694643D1*
Y1693643D1*
Y1692643D1*
Y1691643D1*
Y1690643D1*
Y1689643D1*
Y1688643D1*
Y1687643D1*
Y1686643D1*
Y1685643D1*
Y1684643D1*
Y1683643D1*
Y1682643D1*
Y1681643D1*
Y1680643D1*
Y1679643D1*
Y1678643D1*
Y1677643D1*
Y1676643D1*
Y1675643D1*
Y1674643D1*
Y1673643D1*
Y1672643D1*
Y1671643D1*
Y1670643D1*
Y1669643D1*
Y1668643D1*
Y1667643D1*
Y1666643D1*
Y1665643D1*
Y1664643D1*
Y1663643D1*
Y1662643D1*
Y1661643D1*
Y1660643D1*
Y1659643D1*
Y1658643D1*
Y1657643D1*
Y1656643D1*
Y1655643D1*
Y1654643D1*
Y1653643D1*
Y1652643D1*
Y1651643D1*
Y1650643D1*
Y1649643D1*
Y1648643D1*
Y1647643D1*
Y1646643D1*
Y1645643D1*
Y1644643D1*
Y1643643D1*
Y1642643D1*
Y1641643D1*
Y1640643D1*
Y1639643D1*
Y1638643D1*
Y1637643D1*
Y1636643D1*
Y1635643D1*
Y1634643D1*
Y1633643D1*
Y1632643D1*
Y1631643D1*
Y1630643D1*
Y1629643D1*
Y1628643D1*
Y1627643D1*
Y1626643D1*
Y1625643D1*
Y1624643D1*
Y1623643D1*
Y1622643D1*
Y1621643D1*
Y1620643D1*
Y1619643D1*
Y1618643D1*
Y1617643D1*
Y1616643D1*
Y1615643D1*
Y1614643D1*
Y1613643D1*
Y1612643D1*
Y1611643D1*
Y1610643D1*
Y1609643D1*
Y1608643D1*
Y1607643D1*
Y1606643D1*
Y1605643D1*
Y1604643D1*
Y1603643D1*
Y1602643D1*
Y1601643D1*
Y1600643D1*
Y1599643D1*
Y1598643D1*
Y1597643D1*
Y1596643D1*
Y1595643D1*
Y1594643D1*
Y1593643D1*
Y1592643D1*
Y1591643D1*
Y1590643D1*
Y1589643D1*
Y1588643D1*
Y1587643D1*
Y1586643D1*
Y1585643D1*
Y1584643D1*
Y1583643D1*
Y1582643D1*
Y1581643D1*
Y1580643D1*
Y1579643D1*
Y1578643D1*
Y1577643D1*
Y1576643D1*
Y1575643D1*
Y1574643D1*
Y1573643D1*
Y1572643D1*
Y1571643D1*
Y1570643D1*
Y1569643D1*
Y1568643D1*
Y1567643D1*
Y1566643D1*
Y1565643D1*
Y1564643D1*
Y1563643D1*
Y1562643D1*
Y1561643D1*
Y1560643D1*
Y1559643D1*
Y1558643D1*
Y1557643D1*
Y1556643D1*
Y1555643D1*
Y1554643D1*
Y1553643D1*
Y1552643D1*
Y1551643D1*
Y1550643D1*
Y1549643D1*
Y1548643D1*
Y1547643D1*
Y1546643D1*
Y1545643D1*
Y1544643D1*
Y1543643D1*
Y1542643D1*
Y1541643D1*
Y1540643D1*
Y1539643D1*
Y1538643D1*
Y1537643D1*
Y1536643D1*
Y1535643D1*
Y1534643D1*
Y1533643D1*
Y1532643D1*
Y1531643D1*
Y1530643D1*
Y1529643D1*
Y1528643D1*
Y1527643D1*
Y1526643D1*
Y1525643D1*
Y1524643D1*
Y1523643D1*
Y1522643D1*
Y1521643D1*
Y1520643D1*
Y1519643D1*
Y1518643D1*
Y1517643D1*
Y1516643D1*
Y1515643D1*
Y1514643D1*
Y1513643D1*
Y1512643D1*
Y1511643D1*
Y1510643D1*
Y1509643D1*
Y1508643D1*
Y1507643D1*
Y1506643D1*
Y1505643D1*
Y1504643D1*
Y1503643D1*
Y1502643D1*
Y1501643D1*
Y1500643D1*
Y1499643D1*
Y1498643D1*
Y1497643D1*
Y1496643D1*
Y1495643D1*
Y1494643D1*
Y1493643D1*
Y1492643D1*
Y1491643D1*
Y1490643D1*
Y1489643D1*
Y1488643D1*
Y1487643D1*
Y1486643D1*
Y1485643D1*
Y1484643D1*
Y1483643D1*
Y1482643D1*
Y1481643D1*
Y1480643D1*
Y1479643D1*
Y1478643D1*
Y1477643D1*
Y1476643D1*
Y1475643D1*
Y1474643D1*
Y1473643D1*
Y1472643D1*
Y1471643D1*
Y1470643D1*
Y1469643D1*
Y1468643D1*
Y1467643D1*
Y1466643D1*
Y1465643D1*
Y1464643D1*
Y1463643D1*
Y1462643D1*
Y1461643D1*
Y1460643D1*
Y1459643D1*
Y1458643D1*
Y1457643D1*
Y1456643D1*
Y1455643D1*
Y1454643D1*
Y1453643D1*
Y1452643D1*
Y1451643D1*
Y1450643D1*
Y1449643D1*
Y1448643D1*
Y1447643D1*
Y1446643D1*
Y1445643D1*
Y1444643D1*
Y1443643D1*
Y1442643D1*
Y1441643D1*
Y1440643D1*
Y1439643D1*
Y1438643D1*
Y1437643D1*
Y1436643D1*
Y1435643D1*
Y1434643D1*
Y1433643D1*
Y1432643D1*
Y1431643D1*
X1495119Y1430643D1*
X1495155Y1429643D1*
X1495286Y1428643D1*
X1495561Y1427643D1*
X1495944Y1426643D1*
X1496362Y1425643D1*
X1496750Y1424643D1*
X1497130Y1423643D1*
X1497611Y1422643D1*
X1498195Y1421643D1*
X1498812Y1420643D1*
X1499493Y1419643D1*
X1500290Y1418643D1*
X1501156Y1417643D1*
X1502014Y1416643D1*
X1502852Y1415643D1*
X1503739Y1414643D1*
X1504746Y1413643D1*
X1505976Y1412643D1*
X1507514Y1411643D1*
X1509283Y1410643D1*
X1511177Y1409643D1*
X1513115Y1408643D1*
X1724115Y1755643D2*
X1726265Y1754643D1*
X1728178Y1753643D1*
X1729799Y1752643D1*
X1731203Y1751643D1*
X1732430Y1750643D1*
X1733538Y1749643D1*
X1734583Y1748643D1*
X1735569Y1747643D1*
X1736477Y1746643D1*
X1737300Y1745643D1*
X1738058Y1744643D1*
X1738720Y1743643D1*
X1739303Y1742643D1*
X1739837Y1741643D1*
X1740321Y1740643D1*
X1740731Y1739643D1*
X1741085Y1738643D1*
X1741439Y1737643D1*
X1741745Y1736643D1*
X1741940Y1735643D1*
X1742041Y1734643D1*
X1742086Y1733643D1*
X1742105Y1732643D1*
X1742112Y1731643D1*
X1742114Y1730643D1*
X1742115Y1729643D1*
Y1728643D1*
Y1727643D1*
Y1726643D1*
Y1725643D1*
Y1724643D1*
Y1723643D1*
Y1722643D1*
Y1721643D1*
Y1720643D1*
Y1719643D1*
Y1718643D1*
Y1717643D1*
Y1716643D1*
Y1715643D1*
Y1714643D1*
Y1713643D1*
Y1712643D1*
Y1711643D1*
Y1710643D1*
Y1709643D1*
Y1708643D1*
Y1707643D1*
Y1706643D1*
Y1705643D1*
Y1704643D1*
Y1703643D1*
Y1702643D1*
Y1701643D1*
Y1700643D1*
Y1699643D1*
Y1698643D1*
Y1697643D1*
Y1696643D1*
Y1695643D1*
Y1694643D1*
Y1693643D1*
Y1692643D1*
Y1691643D1*
Y1690643D1*
Y1689643D1*
Y1688643D1*
Y1687643D1*
Y1686643D1*
Y1685643D1*
Y1684643D1*
Y1683643D1*
Y1682643D1*
Y1681643D1*
Y1680643D1*
Y1679643D1*
Y1678643D1*
Y1677643D1*
Y1676643D1*
Y1675643D1*
Y1674643D1*
Y1673643D1*
Y1672643D1*
Y1671643D1*
Y1670643D1*
Y1669643D1*
Y1668643D1*
Y1667643D1*
Y1666643D1*
Y1665643D1*
Y1664643D1*
Y1663643D1*
Y1662643D1*
Y1661643D1*
Y1660643D1*
Y1659643D1*
Y1658643D1*
Y1657643D1*
Y1656643D1*
Y1655643D1*
Y1654643D1*
Y1653643D1*
Y1652643D1*
Y1651643D1*
Y1650643D1*
Y1649643D1*
Y1648643D1*
Y1647643D1*
Y1646643D1*
Y1645643D1*
Y1644643D1*
Y1643643D1*
Y1642643D1*
Y1641643D1*
Y1640643D1*
Y1639643D1*
Y1638643D1*
Y1637643D1*
Y1636643D1*
Y1635643D1*
Y1634643D1*
Y1633643D1*
Y1632643D1*
Y1631643D1*
Y1630643D1*
Y1629643D1*
Y1628643D1*
Y1627643D1*
Y1626643D1*
Y1625643D1*
Y1624643D1*
Y1623643D1*
Y1622643D1*
Y1621643D1*
Y1620643D1*
Y1619643D1*
Y1618643D1*
Y1617643D1*
Y1616643D1*
Y1615643D1*
Y1614643D1*
Y1613643D1*
Y1612643D1*
Y1611643D1*
Y1610643D1*
Y1609643D1*
Y1608643D1*
Y1607643D1*
Y1606643D1*
Y1605643D1*
Y1604643D1*
Y1603643D1*
Y1602643D1*
Y1601643D1*
Y1600643D1*
Y1599643D1*
Y1598643D1*
Y1597643D1*
Y1596643D1*
Y1595643D1*
Y1594643D1*
Y1593643D1*
Y1592643D1*
Y1591643D1*
Y1590643D1*
Y1589643D1*
Y1588643D1*
Y1587643D1*
Y1586643D1*
Y1585643D1*
Y1584643D1*
Y1583643D1*
Y1582643D1*
Y1581643D1*
Y1580643D1*
Y1579643D1*
Y1578643D1*
Y1577643D1*
Y1576643D1*
Y1575643D1*
Y1574643D1*
Y1573643D1*
Y1572643D1*
Y1571643D1*
Y1570643D1*
Y1569643D1*
Y1568643D1*
Y1567643D1*
Y1566643D1*
Y1565643D1*
Y1564643D1*
Y1563643D1*
Y1562643D1*
Y1561643D1*
Y1560643D1*
Y1559643D1*
Y1558643D1*
Y1557643D1*
Y1556643D1*
Y1555643D1*
Y1554643D1*
Y1553643D1*
Y1552643D1*
Y1551643D1*
Y1550643D1*
Y1549643D1*
Y1548643D1*
Y1547643D1*
Y1546643D1*
Y1545643D1*
Y1544643D1*
Y1543643D1*
Y1542643D1*
Y1541643D1*
Y1540643D1*
Y1539643D1*
Y1538643D1*
Y1537643D1*
Y1536643D1*
Y1535643D1*
Y1534643D1*
Y1533643D1*
Y1532643D1*
Y1531643D1*
Y1530643D1*
Y1529643D1*
Y1528643D1*
Y1527643D1*
Y1526643D1*
Y1525643D1*
Y1524643D1*
Y1523643D1*
Y1522643D1*
Y1521643D1*
Y1520643D1*
Y1519643D1*
Y1518643D1*
Y1517643D1*
Y1516643D1*
Y1515643D1*
Y1514643D1*
Y1513643D1*
Y1512643D1*
Y1511643D1*
Y1510643D1*
Y1509643D1*
Y1508643D1*
Y1507643D1*
Y1506643D1*
Y1505643D1*
Y1504643D1*
Y1503643D1*
Y1502643D1*
Y1501643D1*
Y1500643D1*
Y1499643D1*
Y1498643D1*
Y1497643D1*
Y1496643D1*
Y1495643D1*
Y1494643D1*
Y1493643D1*
Y1492643D1*
Y1491643D1*
Y1490643D1*
Y1489643D1*
Y1488643D1*
Y1487643D1*
Y1486643D1*
Y1485643D1*
Y1484643D1*
Y1483643D1*
Y1482643D1*
Y1481643D1*
Y1480643D1*
Y1479643D1*
Y1478643D1*
Y1477643D1*
Y1476643D1*
Y1475643D1*
Y1474643D1*
Y1473643D1*
Y1472643D1*
Y1471643D1*
Y1470643D1*
Y1469643D1*
Y1468643D1*
Y1467643D1*
Y1466643D1*
Y1465643D1*
Y1464643D1*
Y1463643D1*
Y1462643D1*
Y1461643D1*
Y1460643D1*
Y1459643D1*
Y1458643D1*
Y1457643D1*
Y1456643D1*
Y1455643D1*
Y1454643D1*
Y1453643D1*
Y1452643D1*
Y1451643D1*
Y1450643D1*
Y1449643D1*
Y1448643D1*
Y1447643D1*
Y1446643D1*
Y1445643D1*
Y1444643D1*
Y1443643D1*
Y1442643D1*
Y1441643D1*
Y1440643D1*
Y1439643D1*
Y1438643D1*
Y1437643D1*
Y1436643D1*
Y1435643D1*
Y1434643D1*
Y1433643D1*
Y1432643D1*
Y1431643D1*
X1742112Y1430643D1*
X1742076Y1429643D1*
X1741949Y1428643D1*
X1741706Y1427643D1*
X1741414Y1426643D1*
X1741108Y1425643D1*
X1740741Y1424643D1*
X1740311Y1423643D1*
X1739840Y1422643D1*
X1739322Y1421643D1*
X1738728Y1420643D1*
X1738050Y1419643D1*
X1737311Y1418643D1*
X1736506Y1417643D1*
X1735684Y1416643D1*
X1734862Y1415643D1*
X1733954Y1414643D1*
X1732888Y1413643D1*
X1731606Y1412643D1*
X1730068Y1411643D1*
X1728248Y1410643D1*
X1726215Y1409643D1*
X1724115Y1408643D1*
X1527115Y1747643D2*
X1521940Y1746643D1*
X1517732Y1745643D1*
X1514672Y1744643D1*
X1512445Y1743643D1*
X1510748Y1742643D1*
X1509427Y1741643D1*
X1508391Y1740643D1*
X1507567Y1739643D1*
X1506836Y1738643D1*
X1506163Y1737643D1*
X1505623Y1736643D1*
X1505195Y1735643D1*
X1504775Y1734643D1*
X1504327Y1733643D1*
X1503888Y1732643D1*
X1503529Y1731643D1*
X1503309Y1730643D1*
X1503197Y1729643D1*
X1503147Y1728643D1*
X1503127Y1727643D1*
X1503120Y1726643D1*
X1503117Y1725643D1*
X1503116Y1724643D1*
Y1723643D1*
Y1722643D1*
Y1721643D1*
X1503115Y1720643D1*
Y1719643D1*
Y1718643D1*
Y1717643D1*
Y1716643D1*
Y1715643D1*
Y1714643D1*
Y1713643D1*
Y1712643D1*
Y1711643D1*
Y1710643D1*
Y1709643D1*
Y1708643D1*
Y1707643D1*
Y1706643D1*
Y1705643D1*
Y1704643D1*
Y1703643D1*
Y1702643D1*
Y1701643D1*
Y1700643D1*
Y1699643D1*
Y1698643D1*
Y1697643D1*
Y1696643D1*
Y1695643D1*
Y1694643D1*
Y1693643D1*
Y1692643D1*
Y1691643D1*
Y1690643D1*
Y1689643D1*
Y1688643D1*
Y1687643D1*
Y1686643D1*
Y1685643D1*
Y1684643D1*
Y1683643D1*
Y1682643D1*
Y1681643D1*
Y1680643D1*
Y1679643D1*
Y1678643D1*
Y1677643D1*
Y1676643D1*
Y1675643D1*
Y1674643D1*
Y1673643D1*
Y1672643D1*
Y1671643D1*
Y1670643D1*
Y1669643D1*
Y1668643D1*
Y1667643D1*
Y1666643D1*
Y1665643D1*
Y1664643D1*
Y1663643D1*
Y1662643D1*
Y1661643D1*
Y1660643D1*
Y1659643D1*
Y1658643D1*
Y1657643D1*
Y1656643D1*
Y1655643D1*
Y1654643D1*
Y1653643D1*
Y1652643D1*
Y1651643D1*
Y1650643D1*
Y1649643D1*
Y1648643D1*
Y1647643D1*
Y1646643D1*
Y1645643D1*
Y1644643D1*
Y1643643D1*
Y1642643D1*
Y1641643D1*
Y1640643D1*
Y1639643D1*
Y1638643D1*
Y1637643D1*
Y1636643D1*
Y1635643D1*
Y1634643D1*
Y1633643D1*
Y1632643D1*
Y1631643D1*
Y1630643D1*
Y1629643D1*
Y1628643D1*
Y1627643D1*
Y1626643D1*
Y1625643D1*
Y1624643D1*
Y1623643D1*
Y1622643D1*
Y1621643D1*
Y1620643D1*
Y1619643D1*
Y1618643D1*
Y1617643D1*
Y1616643D1*
Y1615643D1*
Y1614643D1*
Y1613643D1*
Y1612643D1*
Y1611643D1*
Y1610643D1*
Y1609643D1*
Y1608643D1*
Y1607643D1*
Y1606643D1*
Y1605643D1*
Y1604643D1*
Y1603643D1*
Y1602643D1*
Y1601643D1*
Y1600643D1*
Y1599643D1*
Y1598643D1*
Y1597643D1*
Y1596643D1*
Y1595643D1*
Y1594643D1*
Y1593643D1*
Y1592643D1*
Y1591643D1*
Y1590643D1*
Y1589643D1*
Y1588643D1*
Y1587643D1*
Y1586643D1*
Y1585643D1*
Y1584643D1*
Y1583643D1*
Y1582643D1*
Y1581643D1*
Y1580643D1*
Y1579643D1*
Y1578643D1*
Y1577643D1*
Y1576643D1*
Y1575643D1*
Y1574643D1*
Y1573643D1*
Y1572643D1*
Y1571643D1*
Y1570643D1*
Y1569643D1*
Y1568643D1*
Y1567643D1*
Y1566643D1*
Y1565643D1*
Y1564643D1*
Y1563643D1*
Y1562643D1*
Y1561643D1*
Y1560643D1*
Y1559643D1*
Y1558643D1*
Y1557643D1*
Y1556643D1*
Y1555643D1*
Y1554643D1*
Y1553643D1*
Y1552643D1*
Y1551643D1*
Y1550643D1*
Y1549643D1*
Y1548643D1*
Y1547643D1*
Y1546643D1*
Y1545643D1*
Y1544643D1*
Y1543643D1*
Y1542643D1*
Y1541643D1*
Y1540643D1*
Y1539643D1*
Y1538643D1*
Y1537643D1*
Y1536643D1*
Y1535643D1*
Y1534643D1*
Y1533643D1*
Y1532643D1*
Y1531643D1*
Y1530643D1*
Y1529643D1*
Y1528643D1*
Y1527643D1*
Y1526643D1*
Y1525643D1*
Y1524643D1*
Y1523643D1*
Y1522643D1*
Y1521643D1*
Y1520643D1*
Y1519643D1*
Y1518643D1*
Y1517643D1*
Y1516643D1*
Y1515643D1*
Y1514643D1*
Y1513643D1*
Y1512643D1*
Y1511643D1*
Y1510643D1*
Y1509643D1*
Y1508643D1*
Y1507643D1*
Y1506643D1*
Y1505643D1*
Y1504643D1*
Y1503643D1*
Y1502643D1*
Y1501643D1*
Y1500643D1*
Y1499643D1*
Y1498643D1*
Y1497643D1*
Y1496643D1*
Y1495643D1*
Y1494643D1*
Y1493643D1*
Y1492643D1*
Y1491643D1*
Y1490643D1*
Y1489643D1*
Y1488643D1*
Y1487643D1*
Y1486643D1*
Y1485643D1*
Y1484643D1*
Y1483643D1*
Y1482643D1*
Y1481643D1*
Y1480643D1*
Y1479643D1*
Y1478643D1*
Y1477643D1*
Y1476643D1*
Y1475643D1*
Y1474643D1*
Y1473643D1*
Y1472643D1*
Y1471643D1*
Y1470643D1*
Y1469643D1*
Y1468643D1*
Y1467643D1*
Y1466643D1*
Y1465643D1*
Y1464643D1*
Y1463643D1*
Y1462643D1*
Y1461643D1*
Y1460643D1*
Y1459643D1*
Y1458643D1*
Y1457643D1*
Y1456643D1*
Y1455643D1*
Y1454643D1*
Y1453643D1*
Y1452643D1*
Y1451643D1*
Y1450643D1*
Y1449643D1*
Y1448643D1*
Y1447643D1*
Y1446643D1*
Y1445643D1*
Y1444643D1*
Y1443643D1*
Y1442643D1*
Y1441643D1*
Y1440643D1*
Y1439643D1*
Y1438643D1*
Y1437643D1*
Y1436643D1*
X1503119Y1435643D1*
X1503155Y1434643D1*
X1503282Y1433643D1*
X1503525Y1432643D1*
X1503817Y1431643D1*
X1504123Y1430643D1*
X1504494Y1429643D1*
X1504955Y1428643D1*
X1505518Y1427643D1*
X1506153Y1426643D1*
X1506795Y1425643D1*
X1507486Y1424643D1*
X1508295Y1423643D1*
X1509233Y1422643D1*
X1510370Y1421643D1*
X1511914Y1420643D1*
X1514234Y1419643D1*
X1517678Y1418643D1*
X1522162Y1417643D1*
X1527115Y1416643D1*
X1711115Y1747643D2*
X1716137Y1746643D1*
X1720096Y1745643D1*
X1722898Y1744643D1*
X1724950Y1743643D1*
X1726557Y1742643D1*
X1727868Y1741643D1*
X1728978Y1740643D1*
X1729911Y1739643D1*
X1730692Y1738643D1*
X1731405Y1737643D1*
X1732068Y1736643D1*
X1732574Y1735643D1*
X1732905Y1734643D1*
X1733178Y1733643D1*
X1733481Y1732643D1*
X1733767Y1731643D1*
X1733986Y1730643D1*
X1734210Y1729643D1*
X1734493Y1728643D1*
X1734767Y1727643D1*
X1734948Y1726643D1*
X1735044Y1725643D1*
X1735087Y1724643D1*
X1735105Y1723643D1*
X1735112Y1722643D1*
X1735114Y1721643D1*
X1735115Y1720643D1*
Y1719643D1*
Y1718643D1*
Y1717643D1*
Y1716643D1*
Y1715643D1*
Y1714643D1*
Y1713643D1*
Y1712643D1*
Y1711643D1*
Y1710643D1*
Y1709643D1*
Y1708643D1*
Y1707643D1*
Y1706643D1*
Y1705643D1*
Y1704643D1*
Y1703643D1*
Y1702643D1*
Y1701643D1*
Y1700643D1*
Y1699643D1*
Y1698643D1*
Y1697643D1*
Y1696643D1*
Y1695643D1*
Y1694643D1*
Y1693643D1*
Y1692643D1*
Y1691643D1*
Y1690643D1*
Y1689643D1*
Y1688643D1*
Y1687643D1*
Y1686643D1*
Y1685643D1*
Y1684643D1*
Y1683643D1*
Y1682643D1*
Y1681643D1*
Y1680643D1*
Y1679643D1*
Y1678643D1*
Y1677643D1*
Y1676643D1*
Y1675643D1*
Y1674643D1*
Y1673643D1*
Y1672643D1*
Y1671643D1*
Y1670643D1*
Y1669643D1*
Y1668643D1*
Y1667643D1*
Y1666643D1*
Y1665643D1*
Y1664643D1*
Y1663643D1*
Y1662643D1*
Y1661643D1*
Y1660643D1*
Y1659643D1*
Y1658643D1*
Y1657643D1*
Y1656643D1*
Y1655643D1*
Y1654643D1*
Y1653643D1*
Y1652643D1*
Y1651643D1*
Y1650643D1*
Y1649643D1*
Y1648643D1*
Y1647643D1*
Y1646643D1*
Y1645643D1*
Y1644643D1*
Y1643643D1*
Y1642643D1*
Y1641643D1*
Y1640643D1*
Y1639643D1*
Y1638643D1*
Y1637643D1*
Y1636643D1*
Y1635643D1*
Y1634643D1*
Y1633643D1*
Y1632643D1*
Y1631643D1*
Y1630643D1*
Y1629643D1*
Y1628643D1*
Y1627643D1*
Y1626643D1*
Y1625643D1*
Y1624643D1*
Y1623643D1*
Y1622643D1*
Y1621643D1*
Y1620643D1*
Y1619643D1*
Y1618643D1*
Y1617643D1*
Y1616643D1*
Y1615643D1*
Y1614643D1*
Y1613643D1*
Y1612643D1*
Y1611643D1*
Y1610643D1*
Y1609643D1*
Y1608643D1*
Y1607643D1*
Y1606643D1*
Y1605643D1*
Y1604643D1*
Y1603643D1*
Y1602643D1*
Y1601643D1*
Y1600643D1*
Y1599643D1*
Y1598643D1*
Y1597643D1*
Y1596643D1*
Y1595643D1*
Y1594643D1*
Y1593643D1*
Y1592643D1*
Y1591643D1*
Y1590643D1*
Y1589643D1*
Y1588643D1*
Y1587643D1*
Y1586643D1*
Y1585643D1*
Y1584643D1*
Y1583643D1*
Y1582643D1*
Y1581643D1*
Y1580643D1*
Y1579643D1*
Y1578643D1*
Y1577643D1*
Y1576643D1*
Y1575643D1*
Y1574643D1*
Y1573643D1*
Y1572643D1*
Y1571643D1*
Y1570643D1*
Y1569643D1*
Y1568643D1*
Y1567643D1*
Y1566643D1*
Y1565643D1*
Y1564643D1*
Y1563643D1*
Y1562643D1*
Y1561643D1*
Y1560643D1*
Y1559643D1*
Y1558643D1*
Y1557643D1*
Y1556643D1*
Y1555643D1*
Y1554643D1*
Y1553643D1*
Y1552643D1*
Y1551643D1*
Y1550643D1*
Y1549643D1*
Y1548643D1*
Y1547643D1*
Y1546643D1*
Y1545643D1*
Y1544643D1*
Y1543643D1*
Y1542643D1*
Y1541643D1*
Y1540643D1*
Y1539643D1*
Y1538643D1*
Y1537643D1*
Y1536643D1*
Y1535643D1*
Y1534643D1*
Y1533643D1*
Y1532643D1*
Y1531643D1*
Y1530643D1*
Y1529643D1*
Y1528643D1*
Y1527643D1*
Y1526643D1*
Y1525643D1*
Y1524643D1*
Y1523643D1*
Y1522643D1*
Y1521643D1*
Y1520643D1*
Y1519643D1*
Y1518643D1*
Y1517643D1*
Y1516643D1*
Y1515643D1*
Y1514643D1*
Y1513643D1*
Y1512643D1*
Y1511643D1*
Y1510643D1*
Y1509643D1*
Y1508643D1*
Y1507643D1*
Y1506643D1*
Y1505643D1*
Y1504643D1*
Y1503643D1*
Y1502643D1*
Y1501643D1*
Y1500643D1*
Y1499643D1*
Y1498643D1*
Y1497643D1*
Y1496643D1*
Y1495643D1*
Y1494643D1*
Y1493643D1*
Y1492643D1*
Y1491643D1*
Y1490643D1*
Y1489643D1*
Y1488643D1*
Y1487643D1*
Y1486643D1*
Y1485643D1*
Y1484643D1*
Y1483643D1*
Y1482643D1*
Y1481643D1*
Y1480643D1*
Y1479643D1*
Y1478643D1*
Y1477643D1*
Y1476643D1*
Y1475643D1*
Y1474643D1*
Y1473643D1*
Y1472643D1*
Y1471643D1*
Y1470643D1*
Y1469643D1*
Y1468643D1*
Y1467643D1*
Y1466643D1*
Y1465643D1*
Y1464643D1*
Y1463643D1*
Y1462643D1*
Y1461643D1*
Y1460643D1*
Y1459643D1*
Y1458643D1*
Y1457643D1*
Y1456643D1*
Y1455643D1*
Y1454643D1*
Y1453643D1*
Y1452643D1*
Y1451643D1*
Y1450643D1*
Y1449643D1*
Y1448643D1*
Y1447643D1*
Y1446643D1*
Y1445643D1*
Y1444643D1*
Y1443643D1*
Y1442643D1*
Y1441643D1*
Y1440643D1*
X1735112Y1439643D1*
X1735076Y1438643D1*
X1734949Y1437643D1*
X1734709Y1436643D1*
X1734449Y1435643D1*
X1734240Y1434643D1*
X1734019Y1433643D1*
X1733738Y1432643D1*
X1733460Y1431643D1*
X1733239Y1430643D1*
X1732982Y1429643D1*
X1732568Y1428643D1*
X1732015Y1427643D1*
X1731415Y1426643D1*
X1730770Y1425643D1*
X1730064Y1424643D1*
X1729275Y1423643D1*
X1728303Y1422643D1*
X1727093Y1421643D1*
X1725583Y1420643D1*
X1723448Y1419643D1*
X1720236Y1418643D1*
X1715930Y1417643D1*
X1711115Y1416643D1*
X1580115Y1722643D2*
X1577936Y1721643D1*
X1575960Y1720643D1*
X1574324Y1719643D1*
X1573050Y1718643D1*
X1572053Y1717643D1*
X1571220Y1716643D1*
X1570528Y1715643D1*
X1569934Y1714643D1*
X1569396Y1713643D1*
X1568915Y1712643D1*
X1568539Y1711643D1*
X1568312Y1710643D1*
X1568198Y1709643D1*
X1568148Y1708643D1*
X1568127Y1707643D1*
X1568120Y1706643D1*
X1568117Y1705643D1*
X1568116Y1704643D1*
Y1703643D1*
X1568119Y1702643D1*
X1568155Y1701643D1*
X1568286Y1700643D1*
X1568561Y1699643D1*
X1568944Y1698643D1*
X1569362Y1697643D1*
X1569750Y1696643D1*
X1570134Y1695643D1*
X1570650Y1694643D1*
X1571365Y1693643D1*
X1572261Y1692643D1*
X1573369Y1691643D1*
X1574788Y1690643D1*
X1576594Y1689643D1*
X1578761Y1688643D1*
X1581115Y1687643D1*
X1585115Y1722643D2*
X1587419Y1721643D1*
X1589415Y1720643D1*
X1591100Y1719643D1*
X1592452Y1718643D1*
X1593448Y1717643D1*
X1594191Y1716643D1*
X1594794Y1715643D1*
X1595305Y1714643D1*
X1595726Y1713643D1*
X1596084Y1712643D1*
X1596438Y1711643D1*
X1596749Y1710643D1*
X1596979Y1709643D1*
X1597207Y1708643D1*
X1597488Y1707643D1*
X1597728Y1706643D1*
X1597782Y1705643D1*
X1597638Y1704643D1*
X1597425Y1703643D1*
X1597264Y1702643D1*
X1597143Y1701643D1*
X1596976Y1700643D1*
X1596716Y1699643D1*
X1596418Y1698643D1*
X1596110Y1697643D1*
X1595737Y1696643D1*
X1595272Y1695643D1*
X1594674Y1694643D1*
X1593908Y1693643D1*
X1592991Y1692643D1*
X1591904Y1691643D1*
X1590571Y1690643D1*
X1588856Y1689643D1*
X1586644Y1688643D1*
X1584115Y1687643D1*
X1581115Y1716643D2*
X1579316Y1715643D1*
X1577766Y1714643D1*
X1576563Y1713643D1*
X1575679Y1712643D1*
X1575031Y1711643D1*
X1574584Y1710643D1*
X1574329Y1709643D1*
X1574204Y1708643D1*
X1574150Y1707643D1*
X1574128Y1706643D1*
X1574120Y1705643D1*
X1574117Y1704643D1*
X1574116Y1703643D1*
X1574120Y1702643D1*
X1574159Y1701643D1*
X1574321Y1700643D1*
X1574692Y1699643D1*
X1575231Y1698643D1*
X1575866Y1697643D1*
X1576691Y1696643D1*
X1577815Y1695643D1*
X1579115Y1694643D1*
X1584115Y1716643D2*
X1585915Y1715643D1*
X1587465Y1714643D1*
X1588668Y1713643D1*
X1589552Y1712643D1*
X1590203Y1711643D1*
X1590686Y1710643D1*
X1591069Y1709643D1*
X1591433Y1708643D1*
X1591744Y1707643D1*
X1591940Y1706643D1*
X1592037Y1705643D1*
X1592047Y1704643D1*
X1591934Y1703643D1*
X1591667Y1702643D1*
X1591285Y1701643D1*
X1590868Y1700643D1*
X1590480Y1699643D1*
X1590093Y1698643D1*
X1589539Y1697643D1*
X1588674Y1696643D1*
X1587482Y1695643D1*
X1586115Y1694643D1*
X1602115Y1713643D2*
Y1712643D1*
Y1711643D1*
Y1710643D1*
Y1709643D1*
Y1708643D1*
Y1707643D1*
Y1706643D1*
Y1705643D1*
Y1704643D1*
Y1703643D1*
Y1702643D1*
Y1701643D1*
Y1700643D1*
Y1699643D1*
Y1698643D1*
Y1697643D1*
Y1696643D1*
Y1695643D1*
Y1694643D1*
Y1693643D1*
Y1692643D1*
Y1691643D1*
Y1690643D1*
Y1689643D1*
Y1688643D1*
Y1687643D1*
Y1686643D1*
Y1685643D1*
Y1684643D1*
Y1683643D1*
Y1682643D1*
Y1681643D1*
Y1680643D1*
Y1679643D1*
X1607115Y1713643D2*
Y1712643D1*
X1611115Y1713643D2*
X1610115Y1712643D1*
X1617115Y1713643D2*
X1618303Y1712643D1*
X1619349Y1711643D1*
X1620240Y1710643D1*
X1621000Y1709643D1*
X1621581Y1708643D1*
X1622021Y1707643D1*
X1622413Y1706643D1*
X1622736Y1705643D1*
X1622937Y1704643D1*
X1623040Y1703643D1*
X1623086Y1702643D1*
X1623104Y1701643D1*
X1623112Y1700643D1*
X1623110Y1699643D1*
X1623076Y1698643D1*
X1622949Y1697643D1*
X1622709Y1696643D1*
X1622445Y1695643D1*
X1622201Y1694643D1*
X1621845Y1693643D1*
X1621249Y1692643D1*
X1620421Y1691643D1*
X1619382Y1690643D1*
X1618119Y1689643D1*
X1616669Y1688643D1*
X1615115Y1687643D1*
X1634115Y1713643D2*
X1632467Y1712643D1*
X1631134Y1711643D1*
X1630093Y1710643D1*
X1629237Y1709643D1*
X1628538Y1708643D1*
X1627975Y1707643D1*
X1627559Y1706643D1*
X1627282Y1705643D1*
X1627035Y1704643D1*
X1626743Y1703643D1*
X1626465Y1702643D1*
X1626287Y1701643D1*
X1626226Y1700643D1*
X1626311Y1699643D1*
X1626532Y1698643D1*
X1626786Y1697643D1*
X1626993Y1696643D1*
X1627216Y1695643D1*
X1627537Y1694643D1*
X1627981Y1693643D1*
X1628603Y1692643D1*
X1629492Y1691643D1*
X1630650Y1690643D1*
X1632011Y1689643D1*
X1633520Y1688643D1*
X1635115Y1687643D1*
X1640115Y1713643D2*
X1641764Y1712643D1*
X1643097Y1711643D1*
X1644138Y1710643D1*
X1644994Y1709643D1*
X1645693Y1708643D1*
X1646256Y1707643D1*
X1646672Y1706643D1*
X1646949Y1705643D1*
X1647196Y1704643D1*
X1647488Y1703643D1*
X1647766Y1702643D1*
X1647949Y1701643D1*
X1648050Y1700643D1*
X1648115Y1699643D1*
X1652115Y1713643D2*
Y1712643D1*
Y1711643D1*
Y1710643D1*
Y1709643D1*
Y1708643D1*
Y1707643D1*
Y1706643D1*
Y1705643D1*
Y1704643D1*
Y1703643D1*
Y1702643D1*
Y1701643D1*
Y1700643D1*
Y1699643D1*
Y1698643D1*
Y1697643D1*
Y1696643D1*
Y1695643D1*
Y1694643D1*
Y1693643D1*
Y1692643D1*
Y1691643D1*
Y1690643D1*
Y1689643D1*
X1657115Y1713643D2*
Y1712643D1*
Y1711643D1*
X1662115Y1713643D2*
X1660584Y1712643D1*
X1659115Y1711643D1*
X1668115Y1713643D2*
X1669077Y1712643D1*
X1669945Y1711643D1*
X1670667Y1710643D1*
X1671244Y1709643D1*
X1671663Y1708643D1*
X1671908Y1707643D1*
X1672029Y1706643D1*
X1672082Y1705643D1*
X1672103Y1704643D1*
X1672111Y1703643D1*
X1672114Y1702643D1*
X1672115Y1701643D1*
Y1700643D1*
Y1699643D1*
Y1698643D1*
Y1697643D1*
Y1696643D1*
Y1695643D1*
Y1694643D1*
Y1693643D1*
Y1692643D1*
Y1691643D1*
Y1690643D1*
Y1689643D1*
X1638115Y1709643D2*
X1636316Y1708643D1*
X1634770Y1707643D1*
X1633601Y1706643D1*
X1632713Y1705643D1*
X1632376Y1704643D1*
X1632115Y1703643D1*
X1636115Y1709643D2*
X1637915Y1708643D1*
X1639461Y1707643D1*
X1640629Y1706643D1*
X1641518Y1705643D1*
X1641855Y1704643D1*
X1642115Y1703643D1*
X1611115Y1708643D2*
X1610154Y1707643D1*
X1609286Y1706643D1*
X1608564Y1705643D1*
X1607987Y1704643D1*
X1607568Y1703643D1*
X1607323Y1702643D1*
X1607206Y1701643D1*
X1607188Y1700643D1*
X1607294Y1699643D1*
X1607530Y1698643D1*
X1607822Y1697643D1*
X1608162Y1696643D1*
X1608657Y1695643D1*
X1609341Y1694643D1*
X1610115Y1693643D1*
X1616115Y1708643D2*
X1616274Y1707643D1*
X1616557Y1706643D1*
X1616943Y1705643D1*
X1617358Y1704643D1*
X1617707Y1703643D1*
X1617924Y1702643D1*
X1618035Y1701643D1*
X1618080Y1700643D1*
X1618065Y1699643D1*
X1617941Y1698643D1*
X1617661Y1697643D1*
X1617201Y1696643D1*
X1616470Y1695643D1*
X1615390Y1694643D1*
X1614115Y1693643D1*
X1660115Y1708643D2*
X1659308Y1707643D1*
X1658688Y1706643D1*
X1658226Y1705643D1*
X1657824Y1704643D1*
X1657497Y1703643D1*
X1657295Y1702643D1*
X1657192Y1701643D1*
X1657145Y1700643D1*
X1657127Y1699643D1*
X1657119Y1698643D1*
X1657117Y1697643D1*
X1657116Y1696643D1*
Y1695643D1*
Y1694643D1*
Y1693643D1*
X1657115Y1692643D1*
Y1691643D1*
Y1690643D1*
Y1689643D1*
X1666115Y1708643D2*
Y1707643D1*
Y1706643D1*
Y1705643D1*
Y1704643D1*
Y1703643D1*
Y1702643D1*
Y1701643D1*
Y1700643D1*
Y1699643D1*
Y1698643D1*
Y1697643D1*
Y1696643D1*
Y1695643D1*
Y1694643D1*
Y1693643D1*
Y1692643D1*
Y1691643D1*
Y1690643D1*
Y1689643D1*
X1632115Y1699643D2*
X1632119Y1698643D1*
X1632158Y1697643D1*
X1632325Y1696643D1*
X1632727Y1695643D1*
X1633367Y1694643D1*
X1634115Y1693643D1*
X1642115Y1695643D2*
X1641115Y1694643D1*
X1640115Y1693643D1*
X1647115Y1695643D2*
X1646732Y1694643D1*
X1646263Y1693643D1*
X1645632Y1692643D1*
X1644736Y1691643D1*
X1643539Y1690643D1*
X1642024Y1689643D1*
X1640172Y1688643D1*
X1638115Y1687643D1*
X1607115Y1690643D2*
Y1689643D1*
Y1688643D1*
Y1687643D1*
Y1686643D1*
Y1685643D1*
Y1684643D1*
Y1683643D1*
Y1682643D1*
Y1681643D1*
Y1680643D1*
Y1679643D1*
X1610115Y1690643D2*
X1610373Y1689643D1*
X1611157Y1688643D1*
X1612115Y1687643D1*
X1597115Y1665643D2*
X1593614Y1664643D1*
X1590629Y1663643D1*
X1588142Y1662643D1*
X1585934Y1661643D1*
X1583794Y1660643D1*
X1581705Y1659643D1*
X1579697Y1658643D1*
X1577847Y1657643D1*
X1576316Y1656643D1*
X1575064Y1655643D1*
X1574579Y1654643D1*
X1574314Y1653643D1*
X1574194Y1652643D1*
X1574144Y1651643D1*
X1574126Y1650643D1*
X1574119Y1649643D1*
X1574121Y1648643D1*
X1574155Y1647643D1*
X1574282Y1646643D1*
X1574522Y1645643D1*
X1574778Y1644643D1*
X1574952Y1643643D1*
X1575045Y1642643D1*
X1575087Y1641643D1*
X1575105Y1640643D1*
X1575112Y1639643D1*
X1575114Y1638643D1*
X1575115Y1637643D1*
Y1636643D1*
X1575112Y1635643D1*
X1575073Y1634643D1*
X1574902Y1633643D1*
X1574578Y1632643D1*
X1573700Y1631643D1*
X1572602Y1630643D1*
X1571415Y1629643D1*
X1570302Y1628643D1*
X1569347Y1627643D1*
X1568548Y1626643D1*
X1567788Y1625643D1*
X1566957Y1624643D1*
X1566052Y1623643D1*
X1565115Y1622643D1*
X1598115Y1665643D2*
X1599352Y1664643D1*
X1600461Y1663643D1*
X1601432Y1662643D1*
X1602286Y1661643D1*
X1603090Y1660643D1*
X1603889Y1659643D1*
X1604747Y1658643D1*
X1605670Y1657643D1*
X1606603Y1656643D1*
X1607494Y1655643D1*
X1608343Y1654643D1*
X1609230Y1653643D1*
X1610166Y1652643D1*
X1611136Y1651643D1*
X1612123Y1650643D1*
X1613115Y1649643D1*
X1641115Y1665643D2*
X1640115Y1664643D1*
X1639115Y1663643D1*
X1638119Y1662643D1*
X1637155Y1661643D1*
X1636282Y1660643D1*
X1635521Y1659643D1*
X1634778Y1658643D1*
X1633952Y1657643D1*
X1633045Y1656643D1*
X1632091Y1655643D1*
X1631144Y1654643D1*
X1630278Y1653643D1*
X1629520Y1652643D1*
X1628780Y1651643D1*
X1627970Y1650643D1*
X1627115Y1649643D1*
X1643115Y1665643D2*
X1646193Y1664643D1*
X1649016Y1663643D1*
X1651565Y1662643D1*
X1653869Y1661643D1*
X1656014Y1660643D1*
X1658073Y1659643D1*
X1660054Y1658643D1*
X1661858Y1657643D1*
X1663289Y1656643D1*
X1664384Y1655643D1*
X1664763Y1654643D1*
X1664967Y1653643D1*
X1665058Y1652643D1*
X1665094Y1651643D1*
X1665108Y1650643D1*
X1665113Y1649643D1*
X1665115Y1648643D1*
Y1647643D1*
X1665111Y1646643D1*
X1665076Y1645643D1*
X1664949Y1644643D1*
X1664709Y1643643D1*
X1664453Y1642643D1*
X1664279Y1641643D1*
X1664186Y1640643D1*
X1664144Y1639643D1*
X1664126Y1638643D1*
X1664119Y1637643D1*
X1664121Y1636643D1*
X1664159Y1635643D1*
X1664325Y1634643D1*
X1664731Y1633643D1*
X1665393Y1632643D1*
X1666230Y1631643D1*
X1667160Y1630643D1*
X1668132Y1629643D1*
X1669121Y1628643D1*
X1670117Y1627643D1*
X1671116Y1626643D1*
X1672116Y1625643D1*
X1673116Y1624643D1*
X1674116Y1623643D1*
X1675115Y1622643D1*
X1596115Y1655643D2*
X1594115Y1654643D1*
X1592115Y1653643D1*
X1590123Y1652643D1*
X1588201Y1651643D1*
X1586534Y1650643D1*
X1585158Y1649643D1*
X1584624Y1648643D1*
X1584333Y1647643D1*
X1584201Y1646643D1*
X1584147Y1645643D1*
X1584127Y1644643D1*
X1584119Y1643643D1*
X1584117Y1642643D1*
X1584116Y1641643D1*
Y1640643D1*
Y1639643D1*
X1584115Y1638643D1*
Y1637643D1*
Y1636643D1*
Y1635643D1*
Y1634643D1*
Y1633643D1*
Y1632643D1*
Y1631643D1*
X1584108Y1630643D1*
X1584033Y1629643D1*
X1583858Y1628643D1*
X1583124Y1627643D1*
X1582183Y1626643D1*
X1581166Y1625643D1*
X1580142Y1624643D1*
X1579127Y1623643D1*
X1578120Y1622643D1*
X1577121Y1621643D1*
X1576151Y1620643D1*
X1575247Y1619643D1*
X1574394Y1618643D1*
X1573538Y1617643D1*
X1572696Y1616643D1*
X1571871Y1615643D1*
X1570995Y1614643D1*
X1570067Y1613643D1*
X1569115Y1612643D1*
X1596115Y1655643D2*
X1596312Y1654643D1*
X1596727Y1653643D1*
X1597392Y1652643D1*
X1598230Y1651643D1*
X1599156Y1650643D1*
X1600093Y1649643D1*
X1600955Y1648643D1*
X1601711Y1647643D1*
X1602454Y1646643D1*
X1603279Y1645643D1*
X1604186Y1644643D1*
X1605144Y1643643D1*
X1606126Y1642643D1*
X1607119Y1641643D1*
X1608117Y1640643D1*
X1609116Y1639643D1*
X1610115Y1638643D1*
X1645115Y1655643D2*
X1644115Y1654643D1*
X1643115Y1653643D1*
X1642115Y1652643D1*
X1641115Y1651643D1*
X1640119Y1650643D1*
X1639155Y1649643D1*
X1638282Y1648643D1*
X1637521Y1647643D1*
X1636778Y1646643D1*
X1635952Y1645643D1*
X1635045Y1644643D1*
X1634087Y1643643D1*
X1633105Y1642643D1*
X1632112Y1641643D1*
X1631114Y1640643D1*
X1630115Y1639643D1*
X1644115Y1655643D2*
X1645999Y1654643D1*
X1647879Y1653643D1*
X1649852Y1652643D1*
X1651855Y1651643D1*
X1653604Y1650643D1*
X1655040Y1649643D1*
X1655592Y1648643D1*
X1655892Y1647643D1*
X1656028Y1646643D1*
X1656083Y1645643D1*
X1656104Y1644643D1*
X1656112Y1643643D1*
X1656114Y1642643D1*
X1656115Y1641643D1*
Y1640643D1*
Y1639643D1*
Y1638643D1*
Y1637643D1*
Y1636643D1*
X1656112Y1635643D1*
X1656076Y1634643D1*
X1655949Y1633643D1*
X1655709Y1632643D1*
X1655457Y1631643D1*
X1655326Y1630643D1*
X1655318Y1629643D1*
X1655858Y1628643D1*
X1656640Y1627643D1*
X1657528Y1626643D1*
X1658501Y1625643D1*
X1659631Y1624643D1*
X1660826Y1623643D1*
X1661972Y1622643D1*
X1663049Y1621643D1*
X1664051Y1620643D1*
X1664939Y1619643D1*
X1665706Y1618643D1*
X1666452Y1617643D1*
X1667278Y1616643D1*
X1668186Y1615643D1*
X1669142Y1614643D1*
X1670115Y1613643D1*
X1618115Y1640643D2*
X1614115Y1639643D1*
X1610115Y1638643D1*
X1624115Y1640643D2*
X1625115Y1639643D1*
X1544115Y1623643D2*
X1543461Y1622643D1*
X1542798Y1621643D1*
X1542150Y1620643D1*
X1541615Y1619643D1*
X1541159Y1618643D1*
X1540647Y1617643D1*
X1540087Y1616643D1*
X1539627Y1615643D1*
X1539311Y1614643D1*
X1539010Y1613643D1*
X1538582Y1612643D1*
X1538062Y1611643D1*
X1537617Y1610643D1*
X1537312Y1609643D1*
X1537044Y1608643D1*
X1536709Y1607643D1*
X1536301Y1606643D1*
X1535878Y1605643D1*
X1535525Y1604643D1*
X1535303Y1603643D1*
X1535158Y1602643D1*
X1534981Y1601643D1*
X1534725Y1600643D1*
X1534500Y1599643D1*
X1534385Y1598643D1*
X1534776Y1597643D1*
X1535415Y1596643D1*
X1536243Y1595643D1*
X1537198Y1594643D1*
X1538260Y1593643D1*
X1539361Y1592643D1*
X1540374Y1591643D1*
X1541291Y1590643D1*
X1542208Y1589643D1*
X1543162Y1588643D1*
X1544172Y1587643D1*
X1545285Y1586643D1*
X1546481Y1585643D1*
X1547569Y1584643D1*
X1548462Y1583643D1*
X1548798Y1582643D1*
X1548981Y1581643D1*
X1549063Y1580643D1*
X1549096Y1579643D1*
X1549109Y1578643D1*
X1549113Y1577643D1*
X1549115Y1576643D1*
Y1575643D1*
Y1574643D1*
Y1573643D1*
Y1572643D1*
Y1571643D1*
X1549108Y1570643D1*
X1549037Y1569643D1*
X1548873Y1568643D1*
X1548250Y1567643D1*
X1547460Y1566643D1*
X1546588Y1565643D1*
X1545719Y1564643D1*
X1544844Y1563643D1*
X1543833Y1562643D1*
X1542658Y1561643D1*
X1541432Y1560643D1*
X1540275Y1559643D1*
X1539218Y1558643D1*
X1538274Y1557643D1*
X1537404Y1556643D1*
X1536546Y1555643D1*
X1535744Y1554643D1*
X1535120Y1553643D1*
X1534658Y1552643D1*
X1534717Y1551643D1*
X1534864Y1550643D1*
X1534991Y1549643D1*
X1535097Y1548643D1*
X1535262Y1547643D1*
X1535552Y1546643D1*
X1535941Y1545643D1*
X1536357Y1544643D1*
X1536711Y1543643D1*
X1536967Y1542643D1*
X1537240Y1541643D1*
X1537656Y1540643D1*
X1538176Y1539643D1*
X1538650Y1538643D1*
X1539051Y1537643D1*
X1539462Y1536643D1*
X1539906Y1535643D1*
X1540348Y1534643D1*
X1540745Y1533643D1*
X1541128Y1532643D1*
X1541610Y1531643D1*
X1542194Y1530643D1*
X1542803Y1529643D1*
X1543440Y1528643D1*
X1544115Y1527643D1*
X1687115Y1623643D2*
Y1622643D1*
X1696115Y1623643D2*
X1696736Y1622643D1*
X1697306Y1621643D1*
X1697838Y1620643D1*
X1698321Y1619643D1*
X1698735Y1618643D1*
X1699124Y1617643D1*
X1699605Y1616643D1*
X1700155Y1615643D1*
X1700642Y1614643D1*
X1701048Y1613643D1*
X1701461Y1612643D1*
X1701905Y1611643D1*
X1702348Y1610643D1*
X1702741Y1609643D1*
X1703089Y1608643D1*
X1703444Y1607643D1*
X1703785Y1606643D1*
X1704107Y1605643D1*
X1704447Y1604643D1*
X1704752Y1603643D1*
X1704980Y1602643D1*
X1705204Y1601643D1*
X1705453Y1600643D1*
X1705676Y1599643D1*
X1705485Y1598643D1*
X1705046Y1597643D1*
X1704357Y1596643D1*
X1703475Y1595643D1*
X1702445Y1594643D1*
X1701325Y1593643D1*
X1700223Y1592643D1*
X1699164Y1591643D1*
X1698135Y1590643D1*
X1697123Y1589643D1*
X1696114Y1588643D1*
X1695081Y1587643D1*
X1693988Y1586643D1*
X1692877Y1585643D1*
X1691866Y1584643D1*
X1690974Y1583643D1*
X1690115Y1582643D1*
X1690577Y1581643D1*
X1690864Y1580643D1*
X1691010Y1579643D1*
X1691074Y1578643D1*
X1691100Y1577643D1*
X1691110Y1576643D1*
X1691114Y1575643D1*
X1691115Y1574643D1*
Y1573643D1*
Y1572643D1*
Y1571643D1*
X1691123Y1570643D1*
X1691194Y1569643D1*
X1691358Y1568643D1*
X1691985Y1567643D1*
X1692810Y1566643D1*
X1693809Y1565643D1*
X1694914Y1564643D1*
X1696011Y1563643D1*
X1697068Y1562643D1*
X1698100Y1561643D1*
X1699143Y1560643D1*
X1700240Y1559643D1*
X1701354Y1558643D1*
X1702372Y1557643D1*
X1703286Y1556643D1*
X1704161Y1555643D1*
X1704909Y1554643D1*
X1705485Y1553643D1*
X1705472Y1552643D1*
X1705349Y1551643D1*
X1705233Y1550643D1*
X1705132Y1549643D1*
X1704968Y1548643D1*
X1704679Y1547643D1*
X1704290Y1546643D1*
X1703874Y1545643D1*
X1703520Y1544643D1*
X1703268Y1543643D1*
X1703026Y1542643D1*
X1702702Y1541643D1*
X1702298Y1540643D1*
X1701873Y1539643D1*
X1701482Y1538643D1*
X1701102Y1537643D1*
X1700624Y1536643D1*
X1700075Y1535643D1*
X1699585Y1534643D1*
X1699148Y1533643D1*
X1698643Y1532643D1*
X1698086Y1531643D1*
X1697627Y1530643D1*
X1697330Y1529643D1*
X1697115Y1528643D1*
X1611115Y1617643D2*
X1608091Y1616643D1*
X1605367Y1615643D1*
X1603024Y1614643D1*
X1601057Y1613643D1*
X1599428Y1612643D1*
X1598021Y1611643D1*
X1596764Y1610643D1*
X1595561Y1609643D1*
X1594370Y1608643D1*
X1593239Y1607643D1*
X1592169Y1606643D1*
X1591141Y1605643D1*
X1590163Y1604643D1*
X1589285Y1603643D1*
X1588526Y1602643D1*
X1587817Y1601643D1*
X1587119Y1600643D1*
X1586455Y1599643D1*
X1585793Y1598643D1*
X1585147Y1597643D1*
X1584614Y1596643D1*
X1584158Y1595643D1*
X1583647Y1594643D1*
X1583087Y1593643D1*
X1582631Y1592643D1*
X1582350Y1591643D1*
X1582177Y1590643D1*
X1581984Y1589643D1*
X1581685Y1588643D1*
X1581292Y1587643D1*
X1580874Y1586643D1*
X1580524Y1585643D1*
X1580307Y1584643D1*
X1580197Y1583643D1*
X1580147Y1582643D1*
X1580127Y1581643D1*
X1580120Y1580643D1*
X1580117Y1579643D1*
X1580116Y1578643D1*
Y1577643D1*
Y1576643D1*
Y1575643D1*
X1580115Y1574643D1*
Y1573643D1*
Y1572643D1*
Y1571643D1*
Y1570643D1*
Y1569643D1*
X1580119Y1568643D1*
X1580155Y1567643D1*
X1580286Y1566643D1*
X1580561Y1565643D1*
X1580944Y1564643D1*
X1581358Y1563643D1*
X1581711Y1562643D1*
X1581963Y1561643D1*
X1582205Y1560643D1*
X1582529Y1559643D1*
X1582933Y1558643D1*
X1583358Y1557643D1*
X1583749Y1556643D1*
X1584129Y1555643D1*
X1584611Y1554643D1*
X1585195Y1553643D1*
X1585808Y1552643D1*
X1586454Y1551643D1*
X1587127Y1550643D1*
X1587785Y1549643D1*
X1588483Y1548643D1*
X1589290Y1547643D1*
X1590190Y1546643D1*
X1591149Y1545643D1*
X1592162Y1544643D1*
X1593251Y1543643D1*
X1594399Y1542643D1*
X1595578Y1541643D1*
X1596863Y1540643D1*
X1598288Y1539643D1*
X1599721Y1538643D1*
X1601115Y1537643D1*
X1600616Y1536643D1*
X1600197Y1535643D1*
X1599776Y1534643D1*
X1599328Y1533643D1*
X1598884Y1532643D1*
X1598490Y1531643D1*
X1598138Y1530643D1*
X1597752Y1529643D1*
X1597319Y1528643D1*
X1596881Y1527643D1*
X1596489Y1526643D1*
X1596138Y1525643D1*
X1595752Y1524643D1*
X1595319Y1523643D1*
X1594885Y1522643D1*
X1594524Y1521643D1*
X1594269Y1520643D1*
X1594027Y1519643D1*
X1593702Y1518643D1*
X1593298Y1517643D1*
X1592873Y1516643D1*
X1592486Y1515643D1*
X1592137Y1514643D1*
X1591752Y1513643D1*
X1591318Y1512643D1*
X1590881Y1511643D1*
X1590489Y1510643D1*
X1590138Y1509643D1*
X1589752Y1508643D1*
X1589319Y1507643D1*
X1588885Y1506643D1*
X1588524Y1505643D1*
X1588266Y1504643D1*
X1588000Y1503643D1*
X1587607Y1502643D1*
X1587115Y1501643D1*
X1629115Y1617643D2*
X1631915Y1616643D1*
X1634465Y1615643D1*
X1636672Y1614643D1*
X1638587Y1613643D1*
X1640331Y1612643D1*
X1641926Y1611643D1*
X1643325Y1610643D1*
X1644607Y1609643D1*
X1645836Y1608643D1*
X1646982Y1607643D1*
X1648054Y1606643D1*
X1649054Y1605643D1*
X1649940Y1604643D1*
X1650706Y1603643D1*
X1651448Y1602643D1*
X1652235Y1601643D1*
X1652980Y1600643D1*
X1653571Y1599643D1*
X1654054Y1598643D1*
X1654577Y1597643D1*
X1655145Y1596643D1*
X1655642Y1595643D1*
X1656082Y1594643D1*
X1656588Y1593643D1*
X1657145Y1592643D1*
X1657604Y1591643D1*
X1657916Y1590643D1*
X1658182Y1589643D1*
X1658486Y1588643D1*
X1658803Y1587643D1*
X1659114Y1586643D1*
X1659449Y1585643D1*
X1659749Y1584643D1*
X1659942Y1583643D1*
X1660041Y1582643D1*
X1660086Y1581643D1*
X1660105Y1580643D1*
X1660112Y1579643D1*
X1660114Y1578643D1*
X1660115Y1577643D1*
Y1576643D1*
Y1575643D1*
Y1574643D1*
Y1573643D1*
Y1572643D1*
Y1571643D1*
Y1570643D1*
X1660112Y1569643D1*
X1660076Y1568643D1*
X1659945Y1567643D1*
X1659670Y1566643D1*
X1659287Y1565643D1*
X1658873Y1564643D1*
X1658524Y1563643D1*
X1658303Y1562643D1*
X1658153Y1561643D1*
X1657942Y1560643D1*
X1657555Y1559643D1*
X1657047Y1558643D1*
X1656575Y1557643D1*
X1656144Y1556643D1*
X1655638Y1555643D1*
X1655047Y1554643D1*
X1654460Y1553643D1*
X1653905Y1552643D1*
X1653344Y1551643D1*
X1652706Y1550643D1*
X1651962Y1549643D1*
X1651200Y1548643D1*
X1650490Y1547643D1*
X1649762Y1546643D1*
X1648909Y1545643D1*
X1647881Y1544643D1*
X1646716Y1543643D1*
X1645566Y1542643D1*
X1644475Y1541643D1*
X1643274Y1540643D1*
X1641900Y1539643D1*
X1640493Y1538643D1*
X1639115Y1537643D1*
X1639615Y1536643D1*
X1640034Y1535643D1*
X1640455Y1534643D1*
X1640903Y1533643D1*
X1641347Y1532643D1*
X1641741Y1531643D1*
X1642093Y1530643D1*
X1642479Y1529643D1*
X1642912Y1528643D1*
X1643350Y1527643D1*
X1643742Y1526643D1*
X1644093Y1525643D1*
X1644479Y1524643D1*
X1644912Y1523643D1*
X1645346Y1522643D1*
X1645707Y1521643D1*
X1645966Y1520643D1*
X1646240Y1519643D1*
X1646656Y1518643D1*
X1647172Y1517643D1*
X1647614Y1516643D1*
X1647919Y1515643D1*
X1648187Y1514643D1*
X1648522Y1513643D1*
X1648930Y1512643D1*
X1649357Y1511643D1*
X1649745Y1510643D1*
X1650094Y1509643D1*
X1650479Y1508643D1*
X1650913Y1507643D1*
X1651350Y1506643D1*
X1651742Y1505643D1*
X1652090Y1504643D1*
X1652449Y1503643D1*
X1652798Y1502643D1*
X1653115Y1501643D1*
X1548115Y1613643D2*
X1547961Y1612643D1*
X1547709Y1611643D1*
X1547415Y1610643D1*
X1547109Y1609643D1*
X1546741Y1608643D1*
X1546315Y1607643D1*
X1545883Y1606643D1*
X1545523Y1605643D1*
X1545266Y1604643D1*
X1545000Y1603643D1*
X1544607Y1602643D1*
X1544115Y1601643D1*
X1545081Y1600643D1*
X1545984Y1599643D1*
X1546841Y1598643D1*
X1547732Y1597643D1*
X1548702Y1596643D1*
X1549766Y1595643D1*
X1550899Y1594643D1*
X1552005Y1593643D1*
X1553066Y1592643D1*
X1554099Y1591643D1*
X1555143Y1590643D1*
X1556236Y1589643D1*
X1557311Y1588643D1*
X1558162Y1587643D1*
X1558774Y1586643D1*
X1558955Y1585643D1*
X1559049Y1584643D1*
X1559086Y1583643D1*
X1559067Y1582643D1*
X1558946Y1581643D1*
X1558708Y1580643D1*
X1558453Y1579643D1*
X1558279Y1578643D1*
X1558186Y1577643D1*
X1558144Y1576643D1*
X1558126Y1575643D1*
X1558119Y1574643D1*
X1558121Y1573643D1*
X1558155Y1572643D1*
X1558282Y1571643D1*
X1558522Y1570643D1*
X1558778Y1569643D1*
X1558952Y1568643D1*
X1559041Y1567643D1*
X1559048Y1566643D1*
X1558935Y1565643D1*
X1558659Y1564643D1*
X1558207Y1563643D1*
X1557531Y1562643D1*
X1556629Y1561643D1*
X1555606Y1560643D1*
X1554501Y1559643D1*
X1553348Y1558643D1*
X1552232Y1557643D1*
X1551167Y1556643D1*
X1550136Y1555643D1*
X1549123Y1554643D1*
X1548118Y1553643D1*
X1547116Y1552643D1*
X1546116Y1551643D1*
X1545116Y1550643D1*
X1544115Y1549643D1*
X1544581Y1548643D1*
X1544907Y1547643D1*
X1545215Y1546643D1*
X1545647Y1545643D1*
X1546169Y1544643D1*
X1546613Y1543643D1*
X1546923Y1542643D1*
X1547226Y1541643D1*
X1547689Y1540643D1*
X1548353Y1539643D1*
X1549115Y1538643D1*
X1565115Y1613643D2*
X1566115Y1612643D1*
X1690115Y1613643D2*
X1690957Y1612643D1*
X1691670Y1611643D1*
X1692249Y1610643D1*
X1692706Y1609643D1*
X1693114Y1608643D1*
X1693601Y1607643D1*
X1694150Y1606643D1*
X1694602Y1605643D1*
X1694877Y1604643D1*
X1695008Y1603643D1*
X1694998Y1602643D1*
X1694865Y1601643D1*
X1694281Y1600643D1*
X1693586Y1599643D1*
X1692823Y1598643D1*
X1691940Y1597643D1*
X1690890Y1596643D1*
X1689686Y1595643D1*
X1688448Y1594643D1*
X1687311Y1593643D1*
X1686316Y1592643D1*
X1685418Y1591643D1*
X1684510Y1590643D1*
X1683537Y1589643D1*
X1682513Y1588643D1*
X1681581Y1587643D1*
X1680852Y1586643D1*
X1680810Y1585643D1*
X1680903Y1584643D1*
X1681002Y1583643D1*
X1681063Y1582643D1*
X1681098Y1581643D1*
X1681146Y1580643D1*
X1681279Y1579643D1*
X1681520Y1578643D1*
X1681774Y1577643D1*
X1681910Y1576643D1*
X1681932Y1575643D1*
X1681572Y1574643D1*
X1681115Y1573643D1*
X1682115Y1572643D1*
X1681654Y1571643D1*
X1681367Y1570643D1*
X1681217Y1569643D1*
X1681118Y1568643D1*
X1680972Y1567643D1*
X1680797Y1566643D1*
X1680686Y1565643D1*
X1681230Y1564643D1*
X1681990Y1563643D1*
X1682853Y1562643D1*
X1683843Y1561643D1*
X1684933Y1560643D1*
X1686019Y1559643D1*
X1687072Y1558643D1*
X1688101Y1557643D1*
X1689144Y1556643D1*
X1690244Y1555643D1*
X1691389Y1554643D1*
X1692495Y1553643D1*
X1693486Y1552643D1*
X1694255Y1551643D1*
X1694717Y1550643D1*
X1694944Y1549643D1*
X1695011Y1548643D1*
X1694921Y1547643D1*
X1694662Y1546643D1*
X1694284Y1545643D1*
X1693868Y1544643D1*
X1693484Y1543643D1*
X1693136Y1542643D1*
X1692748Y1541643D1*
X1692286Y1540643D1*
X1691734Y1539643D1*
X1691115Y1538643D1*
X1614115Y1608643D2*
X1611848Y1607643D1*
X1609516Y1606643D1*
X1607369Y1605643D1*
X1605550Y1604643D1*
X1603926Y1603643D1*
X1602387Y1602643D1*
X1600910Y1601643D1*
X1599541Y1600643D1*
X1598350Y1599643D1*
X1597364Y1598643D1*
X1596558Y1597643D1*
X1595829Y1596643D1*
X1595123Y1595643D1*
X1594456Y1594643D1*
X1593793Y1593643D1*
X1593148Y1592643D1*
X1592614Y1591643D1*
X1592158Y1590643D1*
X1591647Y1589643D1*
X1591087Y1588643D1*
X1590631Y1587643D1*
X1590350Y1586643D1*
X1590177Y1585643D1*
X1589988Y1584643D1*
X1589720Y1583643D1*
X1589419Y1582643D1*
X1589114Y1581643D1*
X1588781Y1580643D1*
X1588481Y1579643D1*
X1588289Y1578643D1*
X1588190Y1577643D1*
X1588145Y1576643D1*
X1588130Y1575643D1*
X1588158Y1574643D1*
X1588283Y1573643D1*
X1588522Y1572643D1*
X1588782Y1571643D1*
X1588991Y1570643D1*
X1589212Y1569643D1*
X1589493Y1568643D1*
X1589767Y1567643D1*
X1589952Y1566643D1*
X1590087Y1565643D1*
X1590293Y1564643D1*
X1590677Y1563643D1*
X1591184Y1562643D1*
X1591656Y1561643D1*
X1592087Y1560643D1*
X1592593Y1559643D1*
X1593188Y1558643D1*
X1593806Y1557643D1*
X1594457Y1556643D1*
X1595162Y1555643D1*
X1595916Y1554643D1*
X1596761Y1553643D1*
X1597713Y1552643D1*
X1598774Y1551643D1*
X1599939Y1550643D1*
X1601180Y1549643D1*
X1602555Y1548643D1*
X1604134Y1547643D1*
X1605958Y1546643D1*
X1607897Y1545643D1*
X1609619Y1544643D1*
X1611043Y1543643D1*
X1611670Y1542643D1*
X1611836Y1541643D1*
X1611611Y1540643D1*
X1611261Y1539643D1*
X1610859Y1538643D1*
X1610481Y1537643D1*
X1610135Y1536643D1*
X1609751Y1535643D1*
X1609318Y1534643D1*
X1608884Y1533643D1*
X1608524Y1532643D1*
X1608265Y1531643D1*
X1607991Y1530643D1*
X1607575Y1529643D1*
X1607059Y1528643D1*
X1606617Y1527643D1*
X1606312Y1526643D1*
X1606044Y1525643D1*
X1605709Y1524643D1*
X1605301Y1523643D1*
X1604874Y1522643D1*
X1604486Y1521643D1*
X1604137Y1520643D1*
X1603752Y1519643D1*
X1603318Y1518643D1*
X1602881Y1517643D1*
X1602489Y1516643D1*
X1602138Y1515643D1*
X1601752Y1514643D1*
X1601319Y1513643D1*
X1600885Y1512643D1*
X1600524Y1511643D1*
X1600265Y1510643D1*
X1599991Y1509643D1*
X1599575Y1508643D1*
X1599059Y1507643D1*
X1598617Y1506643D1*
X1598312Y1505643D1*
X1598044Y1504643D1*
X1597709Y1503643D1*
X1597301Y1502643D1*
X1596874Y1501643D1*
X1596486Y1500643D1*
X1596137Y1499643D1*
X1595752Y1498643D1*
X1595318Y1497643D1*
X1594881Y1496643D1*
X1594489Y1495643D1*
X1594138Y1494643D1*
X1593752Y1493643D1*
X1593319Y1492643D1*
X1592885Y1491643D1*
X1592528Y1490643D1*
X1592307Y1489643D1*
X1592190Y1488643D1*
X1592115Y1487643D1*
X1626115Y1608643D2*
X1628232Y1607643D1*
X1630352Y1606643D1*
X1632367Y1605643D1*
X1634247Y1604643D1*
X1635999Y1603643D1*
X1637542Y1602643D1*
X1638855Y1601643D1*
X1640008Y1600643D1*
X1641074Y1599643D1*
X1642100Y1598643D1*
X1643106Y1597643D1*
X1644075Y1596643D1*
X1644948Y1595643D1*
X1645705Y1594643D1*
X1646410Y1593643D1*
X1647073Y1592643D1*
X1647610Y1591643D1*
X1648036Y1590643D1*
X1648456Y1589643D1*
X1648904Y1588643D1*
X1649343Y1587643D1*
X1649702Y1586643D1*
X1649926Y1585643D1*
X1650073Y1584643D1*
X1650250Y1583643D1*
X1650510Y1582643D1*
X1650778Y1581643D1*
X1650990Y1580643D1*
X1651211Y1579643D1*
X1651493Y1578643D1*
X1651763Y1577643D1*
X1651909Y1576643D1*
X1651877Y1575643D1*
X1651681Y1574643D1*
X1651442Y1573643D1*
X1651271Y1572643D1*
X1651146Y1571643D1*
X1650977Y1570643D1*
X1650720Y1569643D1*
X1650457Y1568643D1*
X1650276Y1567643D1*
X1650147Y1566643D1*
X1649973Y1565643D1*
X1649681Y1564643D1*
X1649286Y1563643D1*
X1648835Y1562643D1*
X1648354Y1561643D1*
X1647862Y1560643D1*
X1647364Y1559643D1*
X1646862Y1558643D1*
X1646326Y1557643D1*
X1645695Y1556643D1*
X1644920Y1555643D1*
X1644033Y1554643D1*
X1643083Y1553643D1*
X1642104Y1552643D1*
X1641107Y1551643D1*
X1640071Y1550643D1*
X1638906Y1549643D1*
X1637500Y1548643D1*
X1635838Y1547643D1*
X1634009Y1546643D1*
X1632157Y1545643D1*
X1630518Y1544643D1*
X1629156Y1543643D1*
X1628549Y1542643D1*
X1628390Y1541643D1*
X1628618Y1540643D1*
X1628969Y1539643D1*
X1629372Y1538643D1*
X1629750Y1537643D1*
X1630096Y1536643D1*
X1630480Y1535643D1*
X1630913Y1534643D1*
X1631347Y1533643D1*
X1631707Y1532643D1*
X1631966Y1531643D1*
X1632240Y1530643D1*
X1632656Y1529643D1*
X1633172Y1528643D1*
X1633614Y1527643D1*
X1633919Y1526643D1*
X1634187Y1525643D1*
X1634522Y1524643D1*
X1634930Y1523643D1*
X1635357Y1522643D1*
X1635745Y1521643D1*
X1636094Y1520643D1*
X1636479Y1519643D1*
X1636913Y1518643D1*
X1637350Y1517643D1*
X1637742Y1516643D1*
X1638093Y1515643D1*
X1638479Y1514643D1*
X1638912Y1513643D1*
X1639346Y1512643D1*
X1639707Y1511643D1*
X1639966Y1510643D1*
X1640240Y1509643D1*
X1640656Y1508643D1*
X1641172Y1507643D1*
X1641614Y1506643D1*
X1641919Y1505643D1*
X1642187Y1504643D1*
X1642522Y1503643D1*
X1642930Y1502643D1*
X1643357Y1501643D1*
X1643745Y1500643D1*
X1644094Y1499643D1*
X1644479Y1498643D1*
X1644913Y1497643D1*
X1645350Y1496643D1*
X1645742Y1495643D1*
X1646093Y1494643D1*
X1646479Y1493643D1*
X1646912Y1492643D1*
X1647346Y1491643D1*
X1647703Y1490643D1*
X1647924Y1489643D1*
X1648041Y1488643D1*
X1648115Y1487643D1*
X1560115Y1538643D2*
X1570115D2*
X1570807Y1537643D1*
X1571473Y1536643D1*
X1572114Y1535643D1*
X1572860Y1534643D1*
X1573723Y1533643D1*
X1574658Y1532643D1*
X1575629Y1531643D1*
X1576585Y1530643D1*
X1577487Y1529643D1*
X1578345Y1528643D1*
X1579268Y1527643D1*
X1580328Y1526643D1*
X1581499Y1525643D1*
X1582576Y1524643D1*
X1583463Y1523643D1*
X1583799Y1522643D1*
X1583981Y1521643D1*
X1584063Y1520643D1*
X1584096Y1519643D1*
X1584109Y1518643D1*
X1584113Y1517643D1*
X1584115Y1516643D1*
Y1515643D1*
Y1514643D1*
Y1513643D1*
Y1512643D1*
Y1511643D1*
Y1510643D1*
Y1509643D1*
Y1508643D1*
Y1507643D1*
Y1506643D1*
X1584119Y1505643D1*
X1584157Y1504643D1*
X1584312Y1503643D1*
X1584654Y1502643D1*
X1585115Y1501643D1*
X1670115Y1538643D2*
X1669390Y1537643D1*
X1668631Y1536643D1*
X1667877Y1535643D1*
X1667115Y1534643D1*
X1666333Y1533643D1*
X1665480Y1532643D1*
X1664560Y1531643D1*
X1663624Y1530643D1*
X1662698Y1529643D1*
X1661721Y1528643D1*
X1660595Y1527643D1*
X1659406Y1526643D1*
X1658301Y1525643D1*
X1657388Y1524643D1*
X1656653Y1523643D1*
X1656377Y1522643D1*
X1656227Y1521643D1*
X1656159Y1520643D1*
X1656132Y1519643D1*
X1656121Y1518643D1*
X1656117Y1517643D1*
X1656116Y1516643D1*
Y1515643D1*
Y1514643D1*
Y1513643D1*
X1656115Y1512643D1*
Y1511643D1*
Y1510643D1*
Y1509643D1*
Y1508643D1*
Y1507643D1*
Y1506643D1*
X1656112Y1505643D1*
X1656073Y1504643D1*
X1655919Y1503643D1*
X1655577Y1502643D1*
X1655115Y1501643D1*
X1687115Y1538643D2*
X1689115D2*
X1674115Y1529643D2*
X1673919Y1528643D1*
X1673504Y1527643D1*
X1672839Y1526643D1*
X1672001Y1525643D1*
X1671071Y1524643D1*
X1670099Y1523643D1*
X1669110Y1522643D1*
X1668117Y1521643D1*
X1667158Y1520643D1*
X1666325Y1519643D1*
X1665731Y1518643D1*
X1665393Y1517643D1*
X1665230Y1516643D1*
X1665160Y1515643D1*
X1665132Y1514643D1*
X1665121Y1513643D1*
X1665117Y1512643D1*
X1665116Y1511643D1*
Y1510643D1*
Y1509643D1*
Y1508643D1*
X1665115Y1507643D1*
Y1506643D1*
X1665119Y1505643D1*
X1665155Y1504643D1*
X1665282Y1503643D1*
X1665521Y1502643D1*
X1665778Y1501643D1*
X1665952Y1500643D1*
X1666041Y1499643D1*
X1666044Y1498643D1*
X1665973Y1497643D1*
X1665561Y1496643D1*
X1664535Y1495643D1*
X1663154Y1494643D1*
X1661539Y1493643D1*
X1659807Y1492643D1*
X1657934Y1491643D1*
X1655888Y1490643D1*
X1653677Y1489643D1*
X1651394Y1488643D1*
X1649115Y1487643D1*
X1678115Y1529643D2*
X1679115Y1528643D1*
X1680115Y1529643D2*
X1681115Y1528643D1*
X1553115D2*
X1552115Y1527643D1*
X1565115Y1528643D2*
X1566081Y1527643D1*
X1566984Y1526643D1*
X1567841Y1525643D1*
X1568728Y1524643D1*
X1569666Y1523643D1*
X1570639Y1522643D1*
X1571659Y1521643D1*
X1572745Y1520643D1*
X1573849Y1519643D1*
X1574793Y1518643D1*
X1575557Y1517643D1*
X1575806Y1516643D1*
X1575834Y1515643D1*
X1575664Y1514643D1*
X1575436Y1513643D1*
X1575273Y1512643D1*
X1575184Y1511643D1*
X1575143Y1510643D1*
X1575126Y1509643D1*
X1575119Y1508643D1*
X1575117Y1507643D1*
X1575116Y1506643D1*
Y1505643D1*
Y1504643D1*
X1575115Y1503643D1*
Y1502643D1*
Y1501643D1*
Y1500643D1*
Y1499643D1*
X1575119Y1498643D1*
X1575162Y1497643D1*
X1575268Y1496643D1*
X1575774Y1495643D1*
X1576933Y1494643D1*
X1578370Y1493643D1*
X1580036Y1492643D1*
X1581954Y1491643D1*
X1584088Y1490643D1*
X1586249Y1489643D1*
X1588254Y1488643D1*
X1590115Y1487643D1*
X1525115Y1473643D2*
Y1472643D1*
Y1471643D1*
Y1470643D1*
Y1469643D1*
Y1468643D1*
Y1467643D1*
Y1466643D1*
Y1465643D1*
Y1464643D1*
Y1463643D1*
Y1462643D1*
Y1461643D1*
Y1460643D1*
Y1459643D1*
Y1458643D1*
Y1457643D1*
Y1456643D1*
Y1455643D1*
Y1454643D1*
Y1453643D1*
Y1452643D1*
Y1451643D1*
Y1450643D1*
Y1449643D1*
Y1448643D1*
Y1447643D1*
Y1446643D1*
Y1445643D1*
Y1444643D1*
Y1443643D1*
Y1442643D1*
Y1441643D1*
Y1440643D1*
X1531115Y1473643D2*
Y1472643D1*
Y1471643D1*
Y1470643D1*
Y1469643D1*
Y1468643D1*
Y1467643D1*
Y1466643D1*
Y1465643D1*
Y1464643D1*
Y1463643D1*
Y1462643D1*
Y1461643D1*
Y1460643D1*
X1544115Y1473643D2*
Y1472643D1*
Y1471643D1*
Y1470643D1*
Y1469643D1*
Y1468643D1*
Y1467643D1*
Y1466643D1*
Y1465643D1*
Y1464643D1*
Y1463643D1*
Y1462643D1*
Y1461643D1*
Y1460643D1*
X1550115Y1473643D2*
Y1472643D1*
Y1471643D1*
Y1470643D1*
Y1469643D1*
Y1468643D1*
Y1467643D1*
Y1466643D1*
Y1465643D1*
Y1464643D1*
Y1463643D1*
Y1462643D1*
Y1461643D1*
Y1460643D1*
Y1459643D1*
Y1458643D1*
Y1457643D1*
Y1456643D1*
Y1455643D1*
Y1454643D1*
Y1453643D1*
Y1452643D1*
Y1451643D1*
Y1450643D1*
Y1449643D1*
Y1448643D1*
Y1447643D1*
Y1446643D1*
Y1445643D1*
Y1444643D1*
Y1443643D1*
Y1442643D1*
Y1441643D1*
Y1440643D1*
X1611115Y1473643D2*
Y1472643D1*
Y1471643D1*
Y1470643D1*
Y1469643D1*
Y1468643D1*
Y1467643D1*
Y1466643D1*
Y1465643D1*
Y1464643D1*
Y1463643D1*
X1616115Y1473643D2*
Y1472643D1*
Y1471643D1*
Y1470643D1*
Y1469643D1*
Y1468643D1*
Y1467643D1*
Y1466643D1*
Y1465643D1*
Y1464643D1*
Y1463643D1*
Y1462643D1*
Y1461643D1*
Y1460643D1*
Y1459643D1*
Y1458643D1*
Y1457643D1*
Y1456643D1*
Y1455643D1*
Y1454643D1*
Y1453643D1*
Y1452643D1*
Y1451643D1*
Y1450643D1*
Y1449643D1*
Y1448643D1*
Y1447643D1*
Y1446643D1*
Y1445643D1*
Y1444643D1*
Y1443643D1*
Y1442643D1*
Y1441643D1*
Y1440643D1*
X1562115Y1464643D2*
X1560196Y1463643D1*
X1558657Y1462643D1*
X1557498Y1461643D1*
X1556647Y1460643D1*
X1556018Y1459643D1*
X1555576Y1458643D1*
X1555306Y1457643D1*
X1555115Y1456643D1*
X1569115Y1464643D2*
X1570997Y1463643D1*
X1572404Y1462643D1*
X1573447Y1461643D1*
X1573795Y1460643D1*
X1573980Y1459643D1*
X1574063Y1458643D1*
X1574096Y1457643D1*
X1574109Y1456643D1*
X1574113Y1455643D1*
X1574115Y1454643D1*
Y1453643D1*
Y1452643D1*
Y1451643D1*
Y1450643D1*
Y1449643D1*
Y1448643D1*
Y1447643D1*
X1574119Y1446643D1*
X1574158Y1445643D1*
X1574321Y1444643D1*
X1574689Y1443643D1*
X1575196Y1442643D1*
X1575683Y1441643D1*
X1576115Y1440643D1*
X1580115Y1464643D2*
Y1463643D1*
Y1462643D1*
Y1461643D1*
Y1460643D1*
Y1459643D1*
Y1458643D1*
Y1457643D1*
Y1456643D1*
Y1455643D1*
Y1454643D1*
Y1453643D1*
Y1452643D1*
Y1451643D1*
Y1450643D1*
Y1449643D1*
Y1448643D1*
Y1447643D1*
Y1446643D1*
Y1445643D1*
Y1444643D1*
Y1443643D1*
Y1442643D1*
Y1441643D1*
Y1440643D1*
X1586115Y1464643D2*
Y1463643D1*
Y1462643D1*
X1590115Y1464643D2*
X1589053Y1463643D1*
X1588115Y1462643D1*
X1593115Y1464643D2*
Y1463643D1*
Y1462643D1*
Y1461643D1*
Y1460643D1*
Y1459643D1*
X1590311Y1458643D1*
X1588038Y1457643D1*
X1586930Y1456643D1*
X1586503Y1455643D1*
X1586277Y1454643D1*
X1586178Y1453643D1*
X1586138Y1452643D1*
X1586123Y1451643D1*
X1586118Y1450643D1*
X1586116Y1449643D1*
Y1448643D1*
Y1447643D1*
Y1446643D1*
X1586115Y1445643D1*
Y1444643D1*
Y1443643D1*
Y1442643D1*
Y1441643D1*
Y1440643D1*
X1602115Y1464643D2*
X1600347Y1463643D1*
X1599024Y1462643D1*
X1598032Y1461643D1*
X1597240Y1460643D1*
X1596652Y1459643D1*
X1596210Y1458643D1*
X1595817Y1457643D1*
X1595495Y1456643D1*
X1595294Y1455643D1*
X1595191Y1454643D1*
X1595145Y1453643D1*
X1595127Y1452643D1*
X1595119Y1451643D1*
X1595121Y1450643D1*
X1595155Y1449643D1*
X1595282Y1448643D1*
X1595525Y1447643D1*
X1595821Y1446643D1*
X1596158Y1445643D1*
X1596625Y1444643D1*
X1597242Y1443643D1*
X1598023Y1442643D1*
X1599102Y1441643D1*
X1600526Y1440643D1*
X1602115Y1439643D1*
X1606115Y1464643D2*
X1609115Y1463643D1*
X1620115Y1464643D2*
X1620274Y1463643D1*
X1620557Y1462643D1*
X1620943Y1461643D1*
X1621358Y1460643D1*
X1621707Y1459643D1*
X1621928Y1458643D1*
X1622074Y1457643D1*
X1622250Y1456643D1*
X1622514Y1455643D1*
X1622813Y1454643D1*
X1623117Y1453643D1*
X1623451Y1452643D1*
X1623750Y1451643D1*
X1623946Y1450643D1*
X1624080Y1449643D1*
X1624257Y1448643D1*
X1624550Y1447643D1*
X1624940Y1446643D1*
X1625357Y1445643D1*
X1625707Y1444643D1*
X1625924Y1443643D1*
X1626035Y1442643D1*
X1626086Y1441643D1*
X1626115Y1440643D1*
Y1464643D2*
X1626119Y1463643D1*
X1626155Y1462643D1*
X1626282Y1461643D1*
X1626525Y1460643D1*
X1626817Y1459643D1*
X1627119Y1458643D1*
X1627451Y1457643D1*
X1627750Y1456643D1*
X1627942Y1455643D1*
X1628045Y1454643D1*
X1628128Y1453643D1*
X1628301Y1452643D1*
X1628650Y1451643D1*
X1629115Y1450643D1*
X1634115Y1464643D2*
X1633650Y1463643D1*
X1633328Y1462643D1*
X1633055Y1461643D1*
X1632751Y1460643D1*
X1632468Y1459643D1*
X1632284Y1458643D1*
X1632184Y1457643D1*
X1632105Y1456643D1*
X1631960Y1455643D1*
X1631713Y1454643D1*
X1631454Y1453643D1*
X1631278Y1452643D1*
X1631180Y1451643D1*
X1631115Y1450643D1*
X1639115Y1464643D2*
X1639457Y1463643D1*
X1639755Y1462643D1*
X1639945Y1461643D1*
X1640046Y1460643D1*
X1640126Y1459643D1*
X1640271Y1458643D1*
X1640518Y1457643D1*
X1640780Y1456643D1*
X1640991Y1455643D1*
X1641211Y1454643D1*
X1641493Y1453643D1*
X1641767Y1452643D1*
X1641949Y1451643D1*
X1642044Y1450643D1*
X1642089Y1449643D1*
X1642115Y1448643D1*
X1647115Y1464643D2*
X1646654Y1463643D1*
X1646367Y1462643D1*
X1646217Y1461643D1*
X1646118Y1460643D1*
X1645964Y1459643D1*
X1645711Y1458643D1*
X1645416Y1457643D1*
X1645113Y1456643D1*
X1644780Y1455643D1*
X1644481Y1454643D1*
X1644289Y1453643D1*
X1644190Y1452643D1*
X1644145Y1451643D1*
X1644126Y1450643D1*
X1644119Y1449643D1*
X1644115Y1448643D1*
X1650115Y1464643D2*
X1652115D2*
X1660115D2*
X1658470Y1463643D1*
X1657169Y1462643D1*
X1656224Y1461643D1*
X1655515Y1460643D1*
X1654961Y1459643D1*
X1654553Y1458643D1*
X1654298Y1457643D1*
X1654115Y1456643D1*
X1668115Y1464643D2*
X1669880Y1463643D1*
X1671168Y1462643D1*
X1672033Y1461643D1*
X1672581Y1460643D1*
X1672878Y1459643D1*
X1673018Y1458643D1*
X1673078Y1457643D1*
X1673102Y1456643D1*
X1673111Y1455643D1*
X1673114Y1454643D1*
X1673115Y1453643D1*
Y1452643D1*
Y1451643D1*
Y1450643D1*
Y1449643D1*
Y1448643D1*
Y1447643D1*
X1673119Y1446643D1*
X1673155Y1445643D1*
X1673282Y1444643D1*
X1673522Y1443643D1*
X1673781Y1442643D1*
X1673970Y1441643D1*
X1674115Y1440643D1*
X1679115Y1464643D2*
Y1463643D1*
Y1462643D1*
Y1461643D1*
Y1460643D1*
Y1459643D1*
Y1458643D1*
Y1457643D1*
Y1456643D1*
Y1455643D1*
Y1454643D1*
Y1453643D1*
Y1452643D1*
Y1451643D1*
Y1450643D1*
Y1449643D1*
Y1448643D1*
Y1447643D1*
Y1446643D1*
Y1445643D1*
Y1444643D1*
Y1443643D1*
Y1442643D1*
Y1441643D1*
Y1440643D1*
X1685115Y1464643D2*
Y1463643D1*
Y1462643D1*
X1689115Y1464643D2*
X1688053Y1463643D1*
X1687115Y1462643D1*
X1692115Y1464643D2*
Y1463643D1*
Y1462643D1*
Y1461643D1*
Y1460643D1*
Y1459643D1*
X1689311Y1458643D1*
X1687038Y1457643D1*
X1685930Y1456643D1*
X1685503Y1455643D1*
X1685277Y1454643D1*
X1685178Y1453643D1*
X1685138Y1452643D1*
X1685123Y1451643D1*
X1685118Y1450643D1*
X1685116Y1449643D1*
Y1448643D1*
Y1447643D1*
Y1446643D1*
X1685115Y1445643D1*
Y1444643D1*
Y1443643D1*
Y1442643D1*
Y1441643D1*
Y1440643D1*
X1701115Y1464643D2*
X1699196Y1463643D1*
X1697661Y1462643D1*
X1696533Y1461643D1*
X1695775Y1460643D1*
X1695257Y1459643D1*
X1694831Y1458643D1*
X1694462Y1457643D1*
X1694130Y1456643D1*
X1693786Y1455643D1*
X1693483Y1454643D1*
X1693290Y1453643D1*
X1693190Y1452643D1*
X1693149Y1451643D1*
X1693166Y1450643D1*
X1693290Y1449643D1*
X1693562Y1448643D1*
X1693945Y1447643D1*
X1694362Y1446643D1*
X1694750Y1445643D1*
X1695134Y1444643D1*
X1695658Y1443643D1*
X1696446Y1442643D1*
X1697611Y1441643D1*
X1699230Y1440643D1*
X1701115Y1439643D1*
X1707115Y1464643D2*
X1708881Y1463643D1*
X1710334Y1462643D1*
X1711390Y1461643D1*
X1712133Y1460643D1*
X1712658Y1459643D1*
X1713058Y1458643D1*
X1713433Y1457643D1*
X1713781Y1456643D1*
X1714106Y1455643D1*
X1714443Y1454643D1*
X1714706Y1453643D1*
X1714844Y1452643D1*
X1714534Y1451643D1*
X1714115Y1450643D1*
X1652115Y1463643D2*
X1651957Y1462643D1*
X1651674Y1461643D1*
X1651288Y1460643D1*
X1650873Y1459643D1*
X1650524Y1458643D1*
X1650303Y1457643D1*
X1650157Y1456643D1*
X1649977Y1455643D1*
X1649682Y1454643D1*
X1649291Y1453643D1*
X1648874Y1452643D1*
X1648524Y1451643D1*
X1648303Y1450643D1*
X1648157Y1449643D1*
X1647981Y1448643D1*
X1647717Y1447643D1*
X1647418Y1446643D1*
X1647114Y1445643D1*
X1646780Y1444643D1*
X1646481Y1443643D1*
X1646288Y1442643D1*
X1646184Y1441643D1*
X1646115Y1440643D1*
X1565115Y1460643D2*
X1563508Y1459643D1*
X1562155Y1458643D1*
X1561572Y1457643D1*
X1561115Y1456643D1*
X1567115Y1460643D2*
X1567915Y1459643D1*
X1568498Y1458643D1*
X1568916Y1457643D1*
X1567952Y1456643D1*
X1565638Y1455643D1*
X1562969Y1454643D1*
X1560455Y1453643D1*
X1558461Y1452643D1*
X1557096Y1451643D1*
X1556207Y1450643D1*
X1555556Y1449643D1*
X1555330Y1448643D1*
X1555207Y1447643D1*
X1555151Y1446643D1*
X1555137Y1445643D1*
X1555202Y1444643D1*
X1555374Y1443643D1*
X1556149Y1442643D1*
X1557246Y1441643D1*
X1558613Y1440643D1*
X1560115Y1439643D1*
X1606115Y1460643D2*
X1604467Y1459643D1*
X1603134Y1458643D1*
X1602097Y1457643D1*
X1601276Y1456643D1*
X1600705Y1455643D1*
X1600381Y1454643D1*
X1600225Y1453643D1*
X1600158Y1452643D1*
X1600135Y1451643D1*
X1600164Y1450643D1*
X1600327Y1449643D1*
X1600732Y1448643D1*
X1601392Y1447643D1*
X1602221Y1446643D1*
X1603115Y1445643D1*
Y1460643D2*
X1605680Y1459643D1*
X1607683Y1458643D1*
X1609176Y1457643D1*
X1609704Y1456643D1*
X1610093Y1455643D1*
X1610448Y1454643D1*
X1610747Y1453643D1*
X1610904Y1452643D1*
X1610875Y1451643D1*
X1610680Y1450643D1*
X1610434Y1449643D1*
X1610191Y1448643D1*
X1609900Y1447643D1*
X1609091Y1446643D1*
X1608115Y1445643D1*
X1664115Y1460643D2*
X1662508Y1459643D1*
X1661155Y1458643D1*
X1660572Y1457643D1*
X1660115Y1456643D1*
X1664115Y1460643D2*
X1665719Y1459643D1*
X1667059Y1458643D1*
X1667530Y1457643D1*
X1667834Y1456643D1*
X1664720Y1455643D1*
X1661643Y1454643D1*
X1659083Y1453643D1*
X1657213Y1452643D1*
X1655967Y1451643D1*
X1655149Y1450643D1*
X1654629Y1449643D1*
X1654345Y1448643D1*
X1654210Y1447643D1*
X1654152Y1446643D1*
X1654137Y1445643D1*
X1654198Y1444643D1*
X1654358Y1443643D1*
X1654987Y1442643D1*
X1655833Y1441643D1*
X1656900Y1440643D1*
X1658115Y1439643D1*
X1702115Y1460643D2*
X1701157Y1459643D1*
X1700324Y1458643D1*
X1699727Y1457643D1*
X1699367Y1456643D1*
X1699115Y1455643D1*
X1704115Y1460643D2*
X1705761Y1459643D1*
X1707059Y1458643D1*
X1707979Y1457643D1*
X1708617Y1456643D1*
X1709115Y1455643D1*
X1531115D2*
Y1454643D1*
Y1453643D1*
Y1452643D1*
Y1451643D1*
Y1450643D1*
Y1449643D1*
Y1448643D1*
Y1447643D1*
Y1446643D1*
Y1445643D1*
Y1444643D1*
Y1443643D1*
Y1442643D1*
Y1441643D1*
Y1440643D1*
X1544115Y1455643D2*
Y1454643D1*
Y1453643D1*
Y1452643D1*
Y1451643D1*
Y1450643D1*
Y1449643D1*
Y1448643D1*
Y1447643D1*
Y1446643D1*
Y1445643D1*
Y1444643D1*
Y1443643D1*
Y1442643D1*
Y1441643D1*
Y1440643D1*
X1635115Y1455643D2*
X1635077Y1454643D1*
X1634949Y1453643D1*
X1634710Y1452643D1*
X1634453Y1451643D1*
X1634279Y1450643D1*
X1634182Y1449643D1*
X1634104Y1448643D1*
X1633959Y1447643D1*
X1633713Y1446643D1*
X1633450Y1445643D1*
X1633240Y1444643D1*
X1633019Y1443643D1*
X1632728Y1442643D1*
X1632413Y1441643D1*
X1632115Y1440643D1*
X1636115Y1455643D2*
X1636919Y1454643D1*
X1637504Y1453643D1*
X1637839Y1452643D1*
X1638001Y1451643D1*
X1638075Y1450643D1*
X1638138Y1449643D1*
X1638276Y1448643D1*
X1638523Y1447643D1*
X1638816Y1446643D1*
X1639119Y1445643D1*
X1639451Y1444643D1*
X1639750Y1443643D1*
X1639943Y1442643D1*
X1640047Y1441643D1*
X1640115Y1440643D1*
X1572115Y1452643D2*
X1568551Y1451643D1*
X1565548Y1450643D1*
X1563279Y1449643D1*
X1561578Y1448643D1*
X1560115Y1447643D1*
X1561115Y1446643D1*
X1562115Y1445643D1*
X1571115Y1452643D2*
X1570312Y1451643D1*
X1569723Y1450643D1*
X1569349Y1449643D1*
X1569021Y1448643D1*
X1568548Y1447643D1*
X1567880Y1446643D1*
X1567115Y1445643D1*
X1670115Y1452643D2*
X1666589Y1451643D1*
X1663718Y1450643D1*
X1661737Y1449643D1*
X1660319Y1448643D1*
X1659767Y1447643D1*
X1659863Y1446643D1*
X1660115Y1445643D1*
X1668115Y1452643D2*
Y1451643D1*
X1668112Y1450643D1*
X1668073Y1449643D1*
X1667906Y1448643D1*
X1667504Y1447643D1*
X1666864Y1446643D1*
X1666115Y1445643D1*
X1699115Y1450643D2*
X1699123Y1449643D1*
X1699194Y1448643D1*
X1699358Y1447643D1*
X1699923Y1446643D1*
X1700535Y1445643D1*
X1701115Y1444643D1*
X1709115Y1447643D2*
X1708230Y1446643D1*
X1707199Y1445643D1*
X1706115Y1444643D1*
X1714115Y1447643D2*
X1713957Y1446643D1*
X1713670Y1445643D1*
X1713241Y1444643D1*
X1712617Y1443643D1*
X1711657Y1442643D1*
X1710221Y1441643D1*
X1708294Y1440643D1*
X1706115Y1439643D1*
X1570115Y1442643D2*
X1568115Y1441643D1*
X1566115Y1440643D1*
X1564115Y1439643D1*
X1570115Y1442643D2*
Y1441643D1*
Y1440643D1*
X1667115Y1442643D2*
X1665748Y1441643D1*
X1664046Y1440643D1*
X1662115Y1439643D1*
X1668115Y1442643D2*
Y1441643D1*
Y1440643D1*
X1612115Y1441643D2*
X1609115Y1440643D1*
X1606115Y1439643D1*
X1610115Y1441643D2*
X1611115Y1440643D1*
X957852Y1944484D2*
D71*
X955475D1*
X950667Y1946861D1*
X948290Y1949237D1*
X945914Y1954046D1*
Y1963607D1*
X948290Y1968361D1*
X950667Y1970737D1*
X955475Y1973169D1*
X960228D1*
X965037Y1970737D1*
X972167Y1965984D1*
X996098Y1942052D1*
Y1975546D1*
X945914Y2019670D2*
Y1995793D1*
X967413Y1993417D1*
X965037Y1995793D1*
X962605Y2002978D1*
Y2010108D1*
X965037Y2017293D1*
X969790Y2022102D1*
X976975Y2024478D1*
X981728D1*
X988913Y2022102D1*
X993722Y2017293D1*
X996098Y2010108D1*
Y2002978D1*
X993722Y1995793D1*
X991290Y1993417D1*
X986537Y1990985D1*
X996098Y2039917D2*
X945914Y2073411D1*
X957852Y2091282D2*
X955475D1*
X950667Y2093658D1*
X948290Y2096035D1*
X945914Y2100843D1*
Y2110405D1*
X948290Y2115158D1*
X950667Y2117535D1*
X955475Y2119967D1*
X960228D1*
X965037Y2117535D1*
X972167Y2112782D1*
X996098Y2088850D1*
Y2122343D1*
Y2147344D2*
X945914Y2171276D1*
Y2137783D1*
X1024708Y1642331D2*
Y1592091D1*
X1046264D1*
X1053449Y1594523D1*
X1055825Y1596899D1*
X1058202Y1601652D1*
Y1608837D1*
X1055825Y1613646D1*
X1053449Y1616022D1*
X1046264Y1618399D1*
X1053449Y1620831D1*
X1055825Y1623207D1*
X1058202Y1627961D1*
Y1632769D1*
X1055825Y1637522D1*
X1053449Y1639954D1*
X1046264Y1642331D1*
X1024708D1*
Y1618399D2*
X1046264D1*
X1088011Y1642331D2*
X1083203Y1639954D1*
X1078450Y1635146D1*
X1076018Y1630392D1*
X1073641Y1623207D1*
Y1611214D1*
X1076018Y1604084D1*
X1078450Y1599276D1*
X1083203Y1594523D1*
X1088011Y1592091D1*
X1097573D1*
X1102326Y1594523D1*
X1107134Y1599276D1*
X1109511Y1604084D1*
X1111888Y1611214D1*
Y1623207D1*
X1109511Y1630392D1*
X1107134Y1635146D1*
X1102326Y1639954D1*
X1097573Y1642331D1*
X1088011D1*
X1141697D2*
X1136888Y1639954D1*
X1132135Y1635146D1*
X1129703Y1630392D1*
X1127327Y1623207D1*
Y1611214D1*
X1129703Y1604084D1*
X1132135Y1599276D1*
X1136888Y1594523D1*
X1141697Y1592091D1*
X1151259D1*
X1156012Y1594523D1*
X1160820Y1599276D1*
X1163197Y1604084D1*
X1165573Y1611214D1*
Y1623207D1*
X1163197Y1630392D1*
X1160820Y1635146D1*
X1156012Y1639954D1*
X1151259Y1642331D1*
X1141697D1*
X1197759D2*
Y1592091D1*
X1181013Y1642331D2*
X1214506D1*
X1244315Y1642275D2*
X1237130Y1639899D1*
X1232322Y1632714D1*
X1229945Y1620776D1*
Y1613591D1*
X1232322Y1601652D1*
X1237130Y1594467D1*
X1244315Y1592091D1*
X1249068D1*
X1256253Y1594467D1*
X1261007Y1601652D1*
X1263439Y1613591D1*
Y1620776D1*
X1261007Y1632714D1*
X1256253Y1639899D1*
X1249068Y1642275D1*
X1244315D1*
X1261007Y1632714D2*
X1232322Y1601652D1*
X800472Y1093785D2*
X798095Y1098538D1*
X793287Y1103346D1*
X788534Y1105723D1*
X778972D1*
X774164Y1103346D1*
X769410Y1098538D1*
X766979Y1093785D1*
X764602Y1086600D1*
Y1074606D1*
X766979Y1067477D1*
X769410Y1062668D1*
X774164Y1057915D1*
X778972Y1055483D1*
X788534D1*
X793287Y1057915D1*
X798095Y1062668D1*
X800472Y1067477D1*
X815911Y1096106D2*
X820720Y1098538D1*
X827905Y1105668D1*
Y1055483D1*
X789722Y549978D2*
X787345Y554731D1*
X782537Y559539D1*
X777784Y561916D1*
X768222D1*
X763414Y559539D1*
X758660Y554731D1*
X756229Y549978D1*
X753852Y542793D1*
Y530799D1*
X756229Y523669D1*
X758660Y518861D1*
X763414Y514108D1*
X768222Y511676D1*
X777784D1*
X782537Y514108D1*
X787345Y518861D1*
X789722Y523669D1*
X807593Y549923D2*
Y552299D1*
X809970Y557108D1*
X812346Y559484D1*
X817155Y561861D1*
X826716D1*
X831469Y559484D1*
X833846Y557108D1*
X836278Y552299D1*
Y547546D1*
X833846Y542737D1*
X829093Y535608D1*
X805161Y511676D1*
X838655D1*
X1071001Y1093785D2*
X1068625Y1098538D1*
X1063816Y1103346D1*
X1059063Y1105723D1*
X1049502D1*
X1044693Y1103346D1*
X1039940Y1098538D1*
X1037508Y1093785D1*
X1035132Y1086600D1*
Y1074606D1*
X1037508Y1067477D1*
X1039940Y1062668D1*
X1044693Y1057915D1*
X1049502Y1055483D1*
X1059063D1*
X1063816Y1057915D1*
X1068625Y1062668D1*
X1071001Y1067477D1*
X1091249Y1105668D2*
X1117502D1*
X1103187Y1086545D1*
X1110372D1*
X1115126Y1084168D1*
X1117502Y1081791D1*
X1119934Y1074606D1*
Y1069853D1*
X1117502Y1062668D1*
X1112749Y1057860D1*
X1105564Y1055483D1*
X1098379D1*
X1091249Y1057860D1*
X1088873Y1060292D1*
X1086441Y1065045D1*
X1657375Y1281305D2*
X1654998Y1286058D1*
X1650190Y1290866D1*
X1645437Y1293243D1*
X1635875D1*
X1631067Y1290866D1*
X1626313Y1286058D1*
X1623882Y1281305D1*
X1621505Y1274120D1*
Y1262126D1*
X1623882Y1254996D1*
X1626313Y1250188D1*
X1631067Y1245435D1*
X1635875Y1243003D1*
X1645437D1*
X1650190Y1245435D1*
X1654998Y1250188D1*
X1657375Y1254996D1*
X1696746Y1243003D2*
Y1293187D1*
X1672814Y1259749D1*
X1708684D1*
X1477294Y1281305D2*
X1474918Y1286058D1*
X1470109Y1290866D1*
X1465356Y1293243D1*
X1455794D1*
X1450986Y1290866D1*
X1446233Y1286058D1*
X1443801Y1281305D1*
X1441424Y1274120D1*
Y1262126D1*
X1443801Y1254996D1*
X1446233Y1250188D1*
X1450986Y1245435D1*
X1455794Y1243003D1*
X1465356D1*
X1470109Y1245435D1*
X1474918Y1250188D1*
X1477294Y1254996D1*
X1521418Y1293187D2*
X1497542D1*
X1495165Y1271688D1*
X1497542Y1274064D1*
X1504727Y1276496D1*
X1511857D1*
X1519042Y1274064D1*
X1523850Y1269311D1*
X1526227Y1262126D1*
Y1257373D1*
X1523850Y1250188D1*
X1519042Y1245379D1*
X1511857Y1243003D1*
X1504727D1*
X1497542Y1245379D1*
X1495165Y1247811D1*
X1492733Y1252564D1*
X1659779Y1093785D2*
X1657402Y1098538D1*
X1652594Y1103346D1*
X1647841Y1105723D1*
X1638279D1*
X1633471Y1103346D1*
X1628718Y1098538D1*
X1626286Y1093785D1*
X1623909Y1086600D1*
Y1074606D1*
X1626286Y1067477D1*
X1628718Y1062668D1*
X1633471Y1057915D1*
X1638279Y1055483D1*
X1647841D1*
X1652594Y1057915D1*
X1657402Y1062668D1*
X1659779Y1067477D1*
X1703903Y1098538D2*
X1701527Y1103291D1*
X1694342Y1105668D1*
X1689588D1*
X1682403Y1103291D1*
X1677595Y1096106D1*
X1675218Y1084168D1*
Y1072230D1*
X1677595Y1062668D1*
X1682403Y1057860D1*
X1689588Y1055483D1*
X1691965D1*
X1699095Y1057860D1*
X1703903Y1062668D1*
X1706280Y1069853D1*
Y1072230D1*
X1703903Y1079415D1*
X1699095Y1084168D1*
X1691965Y1086545D1*
X1689588D1*
X1682403Y1084168D1*
X1677595Y1079415D1*
X1675218Y1072230D1*
X1477294Y1087534D2*
X1474918Y1092287D1*
X1470109Y1097096D1*
X1465356Y1099472D1*
X1455794D1*
X1450986Y1097096D1*
X1446233Y1092287D1*
X1443801Y1087534D1*
X1441424Y1080349D1*
Y1068356D1*
X1443801Y1061226D1*
X1446233Y1056417D1*
X1450986Y1051664D1*
X1455794Y1049232D1*
X1465356D1*
X1470109Y1051664D1*
X1474918Y1056417D1*
X1477294Y1061226D1*
X1502295Y1049232D2*
X1526227Y1099417D1*
X1492733D1*
X2102387Y1043780D2*
X2100011Y1048533D1*
X2095202Y1053341D1*
X2090449Y1055718D1*
X2080888D1*
X2076079Y1053341D1*
X2071326Y1048533D1*
X2068894Y1043780D1*
X2066517Y1036595D1*
Y1024601D1*
X2068894Y1017471D1*
X2071326Y1012663D1*
X2076079Y1007910D1*
X2080888Y1005478D1*
X2090449D1*
X2095202Y1007910D1*
X2100011Y1012663D1*
X2102387Y1017471D1*
X2129765Y1055663D2*
X2122635Y1053286D1*
X2120203Y1048533D1*
Y1043724D1*
X2122635Y1038971D1*
X2127388Y1036539D1*
X2136950Y1034163D1*
X2144135Y1031786D1*
X2148888Y1026978D1*
X2151265Y1022224D1*
Y1015039D1*
X2148888Y1010286D1*
X2146512Y1007854D1*
X2139326Y1005478D1*
X2129765D1*
X2122635Y1007854D1*
X2120203Y1010286D1*
X2117827Y1015039D1*
Y1022224D1*
X2120203Y1026978D1*
X2125012Y1031786D1*
X2132141Y1034163D1*
X2141703Y1036539D1*
X2146512Y1038971D1*
X2148888Y1043724D1*
Y1048533D1*
X2146512Y1053286D1*
X2139326Y1055663D1*
X2129765D1*
X424397Y661472D2*
X426773Y654342D1*
X431526Y651911D1*
X436335D1*
X441088Y654342D1*
X443520Y659096D1*
X445896Y668657D1*
X448273Y675842D1*
X453081Y680595D1*
X457835Y682972D1*
X465020D1*
X469773Y680595D1*
X472205Y678219D1*
X474581Y671034D1*
Y661472D1*
X472205Y654342D1*
X469773Y651911D1*
X465020Y649534D1*
X457835D1*
X453081Y651911D1*
X448273Y656719D1*
X445896Y663849D1*
X443520Y673410D1*
X441088Y678219D1*
X436335Y680595D1*
X431526D1*
X426773Y678219D1*
X424397Y671034D1*
Y661472D1*
X469773Y700788D2*
X472205Y698411D1*
X474581Y700788D1*
X472205Y703220D1*
X469773Y700788D1*
X424397Y733029D2*
X426773Y725844D1*
X433958Y721035D1*
X445896Y718659D1*
X453081D1*
X465020Y721035D1*
X472205Y725844D1*
X474581Y733029D1*
Y737782D1*
X472205Y744967D1*
X465020Y749720D1*
X453081Y752152D1*
X445896D1*
X433958Y749720D1*
X426773Y744967D1*
X424397Y737782D1*
Y733029D1*
X433958Y749720D2*
X465020Y721035D1*
X424397Y781962D2*
X426773Y774776D1*
X433958Y769968D1*
X445896Y767591D1*
X453081D1*
X465020Y769968D1*
X472205Y774776D1*
X474581Y781962D1*
Y786715D1*
X472205Y793900D1*
X465020Y798653D1*
X453081Y801085D1*
X445896D1*
X433958Y798653D1*
X426773Y793900D1*
X424397Y786715D1*
Y781962D1*
X433958Y798653D2*
X465020Y769968D1*
X424397Y830894D2*
X426773Y823709D1*
X433958Y818901D1*
X445896Y816524D1*
X453081D1*
X465020Y818901D1*
X472205Y823709D1*
X474581Y830894D1*
Y835647D1*
X472205Y842832D1*
X465020Y847585D1*
X453081Y850017D1*
X445896D1*
X433958Y847585D1*
X426773Y842832D1*
X424397Y835647D1*
Y830894D1*
X433958Y847585D2*
X465020Y818901D1*
X1925507Y498725D2*
X1975747D1*
Y527410D1*
Y581096D2*
X1925507D1*
X1975747Y561973D1*
X1925507Y542849D1*
X1975747D1*
X1935124Y596535D2*
X1932692Y601344D1*
X1925563Y608529D1*
X1975747D1*
X1935124Y623968D2*
X1932692Y628776D1*
X1925563Y635961D1*
X1975747D1*
X1935124Y651401D2*
X1932692Y656209D1*
X1925563Y663394D1*
X1975747D1*
Y688395D2*
X1925563Y712327D1*
Y678833D1*
X1950655Y727766D2*
Y755401D1*
X1925563Y775648D2*
Y801901D1*
X1944686Y787587D1*
Y794772D1*
X1947062Y799525D1*
X1949439Y801901D1*
X1956624Y804333D1*
X1961377D1*
X1968562Y801901D1*
X1973371Y797148D1*
X1975747Y789963D1*
Y782778D1*
X1973371Y775648D1*
X1970939Y773272D1*
X1966186Y770840D1*
X1970939Y822149D2*
X1973371Y819773D1*
X1975747Y822149D1*
X1973371Y824581D1*
X1970939Y822149D1*
X1925563Y844829D2*
Y871082D1*
X1944686Y856767D1*
Y863952D1*
X1947062Y868705D1*
X1949439Y871082D1*
X1956624Y873514D1*
X1961377D1*
X1968562Y871082D1*
X1973371Y866329D1*
X1975747Y859144D1*
Y851958D1*
X1973371Y844829D1*
X1970939Y842452D1*
X1966186Y840020D1*
X1537651Y734537D2*
Y756037D1*
X1535219Y763222D1*
X1532842Y765654D1*
X1528089Y768030D1*
X1523281D1*
X1518528Y765654D1*
X1516096Y763222D1*
X1513719Y756037D1*
Y734537D1*
X1563959D1*
X1537651Y751284D2*
X1563959Y768030D1*
X1523336Y783470D2*
X1520904Y788278D1*
X1513775Y795463D1*
X1563959D1*
X1668915Y723787D2*
Y745287D1*
X1666483Y752472D1*
X1664106Y754904D1*
X1659353Y757280D1*
X1654545D1*
X1649791Y754904D1*
X1647360Y752472D1*
X1644983Y745287D1*
Y723787D1*
X1695223D1*
X1668915Y740534D2*
X1695223Y757280D1*
X1656977Y775152D2*
X1654600D1*
X1649791Y777528D1*
X1647415Y779905D1*
X1645038Y784713D1*
Y794275D1*
X1647415Y799028D1*
X1649791Y801405D1*
X1654600Y803836D1*
X1659353D1*
X1664162Y801405D1*
X1671291Y796651D1*
X1695223Y772720D1*
Y806213D1*
X1793928Y725615D2*
Y747115D1*
X1791496Y754300D1*
X1789119Y756732D1*
X1784366Y759109D1*
X1779558D1*
X1774805Y756732D1*
X1772373Y754300D1*
X1769996Y747115D1*
Y725615D1*
X1820236D1*
X1793928Y742362D2*
X1820236Y759108D1*
X1770051Y779356D2*
Y805609D1*
X1789175Y791294D1*
Y798479D1*
X1791551Y803233D1*
X1793928Y805609D1*
X1801113Y808041D1*
X1805866D1*
X1813051Y805609D1*
X1817860Y800856D1*
X1820236Y793671D1*
Y786486D1*
X1817860Y779356D1*
X1815428Y776980D1*
X1810675Y774548D1*
X1412638Y722599D2*
Y744099D1*
X1410206Y751284D1*
X1407829Y753716D1*
X1403076Y756092D1*
X1398268D1*
X1393515Y753716D1*
X1391083Y751284D1*
X1388706Y744099D1*
Y722599D1*
X1438946D1*
X1412638Y739346D2*
X1438946Y756092D1*
Y795463D2*
X1388761D1*
X1422199Y771531D1*
Y807401D1*
X954940Y1207522D2*
D72*
X980740D1*
X989362Y1210440D1*
X992280Y1213292D1*
X995132Y1218996D1*
Y1224766D1*
X992280Y1230470D1*
X989362Y1233388D1*
X980740Y1236240D1*
X954940D1*
Y1175952D1*
X975036Y1207522D2*
X995132Y1175952D1*
X1050933Y1236240D2*
X1013659D1*
Y1175952D1*
X1050933D1*
X1013659Y1207522D2*
X1036607D1*
X1069460Y1236240D2*
X1092408Y1175952D1*
X1115356Y1236240D1*
X1192204Y1224700D2*
X1197974Y1227618D1*
X1206596Y1236174D1*
Y1175952D1*
X1227975Y1181722D2*
X1225124Y1178804D1*
X1227975Y1175952D1*
X1230894Y1178804D1*
X1227975Y1181722D1*
X1266665Y1236174D2*
X1258043Y1233322D1*
X1252273Y1224700D1*
X1249421Y1210374D1*
Y1201752D1*
X1252273Y1187426D1*
X1258043Y1178804D1*
X1266665Y1175952D1*
X1272369D1*
X1280991Y1178804D1*
X1286695Y1187426D1*
X1289613Y1201752D1*
Y1210374D1*
X1286695Y1224700D1*
X1280991Y1233322D1*
X1272369Y1236174D1*
X1266665D1*
X1286695Y1224700D2*
X1252273Y1187426D1*
M02*
