G04 DipTrace 3.0.0.2*
G04 TopSilk.gbr*
%MOIN*%
G04 #@! TF.FileFunction,Legend,Top*
G04 #@! TF.Part,Single*
%ADD10C,0.009843*%
%ADD15C,0.015748*%
%ADD20C,0.015413*%
%ADD22C,0.015431*%
%ADD72C,0.00772*%
%ADD73C,0.009264*%
%FSLAX26Y26*%
G04*
G70*
G90*
G75*
G01*
G04 TopSilk*
%LPD*%
X1094089Y1787902D2*
D10*
X1294089D1*
Y2087902D1*
X1094089D1*
Y1787902D1*
X1481619Y2031656D2*
X1681619D1*
Y1831656D1*
X1481619D1*
Y2031656D1*
D20*
X1805645Y1470109D3*
X1756541Y1464678D2*
D10*
Y1435163D1*
X1307722Y1628076D2*
Y1598560D1*
X1756541Y1628076D2*
X1307722D1*
X1756541D2*
Y1598560D1*
X1307722Y1464678D2*
Y1435163D1*
X1756541D2*
X1307722D1*
D22*
X2020229Y1063645D3*
X2109479Y1064685D2*
D10*
Y804855D1*
X2219715Y1064685D2*
Y804855D1*
X2109479D2*
X2219715D1*
X2109479Y1064685D2*
X2219715D1*
X1931278Y497014D2*
Y528510D1*
X1727661Y1105389D2*
X1467801D1*
X1727661Y979417D2*
X1467801D1*
Y1105389D2*
Y979417D1*
X1727661Y1105389D2*
Y1062092D1*
Y1022714D2*
Y979417D1*
Y1062092D2*
G03X1727661Y1022714I-9J-19689D01*
G01*
X656572Y919045D2*
X1156530D1*
Y719047D1*
X656572D1*
Y919045D1*
X519640Y2344853D2*
Y1132255D1*
X401556Y2344853D2*
X889831D1*
X401556Y1132255D2*
X889831D1*
Y2344853D2*
Y1132255D1*
X519640Y2013814D2*
X889831D1*
X401556Y2344853D2*
Y1132255D1*
X519640Y1463294D2*
X889831D1*
D15*
X1587875Y608856D3*
X1854624Y2013814D2*
D10*
X2224815D1*
X2342899Y2344853D2*
Y1132255D1*
X1854624Y1463294D2*
X2224815D1*
X1854624Y2344853D2*
Y1132255D1*
Y2344853D2*
X2342899D1*
X1854624Y1132255D2*
X2342899D1*
X2224815Y2344853D2*
Y1132255D1*
X1032860Y1825722D2*
D72*
X1030483D1*
X1025675Y1828098D1*
X1023298Y1830475D1*
X1020921Y1835283D1*
Y1844845D1*
X1023298Y1849598D1*
X1025675Y1851975D1*
X1030483Y1854407D1*
X1035236D1*
X1040045Y1851975D1*
X1047175Y1847222D1*
X1071106Y1823290D1*
Y1856783D1*
Y1881784D2*
X1020921Y1905716D1*
Y1872222D1*
X1071106Y1921155D2*
X1020921Y1954648D1*
X1032860Y1972519D2*
X1030483D1*
X1025675Y1974896D1*
X1023298Y1977273D1*
X1020921Y1982081D1*
Y1991643D1*
X1023298Y1996396D1*
X1025675Y1998772D1*
X1030483Y2001204D1*
X1035236D1*
X1040045Y1998772D1*
X1047174Y1994019D1*
X1071106Y1970087D1*
Y2003581D1*
X1020921Y2047705D2*
Y2023829D1*
X1042421Y2021452D1*
X1040045Y2023829D1*
X1037613Y2031014D1*
Y2038143D1*
X1040045Y2045328D1*
X1044798Y2050137D1*
X1051983Y2052513D1*
X1056736D1*
X1063921Y2050137D1*
X1068730Y2045328D1*
X1071106Y2038143D1*
Y2031014D1*
X1068730Y2023829D1*
X1066298Y2021452D1*
X1061545Y2019020D1*
X1462254Y2104879D2*
Y2054639D1*
X1483810D1*
X1490995Y2057071D1*
X1493371Y2059448D1*
X1495748Y2064201D1*
Y2071386D1*
X1493371Y2076194D1*
X1490995Y2078571D1*
X1483810Y2080948D1*
X1490995Y2083379D1*
X1493371Y2085756D1*
X1495748Y2090509D1*
Y2095318D1*
X1493371Y2100071D1*
X1490995Y2102503D1*
X1483810Y2104879D1*
X1462254D1*
Y2080948D2*
X1483810D1*
X1525557Y2104879D2*
X1520749Y2102503D1*
X1515995Y2097694D1*
X1513564Y2092941D1*
X1511187Y2085756D1*
Y2073762D1*
X1513564Y2066633D1*
X1515995Y2061824D1*
X1520749Y2057071D1*
X1525557Y2054639D1*
X1535119D1*
X1539872Y2057071D1*
X1544680Y2061824D1*
X1547057Y2066633D1*
X1549434Y2073762D1*
Y2085756D1*
X1547057Y2092941D1*
X1544680Y2097694D1*
X1539872Y2102503D1*
X1535119Y2104879D1*
X1525557D1*
X1579243D2*
X1574434Y2102503D1*
X1569681Y2097694D1*
X1567249Y2092941D1*
X1564873Y2085756D1*
Y2073762D1*
X1567249Y2066633D1*
X1569681Y2061824D1*
X1574434Y2057071D1*
X1579243Y2054639D1*
X1588804D1*
X1593558Y2057071D1*
X1598366Y2061824D1*
X1600743Y2066633D1*
X1603119Y2073762D1*
Y2085756D1*
X1600743Y2092941D1*
X1598366Y2097694D1*
X1593558Y2102503D1*
X1588804Y2104879D1*
X1579243D1*
X1635305D2*
Y2054639D1*
X1618559Y2104879D2*
X1652052D1*
X1681861Y2104824D2*
X1674676Y2102447D1*
X1669868Y2095262D1*
X1667491Y2083324D1*
Y2076139D1*
X1669868Y2064201D1*
X1674676Y2057016D1*
X1681861Y2054639D1*
X1686614D1*
X1693799Y2057016D1*
X1698553Y2064201D1*
X1700984Y2076139D1*
Y2083324D1*
X1698553Y2095262D1*
X1693799Y2102447D1*
X1686614Y2104824D1*
X1681861D1*
X1698553Y2095262D2*
X1669868Y2064201D1*
X1181871Y1377360D2*
X1177118Y1374984D1*
X1172310Y1370175D1*
X1169933Y1365422D1*
Y1355861D1*
X1172310Y1351052D1*
X1177118Y1346299D1*
X1181871Y1343867D1*
X1189056Y1341491D1*
X1201050D1*
X1208180Y1343867D1*
X1212988Y1346299D1*
X1217741Y1351052D1*
X1220173Y1355861D1*
Y1365422D1*
X1217741Y1370175D1*
X1212988Y1374984D1*
X1208180Y1377360D1*
X1179550Y1392800D2*
X1177118Y1397608D1*
X1169988Y1404793D1*
X1220173D1*
X1719428Y1366610D2*
X1714675Y1364234D1*
X1709866Y1359425D1*
X1707490Y1354672D1*
Y1345111D1*
X1709866Y1340302D1*
X1714675Y1335549D1*
X1719428Y1333117D1*
X1726613Y1330741D1*
X1738606D1*
X1745736Y1333117D1*
X1750545Y1335549D1*
X1755298Y1340302D1*
X1757730Y1345111D1*
Y1354672D1*
X1755298Y1359425D1*
X1750545Y1364234D1*
X1745736Y1366610D1*
X1719483Y1384482D2*
X1717106D1*
X1712298Y1386858D1*
X1709921Y1389235D1*
X1707545Y1394043D1*
Y1403605D1*
X1709921Y1408358D1*
X1712298Y1410735D1*
X1717106Y1413166D1*
X1721860D1*
X1726668Y1410735D1*
X1733798Y1405981D1*
X1757730Y1382050D1*
Y1415543D1*
X1277273Y887513D2*
X1274897Y892266D1*
X1270088Y897075D1*
X1265335Y899451D1*
X1255773D1*
X1250965Y897075D1*
X1246212Y892266D1*
X1243780Y887513D1*
X1241403Y880328D1*
Y868335D1*
X1243780Y861205D1*
X1246212Y856396D1*
X1250965Y851643D1*
X1255773Y849211D1*
X1265335D1*
X1270088Y851643D1*
X1274897Y856396D1*
X1277273Y861205D1*
X1297521Y899396D2*
X1323774D1*
X1309459Y880273D1*
X1316644D1*
X1321397Y877896D1*
X1323774Y875520D1*
X1326206Y868335D1*
Y863581D1*
X1323774Y856396D1*
X1319021Y851588D1*
X1311836Y849211D1*
X1304651D1*
X1297521Y851588D1*
X1295144Y854020D1*
X1292712Y858773D1*
X1307338Y1281305D2*
X1304962Y1286058D1*
X1300153Y1290866D1*
X1295400Y1293243D1*
X1285838D1*
X1281030Y1290866D1*
X1276277Y1286058D1*
X1273845Y1281305D1*
X1271468Y1274120D1*
Y1262126D1*
X1273845Y1254996D1*
X1276277Y1250188D1*
X1281030Y1245435D1*
X1285838Y1243003D1*
X1295400D1*
X1300153Y1245435D1*
X1304962Y1250188D1*
X1307338Y1254996D1*
X1346709Y1243003D2*
Y1293187D1*
X1322777Y1259749D1*
X1358647D1*
X1139759Y1281305D2*
X1137382Y1286058D1*
X1132574Y1290866D1*
X1127820Y1293243D1*
X1118259D1*
X1113450Y1290866D1*
X1108697Y1286058D1*
X1106265Y1281305D1*
X1103889Y1274120D1*
Y1262126D1*
X1106265Y1254996D1*
X1108697Y1250188D1*
X1113450Y1245435D1*
X1118259Y1243003D1*
X1127820D1*
X1132574Y1245435D1*
X1137382Y1250188D1*
X1139759Y1254996D1*
X1183883Y1293187D2*
X1160006D1*
X1157630Y1271688D1*
X1160006Y1274064D1*
X1167191Y1276496D1*
X1174321D1*
X1181506Y1274064D1*
X1186315Y1269311D1*
X1188691Y1262126D1*
Y1257373D1*
X1186315Y1250188D1*
X1181506Y1245379D1*
X1174321Y1243003D1*
X1167191D1*
X1160006Y1245379D1*
X1157630Y1247811D1*
X1155198Y1252564D1*
X1309742Y1137539D2*
X1307366Y1142293D1*
X1302557Y1147101D1*
X1297804Y1149478D1*
X1288242D1*
X1283434Y1147101D1*
X1278681Y1142293D1*
X1276249Y1137539D1*
X1273872Y1130354D1*
Y1118361D1*
X1276249Y1111231D1*
X1278681Y1106423D1*
X1283434Y1101670D1*
X1288242Y1099238D1*
X1297804D1*
X1302557Y1101670D1*
X1307366Y1106423D1*
X1309742Y1111231D1*
X1353866Y1142293D2*
X1351490Y1147046D1*
X1344305Y1149422D1*
X1339552D1*
X1332367Y1147046D1*
X1327558Y1139861D1*
X1325182Y1127923D1*
Y1115984D1*
X1327558Y1106423D1*
X1332367Y1101614D1*
X1339552Y1099238D1*
X1341928D1*
X1349058Y1101614D1*
X1353866Y1106423D1*
X1356243Y1113608D1*
Y1115984D1*
X1353866Y1123169D1*
X1349058Y1127923D1*
X1341928Y1130299D1*
X1339552D1*
X1332367Y1127923D1*
X1327558Y1123169D1*
X1325182Y1115984D1*
X1139759Y1137539D2*
X1137382Y1142293D1*
X1132574Y1147101D1*
X1127820Y1149478D1*
X1118259D1*
X1113450Y1147101D1*
X1108697Y1142293D1*
X1106265Y1137539D1*
X1103889Y1130354D1*
Y1118361D1*
X1106265Y1111231D1*
X1108697Y1106423D1*
X1113450Y1101670D1*
X1118259Y1099238D1*
X1127820D1*
X1132574Y1101670D1*
X1137382Y1106423D1*
X1139759Y1111231D1*
X1164760Y1099238D2*
X1188691Y1149422D1*
X1155198D1*
X1906406Y1050171D2*
X1904029Y1054924D1*
X1899221Y1059732D1*
X1894468Y1062109D1*
X1884906D1*
X1880097Y1059732D1*
X1875344Y1054924D1*
X1872912Y1050171D1*
X1870536Y1042986D1*
Y1030992D1*
X1872912Y1023862D1*
X1875344Y1019054D1*
X1880097Y1014301D1*
X1884906Y1011869D1*
X1894468D1*
X1899221Y1014301D1*
X1904029Y1019054D1*
X1906406Y1023862D1*
X1933783Y1062054D2*
X1926653Y1059677D1*
X1924222Y1054924D1*
Y1050115D1*
X1926653Y1045362D1*
X1931407Y1042930D1*
X1940968Y1040554D1*
X1948153Y1038177D1*
X1952906Y1033369D1*
X1955283Y1028616D1*
Y1021431D1*
X1952906Y1016677D1*
X1950530Y1014245D1*
X1943345Y1011869D1*
X1933783D1*
X1926653Y1014245D1*
X1924222Y1016677D1*
X1921845Y1021431D1*
Y1028616D1*
X1924222Y1033369D1*
X1929030Y1038177D1*
X1936160Y1040554D1*
X1945721Y1042930D1*
X1950530Y1045362D1*
X1952906Y1050115D1*
Y1054924D1*
X1950530Y1059677D1*
X1943345Y1062054D1*
X1933783D1*
X1443828Y1701244D2*
X1436698Y1698867D1*
X1434266Y1694114D1*
Y1689306D1*
X1436698Y1684553D1*
X1441451Y1682121D1*
X1451013Y1679744D1*
X1458198Y1677367D1*
X1462951Y1672559D1*
X1465328Y1667806D1*
Y1660621D1*
X1462951Y1655868D1*
X1460574Y1653436D1*
X1453389Y1651059D1*
X1443828D1*
X1436698Y1653436D1*
X1434266Y1655868D1*
X1431889Y1660621D1*
Y1667806D1*
X1434266Y1672559D1*
X1439075Y1677367D1*
X1446204Y1679744D1*
X1455766Y1682121D1*
X1460574Y1684553D1*
X1462951Y1689306D1*
Y1694114D1*
X1460574Y1698867D1*
X1453389Y1701244D1*
X1443828D1*
X1483143Y1655868D2*
X1480767Y1653436D1*
X1483143Y1651059D1*
X1485575Y1653436D1*
X1483143Y1655868D1*
X1515385Y1701244D2*
X1508200Y1698867D1*
X1503391Y1691682D1*
X1501014Y1679744D1*
Y1672559D1*
X1503391Y1660621D1*
X1508200Y1653436D1*
X1515385Y1651059D1*
X1520138D1*
X1527323Y1653436D1*
X1532076Y1660621D1*
X1534508Y1672559D1*
Y1679744D1*
X1532076Y1691682D1*
X1527323Y1698867D1*
X1520138Y1701244D1*
X1515385D1*
X1532076Y1691682D2*
X1503391Y1660621D1*
X1564317Y1701244D2*
X1557132Y1698867D1*
X1552324Y1691682D1*
X1549947Y1679744D1*
Y1672559D1*
X1552324Y1660621D1*
X1557132Y1653436D1*
X1564317Y1651059D1*
X1569070D1*
X1576255Y1653436D1*
X1581009Y1660621D1*
X1583440Y1672559D1*
Y1679744D1*
X1581009Y1691682D1*
X1576255Y1698867D1*
X1569070Y1701244D1*
X1564317D1*
X1581009Y1691682D2*
X1552324Y1660621D1*
X1613250Y1701244D2*
X1606065Y1698867D1*
X1601256Y1691682D1*
X1598880Y1679744D1*
Y1672559D1*
X1601256Y1660621D1*
X1606065Y1653436D1*
X1613250Y1651059D1*
X1618003D1*
X1625188Y1653436D1*
X1629941Y1660621D1*
X1632373Y1672559D1*
Y1679744D1*
X1629941Y1691682D1*
X1625188Y1698867D1*
X1618003Y1701244D1*
X1613250D1*
X1629941Y1691682D2*
X1601256Y1660621D1*
X1919438Y579362D2*
X1940993D1*
X1948122Y581739D1*
X1950554Y584171D1*
X1952931Y588924D1*
Y596109D1*
X1950554Y600862D1*
X1948122Y603294D1*
X1940993Y605671D1*
X1919438D1*
Y555431D1*
X1968370Y605671D2*
X1980364Y555431D1*
X1992302Y605671D1*
X2004240Y555431D1*
X2016234Y605671D1*
X2031673Y581739D2*
X2053173D1*
X2060358Y584171D1*
X2062790Y586547D1*
X2065166Y591301D1*
Y596109D1*
X2062790Y600862D1*
X2060358Y603294D1*
X2053173Y605671D1*
X2031673D1*
Y555431D1*
X2048419Y581739D2*
X2065166Y555431D1*
X1569914Y825655D2*
X1591413D1*
X1598598Y828087D1*
X1601030Y830463D1*
X1603407Y835217D1*
Y840025D1*
X1601030Y844778D1*
X1598598Y847210D1*
X1591413Y849587D1*
X1569914D1*
Y799347D1*
X1586660Y825655D2*
X1603407Y799347D1*
X1618846Y839970D2*
X1623655Y842402D1*
X1630840Y849531D1*
Y799347D1*
X1646673Y825655D2*
X1668173D1*
X1675358Y828087D1*
X1677790Y830463D1*
X1680166Y835217D1*
Y840025D1*
X1677790Y844778D1*
X1675358Y847210D1*
X1668173Y849587D1*
X1646673D1*
Y799347D1*
X1663420Y825655D2*
X1680166Y799347D1*
X1698037Y837593D2*
Y839970D1*
X1700414Y844778D1*
X1702790Y847155D1*
X1707599Y849531D1*
X1717161D1*
X1721914Y847155D1*
X1724290Y844778D1*
X1726722Y839970D1*
Y835217D1*
X1724290Y830408D1*
X1719537Y823278D1*
X1695605Y799347D1*
X1729099D1*
X1767647Y731755D2*
X1789146D1*
X1796332Y734186D1*
X1798763Y736563D1*
X1801140Y741316D1*
Y746125D1*
X1798763Y750878D1*
X1796332Y753310D1*
X1789146Y755686D1*
X1767647D1*
Y705446D1*
X1784393Y731755D2*
X1801140Y705446D1*
X1821388Y755631D2*
X1847641D1*
X1833326Y736508D1*
X1840511D1*
X1845264Y734131D1*
X1847641Y731755D1*
X1850073Y724570D1*
Y719816D1*
X1847641Y712631D1*
X1842888Y707823D1*
X1835702Y705446D1*
X1828517D1*
X1821388Y707823D1*
X1819011Y710255D1*
X1816579Y715008D1*
X1437002Y731755D2*
X1458501D1*
X1465687Y734186D1*
X1468118Y736563D1*
X1470495Y741316D1*
Y746125D1*
X1468118Y750878D1*
X1465687Y753310D1*
X1458501Y755686D1*
X1437002D1*
Y705446D1*
X1453748Y731755D2*
X1470495Y705446D1*
X1509866D2*
Y755631D1*
X1485934Y722193D1*
X1521804D1*
X2211443Y738005D2*
X2232943D1*
X2240128Y740437D1*
X2242560Y742814D1*
X2244937Y747567D1*
Y752375D1*
X2242560Y757129D1*
X2240128Y759560D1*
X2232943Y761937D1*
X2211443D1*
Y711697D1*
X2228190Y738005D2*
X2244937Y711697D1*
X2289061Y761882D2*
X2265184D1*
X2262808Y740382D1*
X2265184Y742758D1*
X2272369Y745190D1*
X2279499D1*
X2286684Y742758D1*
X2291493Y738005D1*
X2293869Y730820D1*
Y726067D1*
X2291493Y718882D1*
X2286684Y714074D1*
X2279499Y711697D1*
X2272369D1*
X2265184Y714074D1*
X2262808Y716505D1*
X2260376Y721259D1*
X436136Y1038754D2*
D73*
X461936D1*
X470558Y1041673D1*
X473476Y1044524D1*
X476328Y1050228D1*
Y1055998D1*
X473476Y1061702D1*
X470558Y1064620D1*
X461936Y1067472D1*
X436136D1*
Y1007184D1*
X456232Y1038754D2*
X476328Y1007184D1*
X532129Y1067472D2*
X494855D1*
Y1007184D1*
X532129D1*
X494855Y1038754D2*
X517803D1*
X550656Y1067472D2*
X573604Y1007184D1*
X596552Y1067472D1*
X673400Y1055932D2*
X679170Y1058850D1*
X687792Y1067406D1*
Y1007184D1*
X709171Y1012955D2*
X706319Y1010036D1*
X709171Y1007184D1*
X712089Y1010036D1*
X709171Y1012955D1*
X730616Y1055932D2*
X736386Y1058850D1*
X745008Y1067406D1*
Y1007184D1*
M02*
